<svg viewBox="0 0 330 200" xmlns="http://www.w3.org/2000/svg"><g><g><g><g><g><line x1="41.171875" y1="173.28232896247943" x2="36.171875" y2="173.28232896247943" style="visibility: inherit;" fill="rgb(0, 0, 0)" stroke="rgb(204, 204, 204)" stroke-width="1px"></line><line x1="41.171875" y1="149.1366866015785" x2="36.171875" y2="149.1366866015785" style="visibility: inherit;" fill="rgb(0, 0, 0)" stroke="rgb(204, 204, 204)" stroke-width="1px"></line><line x1="41.171875" y1="124.99104424067757" x2="36.171875" y2="124.99104424067757" style="visibility: inherit;" fill="rgb(0, 0, 0)" stroke="rgb(204, 204, 204)" stroke-width="1px"></line><line x1="41.171875" y1="100.84540187977666" x2="36.171875" y2="100.84540187977666" style="visibility: inherit;" fill="rgb(0, 0, 0)" stroke="rgb(204, 204, 204)" stroke-width="1px"></line><line x1="41.171875" y1="76.69975951887571" x2="36.171875" y2="76.69975951887571" style="visibility: inherit;" fill="rgb(0, 0, 0)" stroke="rgb(204, 204, 204)" stroke-width="1px"></line><line x1="41.171875" y1="52.55411715797478" x2="36.171875" y2="52.55411715797478" style="visibility: inherit;" fill="rgb(0, 0, 0)" stroke="rgb(204, 204, 204)" stroke-width="1px"></line><line x1="41.171875" y1="28.40847479707387" x2="36.171875" y2="28.40847479707387" style="visibility: inherit;" fill="rgb(0, 0, 0)" stroke="rgb(204, 204, 204)" stroke-width="1px"></line><line x1="41.171875" y1="4.262832436172937" x2="36.171875" y2="4.262832436172937" style="visibility: inherit;" fill="rgb(0, 0, 0)" stroke="rgb(204, 204, 204)" stroke-width="1px"></line></g><g transform="translate(31.171875, 0)"><text x="0" y="173.28232896247943" dx="0em" dy="0.3em" style="text-anchor: end; visibility: hidden; font-family: Roboto, sans-serif; font-size: 12px; font-weight: 200;" fill="rgb(33, 33, 33)" stroke="none" stroke-width="1px">0</text><text x="0" y="149.1366866015785" dx="0em" dy="0.3em" style="text-anchor: end; visibility: inherit; font-family: Roboto, sans-serif; font-size: 12px; font-weight: 200;" fill="rgb(33, 33, 33)" stroke="none" stroke-width="1px">0.2</text><text x="0" y="124.99104424067757" dx="0em" dy="0.3em" style="text-anchor: end; visibility: inherit; font-family: Roboto, sans-serif; font-size: 12px; font-weight: 200;" fill="rgb(33, 33, 33)" stroke="none" stroke-width="1px">0.4</text><text x="0" y="100.84540187977666" dx="0em" dy="0.3em" style="text-anchor: end; visibility: inherit; font-family: Roboto, sans-serif; font-size: 12px; font-weight: 200;" fill="rgb(33, 33, 33)" stroke="none" stroke-width="1px">0.6</text><text x="0" y="76.69975951887571" dx="0em" dy="0.3em" style="text-anchor: end; visibility: inherit; font-family: Roboto, sans-serif; font-size: 12px; font-weight: 200;" fill="rgb(33, 33, 33)" stroke="none" stroke-width="1px">0.8</text><text x="0" y="52.55411715797478" dx="0em" dy="0.3em" style="text-anchor: end; visibility: inherit; font-family: Roboto, sans-serif; font-size: 12px; font-weight: 200;" fill="rgb(33, 33, 33)" stroke="none" stroke-width="1px">1</text><text x="0" y="28.40847479707387" dx="0em" dy="0.3em" style="text-anchor: end; visibility: inherit; font-family: Roboto, sans-serif; font-size: 12px; font-weight: 200;" fill="rgb(33, 33, 33)" stroke="none" stroke-width="1px">1.2</text><text x="0" y="4.262832436172937" dx="0em" dy="0.3em" style="text-anchor: end; visibility: hidden; font-family: Roboto, sans-serif; font-size: 12px; font-weight: 200;" fill="rgb(33, 33, 33)" stroke="none" stroke-width="1px">1.4</text></g><line x1="41.171875" y1="0" x2="41.171875" y2="177" fill="rgb(0, 0, 0)" stroke="rgb(204, 204, 204)" stroke-width="1px"></line></g></g><g transform="translate(41, 0)" clip-path="url(#clip_0)"><clipPath id="clip_0"><rect width="288" height="177"></rect></clipPath><g><g><g><line x1="8.812440798530858" y1="0" x2="8.812440798530858" y2="177" fill="rgb(0, 0, 0)" stroke="rgb(66, 66, 66)" stroke-width="1px" opacity="0.25"></line><line x1="36.65767827751632" y1="0" x2="36.65767827751632" y2="177" fill="rgb(0, 0, 0)" stroke="rgb(66, 66, 66)" stroke-width="1px" opacity="0.25"></line><line x1="64.50291575650178" y1="0" x2="64.50291575650178" y2="177" fill="rgb(0, 0, 0)" stroke="rgb(66, 66, 66)" stroke-width="1px" opacity="0.25"></line><line x1="92.34815323548723" y1="0" x2="92.34815323548723" y2="177" fill="rgb(0, 0, 0)" stroke="rgb(66, 66, 66)" stroke-width="1px" opacity="0.25"></line><line x1="120.1933907144727" y1="0" x2="120.1933907144727" y2="177" fill="rgb(0, 0, 0)" stroke="rgb(66, 66, 66)" stroke-width="1px" opacity="0.25"></line><line x1="148.03862819345815" y1="0" x2="148.03862819345815" y2="177" fill="rgb(0, 0, 0)" stroke="rgb(66, 66, 66)" stroke-width="1px" opacity="0.25"></line><line x1="175.88386567244362" y1="0" x2="175.88386567244362" y2="177" fill="rgb(0, 0, 0)" stroke="rgb(66, 66, 66)" stroke-width="1px" opacity="0.25"></line><line x1="203.72910315142906" y1="0" x2="203.72910315142906" y2="177" fill="rgb(0, 0, 0)" stroke="rgb(66, 66, 66)" stroke-width="1px" opacity="0.25"></line><line x1="231.57434063041453" y1="0" x2="231.57434063041453" y2="177" fill="rgb(0, 0, 0)" stroke="rgb(66, 66, 66)" stroke-width="1px" opacity="0.25"></line><line x1="259.41957810939994" y1="0" x2="259.41957810939994" y2="177" fill="rgb(0, 0, 0)" stroke="rgb(66, 66, 66)" stroke-width="1px" opacity="0.25"></line><line x1="287.26481558838543" y1="0" x2="287.26481558838543" y2="177" fill="rgb(0, 0, 0)" stroke="rgb(66, 66, 66)" stroke-width="1px" opacity="0.25"></line></g><g><line x1="0" y1="173.28232896247943" x2="288.828125" y2="173.28232896247943" fill="rgb(0, 0, 0)" stroke="rgb(66, 66, 66)" stroke-width="1px" opacity="0.25"></line><line x1="0" y1="149.1366866015785" x2="288.828125" y2="149.1366866015785" fill="rgb(0, 0, 0)" stroke="rgb(66, 66, 66)" stroke-width="1px" opacity="0.25"></line><line x1="0" y1="124.99104424067757" x2="288.828125" y2="124.99104424067757" fill="rgb(0, 0, 0)" stroke="rgb(66, 66, 66)" stroke-width="1px" opacity="0.25"></line><line x1="0" y1="100.84540187977666" x2="288.828125" y2="100.84540187977666" fill="rgb(0, 0, 0)" stroke="rgb(66, 66, 66)" stroke-width="1px" opacity="0.25"></line><line x1="0" y1="76.69975951887571" x2="288.828125" y2="76.69975951887571" fill="rgb(0, 0, 0)" stroke="rgb(66, 66, 66)" stroke-width="1px" opacity="0.25"></line><line x1="0" y1="52.55411715797478" x2="288.828125" y2="52.55411715797478" fill="rgb(0, 0, 0)" stroke="rgb(66, 66, 66)" stroke-width="1px" opacity="0.25"></line><line x1="0" y1="28.40847479707387" x2="288.828125" y2="28.40847479707387" fill="rgb(0, 0, 0)" stroke="rgb(66, 66, 66)" stroke-width="1px" opacity="0.25"></line><line x1="0" y1="4.262832436172937" x2="288.828125" y2="4.262832436172937" fill="rgb(0, 0, 0)" stroke="rgb(66, 66, 66)" stroke-width="1px" opacity="0.25"></line></g></g></g><g><g><line x1="0" y1="173.28232896247943" x2="288.828125" y2="173.28232896247943" fill="rgb(0, 0, 0)" stroke="rgb(153, 153, 153)" stroke-width="1.5px"></line></g></g><g><g><line x1="8.812440798530858" y1="0" x2="8.812440798530858" y2="177" fill="rgb(0, 0, 0)" stroke="rgb(153, 153, 153)" stroke-width="1.5px"></line></g></g><g><g><g><g><g><path stroke="rgb(204, 51, 17)" stroke-width="2px" d="M9.313655073152598,10.858251273924829L9.48072649802651,19.76516140038459L9.926250297690277,51.11841285470365L9.981940772648247,46.877124867465156L10.065476485085204,50.75318039759455L10.371774097354045,62.04346275222708L10.789452659538826,80.29158840111997L10.872988371975783,84.70868797306173L11.42989312155549,90.92200204851001L11.652655021387377,99.26013278905026L11.764035971303318,98.63741299153276L12.320940720883026,106.7179105762604L13.128452607773605,114.18353642664972L13.211988320210562,110.72450562213821L13.462595457521429,117.40576171713667L13.76889306979027,124.9093136751365L13.908119257185197,126.02302764736787L13.963809732143167,124.47130387549187L15.189000181218528,124.67250535738513L15.328226368613455,125.76840911200458L15.745904930798238,123.15078295220187L15.912976355672152,129.56428640256397L16.05220254306708,125.80571635045415L16.247119205419974,126.21148132561235L16.414190630293888,126.63217469335717L16.943250142394614,121.58580969302398L17.38877394205838,107.75954296593213L17.444464417016352,120.24109348769741L17.667226316848232,121.9489232306317L18.00136916659606,115.1069585398767L18.25197630390693,123.11323284461035L18.474738203738813,130.39829998865704L18.920262003402577,133.4512540095604L19.031642953318524,125.77162632294504L20.535285777183734,128.53114513851648L20.563131014662723,135.61271196028542L21.036500051805476,132.32203725235624L21.12003576424243,130.99318508849004L21.203571476679386,130.54579184698494L21.62125003886417,127.84722766070352L21.704785751301124,136.65888531832596L21.732630988780112,140.3182439318322L22.011083363569963,135.77207438839002L22.54014287567069,138.58993084300604L23.124892862729382,141.4893749490628L23.598261899872135,138.37988542592336L23.737488087267064,130.13280381645478L24.48930949919967,132.09008367898107L24.767761873989528,126.34513386579329L24.93483329886344,135.01133723599332L25.129749961216334,131.9771500551651L25.157595198695322,133.88573214546207L25.575273760880105,131.82361371180536L26.07648803550184,127.54233263612403L26.132178510459813,136.2418535724872L26.466321360207637,136.8326670367806L26.66123802256054,136.37070124652973L26.68908326003952,132.75963537324432L26.74477373499749,126.87667716175199L26.82830944743445,122.51938097619902L26.88399992239242,129.9409037287037L27.218142772140244,135.2345892836206L27.496595146930098,144.5798327897545L27.96996418407285,141.01622161772065L28.693940358526472,143.78765194590844L28.805321308442416,135.31490746420673L28.916702258358356,141.62966414708686L29.139464158190243,146.38220141182336L29.39007129550111,146.33967041102647L29.75205938272792,141.60460108852337L29.86344033264386,143.7807210494847L30.11404746995473,134.88535674375748L30.225428419870674,140.92839835278042L30.281118894828644,139.24089035236872L30.336809369786614,145.6601443001818L30.531726032139513,142.90050356242517L30.670952219534442,137.90234436365037L30.726642694492412,136.02250011880017L30.86586888188734,141.53945514617746L30.921559356845314,137.69909337326789L31.032940306761255,137.55634186114537L31.144321256677195,140.9992065420612L31.31139268155111,134.6852331499633L31.339237919030094,135.27882596601447L31.97967838104676,141.51109355317908L32.0910593309627,141.78413753597877L33.00995216776922,141.3634200867436L33.204868830122116,141.94751734212355L33.371940254996034,130.4525598724886L33.76177357970183,112.99243246044072L33.87315452961777,126.68761743866254L34.06807119197067,132.8477770286598L34.12376166692864,138.26041774952512L34.290833091802554,131.31160585615325L34.346523566760524,135.27874422335506L34.736356891466315,133.40293655472522L34.76420212894531,132.7636169151287L35.04265450373516,137.52648229507335L35.12619021617212,142.40756000973585L35.376797353482985,145.12890536008143L35.488178303398925,142.81684220840506L35.59955925331487,145.72970623063296L35.85016639062574,139.11135080174606L35.87801162810472,135.78395879362583L36.04508305297863,137.36656922336377L36.072928290457625,141.8613528976132L36.21215447785255,145.42626122586944L36.71336875247428,144.7028784212391L36.79690446491124,141.43805724112616L37.047511602222116,144.13001563280085L37.882868726591674,128.1226937789159L38.24485681381849,131.08775981197198L38.4119282386924,135.66871857008965L38.49546395112935,133.93576515448154L38.55115442608733,131.7250517474294L38.66253537600327,141.05224283078667L38.82960680087718,135.8035574214853L38.96883298827211,139.4188204727233L39.24728536306196,142.2320694490083L39.41435678793587,147.05648041355258L39.5535829753308,146.0611668589945L39.832035350120655,150.78778901301774L41.00153532423805,150.41435094047287L41.11291627415399,146.64403302279302L41.140761511632974,141.25856009814265L41.16860674911196,144.9821500426572L41.6698210237337,150.60712522105862L42.03180911096051,146.25436546470323L42.393797198187315,150.77908850342746L43.11777337264094,149.6246685745474L43.45191622238876,136.421303867869L43.7582138346576,139.11653218061687L43.841749547094565,141.85540597576545L43.92528525953152,144.06642330713507L44.48219000911123,144.48781764365262L44.649261433985146,145.03033489904L44.84417809633804,147.08784066953385L45.01124952121195,143.56576060100335L45.45677332087572,145.99851561229497L45.540309033312674,143.19218204293048L45.84660664558152,129.04175449465475L45.93014235801847,137.23222834157914L46.01367807045543,139.59945722151988L46.04152330793441,140.11396179322136L47.378094706925715,133.91928493314427L47.46163041936267,139.2832246803002L47.545166131799625,138.72205619171524L47.57301136927862,142.16094908534222L48.18560659381629,141.79269796121696L48.51974944356412,139.6776880072666L48.575439918522086,146.5842046398321L48.798201818353974,138.7857015439132L48.909582768269914,135.40872199537944L49.605713705244554,142.72317525628694L49.63355894272354,143.69678820152942L49.939856554992375,138.45303039268003L50.16261845482426,141.93454831067518L50.2739994047402,142.62135749313248L50.32968987969818,140.9927983755648L51.22073747902571,144.30378641961482L51.33211842894165,144.13126245647678L52.02824936591629,147.5361754187644L52.473773165580056,149.66548481663173L52.501618403059034,149.81786951165932L52.91929696524382,144.72815359009707L53.03067791515976,143.03969885373047L53.47620171482353,146.6338868511576L53.50404695230252,138.05562014299355L53.86603503952932,140.77475922771976L54.116642176840195,143.97168683158833L54.25586836423512,143.14636554286577L54.395094551630045,142.5870956048133L54.47863026406701,144.94480598449906L54.61785645146194,146.63167632983144L54.70139216389889,152.7457310445492L55.035535013646715,152.7635677074299L55.2582969134786,148.3653540498352L55.45321357583149,151.0640200075903L55.64813023818439,148.5979524002667L55.898737375495266,146.947612819044L56.010118325411206,143.0385238843844L56.065808800369176,142.72157052526123L56.12149927532715,138.82074448369357L56.20503498776411,144.66794919048417L56.399951650116996,146.82186960111827L56.650558787427876,138.51394262649512L56.929011162217726,145.01884396880266L57.040392112133674,140.42384420543758L57.09608258709165,144.7326812227155L57.179618299528606,149.6021243087403L57.31884448692353,142.71498059055943L57.402380199360486,139.10585088440948L57.43022543683947,143.5748062466172L57.98713018641918,140.96459917218715L58.23773732373005,141.94489639147508L58.40480874860396,122.57703451935272L58.59972541095686,135.4689077739501L58.62757064843584,146.2756360983626L58.878177785746715,149.8885583020093L59.07309444809962,148.80709723363793L59.6578444351583,150.32450599970585L59.76922538507425,150.68132415233734L60.04767775986411,143.547164717347L60.15905870978005,147.30565331611595L60.40966584709091,144.7908734415984L60.771653934317726,145.38734256351515L60.85518964675469,143.28957891601078L61.02226107162859,134.43628641270047L61.07795154658657,143.17988088489966L62.024689620872074,149.12573263311455L62.191761045745984,147.3684439504858L62.66513008288874,149.4541223852129L62.94358245767859,149.56187445734832L63.02711817011555,147.81895900816082L63.08280864507352,148.1367970782138L63.58402291969526,148.8912517460406L63.973856244401055,151.9907584669281L64.02954671935903,156.21984242551343L64.53076099398076,151.39758578271022L64.6421419438967,152.93712583752415L64.86490384372858,153.67921083228327L65.33827288087134,147.71272352398628L65.50534430574525,154.29636818300315L66.17363000524091,148.28703641492407L66.53561809246771,140.7662107583892L66.61915380490467,139.6881408687826L66.64699904238365,140.75171582049396L66.70268951734162,141.49895157815405L66.7583799922996,144.5107552547321L66.86976094221555,144.84702452787693L66.98114189213149,148.86995354621368L67.17605855448438,150.95223471621097L67.59373711666916,149.70289837947215L68.54047519095467,155.39648231669776L68.6518561408706,150.28642745023885L68.84677280322352,147.65581500585114L69.09737994053438,147.09637419587492L69.4315227902822,147.21242688092354L69.70997516507207,147.3235338591637L69.76566564003002,135.47303128435829L69.821356114988,137.98607417805093L69.96058230238293,142.67911701518722L70.04411801481989,149.81292623691934L70.26687991465177,143.0206714287645L70.37826086456771,141.19120424539375L70.93516561414741,142.0912309756876L71.07439180154235,148.1662012228775L71.10223703902133,144.3439204653365L71.1579275139793,140.06466649716322L71.24146322641626,140.16383839550954L71.3528441763322,147.70093388428205L71.38068941381118,151.7281870558217L71.57560607616408,150.55853770709322L71.65914178860103,147.51058306538891L71.79836797599597,152.3175563695635L72.32742748809669,144.2506088455654L72.60587986288654,141.5135941228687L72.77295128776046,147.2150460311422L72.94002271263437,146.24078250795216L73.05140366255031,145.03631024222483L73.38554651229813,133.62611621252935L73.41339174977712,146.94752914694823L74.10952268675176,144.81267269697184L74.36012982406262,146.74135081059552L75.33471313582712,152.650053664336L75.36255837330611,155.4675477214205L75.41824884826407,159.37385145488142L75.80808217296988,160.21453499844569L76.64343929733944,159.07407374001045L76.86620119717132,157.77862736637587L77.06111785952422,154.31559042944198L77.1168083344822,151.57779779199907L77.17249880944016,155.26905577588477L77.31172499683508,153.10990038850892L78.00785593380972,154.6902273867531L78.03570117128871,147.521889880726L78.31415354607857,149.42273457702208L78.36984402103653,154.03541223932953L78.50907020843145,149.6451322926179L78.89890353313726,151.284988070888L79.06597495801117,150.7107562492554L79.31658209532205,154.46783608290988L79.73426065750682,151.73974548861395L79.84564160742278,153.49599094515307L79.90133208238073,154.4461206812766L80.26332016960754,152.08163981180275L80.59746301935537,148.3657108849098L80.9316058691032,141.84125645498435L81.21005824389306,146.95807401871238L81.37712966876695,149.27030452976112L81.85049870590971,154.83098751604336L82.01757013078362,155.20087521206003L82.04541536826261,152.92624215048866L82.4352486929684,153.67704065354621L82.60232011784232,152.78431353949475L82.74154630523725,150.24332667972106L83.38198676725392,150.98339812868502L83.57690342960682,151.493766181467L83.71612961700174,149.57233372098693L84.07811770422856,152.93138426749724L84.27303436658146,144.53051182411156L84.69071292876625,143.74317619588803L85.02485577851405,144.378850092257L85.108391490951,148.81445016696242L85.49822481565681,154.3740922785989L85.52607005313581,152.04620160531158L85.58176052809377,146.42766095459382L86.4728081274213,153.9708546075527L86.50065336490029,149.72026230149459L86.52849860237927,149.8542051759435L86.72341526473218,148.47254135924652L87.02971287700102,152.72899574396246L87.4473914391858,155.85110832219812L87.58661762658072,157.788686183133L88.7839628381771,156.10403604778358L89.03456997548795,149.61991941685352L89.28517711279883,153.08848147499756L89.45224853767274,155.30759300930933L89.56362948758868,157.08140112200965L90.03699852473144,152.11248623772886L90.09268899968941,153.74091313518903L90.1205342371684,142.08396234753263L91.42926039868073,138.45920905692824L91.6520222985126,144.57215900497613L92.29246276052926,145.2093401473784L92.54306989784013,148.62333288468986L92.65445084775607,153.81093428602694L92.76583179767202,144.91060371839575L92.793677035151,150.63459336571L93.09997464741984,152.0262546186303L93.1835103598568,157.63455310024062L93.40627225968868,153.06217164602282L93.48980797212563,155.24001453393942L94.1580936716213,156.84830340140834L94.26947462153723,155.34267803202926L94.3251650964952,156.0847516709405L95.1048317459068,153.89554258702478L95.74527220792346,156.6753276053775L96.16295077010824,160.5165957929014L96.38571266994012,151.12625337873024L96.52493885733504,154.84939722483867L96.66416504472997,153.749462616625L96.77554599464592,145.20154572654974L96.8312364696039,143.5374470163555L97.27676026926765,146.88434798800108L97.7779745438894,148.7205115512769L97.80581978136837,147.687275650173L98.00073644372128,141.25471218628184L98.08427215615824,147.48214143698252L98.75255785565389,152.77791290025544L98.83609356809085,148.4527281675416L99.03101023044374,142.14778795908524L99.1145459428807,148.97260828050096L99.1423911803597,147.50806919898505L99.19808165531765,141.48972618963535L99.22592689279665,144.73452871120477L99.92205782977128,147.04185812847993L100.17266496708214,147.88182223311568L100.8409506665778,141.93186454893095L101.06371256640968,146.03406218489866L101.45354589111547,145.65353267325656L101.48139112859447,149.06032650100641L101.95476016573723,150.98792175786525L102.7622720526278,150.74159802093678L102.81796252758576,151.25180471921385L103.09641490237563,151.36469484619187L103.56978393951837,142.88404034117713L103.7090101269133,151.76371723084404L104.32160535145097,156.18781701520513L104.40514106388794,154.72923580842107L104.54436725128285,155.39509662820848L104.8506648635517,157.69987651266885L104.90635533850968,153.94546141182443L105.10127200086256,156.3099291401633L105.26834342573649,153.93864005694564L105.46326008808938,149.42456400849218L105.6303315129633,155.18695895460365L105.71386722540025,145.15377158400577L106.18723626254301,146.48944433246533L106.52137911229083,152.97683824072917L106.60491482472779,145.55063413696294L106.7998314870807,147.9856621550311L107.24535528674446,152.65582515962453L107.30104576170243,155.7669258537023L107.46811718657634,154.02960230901147L107.57949813649228,155.1866878432231L108.02502193615604,157.1814923932145L108.4983909732988,158.73706685297313L109.05529572287851,157.39947596336492L109.55650999750024,153.52499036126295L109.61220047245821,144.3372090786936L109.6678909474162,147.91414224300783L109.75142665985315,151.9193012541432L109.83496237229011,147.60458098277408L110.30833140943285,154.53536058533368L110.61462902170169,150.1528616810593L111.0044623464075,149.98696187574174L111.83981947077706,143.40090972480078L111.89550994573501,148.6336943657622L112.56379564523068,152.22719433627293L112.67517659514661,144.75775870952L112.73086707010458,148.06569832795685L112.8979384949785,152.04861744777904L112.98147420741546,153.00608892514634L113.03716468237343,152.8393819503625L113.2877718196843,143.23280091469618L113.48268848203719,151.6628214884738L113.84467656926401,151.85474718664744L114.06743846909589,152.92834072372779L114.4294265563227,159.478568772244L114.48511703128067,159.18309017202887L114.56865274371762,156.23021677761352L114.90279559346546,156.50223810810928L115.0141765433814,154.46271147451353L115.15340273077632,156.28335199542144L115.2090932057343,157.86004291231478L115.48754558052416,161.45118414061523L115.59892653044008,158.8862362527596L116.40643841733068,155.50787668484094L116.5456646047256,150.9549868305496L116.74058126707848,156.42416179808362L117.96577171615385,160.28324024875434L118.18853361598573,156.03243227692386L118.38345027833864,156.2122006055767L118.49483122825457,155.56429632017068L118.80112884052342,160.39086709583069L118.96820026539733,161.87360516294186L119.13527169027125,163.76296359963578L119.74786691480892,159.92474951012784L120.05416452707777,160.63888003476055L120.1933907144727,157.27824746740527L120.44399785178355,161.0769094925036L120.47184308926255,160.2836877529898L120.80598593901037,154.47747777111132L121.11228355127922,155.01530807361686L121.19581926371617,160.40027857688716L121.47427163850602,157.34953993794284L122.78299780001835,157.20081326449696L122.92222398741328,156.56032985811277L122.95006922489225,156.07040093070626L123.22852159968211,155.00506593212108L125.26122393564805,151.80596974944012L125.56752154791688,156.15306641105153L125.59536678539587,155.79365023872083L125.65105726035384,156.80955384224131L125.70674773531181,159.97883647469664L125.79028344774876,159.2197634423551L125.81812868522776,157.54410319464614L126.51425962220239,156.7544873267082L126.65348580959731,157.81521716281998L126.73702152203427,153.6395151076575L126.95978342186615,155.7887627920365L127.26608103413498,146.8709113712069L127.51668817144586,152.4812437435173L127.60022388388282,155.56668298794187L127.62806912136182,157.19197749106L128.04574768354658,156.2955002612961L128.49127148321034,150.97052023256833L128.65834290808428,150.12764111255873L128.76972385800022,151.5370635655786L129.02033099531107,154.78190551717353L129.07602147026904,152.33709482160756L129.32662860757992,155.30892541735912L129.43800955749586,158.41759664517454L129.60508098236977,158.3980599528047L129.7443071697647,157.99249069419173L130.46828334421832,148.15218293900756L130.7188904815292,146.835817074529L131.13656904371396,151.0172934865687L131.33148570606687,149.96529558812597L131.49855713094078,154.9960709442742L131.60993808085672,146.07610208979182L131.63778331833572,151.17468856150188L132.16684283043645,151.77422027436586L132.2503785428734,156.53341745300963L132.4174499677473,155.5334378093826L133.25280709211685,157.60869288248418L133.4198785169908,159.1241863520716L133.83755707917558,161.73400667029387L133.89324755413352,159.07630081989925L134.36661659127628,162.35194139169937L134.39446182875525,164.357581206502L134.92352134085598,156.32109060294044L134.95136657833498,155.96390938686238L135.03490229077195,158.79754578461956L135.2855094280828,160.8055928329751L135.59180704035163,155.2652290654244L136.28793797732627,151.62232322787366L136.37147368976323,156.28313188637168L136.67777130203208,152.44020788772602L136.76130701446903,154.69888396089647L136.816997489427,151.94788792965105L136.872687964385,151.42032598957695L137.20683081413281,146.8274947531679L137.68019985127555,146.47613895881432L138.26494983833425,150.98555501210078L138.45986650068716,157.8820482846534L138.68262840051904,159.98860849771668L138.79400935043498,159.49946288032018L138.98892601278789,161.15732220406244L139.01677125026686,155.6211264439131L139.04461648774586,155.1482997692308L139.3230688625357,155.00338581060134L140.04704503698932,157.90939497763512L140.18627122438426,159.77948282568093L140.63179502404802,161.55581472330363L140.93809263631687,162.99537213745324L141.04947358623278,155.31492584362564L141.07731882371178,155.1015667822708L141.30008072354366,149.65957218222877L141.38361643598063,152.19789301408352L141.46715214841757,156.5422276327958L141.55068786085454,157.7307402861065L141.8012949981654,154.31902988899014L141.91267594808136,150.28595262994148L142.10759261043424,148.99554635952475L142.13543784791324,140.1641607661453L142.30250927278715,148.62517844017313L142.46958069766106,150.45972096407039L142.52527117261903,151.66057037657075L142.608806885056,146.71964742501106L143.58339019682046,140.7559317532731L143.9175330465683,146.19262314940028L144.44659255866904,151.9217185710277L144.50228303362698,154.87577519129388L145.0313425457277,155.8990274666534L145.08703302068568,154.0585447916494L145.64393777026538,155.65145652451392L146.31222346976105,153.10918086577678L146.39575918219802,147.47969702643758L146.7577472694248,153.83126816892417L146.98050916925672,148.2205767914772L147.23111630656754,155.36296685122207L147.3146520190045,151.76189025082462L147.37034249396248,158.63290829475602L147.39818773144148,157.99194651202174L147.78802105614727,153.09915022858445L148.62337818051682,156.2310318504333L148.79044960539076,153.1432684618712L148.8739853178277,158.13675745709168L149.0689019801806,154.5799515177952L149.4308900674074,156.17057605424472L149.4865805423654,150.8571363919169L149.51442577984437,154.67136084842033L149.70934244219728,149.53230863333556L150.210556716819,155.51764440904566L150.85099717883566,156.97317316988463L150.9902233662306,158.65394790329844L151.5471281158103,160.71190460915645L151.6028185907683,158.179785643562L151.7698900156422,156.34443522347496L152.49386619009582,159.6520758630862L152.63309237749075,158.43557317094275L152.99508046471757,158.3697451685737L153.1064614146335,158.80187568614156L153.60767568925525,162.28854285405376L153.8304375890871,161.4038011736628L154.4708780511038,160.47800650083133L154.55441376354077,157.67465035428864L154.58225900101974,157.8996148567382L154.69363995093568,160.92595958577093L154.72148518841465,154.3505005967726L155.4454613628683,152.57598362055484L156.08590182488496,155.20730346677973L156.44788991211175,147.66089753434622L156.8934137117755,147.4749924926322L157.1997113240444,151.99548600463308L157.64523512370815,156.52396992679093L158.0350684484139,155.7082994340089L158.0629136858929,141.45112823231L158.61981843547264,146.03823844016438L159.28810413496825,148.9591412189451L159.34379460992625,157.22702055936142L159.73362793463204,155.99963391782032L160.26268744673274,143.12598768488664L160.29053268421177,152.68719299078936L160.3462231591697,152.3694181733708L160.48544934656465,157.13856193942212L161.5157231332871,155.7939654894667L161.71063979564002,155.91425982902976L161.82202074555593,159.11580926919837L161.98909217042987,152.40645742411638L162.15616359530378,156.7326750325613L162.2953897826987,157.74045319449587L162.37892549513563,156.53690072541815L162.43461597009363,152.21841372233993L162.85229453227842,148.100538393863L163.1029016695893,151.09660293445378L163.32566356942115,158.10339274349994L163.79903260656394,156.2532145499749L163.93825879395885,152.35541347361126L163.99394926891682,150.7488975132324L164.32809211866464,153.92857407486505L164.3837825936226,156.0775012331434L164.55085401849652,150.588659452022L164.88499686824434,143.4057785144449L165.02422305563925,153.38582582772878L165.30267543042913,153.98834538942037L165.58112780521898,156.37534417874357L166.3607944546306,156.98488522492025L166.41648492958853,156.6192906927429L166.52786587950447,159.9810934219366L166.94554444168926,156.5350505851117L168.08719917832767,153.49827341634852L168.17073489076463,153.2682900005138L168.67194916538637,158.3331333407096L169.17316344000812,158.81636225442745L169.64653247715086,158.42297535171994L169.73006818958783,153.52681291712318L169.86929437698274,158.72291011581743L170.00852056437768,159.8859565730151L170.5097348389994,160.34323566482627L170.5375800764784,162.41583772882996L171.01094911362114,160.8295098435547L171.09448482605808,163.06510339388825L171.28940148841102,164.20528416823944L172.0412229003436,163.10992545309404L172.0969133753016,156.06012073401067L172.29183003765448,158.95256559954936L172.79304431227624,159.72356490398667L172.84873478723418,156.11956255117033L173.04365144958706,160.0258697265518L173.29425858689794,156.6855552312513L173.5727109616878,161.4663394286519L173.6005561991668,159.4766365207085L173.87900857395664,157.63758954676084L173.99038952387258,159.17231767179197L174.01823476135158,160.14308768816872L174.5472942734523,158.93967775210123L174.68652046084722,160.00301908830147L174.74221093580522,161.7202775358074L174.85359188572113,156.78349574299216L175.104199023032,156.91199455808743L175.60541329765377,154.0446414075967L176.16231804723347,157.1265358320162L176.30154423462838,154.121316338321L176.55215137193923,157.9248563287799L176.71922279681317,153.04305132951745L176.74706803429217,157.45971913906638L176.8584489842081,156.75738909520217L176.94198469664505,156.63182498961973L177.55457992118275,155.81364591134218L178.05579419580445,159.31795105806725L178.16717514572042,157.19597472422726L178.30640133311533,152.2655541230651L178.5013179954682,154.30580058891982L178.7519251327791,154.11099395666972L178.8076156077371,152.33831044478273L179.0860679825269,153.1864875895499L179.25313940740085,149.21942840429205L179.30882988235882,153.12285746342837L179.47590130723273,152.5084847803154L179.5315917821907,157.55989550366485L179.58728225714867,154.0101269931153L179.92142510689652,159.1161384910973L179.97711558185446,156.43079028173332L180.03280605681243,157.57910692241393L180.6732465188291,158.98457979168313L180.92385365613998,151.76384558045513L181.00738936857692,153.07193122385965L181.45291316824068,155.3044335394408L181.73136554303053,158.22849983272613L181.7592107805095,152.88170363665333L181.8149012554675,157.8703190446759L181.9819726803414,159.08617522101162L182.14904410521532,156.81736067822928L182.34396076756823,161.12345939022197L182.48318695496317,155.97147780462137L182.67810361731605,146.89251073422994L182.84517504218996,154.28750118039528L183.20716312941678,152.70323775522758L183.9311393038704,155.2370613728783L184.57157976588707,153.83249519034746L184.682960715803,147.53493910462151L184.710805953282,148.40395432588448L184.9057226156349,147.5893949415159L185.37909165277765,154.66985374061107L185.6853892650465,153.20857054555148L185.99168687731532,156.89688161585457L186.18660353966823,154.99900216020427L186.35367496454214,154.73013390854817L187.02196066403778,151.5766297008735L188.553448725382,148.05695092699395L188.66482967529794,149.19736884380129L189.02681776252473,154.6872544009055L189.33311537479355,156.5854774194261L189.44449632470952,158.3425774831385L189.6672582245414,149.91568637484093L189.6951034620204,151.53614459897426L189.80648441193634,155.7705503163268L190.05709154924722,161.13374478798377L190.0849367867262,159.38221922010842L190.36338916151604,158.75390402865278L190.391234398995,155.11881350992897L190.419079636474,150.23726858651577L190.6418415363059,151.79996335949878L191.19874628588562,151.96334074698876L191.86703198538126,154.7894194062015L192.03410341025517,159.3078581680104L192.06194864773414,154.3522553489775L192.1454843601711,154.5883942524476L192.423936734961,155.53075647506748L192.6745438722718,158.7901484770653L192.75807958470878,160.0396457086316L193.03653195949863,156.37546929491268L193.17575814689357,155.72715359908713L194.17818669613703,154.17417628215807L194.4287938334479,151.7678149101715L194.48448430840588,157.89829625287132L194.59586525832182,159.71197597382968L194.76293668319573,157.60575407490435L194.8464723956327,157.21336848226184L195.04138905798558,157.38832932610927L195.2641509578175,160.26809259530594L195.34768667025443,163.60147621919364L195.5704485700863,155.633635836534L195.68182952000228,159.02958145934934L195.79321046991822,160.1553355126086L196.43365093193486,155.7674157199781L196.5450318818508,155.12931116159763L196.7399485442037,155.07319116365278L196.85132949411965,152.6174878227619L197.15762710638847,155.78385636430264L197.49176995613632,159.9489849127712L197.93729375580008,159.76633328196363L198.63342469277472,162.56916659476263L199.05110325495951,157.6884797296784L199.4409365796653,149.53485783683854L199.66369847949719,154.3243239891205L199.88646037932907,158.50753567176292L200.05353180420298,161.52743980137618L200.08137704168195,162.5449037994178L200.55474607882473,162.890060596338L200.8053532161356,163.5800490712611L201.19518654084138,164.10906457447237L201.27872225327835,157.60143332470855L201.89131747781602,157.41527016575026L202.36468651495875,156.57515955961605L202.6988293647066,156.90663003686456L202.78236507714354,153.0422381604446L202.94943650201748,157.56266204020406L203.4506507766392,160.33010508039519L203.50634125159715,160.61777705093257L204.0075555262189,156.78479466008238L204.11893647613485,156.13135861855687L204.2024721885718,154.17860001685818L204.70368646319355,158.93676219800423L204.8150674131095,159.7664324085173L205.00998407546237,161.45361590539414L205.37197216268922,160.91628706181734L205.5390435875631,159.50060110525163L205.92887691226892,152.71071838724197L206.26301976201674,157.69190584053976L206.45793642436965,144.74082198137734L206.6806983242015,149.95805082610678L206.9034602240334,148.42892850364728L206.93130546151238,152.46448876828254L207.54390068605005,149.7292944957048L207.655281635966,149.69996983839337L208.0451149606718,149.4592951792847L208.37925781041963,149.4940403386311L208.4071030478986,147.38214600484548L208.6020197102515,148.3611304140595L208.99185303495733,156.09435742531815L209.15892445983124,152.48859618386732L209.35384112218412,151.61998231267413L209.4095315971421,151.17835311871107L209.66013873445294,157.31976245031225L209.71582920941094,159.70298531992967L209.7436744468899,160.04777046369736L210.27273395899064,160.4843089582565L210.35626967142758,157.3095365844083L210.60687680873846,158.96142030690734L210.96886489596528,158.97669639476692L211.3586982206711,160.8444344394723L211.63715059546095,156.39623295380383L212.0826743951247,154.7141504845107L212.38897200739353,157.4694527857491L212.89018628201526,156.7395070742926L213.16863865680511,154.41821458472583L213.1964838942841,156.10055833036625L213.36355531915802,155.39303642589752L213.5584719815109,152.68144789418167L213.66985293142687,156.80173814380205L213.69769816890584,155.86875672522106L213.72554340638482,154.6477237134842L214.33813863092251,157.38108766269042L214.3659838684015,153.41579869996727L214.47736481831745,155.32903475199777L214.53305529327542,158.20187622197093L214.78366243058628,153.36529259376258L214.89504338050224,151.15400007283236L215.7025552673928,156.6848556246734L215.7304005048718,160.37737171416904L215.98100764218265,163.19947147610915L216.06454335461962,164.04692423522332L216.2594600169725,154.3840821703699L216.53791239176235,151.1511423421905L216.56575762924138,154.13236776421456L216.59360286672035,151.61909669280465L216.62144810419932,151.60745307070403L216.76067429159426,152.01061155577764L216.92774571646817,156.1446852952462L217.0391266663841,152.0204048828856L217.09481714134208,157.41476016024913L217.54034094100587,156.85956539790763L217.70741236587978,159.51269368919364L217.73525760335875,139.12856630893427L217.9580195031906,147.8260505573884L218.48707901529133,142.37131154274226L218.96044805243412,152.58738433069712L219.68442422688773,159.07549126143462L220.32486468890437,160.79409023042706L220.6868527761312,158.64555325308555L220.77038848856816,156.74181098424242L221.6335908504167,156.01780214074077L221.66143608789568,157.29792549290417L222.10695988755947,159.59716065422197L222.13480512503844,157.14489650567364L222.4132574998283,153.48866256076073L222.49679321226526,146.81378282488814L222.55248368722323,153.98440192516966L222.85878129949205,154.28364991062546L223.025852724366,156.0225971673071L223.10938843680293,157.03554063342528L223.22076938671887,160.13990729269412L223.72198366134063,149.37137176213633L223.7498288988196,158.26243453277993L223.86120984873554,153.17041915664882L223.94474556117248,150.4348128343796L224.00043603613048,155.7730754110261L224.39026936083624,156.8207390223535L224.5016503107522,157.10246122928407L224.80794792302103,157.9527510446485L224.891483635458,155.7083440729794L225.4483883850377,161.4118684571255L225.67115028486958,157.16466242104707L225.94960265965943,151.6264985480045L225.97744789713843,156.33446348082504L226.28374550940728,157.38232443036316L226.92418597142392,158.64722450278975L227.06341215881886,153.15892665610087L227.53678119596162,158.6763271203012L228.17722165797827,161.27783055969957L228.76197164503697,160.93581907220022L228.78981688251596,163.75959702615734L228.90119783243193,163.94752008287472L229.01257878234784,159.91940317537347L229.5137930569696,158.85146291507587L229.6808644818435,158.8467912326795L229.70870971932248,148.94281524069584L230.87820969343989,152.3989038639696L231.10097159327177,151.24415984636204L231.32373349310365,158.26381149452894L231.35157873058264,147.88032922925268L231.82494776772538,154.1848881886351L232.1869358549522,146.67053394287177L232.29831680486814,154.0438103123789L232.604614417137,155.3750922706201L232.9387572668848,156.95878476691172L233.02229297932175,153.98745777299482L233.07798345427972,155.93626340843952L233.18936440419566,158.51506631565837L233.41212630402757,154.46726223221992L235.0828405527667,155.70446988632386L235.2499119776406,157.71044033783096L235.27775721511958,159.27433882696084L235.33344769007755,162.98675857953816L235.7511262522623,161.21319519339085L235.94604291461525,156.60720853498987L236.5864833766319,158.12983672254356L236.69786432654783,144.82312880620987L237.00416193881668,148.23219321024166L237.08769765125365,154.91173938760517L237.56106668839638,159.42223565893823L237.7281381132703,162.25582027813525L238.0901262004971,159.09828065223093L238.6470309500768,153.25622616758704L238.8976380873877,150.1711966510685L239.2874714120935,146.9901902686017L239.34316188705145,154.97003084396718L239.39885236200942,151.6562812948066L239.6494594993203,154.10223742971135L239.90006663663118,157.83506906195836L240.12282853646303,158.16287788714808L240.67973328604273,157.95000643403793L240.73542376100073,158.18578867103713L240.81895947343767,148.78808726285502L240.87464994839567,155.91056734868897L241.04172137326958,157.90704572305071L241.37586422301737,157.29234363339614L241.4037094604964,159.48873358019296L241.59862612284928,161.66346524313025L241.68216183528625,161.78016741198246L241.82138802268116,153.26822305296898L242.01630468503407,154.24024918172876L242.071995159992,157.1536419026826L243.49210227142026,144.68539510055302L243.79839988368914,143.08953084245394L243.88193559612608,153.84183522476565L244.021161783521,157.96155961158965L244.46668558318476,160.7852573651381L244.57806653310072,164.65286977569735L244.6059117705797,164.93519766545012L244.6616022455377,162.5564117236125L244.74513795797463,155.8231387987505L244.94005462032754,157.69204763858136L245.05143557024348,147.42754688437913L245.1628165201594,152.64389854669005L245.41342365747028,154.99968918482514L245.44126889494925,155.39988070418676L245.58049508234419,159.1785225863745L245.69187603226013,160.0769910942805L245.71972126973913,162.71959064610965L246.1373998319239,158.41240051562016L247.00060219377244,160.58962870569079L247.3347450435203,160.66419967213187L247.52966170587317,157.90657984244228L247.6688878932681,160.06162695917544L248.0587212179739,162.78752007556741L248.30932835528478,163.75524672861943L248.72700691746957,162.26817371985535L249.0333045297384,162.60711622744466L249.22822119209127,156.7888300602021L249.2560664295703,161.3284931447035L249.33960214200724,163.04081215960315L249.50667356688115,156.45749419382366L250.5647925910826,155.69427916068463L250.64832830351958,153.83369232458494L250.70401877847752,153.3588321869283L250.78755449091446,155.60131360306775L250.8153997283935,156.00658091283134L250.9267806783094,154.6513900106122L251.81782827763695,152.6726706371454L252.20766160234274,159.10116433322145L252.95948301427535,161.7879403846149L253.12655443914926,164.57652892120234L253.2379353890652,160.71277107212575L253.73914966368696,157.45139700879022L253.87837585108184,158.6427157147654L254.29605441326663,160.11535976957637L254.3795901257036,157.31071947189426L254.46312583814057,158.34597110044874L255.04787582519927,161.903423290971L255.3541734374681,160.5083057393361L255.7161615246949,155.350273639957L255.74400676217388,153.3746524523727L256.02245913696373,155.89184730341725L256.1059948494007,158.5708276899035L256.21737579931664,161.037351201094L256.6907448364594,156.69889093241355L256.7464353114174,150.79770309804357L256.82997102385434,153.03879201463783L257.414721010913,152.23629761891863L257.470411485871,142.23878216002203L257.6096376732659,148.19953746437295L257.9159352855348,150.24146610424134L258.13869718536665,158.705192129553L258.2500781352826,149.99290655554336L258.7234471724253,154.9103638328616L258.89051859729926,158.57807558074785L259.1689709720891,158.8495464836689L259.2246614470471,161.37526890124798L259.39173287192096,162.23358183733384L259.5309590593159,160.39402342936825L259.67018524671084,156.15885534418632L259.7537209591478,159.1049177986734L260.1713995213326,159.51882747937967L260.1992447588116,161.51182352415282L260.9510661707442,163.3690135484258L261.17382807057606,158.2702431485386L261.4522804453659,150.46961395940318L261.53581615780286,150.26895029473908L261.75857805763474,157.46312675870473L262.3433280446934,156.89679163224991L262.51039946956735,158.0876587829875L262.8166970818362,157.91600856422488L262.84454231931517,153.85129440806423L263.7355899186427,158.35993316959986L263.7634351561217,160.33938277248123L263.9305065809956,157.654326370546L265.3784589299029,154.76608192183468L265.4341494048608,156.5863347900616L265.6290660672137,156.9035069299878L265.7126017796507,159.48341942887393L265.9075184420036,160.99367735669696L266.65933985393616,160.4150453416335L267.2440898409949,158.1707485691941L267.5225422157847,159.96457367278725L267.96806601544847,162.0850945956303L268.02375649040647,161.442271976033L268.07944696536447,162.17933847759633L268.2186731527594,163.9936796207519L269.1097207520869,161.2015342853535L269.24894693948187,162.46770168581853L269.55524455175066,163.21451487743124L269.5830897892297,159.07405577239444L269.61093502670866,154.0584545348854L269.69447073914563,155.49678920748184L269.97292311393545,154.76145671286787" style="fill: none;" fill="none"></path></g></g></g></g><g opacity="0.2"><g><g><g><path stroke="rgb(204, 51, 17)" stroke-width="2px" d="M9.313655073152598,10.858251273924829L9.48072649802651,25.109307476260454L9.926250297690277,81.21753425084995L9.981940772648247,41.88937019447268L10.065476485085204,55.81375849773152L10.371774097354045,77.66198775033153L10.789452659538826,106.38670004904722L10.872988371975783,91.14886155310867L11.42989312155549,100.08543343567015L11.652655021387377,111.64128517964353L11.764035971303318,97.70898131798782L12.320940720883026,118.7946832423305L13.128452607773605,125.35759863851621L13.211988320210562,105.54273601681041L13.462595457521429,127.4197922938994L13.76889306979027,136.15934952594384L13.908119257185197,127.69312731928672L13.963809732143167,122.14411220017541L15.189000181218528,124.97427692920435L15.328226368613455,127.4121645739897L15.745904930798238,119.22448726933746L15.912976355672152,139.18433053904417L16.05220254306708,120.1679354786986L16.247119205419974,126.82012398167666L16.414190630293888,127.26321175486598L16.943250142394614,114.01628371296573L17.38877394205838,87.02017825292141L17.444464417016352,138.96340010822527L17.667226316848232,124.51066627188058L18.00136916659606,104.84401528519406L18.25197630390693,135.12264164674315L18.474738203738813,141.32589925524255L18.920262003402577,138.03068467645406L19.031642953318524,114.25218534309799L20.535285777183734,132.67042324327838L20.563131014662723,146.23506201033317L21.036500051805476,127.38602524137455L21.12003576424243,128.9999068550265L21.203571476679386,129.8747019872191L21.62125003886417,123.79938139029974L21.704785751301124,149.87637178709113L21.732630988780112,145.80728184768904L22.011083363569963,128.95282007650837L22.54014287567069,142.81671552370966L23.124892862729382,145.83854110739452L23.598261899872135,133.71565114169897L23.737488087267064,117.76218140302346L24.48930949919967,135.0260034726606L24.767761873989528,117.7277091462051L24.93483329886344,148.0106422911183L25.129749961216334,127.42586928395956L25.157595198695322,136.7486052808936L25.575273760880105,128.73043606132933L26.07648803550184,121.12041102261324L26.132178510459813,149.29113497701832L26.466321360207637,137.71888723322013L26.66123802256054,135.6777525611537L26.68908326003952,127.34303656331736L26.74477373499749,118.0522398445147L26.82830944743445,115.98343669787012L26.88399992239242,141.07318785746023L27.218142772140244,143.1751176159957L27.496595146930098,158.5976980489551L27.96996418407285,135.67080485966991L28.693940358526472,147.94479743819014L28.805321308442416,122.60579074165412L28.916702258358356,151.10179917140707L29.139464158190243,153.51100730892807L29.39007129550111,146.2758739098312L29.75205938272792,134.5019971047687L29.86344033264386,147.0449009909267L30.11404746995473,121.5423102851666L30.225428419870674,149.99296076631487L30.281118894828644,136.70962835175118L30.336809369786614,155.28902522190137L30.531726032139513,138.76104245579026L30.670952219534442,130.40510556548816L30.726642694492412,133.20273375152485L30.86586888188734,149.8148876872434L30.921559356845314,131.93855071390348L31.032940306761255,137.34221459296165L31.144321256677195,146.1635035634349L31.31139268155111,125.21427306181644L31.339237919030094,136.1692151900912L31.97967838104676,150.85949493392604L32.0910593309627,142.19370351017832L33.00995216776922,140.73234391289083L33.204868830122116,142.82366322519346L33.371940254996034,113.21012366803619L33.76177357970183,86.80224134236894L33.87315452961777,147.23039490599524L34.06807119197067,142.08801641365568L34.12376166692864,146.37937883082307L34.290833091802554,120.88838801609546L34.346523566760524,141.22945177415775L34.736356891466315,130.58922505178052L34.76420212894531,131.80463745573385L35.04265450373516,144.67078036499035L35.12619021617212,149.72917658172963L35.376797353482985,149.2109233855998L35.488178303398925,139.3487474808905L35.59955925331487,150.09900226397482L35.85016639062574,129.18381765841568L35.87801162810472,130.79287078144552L36.04508305297863,139.74048486797065L36.072928290457625,148.6035284089874L36.21215447785255,150.7736237182538L36.71336875247428,143.61780421429359L36.79690446491124,136.54082547095678L37.047511602222116,148.16795322031288L37.882868726591674,104.11171099808843L38.24485681381849,135.53535886155615L38.4119282386924,142.5401567072662L38.49546395112935,131.33633503106938L38.55115442608733,128.4089816368512L38.66253537600327,155.04302945582253L38.82960680087718,127.93052930753329L38.96883298827211,144.8417150495803L39.24728536306196,146.45194291343586L39.41435678793587,154.29309686036896L39.5535829753308,144.56819652715743L39.832035350120655,157.8777222440526L41.00153532423805,149.85419383165552L41.11291627415399,140.98855614627328L41.140761511632974,133.18035071116714L41.16860674911196,150.567534959429L41.6698210237337,159.04458798866077L42.03180911096051,139.72522583017013L42.393797198187315,157.56617306151387L43.11777337264094,147.8930386812273L43.45191622238876,116.61625680785139L43.7582138346576,143.15937464973868L43.841749547094565,145.96371666848833L43.92528525953152,147.38294930418954L44.48219000911123,145.11990914842892L44.649261433985146,145.84411078212105L44.84417809633804,150.1740993252746L45.01124952121195,138.28264049820763L45.45677332087572,149.64764812923238L45.540309033312674,138.98268168888382L45.84660664558152,107.8161131722411L45.93014235801847,149.5179391119658L46.01367807045543,143.15030054143097L46.04152330793441,140.88571865077353L47.378094706925715,124.6272696430287L47.46163041936267,147.32913430103406L47.545166131799625,137.88030345883783L47.57301136927862,147.31928842578267L48.18560659381629,141.2403212750291L48.51974944356412,136.50517307634104L48.575439918522086,156.94397958868035L48.798201818353974,127.08794690003485L48.909582768269914,130.34325267257876L49.605713705244554,153.6948551476482L49.63355894272354,145.15720761939312L49.939856554992375,130.58739367940595L50.16261845482426,147.15682518766795L50.2739994047402,143.65157126681842L50.32968987969818,138.5499596992133L51.22073747902571,149.2702684856898L51.33211842894165,143.87247651176972L52.02824936591629,152.64354486219585L52.473773165580056,152.85944891343274L52.501618403059034,150.04644655420066L52.91929696524382,137.0935797077537L53.03067791515976,140.5070167491806L53.47620171482353,152.02516884729832L53.50404695230252,125.18822008074748L53.86603503952932,144.8534678548091L54.116642176840195,148.76707823739113L54.25586836423512,141.90838360978194L54.395094551630045,141.74819069773466L54.47863026406701,148.48137155402762L54.61785645146194,149.16198184783005L54.70139216389889,161.9168131166258L55.035535013646715,152.79032270175097L55.2582969134786,141.76803356344317L55.45321357583149,155.1120189442229L55.64813023818439,144.89885098928133L55.898737375495266,144.47210344720992L56.010118325411206,137.17489048239503L56.065808800369176,142.2461404865765L56.12149927532715,132.96950542134206L56.20503498776411,153.43875625067008L56.399951650116996,150.05275021706944L56.650558787427876,126.05205216456042L56.929011162217726,154.77619598226397L57.040392112133674,133.53134456038995L57.09608258709165,151.1959367486324L57.179618299528606,156.90628893777742L57.31884448692353,132.38426501328814L57.402380199360486,133.69215632518458L57.43022543683947,150.27823928992873L57.98713018641918,137.0492885605421L58.23773732373005,143.415342220407L58.40480874860396,93.52524171116922L58.59972541095686,154.8067176558461L58.62757064843584,162.48572858498142L58.878177785746715,155.30794160747934L59.07309444809962,147.18490563108085L59.6578444351583,152.6006191488077L59.76922538507425,151.21655138128463L60.04767775986411,132.84592556486143L60.15905870978005,152.9433862142694L60.40966584709091,141.0187036298221L60.771653934317726,146.28204624639022L60.85518964675469,140.14293344475422L61.02226107162859,121.15634765773507L61.07795154658657,156.29527259319843L62.024689620872074,158.0445102554369L62.191761045745984,144.7325109265427L62.66513008288874,152.58264003730355L62.94358245767859,149.7235025655515L63.02711817011555,145.2045858343795L63.08280864507352,148.61355418329325L63.58402291969526,150.02293374778085L63.973856244401055,156.64001854825932L64.02954671935903,162.56346836339142L64.53076099398076,144.16420081850535L64.6421419438967,155.2464359197451L64.86490384372858,154.79233832442193L65.33827288087134,138.76299256154078L65.50534430574525,164.17183517152847L66.17363000524091,139.27303876280547L66.53561809246771,129.4849722735869L66.61915380490467,138.07103603437267L66.64699904238365,142.347078248061L66.70268951734162,142.61980521464417L66.7583799922996,149.02846076959915L66.86976094221555,145.3514284375942L66.98114189213149,154.90434707371878L67.17605855448438,154.07565647120686L67.59373711666916,147.82889387436393L68.54047519095467,163.93685822253622L68.6518561408706,142.62134515055047L68.84677280322352,143.70989633926956L69.09737994053438,146.2572129809106L69.4315227902822,147.3865059084965L69.70997516507207,147.4901943265239L69.76566564003002,117.69727742215021L69.821356114988,141.7556385185899L69.96058230238293,149.7186812708916L70.04411801481989,160.51364006951752L70.26687991465177,132.83228921653227L70.37826086456771,138.44700347033762L70.93516561414741,143.4412710711284L71.07439180154235,157.27865659366233L71.10223703902133,138.61049932902503L71.1579275139793,133.64578554490328L71.24146322641626,140.31259624302902L71.3528441763322,159.00657711744086L71.38068941381118,157.76906681313116L71.57560607616408,148.80406368400054L71.65914178860103,142.93865110283238L71.79836797599597,159.5280163258254L72.32742748809669,132.15018755956825L72.60587986288654,137.40807203882363L72.77295128776046,155.76722389355248L72.94002271263437,144.7793872231671L73.05140366255031,143.22960184363382L73.38554651229813,116.51082516798614L73.41339174977712,166.92964854857652L74.10952268675176,141.61038802200727L74.36012982406262,149.6343679810311L75.33471313582712,161.51310794494674L75.36255837330611,159.6937888070472L75.41824884826407,165.2333070550728L75.80808217296988,161.4755603137921L76.64343929733944,157.3633818523576L76.86620119717132,155.83545780592405L77.06111785952422,149.12103502404113L77.1168083344822,147.4711088358347L77.17249880944016,160.80594275171333L77.31172499683508,149.87116730744518L78.00785593380972,157.06071788411933L78.03570117128871,136.7693836216854L78.31415354607857,152.27400162146617L78.36984402103653,160.9544287327907L78.50907020843145,143.0597123725504L78.89890353313726,153.7447717382932L79.06597495801117,149.8494085168065L79.31658209532205,160.10345583339156L79.73426065750682,147.6476095971701L79.84564160742278,156.13035912996176L79.90133208238073,155.8713152854619L80.26332016960754,148.53491850759193L80.59746301935537,142.79181749457038L80.9316058691032,132.0545748100962L81.21005824389306,154.6333003643044L81.37712966876695,152.73865029633427L81.85049870590971,163.1720119954667L82.01757013078362,155.755706756085L82.04541536826261,149.51429255813161L82.4352486929684,154.80323840813256L82.60232011784232,151.44522286841757L82.74154630523725,146.4318463900605L83.38198676725392,152.09350530213092L83.57690342960682,152.25931826064L83.71612961700174,146.69018503026683L84.07811770422856,157.9699600872627L84.27303436658146,131.929203159033L84.69071292876625,142.56217275355274L85.02485577851405,145.33236093681046L85.108391490951,155.46785027902055L85.49822481565681,162.71355544605362L85.52607005313581,148.5543655953806L85.58176052809377,137.99984997851715L86.4728081274213,165.28564508699102L86.50065336490029,143.3443738424074L86.52849860237927,150.05511948761688L86.72341526473218,146.40004563420106L87.02971287700102,159.11367732103636L87.4473914391858,160.53427718955157L87.58661762658072,160.69505297453532L88.7839628381771,153.57706084475947L89.03456997548795,139.89374447045847L89.28517711279883,158.29132456221356L89.45224853767274,158.63626031077695L89.56362948758868,159.74211329106012L90.03699852473144,144.65911391130768L90.09268899968941,156.18355348137928L90.1205342371684,124.59853616604806L91.42926039868073,133.02207912102165L91.6520222985126,153.7415839270479L92.29246276052926,146.16511186098188L92.54306989784013,153.74432199065703L92.65445084775607,161.59233638803252L92.76583179767202,131.56010786694898L92.793677035151,159.22057783668143L93.09997464741984,154.11374649801073L93.1835103598568,166.0470008226561L93.40627225968868,146.20359946469614L93.48980797212563,158.50677886581428L94.1580936716213,159.26073670261172L94.26947462153723,153.08423997796066L94.3251650964952,157.19786212930734L95.1048317459068,150.6117289611512L95.74527220792346,160.84500513290664L96.16295077010824,166.2784980741872L96.38571266994012,137.0407397574735L96.52493885733504,160.4341129940013L96.66416504472997,152.09956070430454L96.77554599464592,132.3796703914369L96.8312364696039,141.04129895106408L97.27676026926765,151.9046994454695L97.7779745438894,151.47475689619063L97.80581978136837,146.13742179851718L98.00073644372128,131.6058669904451L98.08427215615824,156.8232853130335L98.75255785565389,160.72157009516485L98.83609356809085,141.96495106847084L99.03101023044374,132.6903776464007L99.1145459428807,159.20983876262457L99.1423911803597,145.31126057671116L99.19808165531765,132.4622116756108L99.22592689279665,149.6017324935589L99.92205782977128,150.50285225439274L100.17266496708214,149.1417683900693L100.8409506665778,133.00692802265382L101.06371256640968,152.18735863885024L101.45354589111547,145.08273840579344L101.48139112859447,154.1705172426312L101.95476016573723,153.87931464315352L102.7622720526278,150.37211241554402L102.81796252758576,152.01711476662948L103.09641490237563,151.53403003665886L103.56978393951837,130.16305858365504L103.7090101269133,165.08323256534445L104.32160535145097,162.8239666917467L104.40514106388794,152.54136399824495L104.54436725128285,156.39388785788967L104.8506648635517,161.15704633935937L104.90635533850968,148.31383876055781L105.10127200086256,159.85663073267162L105.26834342573649,150.38170643211916L105.46326008808938,142.65344993581195L105.6303315129633,163.8305513737709L105.71386722540025,130.1039905281089L106.18723626254301,148.4929534551547L106.52137911229083,162.7079291031249L106.60491482472779,134.4113279813136L106.7998314870807,151.63820418213334L107.24535528674446,159.6610696665147L107.30104576170243,160.43357689481897L107.46811718657634,151.4236169919752L107.57949813649228,156.92231614454056L108.02502193615604,160.17369921820162L108.4983909732988,161.07042854261104L109.05529572287851,155.39308962895262L109.55650999750024,147.71326195810997L109.61220047245821,130.55553715483964L109.6678909474162,153.27954198947916L109.75142665985315,157.92703977084622L109.83496237229011,141.1325005757204L110.30833140943285,164.9315299891731L110.61462902170169,143.57911332464778L111.0044623464075,149.7381121677654L111.83981947077706,133.52183149838933L111.89550994573501,156.48287132720432L112.56379564523068,157.61744429203907L112.67517659514661,133.5536052693906L112.73086707010458,153.02760775561214L112.8979384949785,158.0229961275123L112.98147420741546,154.44229614119732L113.03716468237343,152.58932148818673L113.2877718196843,128.8229293611968L113.48268848203719,164.30785234914018L113.84467656926401,152.1426357339079L114.06743846909589,154.5387310293483L114.4294265563227,169.30391084501827L114.48511703128067,158.7398722717062L114.56865274371762,151.80090668599053L114.90279559346546,156.91027010385295L115.0141765433814,151.40342152411992L115.15340273077632,159.01431277678324L115.2090932057343,160.2250792876548L115.48754558052416,166.83789598306586L115.59892653044008,155.0388144209762L116.40643841733068,150.44033733296288L116.5456646047256,144.1256520491126L116.74058126707848,164.62792424938468L117.96577171615385,166.07185792476048L118.18853361598573,149.6562203191781L118.38345027833864,156.481853098556L118.49483122825457,154.59243989206163L118.80112884052342,167.6307232593207L118.96820026539733,164.09771226360866L119.13527169027125,166.59700125467666L119.74786691480892,154.16742837586588L120.05416452707777,161.71007582170964L120.1933907144727,152.23729861637233L120.44399785178355,166.7749025301511L120.47184308926255,159.0938551437191L120.80598593901037,145.7681627982936L121.11228355127922,155.82205352737518L121.19581926371617,168.47773433179265L121.47427163850602,152.77343197952635L122.78299780001835,156.9777232543281L122.92222398741328,155.5996047485365L122.95006922489225,155.33550753959648L123.22852159968211,153.40706343424333L125.26122393564805,147.00732547541864L125.56752154791688,162.67371140346862L125.59536678539587,155.25452598022483L125.65105726035384,158.33340924752204L125.70674773531181,164.7327604233796L125.79028344774876,158.08115389384278L125.81812868522776,155.03061282308272L126.51425962220239,155.57006352480124L126.65348580959731,159.40631191698768L126.73702152203427,147.37596202491375L126.95978342186615,159.012634318605L127.26608103413498,133.49413423996245L127.51668817144586,160.89674230198293L127.60022388388282,160.19484185457873L127.62806912136182,159.62991924573717L128.04574768354658,154.95078441665027L128.49127148321034,142.98305018947667L128.65834290808428,148.8633224325444L128.76972385800022,153.65119724510834L129.02033099531107,159.64916844456593L129.07602147026904,148.6698787782586L129.32662860757992,159.76667131098642L129.43800955749586,163.0806034868977L129.60508098236977,158.3687549142499L129.7443071697647,157.3841368062723L130.46828334421832,133.39172130623126L130.7188904815292,144.86126827781112L131.13656904371396,157.28950810462823L131.33148570606687,148.3872987404619L131.49855713094078,162.54223397849654L131.60993808085672,132.69614880806822L131.63778331833572,158.822568269067L132.16684283043645,152.67351784366184L132.2503785428734,163.67221322097527L132.4174499677473,154.03346834394208L133.25280709211685,160.7215754921365L133.4198785169908,161.39742655645279L133.83755707917558,165.64873714762726L133.89324755413352,155.08974204430734L134.36661659127628,167.26540224939953L134.39446182875525,167.36604092870596L134.92352134085598,144.2663546975981L134.95136657833498,155.42813756274532L135.03490229077195,163.0480003812553L135.2855094280828,163.81766340550837L135.59180704035163,146.95468341409833L136.28793797732627,146.15796447154761L136.37147368976323,163.27434487411864L136.67777130203208,146.6758218897576L136.76130701446903,158.08689807065215L136.816997489427,147.8213938827829L136.872687964385,150.62898307946583L137.20683081413281,139.93824789855435L137.68019985127555,145.94910526728393L138.26494983833425,157.74967909203045L138.45986650068716,168.22678819348232L138.68262840051904,163.14844881731165L138.79400935043498,158.76574445422546L138.98892601278789,163.64411118967584L139.01677125026686,147.3168328036891L139.04461648774586,154.4390597572073L139.3230688625357,154.78601487265718L140.04704503698932,162.26840872818582L140.18627122438426,162.58461459774963L140.63179502404802,164.22031256973767L140.93809263631687,165.15470825867766L141.04947358623278,143.79425640288423L141.07731882371178,154.78152819023856L141.30008072354366,141.49658028216567L141.38361643598063,156.00537426186565L141.46715214841757,163.05872956086415L141.55068786085454,159.5135092660726L141.8012949981654,149.20146429331552L141.91267594808136,144.23633674136852L142.10759261043424,147.05993695389967L142.13543784791324,126.91708237607617L142.30250927278715,161.31670495121486L142.46958069766106,153.2115347499162L142.52527117261903,153.46184449532132L142.608806885056,139.3082629976716L143.58339019682046,131.81035824566612L143.9175330465683,154.34766024359104L144.44659255866904,160.51536170346884L144.50228303362698,159.30686012169315L145.0313425457277,157.43390587969265L145.08703302068568,151.29782077914342L145.64393777026538,158.04082412381072L146.31222346976105,149.29576737767104L146.39575918219802,139.0354712674288L146.7577472694248,163.35862488265406L146.98050916925672,139.8045397253068L147.23111630656754,166.07655194083932L147.3146520190045,146.36027535022842L147.37034249396248,168.93943536065316L147.39818773144148,157.03050383792035L147.78802105614727,145.75995580342848L148.62337818051682,160.92885428320662L148.79044960539076,148.51162337902804L148.8739853178277,165.62699094992237L149.0689019801806,149.24474260885046L149.4308900674074,158.556512858919L149.4865805423654,142.88697689842516L149.51442577984437,160.3926975331755L149.70934244219728,141.82373031070847L150.210556716819,164.49564807261075L150.85099717883566,159.1564663111431L150.9902233662306,161.17511000341915L151.5471281158103,163.79883966794344L151.6028185907683,154.38160719517037L151.7698900156422,153.5914095933443L152.49386619009582,164.61353682250308L152.63309237749075,156.6108191327276L152.99508046471757,158.27100316502015L153.1064614146335,159.4500714624933L153.60767568925525,167.51854360592208L153.8304375890871,160.0766886530763L154.4708780511038,159.0893144915842L154.55441376354077,153.46961613447462L154.58225900101974,158.23706161041247L154.69363995093568,165.46547667931998L154.72148518841465,144.48731211327518L155.4454613628683,149.91420815622817L156.08590182488496,159.15428323611707L156.44788991211175,136.34128863569595L156.8934137117755,147.19613493006116L157.1997113240444,158.7762262726344L157.64523512370815,163.3166958100277L158.0350684484139,154.4847936948358L158.0629136858929,120.06537142976167L158.61981843547264,152.91890375194598L159.28810413496825,153.34049538711616L159.34379460992625,169.62883956998593L159.73362793463204,154.15855395550864L160.26268744673274,123.81551833548609L160.29053268421177,167.02900094964346L160.3462231591697,151.89275594724296L160.48544934656465,164.29227758849908L161.5157231332871,153.77707081453352L161.71063979564002,156.0947013383744L161.82202074555593,163.91813342945125L161.98909217042987,142.34242965649338L162.15616359530378,163.22200144522876L162.2953897826987,159.25212043739768L162.37892549513563,154.73157202180158L162.43461597009363,145.74068321772262L162.85229453227842,141.9237254011475L163.1029016695893,155.59069974534L163.32566356942115,168.61357745706917L163.79903260656394,153.4779472596873L163.93825879395885,146.50871185906578L163.99394926891682,148.3391235726642L164.32809211866464,158.69808891731398L164.3837825936226,159.30089197056094L164.55085401849652,142.3553967803399L164.88499686824434,132.63145710807925L165.02422305563925,168.3558967976546L165.30267543042913,154.8921247319578L165.58112780521898,159.95584236272842L166.3607944546306,157.8991967941852L166.41648492958853,156.07089889447687L166.52786587950447,165.02379751572718L166.94554444168926,151.36598632987432L168.08719917832767,148.9431076632038L168.17073489076463,152.9233148767617L168.67194916538637,165.93039835100325L169.17316344000812,159.5412056250042L169.64653247715086,157.83289499765866L169.73006818958783,146.18256926522807L169.86929437698274,166.5170559138588L170.00852056437768,161.6305262588116L170.5097348389994,161.02915430254296L170.5375800764784,165.5247408248355L171.01094911362114,158.4500180156418L171.09448482605808,166.4184937193886L171.28940148841102,165.9155553297662L172.0412229003436,161.4668873803759L172.0969133753016,145.48541365538566L172.29183003765448,163.2912328978574L172.79304431227624,160.88006386064262L172.84873478723418,150.71355902194585L173.04365144958706,165.88533048962395L173.29425858689794,151.6750834883006L173.5727109616878,168.63751572475277L173.6005561991668,156.4920821587934L173.87900857395664,154.87901908583933L173.99038952387258,161.47440985933875L174.01823476135158,161.5992427127338L174.5472942734523,157.13456284799997L174.68652046084722,161.5980310926019L174.74221093580522,164.29616520706628L174.85359188572113,149.37832305376932L175.104199023032,157.1047427807303L175.60541329765377,149.74361168186067L176.16231804723347,161.74937746864538L176.30154423462838,149.61348709777823L176.55215137193923,163.63016631446825L176.71922279681317,145.72034383062373L176.74706803429217,164.08472085338977L176.8584489842081,155.70389402940586L176.94198469664505,156.44347883124607L177.55457992118275,154.58637729392584L178.05579419580445,164.57440877815492L178.16717514572042,154.01301022346723L178.30640133311533,144.86992322132187L178.5013179954682,157.36617028770192L178.7519251327791,153.8187840082945L178.8076156077371,149.67928517695225L179.0860679825269,154.4587533067006L179.25313940740085,143.26883962640522L179.30882988235882,158.97800105213287L179.47590130723273,151.58692575564595L179.5315917821907,165.137011588689L179.58728225714867,148.685474227291L179.92142510689652,166.77515573807028L179.97711558185446,152.40276796768734L180.03280605681243,159.30158188343486L180.6732465188291,161.09278909558694L180.92385365613998,140.93274426361313L181.00738936857692,155.03405968896647L181.45291316824068,158.65318701281245L181.73136554303053,162.61459927265415L181.7592107805095,144.86150934254408L181.8149012554675,165.35324215670977L181.9819726803414,160.90995948551515L182.14904410521532,153.41413886405581L182.34396076756823,167.58260745821096L182.48318695496317,148.2435054262205L182.67810361731605,133.27406012864284L182.84517504218996,165.37998684964322L183.20716312941678,150.32684261747607L183.9311393038704,159.03779679935434L184.57157976588707,151.72564591655117L184.682960715803,138.08860497603263L184.710805953282,149.70747715777892L184.9057226156349,146.367555864963L185.37909165277765,165.29054193925384L185.6853892650465,151.01664575296215L185.99168687731532,162.42934822130914L186.18660353966823,152.15218297672885L186.35367496454214,154.32683153106402L187.02196066403778,146.8463733893615L188.553448725382,142.77743276617463L188.66482967529794,150.90799571901235L189.02681776252473,162.92208273656178L189.33311537479355,159.43281194720703L189.44449632470952,160.9782275787071L189.6672582245414,137.27534971239461L189.6951034620204,153.9668319351742L189.80648441193634,162.12215889235557L190.05709154924722,169.17853649546927L190.0849367867262,156.7549308682954L190.36338916151604,157.8114312414693L190.391234398995,149.66617773184322L190.419079636474,142.91495120139592L190.6418415363059,154.1440055189733L191.19874628588562,152.20840682822373L191.86703198538126,159.02853739502055L192.03410341025517,166.0855163107238L192.06194864773414,146.91885112042812L192.1454843601711,154.94260260765276L192.423936734961,156.94429980899733L192.6745438722718,163.67923648006197L192.75807958470878,161.9138915559811L193.03653195949863,150.87920467433426L193.17575814689357,154.7546800553488L194.17818669613703,151.84471030676448L194.4287938334479,148.15827285219163L194.48448430840588,167.09401826692104L194.59586525832182,162.4324955552672L194.76293668319573,154.44642122651638L194.8464723956327,156.6247900932981L195.04138905798558,157.65077059188044L195.2641509578175,164.5877374991009L195.34768667025443,168.60155165502516L195.5704485700863,143.68187526254462L195.68182952000228,164.12349989357227L195.79321046991822,161.84396659249748L196.43365093193486,149.18553603103237L196.5450318818508,154.1721543240269L196.7399485442037,154.9890111667355L196.85132949411965,148.9339328114256L197.15762710638847,160.53340917661373L197.49176995613632,166.19667773547405L197.93729375580008,159.49235583575225L198.63342469277472,166.77341656396115L199.05110325495951,150.36744943205204L199.4409365796653,137.30442499757876L199.66369847949719,161.50852321754343L199.88646037932907,164.78235319572659L200.05353180420298,166.05729599579604L200.08137704168195,164.07109979648027L200.55474607882473,163.40779579171826L200.8053532161356,164.61503178364575L201.19518654084138,164.90258782928925L201.27872225327835,147.8399864500628L201.89131747781602,157.13602542731286L202.36468651495875,155.31499365041475L202.6988293647066,157.40383575273725L202.78236507714354,147.24565034581468L202.94943650201748,164.3432978598433L203.4506507766392,164.48126964068186L203.50634125159715,161.04928500673867L204.0075555262189,151.03532107380713L204.11893647613485,155.15120455626854L204.2024721885718,151.24946211431018L204.70368646319355,166.07400546972323L204.8150674131095,161.01093772428692L205.00998407546237,163.98439115070943L205.37197216268922,160.11029379645214L205.5390435875631,157.3770721704031L205.92887691226892,142.52589431022744L206.26301976201674,165.1636870204865L206.45793642436965,125.31419619263372L206.6806983242015,157.78389409320093L206.9034602240334,146.13524501995803L206.93130546151238,158.51782916523538L207.54390068605005,145.62650308683828L207.655281635966,149.65598285242618L208.0451149606718,149.09828319062177L208.37925781041963,149.54615807765066L208.4071030478986,144.21430450416705L208.6020197102515,149.8296070278805L208.99185303495733,167.69419794220616L209.15892445983124,147.07995432169105L209.35384112218412,150.3170615058843L209.4095315971421,150.51590932776648L209.66013873445294,166.531876447714L209.71582920941094,163.2778196243558L209.7436744468899,160.5649481793489L210.27273395899064,161.13911670009517L210.35626967142758,152.547378023636L210.60687680873846,161.4392458906559L210.96886489596528,158.99961052655632L211.3586982206711,163.64604150653034L211.63715059546095,149.72393072530116L212.0826743951247,152.19102678057095L212.38897200739353,161.60240623760671L212.89018628201526,155.6445885071078L213.16863865680511,150.93627585037572L213.1964838942841,158.62407394882686L213.36355531915802,154.33175356919443L213.5584719815109,148.61406509660796L213.66985293142687,162.9821735182326L213.69769816890584,154.46928459734954L213.72554340638482,152.81617419587892L214.33813863092251,161.4811335864997L214.3659838684015,147.46786525588254L214.47736481831745,158.19888883004356L214.53305529327542,162.51113842693067L214.78366243058628,146.11041715145004L214.89504338050224,147.83706129143707L215.7025552673928,164.98113895243497L215.7304005048718,165.91614584841253L215.98100764218265,167.43262111901927L216.06454335461962,165.31810337389456L216.2594600169725,139.88981907308985L216.53791239176235,146.30173259992137L216.56575762924138,158.60420589725072L216.59360286672035,147.84919008568974L216.62144810419932,151.58998763755312L216.76067429159426,152.61534928338807L216.92774571646817,162.34579590444906L217.0391266663841,145.83398426434468L217.09481714134208,165.5062930762944L217.54034094100587,156.0267732543954L217.70741236587978,163.49238612612268L217.73525760335875,108.55237523854518L217.9580195031906,160.87227693006966L218.48707901529133,134.189203020773L218.96044805243412,167.9114935126294L219.68442422688773,168.80765165754084L220.32486468890437,163.3719886839157L220.6868527761312,155.4227477870733L220.77038848856816,153.8861975809777L221.6335908504167,154.9317888754883L221.66143608789568,159.2181105211493L222.10695988755947,163.04601339619865L222.13480512503844,153.46650028285114L222.4132574998283,148.00431164339136L222.49679321226526,136.80146322107925L222.55248368722323,164.74033057559188L222.85878129949205,154.7325218888092L223.025852724366,158.63101805232958L223.10938843680293,158.55495583260253L223.22076938671887,164.79645728159738L223.72198366134063,133.21856846629967L223.7498288988196,171.5990286887453L223.86120984873554,145.5323960924522L223.94474556117248,146.33140335097582L224.00043603613048,163.78046927599578L224.39026936083624,158.39223443934463L224.5016503107522,157.5250445396799L224.80794792302103,159.22818576769515L224.891483635458,152.3417336154758L225.4483883850377,169.96715503334465L225.67115028486958,150.79385336692943L225.94960265965943,143.3192527384406L225.97744789713843,163.39641088005587L226.28374550940728,158.9541158546703L226.92418597142392,160.54457461142968L227.06341215881886,144.92647988606754L227.53678119596162,166.9524278166017L228.17722165797827,165.1800857187971L228.76197164503697,160.42280184095122L228.78981688251596,167.99526395709304L228.90119783243193,164.22940466795083L229.01257878234784,153.8772278141216L229.5137930569696,157.24955252462948L229.6808644818435,158.83978370908494L229.70870971932248,134.08685125272032L230.87820969343989,157.58303679888027L231.10097159327177,149.51204381995066L231.32373349310365,168.79328896677927L231.35157873058264,132.30510583133832L231.82494776772538,163.64172662770878L232.1869358549522,135.39900257422673L232.29831680486814,165.10372486663962L232.604614417137,157.3720152079818L232.9387572668848,159.33432351134923L233.02229297932175,149.5304672821194L233.07798345427972,158.8594718616066L233.18936440419566,162.38327067648663L233.41212630402757,148.39555610706225L235.0828405527667,157.5602813674798L235.2499119776406,160.71939601509152L235.27775721511958,161.6201865606557L235.33344769007755,168.55538820840414L235.7511262522623,158.5528501141699L235.94604291461525,149.6982285473884L236.5864833766319,160.41377900387408L236.69786432654783,124.86306693170938L237.00416193881668,153.34578981628934L237.08769765125365,164.93105865365038L237.56106668839638,166.18798006593786L237.7281381132703,166.5061972069307L238.0901262004971,154.3619712133745L238.6470309500768,144.49314444062125L238.8976380873877,145.54365237629065L239.2874714120935,142.21868069490154L239.34316188705145,166.93979170701542L239.39885236200942,146.6856569710657L239.6494594993203,157.7711716320685L239.90006663663118,163.4343165103289L240.12282853646303,158.6545911249326L240.67973328604273,157.63069925437273L240.73542376100073,158.53946202653592L240.81895947343767,134.6915351505818L240.87464994839567,166.5942874774399L241.04172137326958,160.9017632845933L241.37586422301737,156.37029049891424L241.4037094604964,162.78331850038825L241.59862612284928,164.92556273753618L241.68216183528625,161.9552206652608L241.82138802268116,140.50030651444868L242.01630468503407,155.6982883748684L242.071995159992,161.52373098411343L243.49210227142026,125.98302489735859L243.79839988368914,140.6957344553053L243.88193559612608,169.97029179823323L244.021161783521,164.14114619182567L244.46668558318476,165.02080399546074L244.57806653310072,170.4542883915362L244.6059117705797,165.3586895000793L244.6616022455377,158.98823281085612L244.74513795797463,145.72322941145754L244.94005462032754,160.49541089832763L245.05143557024348,132.03079575307578L245.1628165201594,160.4684260401565L245.41342365747028,158.53337514202778L245.44126889494925,156.00016798322918L245.58049508234419,164.84648540965614L245.69187603226013,161.42469385613944L245.71972126973913,166.6834899738534L246.1373998319239,151.9516153198859L247.00060219377244,163.8554709907967L247.3347450435203,160.77605612179352L247.52966170587317,153.7701500979079L247.6688878932681,163.29419763427515L248.0587212179739,166.8763597501554L248.30932835528478,165.20683670819744L248.72700691746957,160.03756420670922L249.0333045297384,163.11552998882863L249.22822119209127,148.06140080933827L249.2560664295703,168.13798777145556L249.33960214200724,165.60929068195264L249.50667356688115,146.58251724515443L250.5647925910826,154.54945661097608L250.64832830351958,151.04281207043545L250.70401877847752,152.6465419804434L250.78755449091446,158.9650357272769L250.8153997283935,156.6144818774767L250.9267806783094,152.6186036572835L251.81782827763695,149.70459157694515L252.20766160234274,168.7439048773355L252.95948301427535,165.81810446170508L253.12655443914926,168.75941172608356L253.2379353890652,154.9171342985108L253.73914966368696,152.55933591378692L253.87837585108184,160.42969377372816L254.29605441326663,162.32432585179282L254.3795901257036,153.10375902537115L254.46312583814057,159.8988485432804L255.04787582519927,167.23960157675444L255.3541734374681,158.41562941188374L255.7161615246949,147.6132254908884L255.74400676217388,150.4112206709962L256.02245913696373,159.6676395799841L256.1059948494007,162.58929826963288L256.21737579931664,164.7371364678797L256.6907448364594,150.19120052939294L256.7464353114174,141.94592134648855L256.82997102385434,156.40042538952926L257.414721010913,151.03255602533986L257.470411485871,127.24250897167708L257.6096376732659,157.1406704208994L257.9159352855348,153.3043590640439L258.13869718536665,171.4007811675205L258.2500781352826,136.92447819452886L258.7234471724253,162.286549748839L258.89051859729926,164.07964320257724L259.1689709720891,159.2567528380504L259.2246614470471,165.1638525276166L259.39173287192096,163.52105124146263L259.5309590593159,157.6346858174199L259.67018524671084,149.80610321641342L259.7537209591478,163.524011480404L260.1713995213326,160.13969200043906L260.1992447588116,164.5013175913125L260.9510661707442,166.15479858483533L261.17382807057606,150.6220875487078L261.4522804453659,138.76867017569998L261.53581615780286,149.96795479774295L261.75857805763474,168.25439145465324L262.3433280446934,156.04728894256766L262.51039946956735,159.87395950909385L262.8166970818362,157.658533236081L262.84454231931517,147.75422317382325L263.7355899186427,165.12289131190332L263.7634351561217,163.3085571768033L263.9305065809956,153.6267417676431L265.3784589299029,150.43371524876767L265.4341494048608,159.31671409240198L265.6290660672137,157.37926513987713L265.7126017796507,163.3532881772031L265.9075184420036,163.25906424843157L266.65933985393616,159.54709731903824L267.2440898409949,154.80430341053503L267.5225422157847,162.65531132817696L267.96806601544847,165.26587597989484L268.02375649040647,160.47803804663704L268.07944696536447,163.28493822994136L268.2186731527594,166.71519133548523L269.1097207520869,157.0133162822559L269.24894693948187,164.36695278651612L269.55524455175066,164.33473466485032L269.5830897892297,152.8633671148392L269.61093502670866,146.53505267862192L269.69447073914563,157.6542912163765L269.97292311393545,153.65845797094693" style="fill: none;" fill="none"></path></g></g></g></g></g></g><g transform="translate(41, 177)" clip-path="url(#clip_1)"><clipPath id="clip_1"><rect width="288" height="23"></rect></clipPath><g><g><line x1="8.812440798530858" y1="0" x2="8.812440798530858" y2="5" style="visibility: inherit;" fill="rgb(0, 0, 0)" stroke="rgb(204, 204, 204)" stroke-width="1px"></line><line x1="36.65767827751632" y1="0" x2="36.65767827751632" y2="5" style="visibility: inherit;" fill="rgb(0, 0, 0)" stroke="rgb(204, 204, 204)" stroke-width="1px"></line><line x1="64.50291575650178" y1="0" x2="64.50291575650178" y2="5" style="visibility: inherit;" fill="rgb(0, 0, 0)" stroke="rgb(204, 204, 204)" stroke-width="1px"></line><line x1="92.34815323548723" y1="0" x2="92.34815323548723" y2="5" style="visibility: inherit;" fill="rgb(0, 0, 0)" stroke="rgb(204, 204, 204)" stroke-width="1px"></line><line x1="120.1933907144727" y1="0" x2="120.1933907144727" y2="5" style="visibility: inherit;" fill="rgb(0, 0, 0)" stroke="rgb(204, 204, 204)" stroke-width="1px"></line><line x1="148.03862819345815" y1="0" x2="148.03862819345815" y2="5" style="visibility: inherit;" fill="rgb(0, 0, 0)" stroke="rgb(204, 204, 204)" stroke-width="1px"></line><line x1="175.88386567244362" y1="0" x2="175.88386567244362" y2="5" style="visibility: inherit;" fill="rgb(0, 0, 0)" stroke="rgb(204, 204, 204)" stroke-width="1px"></line><line x1="203.72910315142906" y1="0" x2="203.72910315142906" y2="5" style="visibility: inherit;" fill="rgb(0, 0, 0)" stroke="rgb(204, 204, 204)" stroke-width="1px"></line><line x1="231.57434063041453" y1="0" x2="231.57434063041453" y2="5" style="visibility: inherit;" fill="rgb(0, 0, 0)" stroke="rgb(204, 204, 204)" stroke-width="1px"></line><line x1="259.41957810939994" y1="0" x2="259.41957810939994" y2="5" style="visibility: inherit;" fill="rgb(0, 0, 0)" stroke="rgb(204, 204, 204)" stroke-width="1px"></line><line x1="287.26481558838543" y1="0" x2="287.26481558838543" y2="5" style="visibility: inherit;" fill="rgb(0, 0, 0)" stroke="rgb(204, 204, 204)" stroke-width="1px"></line></g><g transform="translate(0, 8)"><text x="8.812440798530858" y="0" dx="0em" dy="0.95em" style="text-anchor: middle; visibility: inherit; font-family: Roboto, sans-serif; font-size: 12px; font-weight: 200;" fill="rgb(33, 33, 33)" stroke="none" stroke-width="1px">0</text><text x="36.65767827751632" y="0" dx="0em" dy="0.95em" style="text-anchor: middle; visibility: inherit; font-family: Roboto, sans-serif; font-size: 12px; font-weight: 200;" fill="rgb(33, 33, 33)" stroke="none" stroke-width="1px">1k</text><text x="64.50291575650178" y="0" dx="0em" dy="0.95em" style="text-anchor: middle; visibility: inherit; font-family: Roboto, sans-serif; font-size: 12px; font-weight: 200;" fill="rgb(33, 33, 33)" stroke="none" stroke-width="1px">2k</text><text x="92.34815323548723" y="0" dx="0em" dy="0.95em" style="text-anchor: middle; visibility: inherit; font-family: Roboto, sans-serif; font-size: 12px; font-weight: 200;" fill="rgb(33, 33, 33)" stroke="none" stroke-width="1px">3k</text><text x="120.1933907144727" y="0" dx="0em" dy="0.95em" style="text-anchor: middle; visibility: inherit; font-family: Roboto, sans-serif; font-size: 12px; font-weight: 200;" fill="rgb(33, 33, 33)" stroke="none" stroke-width="1px">4k</text><text x="148.03862819345815" y="0" dx="0em" dy="0.95em" style="text-anchor: middle; visibility: inherit; font-family: Roboto, sans-serif; font-size: 12px; font-weight: 200;" fill="rgb(33, 33, 33)" stroke="none" stroke-width="1px">5k</text><text x="175.88386567244362" y="0" dx="0em" dy="0.95em" style="text-anchor: middle; visibility: inherit; font-family: Roboto, sans-serif; font-size: 12px; font-weight: 200;" fill="rgb(33, 33, 33)" stroke="none" stroke-width="1px">6k</text><text x="203.72910315142906" y="0" dx="0em" dy="0.95em" style="text-anchor: middle; visibility: inherit; font-family: Roboto, sans-serif; font-size: 12px; font-weight: 200;" fill="rgb(33, 33, 33)" stroke="none" stroke-width="1px">7k</text><text x="231.57434063041453" y="0" dx="0em" dy="0.95em" style="text-anchor: middle; visibility: inherit; font-family: Roboto, sans-serif; font-size: 12px; font-weight: 200;" fill="rgb(33, 33, 33)" stroke="none" stroke-width="1px">8k</text><text x="259.41957810939994" y="0" dx="0em" dy="0.95em" style="text-anchor: middle; visibility: inherit; font-family: Roboto, sans-serif; font-size: 12px; font-weight: 200;" fill="rgb(33, 33, 33)" stroke="none" stroke-width="1px">9k</text><text x="287.26481558838543" y="0" dx="0em" dy="0.95em" style="text-anchor: middle; visibility: hidden; font-family: Roboto, sans-serif; font-size: 12px; font-weight: 200;" fill="rgb(33, 33, 33)" stroke="none" stroke-width="1px">10k</text></g><line x1="0" y1="0" x2="288.828125" y2="0" fill="rgb(0, 0, 0)" stroke="rgb(204, 204, 204)" stroke-width="1px"></line></g></g></g></g></svg>