<svg viewBox="0 0 785.3333740234375 400" xmlns="http://www.w3.org/2000/svg"><g><g><g><g><g><line x1="41.171875" y1="359.77578948474377" x2="36.171875" y2="359.77578948474377" style="visibility: inherit;" fill="rgb(0, 0, 0)" stroke="rgb(204, 204, 204)" stroke-width="1px"></line><line x1="41.171875" y1="326.16311025890934" x2="36.171875" y2="326.16311025890934" style="visibility: inherit;" fill="rgb(0, 0, 0)" stroke="rgb(204, 204, 204)" stroke-width="1px"></line><line x1="41.171875" y1="292.5504310330749" x2="36.171875" y2="292.5504310330749" style="visibility: inherit;" fill="rgb(0, 0, 0)" stroke="rgb(204, 204, 204)" stroke-width="1px"></line><line x1="41.171875" y1="258.93775180724055" x2="36.171875" y2="258.93775180724055" style="visibility: inherit;" fill="rgb(0, 0, 0)" stroke="rgb(204, 204, 204)" stroke-width="1px"></line><line x1="41.171875" y1="225.32507258140615" x2="36.171875" y2="225.32507258140615" style="visibility: inherit;" fill="rgb(0, 0, 0)" stroke="rgb(204, 204, 204)" stroke-width="1px"></line><line x1="41.171875" y1="191.71239335557175" x2="36.171875" y2="191.71239335557175" style="visibility: inherit;" fill="rgb(0, 0, 0)" stroke="rgb(204, 204, 204)" stroke-width="1px"></line><line x1="41.171875" y1="158.09971412973735" x2="36.171875" y2="158.09971412973735" style="visibility: inherit;" fill="rgb(0, 0, 0)" stroke="rgb(204, 204, 204)" stroke-width="1px"></line><line x1="41.171875" y1="124.48703490390294" x2="36.171875" y2="124.48703490390294" style="visibility: inherit;" fill="rgb(0, 0, 0)" stroke="rgb(204, 204, 204)" stroke-width="1px"></line><line x1="41.171875" y1="90.87435567806854" x2="36.171875" y2="90.87435567806854" style="visibility: inherit;" fill="rgb(0, 0, 0)" stroke="rgb(204, 204, 204)" stroke-width="1px"></line><line x1="41.171875" y1="57.261676452234134" x2="36.171875" y2="57.261676452234134" style="visibility: inherit;" fill="rgb(0, 0, 0)" stroke="rgb(204, 204, 204)" stroke-width="1px"></line><line x1="41.171875" y1="23.648997226399697" x2="36.171875" y2="23.648997226399697" style="visibility: inherit;" fill="rgb(0, 0, 0)" stroke="rgb(204, 204, 204)" stroke-width="1px"></line></g><g transform="translate(31.171875, 0)"><text x="0" y="359.77578948474377" dx="0em" dy="0.3em" style="text-anchor: end; visibility: inherit; font-family: Roboto, sans-serif; font-size: 12px; font-weight: 200;" fill="rgb(33, 33, 33)" stroke="none" stroke-width="1px">0.2</text><text x="0" y="326.16311025890934" dx="0em" dy="0.3em" style="text-anchor: end; visibility: inherit; font-family: Roboto, sans-serif; font-size: 12px; font-weight: 200;" fill="rgb(33, 33, 33)" stroke="none" stroke-width="1px">0.4</text><text x="0" y="292.5504310330749" dx="0em" dy="0.3em" style="text-anchor: end; visibility: inherit; font-family: Roboto, sans-serif; font-size: 12px; font-weight: 200;" fill="rgb(33, 33, 33)" stroke="none" stroke-width="1px">0.6</text><text x="0" y="258.93775180724055" dx="0em" dy="0.3em" style="text-anchor: end; visibility: inherit; font-family: Roboto, sans-serif; font-size: 12px; font-weight: 200;" fill="rgb(33, 33, 33)" stroke="none" stroke-width="1px">0.8</text><text x="0" y="225.32507258140615" dx="0em" dy="0.3em" style="text-anchor: end; visibility: inherit; font-family: Roboto, sans-serif; font-size: 12px; font-weight: 200;" fill="rgb(33, 33, 33)" stroke="none" stroke-width="1px">1</text><text x="0" y="191.71239335557175" dx="0em" dy="0.3em" style="text-anchor: end; visibility: inherit; font-family: Roboto, sans-serif; font-size: 12px; font-weight: 200;" fill="rgb(33, 33, 33)" stroke="none" stroke-width="1px">1.2</text><text x="0" y="158.09971412973735" dx="0em" dy="0.3em" style="text-anchor: end; visibility: inherit; font-family: Roboto, sans-serif; font-size: 12px; font-weight: 200;" fill="rgb(33, 33, 33)" stroke="none" stroke-width="1px">1.4</text><text x="0" y="124.48703490390294" dx="0em" dy="0.3em" style="text-anchor: end; visibility: inherit; font-family: Roboto, sans-serif; font-size: 12px; font-weight: 200;" fill="rgb(33, 33, 33)" stroke="none" stroke-width="1px">1.6</text><text x="0" y="90.87435567806854" dx="0em" dy="0.3em" style="text-anchor: end; visibility: inherit; font-family: Roboto, sans-serif; font-size: 12px; font-weight: 200;" fill="rgb(33, 33, 33)" stroke="none" stroke-width="1px">1.8</text><text x="0" y="57.261676452234134" dx="0em" dy="0.3em" style="text-anchor: end; visibility: inherit; font-family: Roboto, sans-serif; font-size: 12px; font-weight: 200;" fill="rgb(33, 33, 33)" stroke="none" stroke-width="1px">2</text><text x="0" y="23.648997226399697" dx="0em" dy="0.3em" style="text-anchor: end; visibility: inherit; font-family: Roboto, sans-serif; font-size: 12px; font-weight: 200;" fill="rgb(33, 33, 33)" stroke="none" stroke-width="1px">2.2</text></g><line x1="41.171875" y1="0" x2="41.171875" y2="377" fill="rgb(0, 0, 0)" stroke="rgb(204, 204, 204)" stroke-width="1px"></line></g></g><g transform="translate(41, 0)" clip-path="url(#clip_0)"><clipPath id="clip_0"><rect width="744" height="377"></rect></clipPath><g><g><g><line x1="30.210666153678716" y1="0" x2="30.210666153678716" y2="377" fill="rgb(0, 0, 0)" stroke="rgb(66, 66, 66)" stroke-width="1px" opacity="0.25"></line><line x1="89.53046064456566" y1="0" x2="89.53046064456566" y2="377" fill="rgb(0, 0, 0)" stroke="rgb(66, 66, 66)" stroke-width="1px" opacity="0.25"></line><line x1="148.8502551354526" y1="0" x2="148.8502551354526" y2="377" fill="rgb(0, 0, 0)" stroke="rgb(66, 66, 66)" stroke-width="1px" opacity="0.25"></line><line x1="208.17004962633956" y1="0" x2="208.17004962633956" y2="377" fill="rgb(0, 0, 0)" stroke="rgb(66, 66, 66)" stroke-width="1px" opacity="0.25"></line><line x1="267.48984411722654" y1="0" x2="267.48984411722654" y2="377" fill="rgb(0, 0, 0)" stroke="rgb(66, 66, 66)" stroke-width="1px" opacity="0.25"></line><line x1="326.80963860811346" y1="0" x2="326.80963860811346" y2="377" fill="rgb(0, 0, 0)" stroke="rgb(66, 66, 66)" stroke-width="1px" opacity="0.25"></line><line x1="386.12943309900044" y1="0" x2="386.12943309900044" y2="377" fill="rgb(0, 0, 0)" stroke="rgb(66, 66, 66)" stroke-width="1px" opacity="0.25"></line><line x1="445.44922758988736" y1="0" x2="445.44922758988736" y2="377" fill="rgb(0, 0, 0)" stroke="rgb(66, 66, 66)" stroke-width="1px" opacity="0.25"></line><line x1="504.76902208077433" y1="0" x2="504.76902208077433" y2="377" fill="rgb(0, 0, 0)" stroke="rgb(66, 66, 66)" stroke-width="1px" opacity="0.25"></line><line x1="564.0888165716613" y1="0" x2="564.0888165716613" y2="377" fill="rgb(0, 0, 0)" stroke="rgb(66, 66, 66)" stroke-width="1px" opacity="0.25"></line><line x1="623.4086110625483" y1="0" x2="623.4086110625483" y2="377" fill="rgb(0, 0, 0)" stroke="rgb(66, 66, 66)" stroke-width="1px" opacity="0.25"></line><line x1="682.7284055534352" y1="0" x2="682.7284055534352" y2="377" fill="rgb(0, 0, 0)" stroke="rgb(66, 66, 66)" stroke-width="1px" opacity="0.25"></line><line x1="742.0482000443221" y1="0" x2="742.0482000443221" y2="377" fill="rgb(0, 0, 0)" stroke="rgb(66, 66, 66)" stroke-width="1px" opacity="0.25"></line></g><g><line x1="0" y1="359.77578948474377" x2="744.161125" y2="359.77578948474377" fill="rgb(0, 0, 0)" stroke="rgb(66, 66, 66)" stroke-width="1px" opacity="0.25"></line><line x1="0" y1="326.16311025890934" x2="744.161125" y2="326.16311025890934" fill="rgb(0, 0, 0)" stroke="rgb(66, 66, 66)" stroke-width="1px" opacity="0.25"></line><line x1="0" y1="292.5504310330749" x2="744.161125" y2="292.5504310330749" fill="rgb(0, 0, 0)" stroke="rgb(66, 66, 66)" stroke-width="1px" opacity="0.25"></line><line x1="0" y1="258.93775180724055" x2="744.161125" y2="258.93775180724055" fill="rgb(0, 0, 0)" stroke="rgb(66, 66, 66)" stroke-width="1px" opacity="0.25"></line><line x1="0" y1="225.32507258140615" x2="744.161125" y2="225.32507258140615" fill="rgb(0, 0, 0)" stroke="rgb(66, 66, 66)" stroke-width="1px" opacity="0.25"></line><line x1="0" y1="191.71239335557175" x2="744.161125" y2="191.71239335557175" fill="rgb(0, 0, 0)" stroke="rgb(66, 66, 66)" stroke-width="1px" opacity="0.25"></line><line x1="0" y1="158.09971412973735" x2="744.161125" y2="158.09971412973735" fill="rgb(0, 0, 0)" stroke="rgb(66, 66, 66)" stroke-width="1px" opacity="0.25"></line><line x1="0" y1="124.48703490390294" x2="744.161125" y2="124.48703490390294" fill="rgb(0, 0, 0)" stroke="rgb(66, 66, 66)" stroke-width="1px" opacity="0.25"></line><line x1="0" y1="90.87435567806854" x2="744.161125" y2="90.87435567806854" fill="rgb(0, 0, 0)" stroke="rgb(66, 66, 66)" stroke-width="1px" opacity="0.25"></line><line x1="0" y1="57.261676452234134" x2="744.161125" y2="57.261676452234134" fill="rgb(0, 0, 0)" stroke="rgb(66, 66, 66)" stroke-width="1px" opacity="0.25"></line><line x1="0" y1="23.648997226399697" x2="744.161125" y2="23.648997226399697" fill="rgb(0, 0, 0)" stroke="rgb(66, 66, 66)" stroke-width="1px" opacity="0.25"></line></g></g></g><g><g><line x1="0" y1="393.3884687105782" x2="744.161125" y2="393.3884687105782" fill="rgb(0, 0, 0)" stroke="rgb(153, 153, 153)" stroke-width="1.5px"></line></g></g><g><g><line x1="89.53046064456566" y1="0" x2="89.53046064456566" y2="377" fill="rgb(0, 0, 0)" stroke="rgb(153, 153, 153)" stroke-width="1.5px"></line></g></g><g><g><g><g><g><path stroke="rgb(238, 51, 119)" stroke-width="2px" d="M90.59821694540163,15.16360493705552L90.95413571234695,16.015731582604325L91.90325242420114,22.390058230224522L92.02189201318292,23.605136897549166L92.19985139665557,20.880835959179468L92.85236913605533,29.042769544732536L93.74216605341864,40.892990836645694L93.92012543689131,49.661552948422546L95.10652132670903,60.135697177038836L95.58107968263614,70.36528303645278L95.81835886059967,82.23402738871663L97.00475475041742,96.50444769491925L98.72502879065314,116.0877693145703L98.90298817412581,130.32266322794302L99.43686632454379,141.5399667808479L100.08938406394353,154.19686232862665L100.38598303639797,166.5619521223334L100.50462262537974,166.73172359961046L103.11469358297877,186.85576174343717L103.41129255543322,199.19825950162556L104.30108947279652,201.8453838860185L104.65700823974184,229.10990901831892L104.95360721219626,239.54336426262586L105.36884577363247,247.29491639769157L105.7247645405778,249.20866519560568L106.85184063590465,254.55855114599171L107.80095734775884,271.66431910133866L107.9195969367406,263.01449436689495L108.39415529266772,271.80638502136344L109.10599282655836,273.4784848706228L109.63987097697634,280.18069698136554L110.11442933290344,274.62185750075463L111.06354604475762,264.09183806897306L111.30082522272117,274.8593586440952L114.50409412522907,276.50803630780075L114.56341391971996,279.83884466075057L115.57185042606503,289.9498398246416L115.7498098095377,294.7881123215406L115.92776919301035,290.6197739726335L116.81756611037368,298.9078833768195L116.99552549384633,295.411737101583L117.0548452883372,292.07022191598094L117.64804323324607,287.5425771702987L118.77511932857293,294.2468116144399L120.02083501288155,294.0274374890722L121.02927151922664,303.12585169740106L121.32587049168106,308.4961945043847L122.92750494293502,303.4499879023636L123.5207028878439,296.1088252070515L123.87662165478922,297.88372818565483L124.29186021622542,300.192589554173L124.3511800107163,315.5089554131073L125.2409769280796,311.04304298609674L126.30873322891559,313.6990414679328L126.42737281789735,303.1410150724638L127.139210351788,306.4858871127508L127.5544489132242,307.0813384050214L127.6137687077151,304.9478930321525L127.73240829669686,306.5637401223216L127.91036768016953,306.93673468114116L128.0290072691513,308.8260596010078L128.74084480304194,294.37147588437L129.3340427479508,300.7554714057836L130.34247925429588,301.5317181980949L131.88479391105895,300.7254980868494L132.12207308902248,305.38903970218337L132.35935226698604,293.9691804051241L132.83391062291312,295.7619371316901L133.36778877333114,306.02864829967507L134.13894610171263,304.5361599995662L134.3762252796762,306.0772894289913L134.91010343009418,306.1202792146117L135.14738260805774,308.68713648067956L135.2660221970395,308.97269282367546L135.38466178602127,324.0078520703303L135.79990034745748,311.4658250024618L136.0964993199119,310.31106408852565L136.2151389088937,309.1270724548923L136.51173788134813,318.2493143968257L136.6303774703299,311.51217808620316L136.86765664829346,313.8773277022513L137.104935826257,311.18939643785654L137.46085459320233,312.5275693323524L137.5201743876932,320.0592573420829L138.88452966098362,314.5613659099959L139.12180883894717,310.8610150926723L141.07936205714643,321.7168660367815L141.49460061858264,324.9572746630065L141.85051938552795,314.03998816166774L142.68099650840037,308.89962365487526L142.91827568636393,307.1377524394456L143.33351424780014,310.67737538533214L143.4521538367819,312.7918450298007L143.80807260372723,322.92763057151274L143.926712192709,320.8422916763004L144.7571893155814,330.35759756343117L144.8165091100723,338.979753970285L145.40970705498117,330.37266887198183L145.58766643845382,330.13839093614496L146.1215445888718,325.0188741797478L146.35882376683537,319.45773220310576L146.5961029447989,318.8346413897932L147.1299810952169,323.5582863303584L147.18930088970777,335.9671512010599L147.5452196566531,309.48384740090916L147.60453945114398,304.8510566457204L147.9011384235984,310.0766905471574L148.9688947244344,325.11475899036844L149.14685410790705,312.03593820877927L149.68073225832504,318.2249772209793L151.46032609305163,321.4215169233873L152.23148342143315,318.0172259081922L152.5874021883785,317.5162286900055L152.76536157185114,329.789060787107L152.88400116083292,339.6331152391582L153.12128033879648,321.9667657666522L153.4771991057418,322.9359899980023L153.77379807819622,318.58998162496704L154.36699602310512,305.2375188966866L154.72291479005042,295.008963297586L155.01951376250486,301.6282093975032L155.61271170741372,307.82227845248065L158.104143076031,326.1466438761174L158.34142225399452,320.87299393663443L158.40074204848543,313.7497192970173L158.4600618429763,317.8543657623174L159.52781814381225,322.20548391858557L160.2989754721938,326.86010476190387L161.07013280057532,337.0042313887721L162.6124474573384,330.8291183250956L163.32428499122904,304.64331774952643L163.97680273062878,310.2987580226907L164.15476211410146,325.56297329207194L164.3327214975741,316.9005826804379L165.51911738739184,319.58394289878584L165.87503615433718,326.70936664913864L166.2902747157734,322.88554806084477L166.6461934827187,325.3754053321998L167.5953101945729,323.1731386032518L167.77326957804556,318.03362611062107L168.4257873174453,329.20942483446515L168.60374670091795,332.38270514079477L168.78170608439063,320.15787560921336L168.8410258788815,323.3979411856424L171.6883760144441,319.8980688069964L171.86633539791677,322.1707847022947L172.04429478138942,320.2211767485595L172.1036145758803,325.55626019179635L173.4086500546798,328.46883035250704L174.12048758857046,321.7493079196632L174.23912717755223,325.9483254481415L174.71368553347932,324.13914297038L174.95096471144288,326.4759660248462L176.43395957371504,314.9003188018629L176.49327936820595,312.82229509730536L177.1457971076057,315.37997165559307L177.6203554635328,323.490985811982L177.85763464149633,320.0272286612861L177.9762742304781,333.27561682476676L179.8745076541865,337.96484983366537L180.11178683215005,338.64728666244895L181.5947816944222,338.346033164597L182.5438984062764,335.88242912438864L182.6032182007673,332.2583881191446L183.4930151181306,328.32912456529095L183.73029429609414,332.91538133139255L184.67941100794835,323.5183388086814L184.73873080243922,337.46875434273227L185.50988813082074,348.3758427375572L186.04376628123873,330.9988958594877L186.34036525369316,329.2665151487522L186.6369642261476,335.2959142544259L186.81492360962028,334.26414878975777L187.1115225820747,330.472744171272L187.28948196554734,330.9009294625526L188.00131949943798,329.6393953318534L188.4758778553651,320.3032780106982L188.8911164168013,329.9992788678641L189.30635497823752,326.6778504094278L189.84023312865548,321.06211727248547L190.07751230661904,323.3584014922651L190.19615189560085,327.1659926468445L190.31479148458257,327.608387070255L190.49275086805525,326.4943612614327L190.90798942949147,332.2083658365448L191.44186757990943,333.29978082846634L192.03506552481832,343.3578405955332L192.27234470278185,349.55589229159204L192.39098429176366,342.0514736019135L192.56894367523628,332.0329699980216L192.86554264769072,323.4513574123979L193.0435020311634,321.6095688531989L193.1028218256543,327.47277300683487L194.28921771547203,322.4481241243517L194.82309586589,309.60649592015267L195.1790146328353,325.0837453493992L195.59425319427152,333.7263093944216L195.65357298876242,339.04538522766734L196.18745113918038,338.74890852653294L196.6026897006166,334.9623109896347L197.84840538492523,337.0309703001191L198.08568456288876,324.1940079243789L198.67888250779765,319.6545972399191L198.9161616857612,326.698715334304L199.4500398361792,324.6840229136272L200.22119716456072,329.7129468052138L200.39915654803337,327.84880802776297L200.75507531497868,329.0415458635515L200.8737149039605,322.949102870998L202.89058791665062,328.14445260472047L203.24650668359592,326.7666029812828L204.25494318994103,336.93761509862986L204.8481411348499,332.3488132853981L205.02610051832258,324.962888314509L205.14474010730433,337.1624422886582L206.21249640814028,334.9332964749569L207.0429735310127,336.29367209879433L207.16161311999448,325.99111980480126L208.22936942083044,313.714356033917L208.466648598794,332.25861461607167L208.94120695472108,329.8947172348239L209.94964346106616,337.27259171475066L210.30556222801147,340.5291426150252L211.72923729579279,342.9331611101165L212.50039462417433,337.1110916289754L212.67835400764696,337.6791717824376L212.73767380213786,335.2017000236405L212.85631339111964,336.3736377309915L212.9749529801014,336.73218717713235L213.21223215806498,348.18382252332987L213.4495113360285,346.90744321509374L213.86474989746472,351.78482872289374L214.75454681482805,349.31503293550594L216.77141982751817,353.3076531898909L217.0086990054817,348.5983984272751L217.4239375669179,350.13299625069374L217.9578157173359,347.6112063713715L218.66965325122655,350.9352616782623L219.26285119613541,346.7430230129829L219.3814907851172,340.5836390757847L219.50013037409897,338.148919739205L219.7967293465534,341.095409560163L219.97468873002606,338.40247731180216L220.44924708595315,338.5149027245965L220.68652626391673,335.38941894590243L221.87292215373444,328.1387837732439L222.1695211261889,320.11881966957355L222.22884092067974,338.53495407562787L222.34748050966155,340.53720347572255L222.52543989313423,323.2012779742627L222.76271907109776,328.78804074129533L222.82203886558864,331.72135476298075L223.23727742702485,331.4207563965642L223.4152368104975,334.7265384913612L223.71183578295194,332.21992891547603L224.8389118782788,325.3571569242548L225.4321098231877,336.16079677299894L225.788028590133,335.962612308857L226.1439473570783,345.07480415685967L226.38122653504186,348.97695600290405L227.09306406893248,347.3359191564553L227.15238386342338,338.6881636471187L228.63537872569555,340.8112748577872L229.16925687611356,336.5550545269276L231.24544968329457,341.2409999256593L231.30476947778547,342.82462727465736L231.42340906676725,349.4907888831783L232.25388618963964,355.4044585610137L234.0334800243663,349.2547489106144L234.50803838029336,343.077817228337L234.92327694172957,328.919617936201L235.04191653071135,334.739145787656L235.16055611969315,334.02237162798724L235.45715509214756,327.0855896775137L236.94014995441975,335.9641926157658L236.99946974891063,332.245190331096L237.5926676938195,338.52635233426054L237.71130728280127,339.71934611395153L238.0079062552557,344.143574703616L238.83838337812813,349.04272553603784L239.19430214507344,345.25464987331554L239.7281802954914,342.1230543523453L240.61797721285473,347.61467547434734L240.85525639081825,344.100584759281L240.97389597980003,331.6535266210824L241.74505330818158,342.19767429622635L242.45689084207223,346.287732403278L243.16872837596287,347.9888064659025L243.76192632087177,340.9772799989628L244.11784508781707,339.6058637404029L245.12628159416215,335.0911303405282L245.48220036110746,340.49224800142656L245.54152015559836,347.85911886758043L246.3719972784708,347.4366717251016L246.7279160454161,345.66930401167275L247.02451501787053,352.1124883391216L248.3888702911609,351.6593384595916L248.80410885259712,347.4099940229644L249.10070782505156,337.9205914270155L249.87186515343308,339.5365786847724L250.2871037148693,341.2706838594619L251.17690063223262,334.2290515458473L251.88873816612326,339.25284129854464L252.0666975495959,340.4728318465549L252.89717467246834,339.61958111296445L252.9564944669592,346.0706167929279L253.07513405594096,344.98048574041763L254.97336747964934,341.53945962303476L255.03268727414024,349.0206568389339L255.09200706863115,347.08629564951724L255.50724563006736,345.38711566255097L256.1597633694671,335.9756292574165L257.0495602868304,342.7080274174814L257.34615925928483,338.69735031204675L259.896910422393,345.9086114514085L260.43078857281097,352.53943483946813L260.96466672322896,361.5833291764615L261.32058549017427,353.16639334846514L261.5578646681378,348.5306560049894L262.5663011744829,350.37076526020445L262.6849407634647,347.4262220015265L262.74426055795556,338.1125900546877L265.53229089902726,346.8089695191951L266.0068492549544,344.59473922576507L267.37120452824473,339.13643460027885L267.9050826786627,344.9599225144986L268.1423618566263,344.6297081423828L268.3796410345898,350.3224307426015L268.4389608290807,353.0757966628041L269.09147856848045,350.65852356020184L269.26943795195314,347.3369751332613L269.74399630788025,351.7235691172722L269.9219556913529,348.0268105124835L271.34563075913417,358.78562890198157L271.5829099370977,356.0836243087605L271.7015495260795,358.2780536405588L273.3625037718243,354.7643697676297L274.72685904511474,358.55121294947185L275.61665596247803,359.3286237096243L276.09121431840515,355.102709800404L276.3878132908596,351.25157768704037L276.684412263314,338.3139129747503L276.9216914412775,348.09892931259617L277.0403310302593,350.55855755106796L277.9894477421135,348.3515275784256L279.0572040429495,353.14296437917494L279.11652383744035,344.30214341730937L279.53176239887654,352.9135355998864L279.7097217823492,349.980434574579L281.1333968501305,346.6654390747584L281.3113562336032,343.72136472713487L281.7265947950394,342.5850560776775L281.90455417851206,347.0449318438219L281.96387397300293,352.0208950261509L282.08251356198474,352.3601160783942L282.14183335647556,351.7972045428846L283.6248282187477,348.28710827495024L284.15870636916577,342.6056787722824L285.582381436947,348.35261108854L286.0569397928741,346.30501090694423L286.88741691574654,348.2496395993017L286.9467367102374,346.0525135253202L287.9551732165825,335.02987724808975L289.67544725681825,334.0499019271872L289.7940868458,341.8067203987391L290.38728479070886,350.41289702884603L291.3957212970539,348.36216114052115L291.6923202695084,340.0824018838503L292.9973557483079,341.5300897896088L293.17531513178056,348.0761188964639L293.471914104235,354.20157999164354L294.12443184363474,359.07655760389787L294.24307143261655,360.11266995156734L294.65830999405273,358.5780256996244L295.0142287609981,359.36705708249525L295.4294673224343,343.4655298588127L295.7853860893796,341.6301423929405L295.96334547285227,341.4857139538444L296.9717819791973,345.0465536172813L297.683619513088,341.68041391487037L297.8615788965606,348.7270961489927L298.27681745799686,354.3458645281084L299.22593416985103,346.53875862538007L299.3445737588328,347.2745033861386L299.70049252577815,355.628013012386L299.9377717037417,351.63870228328267L300.8868884155959,342.69625936866953L301.8953249219409,345.47644918135006L303.08172081175866,339.3695017081496L304.14947711259464,344.4229849947432L304.26811670157645,340.6831349092464L304.3867562905582,346.76567672030615L304.5647156740309,354.1439843936532L304.74267505750356,351.1291711473459L305.7511115638486,350.4549734981011L306.40362930324835,354.92628620963535L307.2341064261208,361.3819318012458L309.0137002608474,357.57091689806055L309.1323398498292,342.1959912846137L310.55601491761047,350.69395486472087L310.79329409557397,352.863353707597L310.9119336845558,348.81011557584253L311.2678524515011,349.7550404522373L311.44581183497377,352.39937425643734L311.5644514239555,359.3861564843686L312.0983295743735,349.7146767536624L312.51356813580975,354.8818608922647L313.28472546419124,359.8137072337802L313.7592838201183,349.5607118581973L314.53044114849985,331.76988141659183L314.64908073748165,341.2285668342249L314.8270401209543,339.85123978020204L315.53887765484495,346.7713554353729L315.7761568328085,352.3647104243091L316.07275580526294,351.8430478150762L316.1913953942447,348.1131952003289L316.78459333915356,349.83452858515227L317.0218725171171,346.35709485692246L318.74214655735284,342.87543288261423L319.0387455298073,340.281444601753L319.45398409124346,338.90394163072295L322.06405504884253,346.22905874338153L322.5386134047696,348.9554333374778L322.95385196620583,347.31140144850383L323.19113114416933,336.624261990548L323.84364888356913,342.05816450627304L324.19956765051444,347.07357436393704L324.55548641745975,351.6132453436622L325.8605218962593,351.5779146446922L326.513039635659,339.16818821367093L326.80963860811346,348.5686812652072L327.34351675853145,350.3857919196924L327.4028365530223,355.511229838793L328.114674086913,362.2761719151385L328.76719182631274,354.49399320811307L328.9451512097854,358.37065725021597L329.5383491546943,360.14846972708114L332.32637949576593,357.02315792082294L332.6229784682204,348.09143560621385L332.68229826271124,347.58491110324525L333.27549620762017,351.3128992636233L337.60584120545485,336.56023121699366L338.25835894485465,330.2777403855125L338.3176787393455,335.3649055431342L338.43631832832733,338.3639603710122L338.5549579173091,347.75345704726277L338.7329173007817,335.5874390236006L338.79223709527264,343.48365797872435L340.2752319575448,350.3352454413191L340.57183092999924,350.5088949884148L340.7497903134719,350.8356023161891L341.22434866939903,342.36398260033366L341.8768664087988,340.52717402916807L342.4107445592167,348.4081045045257L342.5887039426894,354.21796056467105L342.64802373718027,346.6512942461144L343.53782065454357,343.5950977294641L344.4869373663978,343.4374122067235L344.8428561333431,354.6159480674375L345.08013531130666,360.5557498998314L345.61401346172465,352.19967296995793L345.7326530507064,347.0843305832017L346.2665312011244,352.2005716661194L346.5038103790879,359.3729547553198L346.85972914603326,351.1512628947296L347.1563281184877,351.2111259092603L348.69864277525073,348.7866581294069L349.2325209256687,352.37204136033586L350.1223178430321,353.4009434231278L350.5375564044682,362.17279105981873L350.89347517141357,355.99694664348L351.1307543493771,349.7533116851757L351.190074143868,349.8872725865799L352.31715023919486,355.01303524911407L352.4951096226675,353.3699370874697L352.85102838961285,362.7732319976269L354.63062222433945,357.3978645485835L354.9865409912848,340.9529517474672L355.87633790864805,340.0721761546834L355.99497749762986,351.59209237277247L357.0034140039749,344.4426321641508L357.0627337984658,351.44707555619306L358.18980989379264,334.2494391256942L358.2491296882836,347.7328496082139L358.4270890717562,355.1097711277579L358.9609672221742,353.48706700860686L359.61348496157393,357.16253291664333L361.0964798238461,354.6192497033379L361.2744392073188,349.12819069442713L361.9269569467185,352.1655179120721L362.1049163301912,349.7690614159407L362.22355591917295,352.3935862265041L362.34219550815476,351.57724266088167L363.0540330420454,340.1699216203481L364.0624695483905,353.13379012212425L365.3081852326991,356.97315592935746L365.72342379413533,363.589754351032L366.1979821500624,363.5614027536353L366.43526132802594,356.7353073704759L366.8504998894622,355.59246605894566L366.909819683953,346.8045680261854L366.96913947844394,342.4037481500417L367.5623374233528,345.4018973944376L369.1046520801159,344.96902553408245L369.40125105257033,349.5490712264569L370.35036776442445,349.8022493313165L371.00288550382425,347.9322163859269L371.2401646817878,352.52842470450116L371.2994844762787,352.5126284760716L371.77404283220574,343.8261083402556L371.9520022156784,344.2269225210478L372.1299615991511,353.0454688985376L372.3079209826237,363.0223406247066L372.8417991330418,353.71632900488265L373.0790783110053,351.1220482197959L373.4943168724415,351.58317720550167L373.5536366669324,347.1307545656495L373.9095554338777,328.0539903096535L374.26547420082306,339.7267342008844L374.3841137898048,342.86570546157236L374.56207317327744,346.8029773911681L376.6382659804585,342.97403967790575L377.35010351434914,358.26630702239527L378.477179609676,361.68707232307287L378.59581919865775,364.1524991327991L379.72289529398466,354.3305213730393L379.84153488296636,349.73678051962395L381.02793077278415,354.58385776176954L382.45160584056543,360.3122050443661L382.6295652240381,361.9097668471471L383.40072255241967,357.7063698417999L383.8752809083467,364.1297330752417L384.40915905876466,362.344992642124L384.58711844223734,361.0572855819067L384.70575803121915,362.1373799115268L384.76507782571,360.13425228683013L385.59555494858245,356.76233025224286L387.37514878330904,365.8979284701115L387.7310675502544,358.0825039784178L387.90902693372703,361.77290534301835L388.3242654951632,366.62550215427876L389.09542282354477,362.2086949573865L389.2140624125266,355.25542667557227L389.27338220701745,361.1017643607854L389.68862076845363,357.1014562083172L390.7563770692896,361.64319794307374L392.12073234258,351.4035335106216L392.4173313150344,354.09209239466367L393.6037272048522,353.8554712924023L393.72236679383394,359.8221482762133L394.07828556077925,359.1859452208285L395.6206002175423,338.94268744186127L395.9171991899968,345.84866275852625L396.6883565183783,343.54300108432125L396.9256356963418,350.489090200205L397.9933919971778,357.5256862444476L398.46795035310487,351.23346090150574L399.8323056263953,349.61293174722357L400.01026500986796,353.0210150269135L400.06958480435884,344.55319765166064L400.3068639823224,347.57777479983616L400.3661837768133,337.83869753183285L401.90849843357637,343.57415218452525L403.2728537068667,353.7212294275679L404.0440110352483,351.7080228103834L404.9931277471025,346.2419539243106L405.64564548650225,346.92829722549135L406.59476219835636,351.56360308577035L407.4252393212288,354.4378338429869L407.4845591157197,356.0947441047962L408.6709550055375,356.4088287871153L410.09463007331874,349.071773688962L410.21326966230055,347.275582625824L411.0437467851729,348.4958401311522L412.17082288049977,345.29391929696624L412.2301426749907,352.51210029690503L412.34878226397245,348.1201911743047L412.6453812364269,353.64472656656517L414.84021363258967,355.44458971272115L415.2554521940259,360.27618886812365L415.4927313719894,363.3659429883184L415.8486501389348,370.35215429666255L416.2045689058801,367.8188262714015L416.5011678783345,368.0294404224118L416.6791272618072,368.0982381489595L416.797766850789,362.5864799580988L417.68756376815224,358.62581640879586L418.2214419185703,358.9496545036256L418.69600027449735,354.00771078725813L419.70443678084246,357.7650239046996L420.00103575329683,352.8842693262972L420.11967534227864,355.3902037987973L420.83151287616926,358.6439623905679L420.95015246515106,351.51623589567316L421.30607123209643,355.71364061683227L422.01790876598704,354.13143545931644L422.3145077384414,361.92963439733256L422.9077056833503,363.784432355788L423.5009036282592,366.8994646516185L425.161857874004,363.81274525682085L425.28049746298575,357.24678588064734L425.51777664094936,357.87763131230315L426.40757355831266,361.53126501979625L428.839685132439,360.23772085178064L429.0176445159117,359.40388935430184L430.08540081674766,352.53455258533194L431.1531571175836,350.69304168129963L432.1615936239287,350.35420665998015L432.3395530074014,356.151976870304L432.63615197985575,348.5845573026546L432.93275095231024,349.73920556935377L434.0005072531462,356.5324589904809L434.05982704763704,355.5415467019779L435.06826355398215,362.13985779350776L435.24622293745483,360.8381732604339L435.661461498891,362.4555026108261L437.26309595014493,353.09201168279617L437.38173553912674,349.3715935990375L437.7969741005629,344.8413686020994L438.8647304013989,353.70146746131974L438.9833699903807,364.28106343039303L439.3986085518169,350.33071102936816L439.93248670223494,346.57964608215156L440.52568464714375,359.29443411946835L440.5850044416347,351.3521142081335L441.1782023865435,344.03660317407736L441.4154815645071,352.08822436861226L441.474801358998,357.85957065348595L442.6018774543248,353.0963666140627L442.89847642677927,348.7249414498846L443.01711601576096,360.01149188325616L443.2543951937245,358.2993801939316L443.7882733441425,354.52912587281L444.8560296449785,349.51266435343894L446.0424255347962,349.1696768797661L446.33902450725066,357.0685218770069L446.87290265766865,344.20638042272554L447.228821424614,348.3511282008986L447.2881412191049,350.9749342004062L447.5254203970684,357.86576681848555L447.70337978054107,360.36273471976426L449.00841525934055,354.603466066636L450.07617156017653,361.61857544184517L450.31345073814015,367.60449216240175L450.6100497105945,363.52817759460027L451.02528827203076,347.3131512182127L451.5591664224487,358.3598339855097L451.6778060114305,364.9343073731771L452.27100395633937,354.4495697408197L452.62692272328474,346.2958570040177L452.74556231226643,352.61797363707626L453.1014810792118,350.7498740609351L453.2201206681936,362.78106693445716L453.33876025717535,362.9802139868621L454.050597791066,358.7204764822595L454.1692373800477,358.5202620343193L454.28787696902947,366.30224839696666L455.6522322423199,358.865778881017L456.18611039273793,361.71734159882635L456.3640697762106,364.31224304551733L457.31318648806473,372.64277107524276L457.9063844329736,372.8482191072805L457.96570422746447,368.0182775356254L458.0843438164463,354.5323247270488L458.44026258339164,359.18063691617226L458.7961813503369,361.67750401614484L459.21141991177313,362.13045410652495L459.50801888422757,366.29969306304713L459.9232574456638,351.51607808169416L460.27917621260906,360.5847452027124L461.0503335409906,337.6100076539125L462.5926481977537,355.0927735903231L463.95700347104406,359.9257236716121L464.1942826490076,353.01350057175296L464.25360244349855,346.6137014272098L464.66884100493473,354.9421623903158L465.67727751127984,365.8456947326903L466.3297952506796,354.768615426163L466.9823129900793,361.16796849142366L467.39755155151556,366.4486280141369L467.7534703184608,355.452193071101L469.1771453862421,361.41128598116705L472.4397340832409,363.4359353434056L472.67701326120454,354.1793441629076L473.448170589586,364.22127247399317L474.10068832898577,356.1046602670625L474.33796750694927,359.40681136169155L474.81252586287644,360.87003025477645L474.8718456573673,356.13666280200675L475.1091248353308,357.8703460762576L475.64300298574886,346.6027519151441L475.70232278023974,342.21485298364155L476.2955207251486,326.12632015469353L476.3548405196395,331.35153904793896L476.4141603141304,342.0240929417283L476.8887186700575,339.90308414784806L478.07511455987515,343.54182571729206L479.49878962765644,352.41640503527253L479.8547083946018,360.79551851981677L479.9140281890927,358.98221928269436L480.09198757256536,359.3189155532535L480.6851855174742,360.56038457492446L481.2190636678922,362.8318684288494L481.39702305136484,360.7694570548661L481.9902209962737,351.31226327646357L482.2868199687282,346.1345816247989L484.4223325704001,353.51442955697536L484.9562107208181,359.0902575391505L485.07485030979984,362.0253531465184L485.3121294877634,363.4578110828084L485.6680482547087,362.055777889962L485.8460076381814,357.797131935582L486.26124619961763,353.4133015178866L486.7358045555447,354.56680720016703L486.9137639390174,357.14133465174154L487.38832229494443,355.918548332415L487.62560147290804,356.1896537136219L487.8628806508716,350.43578621899474L489.22723592416196,356.2507459408287L489.4645151021256,348.3964460742372L489.87975366356176,357.4430924413784L490.1170328415253,354.98944722338416L490.76955058092506,351.400401800567L491.4813881148157,352.25017277246366L492.4305048266699,355.59411952437523L493.91349968894207,357.31057218274236L494.8032966063053,361.306394457283L495.63377372917773,351.4263952230202L496.1083320851049,357.13059205118304L496.58289044103196,359.7180470718969L496.93880920797733,349.16494940788624L496.9981290024682,346.617218303074L498.00656550881325,354.48247026126273L498.5404436592312,354.09977848074965L499.3709207821036,352.9738982795525L499.5488801655763,351.2625371695789L500.8539156443758,343.19868406208474L501.8623521507209,356.09136513713855L502.57418968461155,357.25950705542124L502.75214906808424,360.305860655688L503.1080678350295,364.1110423886389L504.1758241358655,371.5951692434012L504.2944637248473,371.6798235319989L505.3622200256832,356.99759733846207L505.5994992036468,350.6761689030999L505.77745858711944,351.1229597042031L506.84521488795536,349.53399913911016L507.082494065919,360.2590628041147L507.4977326273551,349.6817058176387L508.26888995573665,352.05372174506334L508.624808722682,359.7617151687047L509.45528584555444,361.3702203090556L510.1671233794451,356.17382116014113L510.58236194088124,357.66107781642086L511.0569202968084,353.99964858443514L511.5314786527355,362.44717113259634L511.59079844722635,358.94586857461724L512.8958339260258,358.9364761965267L513.1331131039894,366.80918060117153L513.9635902268618,371.2362052709723L514.6754277607525,370.4396232403277L514.7347475552434,367.27953014966636L515.1499861166795,361.0979489320817L515.980463239552,360.486273449203L516.3363820064974,357.50294434641756L516.7516205679335,357.91876233012573L516.8702601569153,354.41013670120344L517.4041383073333,357.950341171349L517.5227778963151,357.01611105078814L517.582097690806,361.37998246039353L518.7091737861327,357.1637196905628L518.8871331696055,361.36489202000064L519.4210113200235,367.74617188926845L520.192168648405,364.3582375273759L521.0226457712773,361.94186915849L521.6158437161862,349.9667719442856L522.5649604280404,340.0410383146992L523.2174781674402,354.637154314926L524.2852344682761,360.6436238757378L524.878432413185,361.3383463462306L524.9377522076759,353.3348743277178L525.2936709746213,353.5612699397376L525.7089095360575,357.75753860587895L525.946188714021,361.48481276387633L526.005508508512,356.7492346178518L526.0648283030027,352.81968398799376L527.3698637818023,357.055889204583L527.4291835762932,362.5927706277692L527.6664627542567,354.5067473579929L527.7851023432385,359.80604585615896L528.3189804936565,360.8040364924836L528.5562596716201,356.8527580783081L530.2765337118558,344.81464854550615L530.3358535063467,357.499326498096L530.8697316567647,356.3965725885623L531.0476910402373,359.0033811406458L531.4629296016735,365.15586648523566L532.0561275465823,365.1487634184391L532.1154473410733,358.8999965100824L532.1747671355641,355.0215204475199L532.234086930055,365.0763002761335L532.5306859025095,362.6004925363733L532.8866046694548,367.9590398776727L533.1238838474184,364.3186083205296L533.2425234364001,365.9957077127209L534.1916401482544,365.6275636514751L534.5475589151996,364.78632621190764L534.6068787096905,371.6577163074632L535.0814370656176,370.16155574010423L536.2085131609444,363.06167266461546L537.2169496672894,364.48557930812206L538.7592643240525,364.168922072689L540.123619597343,366.5076667693151L540.8947769257246,363.9217067127722L541.0727363091971,366.91842839879735L542.9116499384147,370.01998578058044L542.9709697329056,371.0450777829342L543.9200864447597,366.1733144067947L543.9794062392506,352.308108794106L544.5726041841596,362.636838688222L544.7505635676322,367.4583992209309L544.8692031566139,370.49813042059156L545.5217208960137,370.0082872738843L545.877639662959,357.3310453714038L546.0555990464317,365.037681009574L546.2928782243952,370.23201675639734L547.3606345252313,355.64597639445645L547.4199543197221,343.74183319459127L547.6572334976856,346.1457962632992L547.8351928811583,352.52880870288044L547.95383247014,356.68557374961546L548.7843095930125,360.81249034750385L549.0215887709761,367.475530244643L549.6741065103759,374.5309797253094L549.8520658938484,376.79305303841824L551.0384617836662,366.5981934499197L551.5130201395932,370.2355533270848L552.1062180845021,359.4836168857384L552.1655378789931,357.34523461282055L552.8180556183928,355.7666721213481L554.1824108916833,354.31237677543095L554.4790098641377,362.00946038569157L555.4874463704828,361.39365999459994L556.8518016437731,370.5330997147169L558.0975173280817,367.8751610088006L558.1568371225726,364.24371542966685L558.3941163005362,368.25345979317586L558.6313954784997,354.67331387327073L559.6991517793357,365.03566395627763L560.0550705462811,363.2026885376504L560.1143903407719,362.43865711242114L562.6058217093891,362.862010275134L563.0803800653163,369.7890568376071L563.5549384212434,370.8758061926405L563.6142582157343,364.8405228634093L564.6226947220794,361.1780573050217L565.3938520504609,366.25345810372835L565.6311312284244,365.8928626286734L566.2836489678241,360.2264930474901L566.9954865017147,367.9630855293769L567.1734458851874,357.02164063020695L567.2920854741692,361.5139886773702L567.5293646521328,335.9459198816897L568.0039230080598,349.28294732429714L571.563110677513,358.18784103426344L571.9190294444584,359.8240959727511L571.9783492389492,365.57620646200394L572.0969888279311,365.75227618554277L572.9867857452944,363.1255400970837L573.4020243067306,367.5666289962464L574.766379580021,350.88098381050463L575.0036587579846,336.9172557092286L575.6561764973843,349.48075667005276L575.8341358808569,351.35579776210324L576.842572387202,360.80695723027816L577.1984911541474,369.86013439462874L577.9696484825289,364.74853340780675L579.1560443723466,359.78659401744L579.6899225227645,355.96488387324604L580.520399645637,350.5290235867354L580.6390392346187,341.70822576642286L580.7576788236006,346.1435483271977L581.2915569740185,345.78869737686074L581.8254351244366,352.55654772863215L582.2999934803636,357.76130745677256L583.4863893701813,352.44851220055625L583.6050289591631,357.89186471037056L583.7829883426358,361.362334520924L583.9016279316176,349.74828511054073L584.2575466985628,352.09122107825857L584.9693842324535,355.06492473704037L585.0287040269444,361.7467249181002L585.4439425883807,367.3691693167868L585.6219019718533,354.5232649978153L585.9185009443078,359.73714086097146L586.3337395057439,365.551763448192L586.4523790947256,364.79493081305515L589.477688613761,354.8533404116296L590.1302063531607,360.97167022685204L590.3081657366333,350.5006524953716L590.6047647090878,357.73939693788327L591.5538814209419,360.29520215599695L591.7911605989055,363.38114854184914L591.8504803933964,362.994873427703L591.9691199823782,367.16286216824494L592.1470793658509,369.3033270014604L592.562317927287,366.5035962436527L592.7995971052507,367.4958913143679L593.0368762832142,366.97105314205015L593.5707544336321,365.1772855221756L593.630074228123,355.10849584632695L593.9266732005774,363.6159950290232L594.163952378541,363.05051155650614L594.2232721730319,367.02630455659397L595.1130690903952,368.3475817127053L596.9519827196127,363.76330014989554L597.6638202535033,364.2029294891508L598.0790588149396,368.6913890206396L598.375657787394,357.45120987928533L599.2061349102664,361.35661888266594L599.7400130606843,360.4375961182405L600.6298099780477,363.2579363532499L601.2823277174474,363.4093785163499L601.6975662788836,360.52764962218333L601.7568860733745,361.75126792630454L601.9348454568471,359.29703574257354L602.2907642237925,362.49620701375056L604.5449164144462,362.23764542078715L604.7228757979188,371.6583599049814L604.8415153869007,369.4336839043667L605.0194747703733,369.5983847904908L605.0787945648642,370.27643807139117L605.3160737428277,365.7896579265791L607.2143071665361,362.48113458779693L608.0447842894085,358.0977626566352L609.6464187406625,348.3555067491634L610.0023375076079,358.4950383236505L610.2396166855714,357.248913422502L611.3073729864074,362.4122406247178L611.6039719588617,356.62090867828124L612.4937688762251,365.0199791734542L612.6717282596977,360.21930909427147L612.8496876431705,369.3566665557145L614.095403327479,362.4082467085664L614.7479210668788,363.75292150677694L615.5190783952603,371.59233866059947L615.5783981897512,368.2352460360966L616.17159613466,363.1139733285982L616.3495555181327,357.21232354292414L616.5868346960963,364.19795870178547L617.5952712024413,368.2412857350373L617.7139107914231,371.47702715797L617.8918701748958,367.74562055883763L619.1375858592044,354.8404640052861L619.2562254481861,357.46688034011703L619.5528244206406,351.3932894676008L620.2053421600403,354.0374609494293L620.6799005159675,354.9598600166883L620.917179693931,361.6706084236805L621.9256162002762,368.7356340003349L622.2815349672214,362.22288867976346L622.8747329121303,364.6861586144565L622.993372501112,356.6049555510976L623.3492912680574,356.6917935173562L623.6458902405118,359.0367786202013L623.9424892129663,353.0306795790896L624.1204485964389,358.70881652799744L625.0102455138021,361.2537520347401L625.069565308293,357.57255014160074L626.671199759547,365.66314012496434L627.1457581154742,356.8771743803932L627.738956060383,357.43252839440134L627.9169154438557,355.10405337939864L628.3914737997828,360.4088870882581L629.6371894840913,355.0809609496625L629.9931082510367,363.631589744062L630.6456259904364,367.23446401920285L630.7049457849274,363.19687332517884L632.6031792086358,364.5607694279167L632.6624990031266,366.65821064102585L633.018417770072,366.45789445551867L636.1030470835981,364.53212386309673L636.2216866725798,362.6943200819627L636.6369252340161,366.1292009313009L636.8148846174887,362.8309886154222L637.2301231789249,364.4172433102009L638.8317576301789,365.6182330283151L640.0774733144875,365.7223345430604L640.6706712593964,355.028287558901L641.6197879712505,364.3276536814069L641.7384275602324,366.5093526168659L641.8570671492141,360.99861105216985L642.1536661216685,362.1988747638348L644.051899545377,365.3932645730514L644.3484985178313,351.5161736001689L645.0010162572312,362.3662160153967L645.0603360517221,345.284048183344L645.1196558462128,352.14630600919355L645.2976152296856,361.1139497437399L645.8908131745944,361.1460195699691" style="fill: none;" fill="none"></path></g></g></g></g><g opacity="0.2"><g><g><g><path stroke="rgb(238, 51, 119)" stroke-width="2px" d="M90.59821694540163,15.16360493705552L90.95413571234695,16.527007569933634L91.90325242420114,28.509411811939845L92.02189201318292,25.034069410322953L92.19985139665557,17.323988654044165L92.85236913605533,40.33366198964321L93.74216605341864,57.83899688762202L93.92012543689131,62.44620068558949L95.10652132670903,75.5830254164729L95.58107968263614,85.55502584082814L95.81835886059967,99.92949527937694L97.00475475041742,117.83241915709866L98.72502879065314,145.39880880117403L98.90298817412581,151.6471164589391L99.43686632454379,158.3527365909603L100.08938406394353,173.17327902693802L100.38598303639797,185.10435432129486L100.50462262537974,166.98633771056635L103.11469358297877,217.03875326451433L103.41129255543322,217.7108779857245L104.30108947279652,205.81592528801545L104.65700823974184,270.00579956595647L104.95360721219626,255.19334113871275L105.36884577363247,258.9221527757652L105.7247645405778,252.07927479036945L106.85184063590465,262.583357256751L107.80095734775884,297.32292726538725L107.9195969367406,250.0397705447478L108.39415529266772,284.9942129044923L109.10599282655836,275.98663372036765L109.63987097697634,290.2340129249533L110.11442933290344,266.28359938586124L111.06354604475762,248.29681017837362L111.30082522272117,291.010638735523L114.50409412522907,278.98105273250417L114.56341391971996,284.8350571042868L115.57185042606503,305.1163324140445L115.7498098095377,302.04552102197556L115.92776919301035,284.36726647248946L116.81756611037368,311.3400474554007L116.99552549384633,290.1675176957385L117.0548452883372,287.0579491415979L117.64804323324607,280.75111005504374L118.77511932857293,304.3031632777479L120.02083501288155,293.6983763010777L121.02927151922664,316.7734730084757L121.32587049168106,316.5517087143576L122.92750494293502,295.88067799961533L123.5207028878439,285.0970811643306L123.87662165478922,300.546082653524L124.29186021622542,303.65588160692226L124.3511800107163,338.48350420139724L125.2409769280796,304.34417434560044L126.30873322891559,317.6830391906798L126.42737281789735,287.3039754792771L127.139210351788,311.5031951731781L127.5544489132242,307.974515343427L127.6137687077151,301.7477249728499L127.73240829669686,308.9875107575748L127.91036768016953,307.49622651937045L128.0290072691513,311.6600469808075L128.74084480304194,272.689600309414L129.3340427479508,310.3314646879039L130.34247925429588,302.6960883865617L131.88479391105895,299.5161679199813L132.12207308902248,312.3843521251843L132.35935226698604,276.83939145953514L132.83391062291312,298.45107222153916L133.36778877333114,321.4287150516525L134.13894610171263,302.29742754940304L134.3762252796762,308.3889835731288L134.91010343009418,306.18476389304226L135.14738260805774,312.53742237978145L135.2660221970395,309.4010273381691L135.38466178602127,346.5605909403125L135.79990034745748,292.65278440065924L136.0964993199119,308.5789227176213L136.2151389088937,307.3510850044424L136.51173788134813,331.93267730972576L136.6303774703299,301.4064736202693L136.86765664829346,317.4250521263235L137.104935826257,307.15749954126443L137.46085459320233,314.5348286740962L137.5201743876932,331.35678935667863L138.88452966098362,306.3145287618654L139.12180883894717,305.3104888666869L141.07936205714643,338.0006424529453L141.49460061858264,329.81788760234406L141.85051938552795,297.66405840965956L142.68099650840037,301.1890768946865L142.91827568636393,304.49494561630115L143.33351424780014,315.98680980416196L143.4521538367819,315.9635494965035L143.80807260372723,338.1313088840808L143.926712192709,317.71428333348194L144.7571893155814,344.6305563941273L144.8165091100723,351.91298858056575L145.40970705498117,317.46204122452707L145.58766643845382,329.7869740323897L146.1215445888718,317.339599045152L146.35882376683537,311.11601923814266L146.5961029447989,317.9000051698244L147.1299810952169,330.6437537412061L147.18930088970777,354.58044850711207L147.5452196566531,269.758891700683L147.60453945114398,297.90187051293736L147.9011384235984,317.91514139931274L148.9688947244344,347.67186165518507L149.14685410790705,292.41770703639554L149.68073225832504,327.50853573927935L151.46032609305163,326.2163264769992L152.23148342143315,312.9107893853995L152.5874021883785,316.7647328627255L152.76536157185114,348.1983089327593L152.88400116083292,354.399196917235L153.12128033879648,295.4672415578932L153.4771991057418,324.3898263450275L153.77379807819622,312.0709690654141L154.36699602310512,285.2088248042659L154.72291479005042,279.66612989893497L155.01951376250486,311.55707854737904L155.61271170741372,317.1133820349468L158.104143076031,353.6331920115726L158.34142225399452,312.9625190274099L158.40074204848543,303.0648073375916L158.4600618429763,324.0113354602677L159.52781814381225,328.7321611529878L160.2989754721938,333.84203602688126L161.07013280057532,352.2204213290745L162.6124474573384,321.5664487295808L163.32428499122904,265.3646168861727L163.97680273062878,318.7819184324371L164.15476211410146,348.45929619614384L164.3327214975741,303.90699676298664L165.51911738739184,323.6089832263078L165.87503615433718,337.39750227466783L166.2902747157734,317.14982017840396L166.6461934827187,329.11019123923245L167.5953101945729,319.8697385098298L167.77326957804556,310.3243573716749L168.4257873174453,345.9731229202313L168.60374670091795,337.1426256002892L168.78170608439063,301.8206313118413L168.8410258788815,328.25803955028607L171.6883760144441,314.6482602390274L171.86633539791677,325.57985854524213L172.04429478138942,317.2967648179567L172.1036145758803,333.5588853566516L173.4086500546798,332.837685593573L174.12048758857046,311.67002427039745L174.23912717755223,332.246851740859L174.71368553347932,321.4253692537378L174.95096471144288,329.98120060654537L176.43395957371504,297.53684796738804L176.49327936820595,309.705259540469L177.1457971076057,319.21648649302466L177.6203554635328,335.65750704656534L177.85763464149633,314.8315929352422L177.9762742304781,353.14819906998787L179.8745076541865,344.99869934701326L180.11178683215005,339.67094190562426L181.5947816944222,337.89415291781916L182.5438984062764,332.1870230640761L182.6032182007673,326.8223266112786L183.4930151181306,322.4352292345105L183.73029429609414,339.7947664805449L184.67941100794835,309.4227750246146L184.73873080243922,358.39437764380864L185.50988813082074,364.73647532979464L186.04376628123873,304.9334755423834L186.34036525369316,326.667944082649L186.6369642261476,344.34001291293646L186.81492360962028,332.7165005927556L187.1115225820747,324.7856372435433L187.28948196554734,331.54320739947343L188.00131949943798,327.7470941358046L188.4758778553651,306.2991020289653L188.8911164168013,344.543280153613L189.30635497823752,321.69570772177315L189.84023312865548,312.6385175670721L190.07751230661904,326.80282782193444L190.19615189560085,332.8773793787136L190.31479148458257,328.27197870537077L190.49275086805525,324.8233225481992L190.90798942949147,340.77937269921296L191.44186757990943,334.9369033163487L192.03506552481832,358.4449302461335L192.27234470278185,358.8529698356803L192.39098429176366,330.79484556739567L192.56894367523628,317.00521459218373L192.86554264769072,310.57893853396234L193.0435020311634,318.8468860144004L193.1028218256543,336.2675792372888L194.28921771547203,314.9111508006269L194.82309586589,290.34405361385416L195.1790146328353,348.299619493269L195.59425319427152,346.6901554619551L195.65357298876242,347.02399897753594L196.18745113918038,338.30419347483144L196.6026897006166,329.2824146842874L197.84840538492523,340.13395926584565L198.08568456288876,304.9385643607686L198.67888250779765,312.8454812132293L198.9161616857612,337.26489247588137L199.4500398361792,321.661984282612L200.22119716456072,337.2563326425936L200.39915654803337,325.0525998615868L200.75507531497868,330.8306526172342L200.8737149039605,313.8104383821678L202.89058791665062,335.9374772053042L203.24650668359592,324.69982854612635L204.25494318994103,352.1941332746504L204.8481411348499,325.4656105655504L205.02610051832258,313.8840008581754L205.14474010730433,355.461773249882L206.21249640814028,331.5895777544049L207.0429735310127,338.3342355345505L207.16161311999448,310.5372913638117L208.22936942083044,295.29921037759067L208.466648598794,360.07500248930364L208.94120695472108,326.34887116295204L209.94964346106616,348.3394034346409L210.30556222801147,345.4139689654371L211.72923729579279,346.5391888527534L212.50039462417433,328.37798740726373L212.67835400764696,338.5312920126309L212.73767380213786,331.48549238544496L212.85631339111964,338.1315442920179L212.9749529801014,337.27001134634367L213.21223215806498,365.3612755426261L213.4495113360285,344.99287425273957L213.86474989746472,359.1009069845937L214.75454681482805,345.6103392544243L216.77141982751817,359.2965835714683L217.0086990054817,341.5345162833513L217.4239375669179,352.4348929858217L217.9578157173359,343.8285215523881L218.66965325122655,355.92134463859844L219.26285119613541,340.4546650150638L219.3814907851172,331.34456316998734L219.50013037409897,334.4968407343355L219.7967293465534,345.51514429159994L219.97468873002606,334.36307893926096L220.44924708595315,338.68354084378797L220.68652626391673,330.70119327786136L221.87292215373444,317.26283101425605L222.1695211261889,308.08887351406815L222.22884092067974,366.1591556847093L222.34748050966155,343.5405775758646L222.52543989313423,297.1973897220731L222.76271907109776,337.1681848918441L222.82203886558864,336.1213257955088L223.23727742702485,330.96985884693936L223.4152368104975,339.6852116335568L223.71183578295194,328.46001455164827L224.8389118782788,315.0629989374229L225.4321098231877,352.3662565461151L225.788028590133,335.6653356126442L226.1439473570783,358.7430919288636L226.38122653504186,354.83018377197067L227.09306406893248,344.8743638867822L227.15238386342338,325.7165303831137L228.63537872569555,343.99594167379007L229.16925687611356,330.1707240306382L231.24544968329457,348.2699180237568L231.30476947778547,345.2000682981544L231.42340906676725,359.4900312959597L232.25388618963964,364.27496307776687L234.0334800243663,340.03018443501554L234.50803838029336,333.8124197049208L234.92327694172957,307.68231899799696L235.04191653071135,343.4684375648386L235.16055611969315,332.947210388484L235.45715509214756,316.6804167518034L236.94014995441975,349.282097023144L236.99946974891063,326.66668690409125L237.5926676938195,347.94809533900724L237.71130728280127,341.5088367834881L238.0079062552557,350.77991758811277L238.83838337812813,356.39145178467055L239.19430214507344,339.5725363792321L239.7281802954914,337.42566107089L240.61797721285473,355.8521071573503L240.85525639081825,338.82944868668153L240.97389597980003,312.9829394137844L241.74505330818158,358.0138958089424L242.45689084207223,352.42281956385557L243.16872837596287,350.54041755983906L243.76192632087177,330.4599902985532L244.11784508781707,337.54873935256325L245.12628159416215,328.319030240716L245.48220036110746,348.5939244927741L245.54152015559836,358.9094251668112L246.3719972784708,346.8030010113833L246.7279160454161,343.01825244152957L247.02451501787053,361.7772648302949L248.3888702911609,350.97961364029663L248.80410885259712,341.03597736802357L249.10070782505156,323.6864875330922L249.87186515343308,341.96055957140766L250.2871037148693,343.8718416214962L251.17690063223262,323.66660307542554L251.88873816612326,346.7885259275907L252.0666975495959,342.30281766857036L252.89717467246834,338.3397050125787L252.9564944669592,355.7471703128732L253.07513405594096,343.3452891616522L254.97336747964934,336.3779204469605L255.03268727414024,360.2424526627827L255.09200706863115,344.1847538653921L255.50724563006736,342.83834568210165L256.1597633694671,321.85839964971484L257.0495602868304,352.8066246575787L257.34615925928483,332.68133465389474L259.896910422393,356.7255031604512L260.43078857281097,362.48566992155753L260.96466672322896,375.14917068195166L261.32058549017427,340.54098960647065L261.5578646681378,341.5770499897758L262.5663011744829,353.13092914302695L262.6849407634647,343.00940711350955L262.74426055795556,324.1421421344295L265.53229089902726,359.8535387159563L266.0068492549544,341.2733937856199L267.37120452824473,330.9489776620496L267.9050826786627,353.69515438582806L268.1423618566263,344.13438658420927L268.3796410345898,358.8615146429295L268.4389608290807,357.20584554310807L269.09147856848045,347.0326139062983L269.26943795195314,342.3546524928505L269.74399630788025,358.30346009328844L269.9219556913529,342.4816726053005L271.34563075913417,374.92385648622866L271.5829099370977,352.03061741892884L271.7015495260795,361.5696976382564L273.3625037718243,349.49384395823614L274.72685904511474,364.2314777222349L275.61665596247803,360.49473984985315L276.09121431840515,348.76383893657356L276.3878132908596,345.47487951699486L276.684412263314,318.9074159063152L276.9216914412775,362.776453819365L277.0403310302593,354.2479999087756L277.9894477421135,345.04098261946206L279.0572040429495,360.3301195802989L279.11652383744035,331.04091197451095L279.53176239887654,365.83062387375196L279.7097217823492,345.58078303661796L281.1333968501305,341.69294582502744L281.3113562336032,339.30525320569967L281.7265947950394,340.88059310349144L281.90455417851206,353.7347454930387L281.96387397300293,359.4848397996444L282.08251356198474,352.8689476567591L282.14183335647556,350.95283723962007L283.6248282187477,343.02196387304866L284.15870636916577,334.0835345182807L285.582381436947,356.97300956292645L286.0569397928741,343.23361063455053L286.88741691574654,351.1665826378379L286.9467367102374,342.7568244143478L287.9551732165825,318.49592283224416L289.67544725681825,332.5799389458333L289.7940868458,353.441948106067L290.38728479070886,363.3221619740065L291.3957212970539,345.2860573080338L291.6923202695084,327.6627629988441L292.9973557483079,343.70162164824643L293.17531513178056,357.8951625567467L293.471914104235,363.3897716344129L294.12443184363474,366.38902402227944L294.24307143261655,361.6668384730715L294.65830999405273,356.27605932171L295.0142287609981,360.5506041568015L295.4294673224343,319.6132390232889L295.7853860893796,338.87706119413224L295.96334547285227,341.26907129520015L296.9717819791973,350.3878131124366L297.683619513088,336.631204361254L297.8615788965606,359.2971195001762L298.27681745799686,362.7740170967819L299.22593416985103,334.82809977128755L299.3445737588328,348.37812052727645L299.70049252577815,368.1582774517572L299.9377717037417,345.6547361896276L300.8868884155959,329.2825949967499L301.8953249219409,349.6467339003708L303.08172081175866,330.2090804983489L304.14947711259464,352.00320992463367L304.26811670157645,335.0733597810013L304.3867562905582,355.8894894368957L304.5647156740309,365.21144590367385L304.74267505750356,346.60695127788495L305.7511115638486,349.44367702423375L306.40362930324835,361.6332552769367L307.2341064261208,371.06540018866144L309.0137002608474,351.85439454328275L309.1323398498292,319.13360286444333L310.55601491761047,363.4409002348818L310.79329409557397,356.11745197191124L310.9119336845558,342.7302583782108L311.2678524515011,351.1724277668295L311.44581183497377,356.36587496273734L311.5644514239555,369.8663298262655L312.0983295743735,335.20745715760313L312.51356813580975,362.63263710016815L313.28472546419124,367.2114767460534L313.7592838201183,334.18121879482294L314.53044114849985,305.08363575418355L314.64908073748165,355.4165949606747L314.8270401209543,337.7852491991677L315.53887765484495,357.1515289181292L315.7761568328085,360.75474290771336L316.07275580526294,351.0605539012269L316.1913953942447,342.51841627820795L316.78459333915356,352.41652866238724L317.0218725171171,341.1409442645778L318.74214655735284,337.652939921152L319.0387455298073,336.39046218046104L319.45398409124346,336.8376871741779L322.06405504884253,357.2167344123694L322.5386134047696,353.0449952286222L322.95385196620583,344.8453536150428L323.19113114416933,320.5935528036143L323.84364888356913,350.20901827986063L324.19956765051444,354.596689150433L324.55548641745975,358.4227518132499L325.8605218962593,351.52491859623734L326.513039635659,320.553598567139L326.80963860811346,362.66942084251167L327.34351675853145,353.1114579014202L327.4028365530223,363.1993867174438L328.114674086913,372.42358502965686L328.76719182631274,342.8207251475749L328.9451512097854,364.1856533133704L329.5383491546943,362.8151884423789L332.32637949576593,352.33519021143564L332.6229784682204,334.69385213430024L332.68229826271124,346.82512434879226L333.27549620762017,356.9048815041904L337.60584120545485,314.43122914704907L338.25835894485465,320.8540041382909L338.3176787393455,342.99565327956685L338.43631832832733,342.862542612829L338.5549579173091,361.83770206163865L338.7329173007817,317.3384119881074L338.79223709527264,355.32798641140994L340.2752319575448,360.61262663521114L340.57183092999924,350.7693693090584L340.7497903134719,351.3256633078506L341.22434866939903,329.6565530265504L341.8768664087988,337.7719611724197L342.4107445592167,360.229500217562L342.5887039426894,362.932744654889L342.64802373718027,335.3012947682794L343.53782065454357,339.0108029544887L344.4869373663978,343.2008839226125L344.8428561333431,371.38375185850845L345.08013531130666,369.46545264842223L345.61401346172465,339.6655575751477L345.7326530507064,339.41131700306727L346.2665312011244,359.87493329049613L346.5038103790879,370.1315293891205L346.85972914603326,338.8187251038442L347.1563281184877,351.30092043105634L348.69864277525073,345.14995645962665L349.2325209256687,357.75011620672933L350.1223178430321,354.9442965173156L350.5375564044682,375.33056251485516L350.89347517141357,346.7331800189719L351.1307543493771,340.3878592477193L351.190074143868,350.08821393868624L352.31715023919486,362.70167924291525L352.4951096226675,350.90528984500304L352.85102838961285,376.87817436286286L354.63062222433945,349.3348133750184L354.9865409912848,316.2855825457927L355.87633790864805,338.75101276550777L355.99497749762986,368.8719666999061L357.0034140039749,333.7184418512182L357.0627337984658,361.95374064425636L358.18980989379264,308.4529844799461L358.2491296882836,367.9579653319933L358.4270890717562,366.1751534070738L358.9609672221742,351.0530108298803L359.61348496157393,362.6757317786981L361.0964798238461,350.80432488337976L361.2744392073188,340.89160218106105L361.9269569467185,356.7215087385395L362.1049163301912,346.17437667174363L362.22355591917295,356.3303734423491L362.34219550815476,350.35272731244794L363.0540330420454,323.0589400595478L364.0624695483905,372.5795928747884L365.3081852326991,362.73220464020727L365.72342379413533,373.5146519835438L366.1979821500624,363.5188753575403L366.43526132802594,346.49616429573666L366.8504998894622,353.8782040916504L366.909819683953,333.62272097704493L366.96913947844394,335.8025183358261L367.5623374233528,349.8991212610315L369.1046520801159,344.31971774354975L369.40125105257033,356.4191397650185L370.35036776442445,350.182016488606L371.00288550382425,345.12716696784247L371.2401646817878,359.42273718236254L371.2994844762787,352.48893413342734L371.77404283220574,330.79632813653154L371.9520022156784,344.8281437922361L372.1299615991511,366.2732884647723L372.3079209826237,377.98764821396014L372.8417991330418,339.7573115751466L373.0790783110053,347.2306270421658L373.4943168724415,352.27487068406043L373.5536366669324,340.45212060587124L373.9095554338777,299.4388439256594L374.26547420082306,357.2358500377308L374.3841137898048,347.5741623526042L374.56207317327744,352.7088852855618L376.6382659804585,337.23063310801234L377.35010351434914,381.20470803912957L378.477179609676,366.81822027408924L378.59581919865775,367.8506393473885L379.72289529398466,339.5975547333996L379.84153488296636,342.84616923950097L381.02793077278415,361.854473624988L382.45160584056543,368.904725968261L382.6295652240381,364.30610955131857L383.40072255241967,351.4012743337791L383.8752809083467,373.7647779254044L384.40915905876466,359.66788199244746L384.58711844223734,359.1257249915807L384.70575803121915,363.75752140595705L384.76507782571,357.12956084978515L385.59555494858245,351.704447200362L387.37514878330904,379.60132579691435L387.7310675502544,346.35936724087725L387.90902693372703,367.30850738991927L388.3242654951632,373.90439737116935L389.09542282354477,355.5834841620482L389.2140624125266,344.8255242528508L389.27338220701745,369.87127088860507L389.68862076845363,351.10099397961494L390.7563770692896,368.45581054520846L392.12073234258,336.0440368619436L392.4173313150344,358.12493072072664L393.6037272048522,353.5005396390102L393.72236679383394,368.77216375192984L394.07828556077925,358.23164063775135L395.6206002175423,308.5778007734104L395.9171991899968,356.20762573352374L396.6883565183783,340.0845085730137L396.9256356963418,360.9082238740306L397.9933919971778,368.0805803108116L398.46795035310487,341.7951228870928L399.8323056263953,347.1821380158003L400.01026500986796,358.13313994644847L400.06958480435884,331.8514715887813L400.3068639823224,352.1146405220994L400.3661837768133,323.23008162982796L401.90849843357637,352.1773341635638L403.2728537068667,368.9418452921319L404.0440110352483,348.68821288460657L404.9931277471025,338.04285059520146L405.64564548650225,347.9578121772625L406.59476219835636,358.51656187618886L407.4252393212288,358.7491799788117L407.4845591157197,358.5801094975102L408.6709550055375,356.8799558105939L410.09463007331874,338.0661910417321L410.21326966230055,344.58129603111684L411.0437467851729,350.3262263891446L412.17082288049977,340.49103804568733L412.2301426749907,363.3393717968132L412.34878226397245,341.5323274904041L412.6453812364269,361.9315296549559L414.84021363258967,358.14438443195513L415.2554521940259,367.5235876012273L415.4927313719894,368.0005741686105L415.8486501389348,380.83147125917884L416.2045689058801,364.01883423350995L416.5011678783345,368.3453616489273L416.6791272618072,368.2014347387811L416.797766850789,354.3188426718077L417.68756376815224,352.6848210848415L418.2214419185703,359.43541164587026L418.69600027449735,346.59479521270686L419.70443678084246,363.40099358086184L420.00103575329683,345.56313745869363L420.11967534227864,359.14910550754746L420.83151287616926,363.52460027822366L420.95015246515106,340.82464615333106L421.30607123209643,362.00974769857083L422.01790876598704,351.7581277230427L422.3145077384414,373.6269328043569L422.9077056833503,366.5666292934711L423.5009036282592,371.57201309536407L425.161857874004,359.1826661646244L425.28049746298575,347.3978468163872L425.51777664094936,358.8238994597868L426.40757355831266,367.01171558103596L428.839685132439,358.2974045997572L429.0176445159117,358.15314210808367L430.08540081674766,342.2305474318771L431.1531571175836,347.93077532525126L432.1615936239287,349.84595412800087L432.3395530074014,364.84863218578977L432.63615197985575,337.2334279511806L432.93275095231024,351.47117796940245L434.0005072531462,366.72233912217166L434.05982704763704,354.0551782692234L435.06826355398215,372.03732443080247L435.24622293745483,358.88564646082324L435.661461498891,364.8814966364144L437.26309595014493,339.04677529075116L437.38173553912674,343.7909664733995L437.7969741005629,338.0460311066922L438.8647304013989,366.99161575015023L438.9833699903807,380.150457384003L439.3986085518169,329.4051824278308L439.93248670223494,340.95304866132665L440.52568464714375,378.3666161754436L440.5850044416347,339.4386343411312L441.1782023865435,333.0633366229932L441.4154815645071,364.16565616041464L441.474801358998,366.5165900807964L442.6018774543248,345.95156055492777L442.89847642677927,342.1678037036176L443.01711601576096,376.9413175333135L443.2543951937245,355.73121265994473L443.7882733441425,348.87374439112756L444.8560296449785,341.98797207438236L446.0424255347962,348.6551956692568L446.33902450725066,368.91678937286804L446.87290265766865,324.9131682413036L447.228821424614,354.56824986815815L447.2881412191049,354.9106431996677L447.5254203970684,368.20201574560457L447.70337978054107,364.1081865716824L449.00841525934055,345.96456308694354L450.07617156017653,372.1412395046589L450.31345073814015,376.5833672432365L450.6100497105945,357.4137057428981L451.02528827203076,322.99061165363133L451.5591664224487,374.92985813645515L451.6778060114305,374.7960174546783L452.27100395633937,338.7224632922836L452.62692272328474,334.06528789881474L452.74556231226643,362.10114858666407L453.1014810792118,347.94772469672324L453.2201206681936,380.8278562447403L453.33876025717535,363.27893456546946L454.050597791066,352.3308702253557L454.1692373800477,358.219940362409L454.28787696902947,377.9752279409377L455.6522322423199,347.7110746070925L456.18611039273793,365.99468567554044L456.3640697762106,368.2045952155538L457.31318648806473,385.13856311983085L457.9063844329736,373.156391155337L457.96570422746447,360.77336517814274L458.0843438164463,334.3033955141839L458.44026258339164,366.1531051998575L458.7961813503369,365.42280466610373L459.21141991177313,362.80987924209506L459.50801888422757,372.55355149783037L459.9232574456638,329.3406556096647L460.27917621260906,374.18774588423975L461.0503335409906,303.14790133071256L462.5926481977537,381.31692249493904L463.95700347104406,367.1751487935456L464.1942826490076,342.6451659219643L464.25360244349855,337.014002710395L464.66884100493473,367.4348538349748L465.67727751127984,382.200993246252L466.3297952506796,338.15299646637214L466.9823129900793,370.76699808931465L467.39755155151556,374.3696172982066L467.7534703184608,338.95754065654734L469.1771453862421,370.3499253462661L472.4397340832409,366.4729093867634L472.67701326120454,340.29445739216067L473.448170589586,379.28416494062145L474.10068832898577,343.9297419566666L474.33796750694927,364.36003800363517L474.81252586287644,363.0648585944038L474.8718456573673,349.0366116228522L475.1091248353308,360.4708709876339L475.64300298574886,329.70136067347386L475.70232278023974,335.6330045863877L476.2955207251486,301.99352091127145L476.3548405196395,339.1893673878071L476.4141603141304,358.03292378241235L476.8887186700575,336.7215709570278L478.07511455987515,348.99993807145796L479.49878962765644,365.72827401224333L479.8547083946018,373.36418874663315L479.9140281890927,356.26227042701066L480.09198757256536,359.8239599590922L480.6851855174742,362.4225881074309L481.2190636678922,366.23909420973695L481.39702305136484,357.67583999389115L481.9902209962737,337.1264726088597L482.2868199687282,338.3680591473019L484.4223325704001,364.58420145524L484.9562107208181,367.45399951241325L485.07485030979984,366.4279965575702L485.3121294877634,365.6064979872435L485.6680482547087,359.95272810069224L485.8460076381814,351.4091630040121L486.26124619961763,346.8375558913436L486.7358045555447,356.2970657235876L486.9137639390174,361.0031258291034L487.38832229494443,354.08436885342525L487.62560147290804,356.5963117854323L487.8628806508716,341.80498497705395L489.22723592416196,364.9731855235796L489.4645151021256,336.61499627434995L489.87975366356176,371.0130619920902L490.1170328415253,351.30897939639283L490.76955058092506,346.0168336663413L491.4813881148157,353.52482923030857L492.4305048266699,360.6100396522427L493.91349968894207,359.8852511702929L494.8032966063053,367.300127869094L495.63377372917773,336.6063963716261L496.1083320851049,365.68688729342733L496.58289044103196,363.59922960296757L496.93880920797733,333.33530291187026L496.9981290024682,342.79562164585565L498.00656550881325,366.2803481985459L498.5404436592312,353.52574080997994L499.3709207821036,351.2850779777567L499.5488801655763,348.69549550461846L500.8539156443758,331.1029044008435L501.8623521507209,375.4303867497194L502.57418968461155,359.0117199328452L502.75214906808424,364.875391056088L503.1080678350295,369.8188149880653L504.1758241358655,382.82135952554455L504.2944637248473,371.8068049648956L505.3622200256832,334.97425804815674L505.5994992036468,341.1940262500567L505.77745858711944,351.79314590585795L506.84521488795536,347.15055829147076L507.082494065919,376.34665830162146L507.4977326273551,333.81567033792476L508.26888995573665,355.6117456362004L508.624808722682,371.3237053041667L509.45528584555444,363.78297801958195L510.1671233794451,348.37922243676934L510.58236194088124,359.89196280084036L511.0569202968084,348.50750473645655L511.5314786527355,375.1184549548381L511.59079844722635,353.6939147376486L512.8958339260258,358.9223876293909L513.1331131039894,378.61823720813874L513.9635902268618,377.8767422756734L514.6754277607525,369.2447501943609L514.7347475552434,362.5393905136744L515.1499861166795,351.82557710570467L515.980463239552,359.56876022488495L516.3363820064974,353.0279506922394L516.7516205679335,358.5424893056879L516.8702601569153,349.14719825782L517.4041383073333,363.2606478765674L517.5227778963151,355.6147658699467L517.582097690806,367.92578957480174L518.7091737861327,350.83932553581667L518.8871331696055,367.6666505141575L519.4210113200235,377.3180916931703L520.192168648405,359.276335984537L521.0226457712773,358.3173166051612L521.6158437161862,332.0041261229789L522.5649604280404,325.1524378703197L523.2174781674402,376.53132831526625L524.2852344682761,369.65332821695534L524.878432413185,362.3804300519699L524.9377522076759,341.3296662999486L525.2936709746213,353.90086335776726L525.7089095360575,364.051941605091L525.946188714021,367.0757240008725L526.005508508512,349.645867398815L526.0648283030027,346.92535804320664L527.3698637818023,363.410197029467L527.4291835762932,370.8980927625485L527.6664627542567,342.3777124533284L527.7851023432385,367.75499360340797L528.3189804936565,362.3010224469706L528.5562596716201,350.92584045704496L530.2765337118558,326.75748424630314L530.3358535063467,376.52634342698093L530.8697316567647,354.74244172426165L531.0476910402373,362.91359396877107L531.4629296016735,374.3845945021204L532.0561275465823,365.13810881824435L532.1154473410733,349.52684614754736L532.1747671355641,349.20380635367604L532.234086930055,380.1584700190539L532.5306859025095,358.8867809267329L532.8866046694548,375.9968608896218L533.1238838474184,358.85796098481507L533.2425234364001,368.51135680100776L534.1916401482544,365.0753475596065L534.5475589151996,363.52447005255635L534.6068787096905,381.9648014507966L535.0814370656176,367.91731488906566L536.2085131609444,352.4118480513823L537.2169496672894,366.621439273382L538.7592643240525,363.69393621953935L540.123619597343,370.01578381425423L540.8947769257246,360.0427666279579L541.0727363091971,371.41351092783503L542.9116499384147,374.6723218532551L542.9709697329056,372.58271578646475L543.9200864447597,358.86566934258553L543.9794062392506,331.5103003750729L544.5726041841596,378.1299335293959L544.7505635676322,374.6907400199943L544.8692031566139,375.0577272200826L545.5217208960137,369.2735225538234L545.877639662959,338.315182517683L546.0555990464317,376.5976344668294L546.2928782243952,378.0235203766323L547.3606345252313,333.7669158515451L547.4199543197221,325.88561839479354L547.6572334976856,349.7517408663611L547.8351928811583,362.10332736225223L547.95383247014,362.9207213197181L548.7843095930125,367.0028652443365L549.0215887709761,377.4700900903516L549.8520658938484,380.1861630080814L551.0384617836662,351.3059040671718L551.5130201395932,375.69159314283263L552.1062180845021,343.35571222371874L552.1655378789931,354.1376612034437L552.8180556183928,353.39882838413945L554.1824108916833,352.13093375655524L554.4790098641377,373.5550858010825L555.4874463704828,360.4699594079625L556.8518016437731,384.24225929489234L558.0975173280817,363.8882529499262L558.1568371225726,358.79654706096625L558.3941163005362,374.26807633843936L558.6313954784997,334.3030949934131L559.6991517793357,380.5791890807879L560.0550705462811,360.45322540970955L560.1143903407719,361.2926099745772L562.6058217093891,363.4970400192033L563.0803800653163,380.1796266813169L563.5549384212434,372.5059302251905L563.6142582157343,355.7875978695625L564.6226947220794,355.6843589674403L565.3938520504609,373.8665593017883L565.6311312284244,365.3519694160909L566.2836489678241,351.7269386757152L566.9954865017147,379.567974252207L567.1734458851874,340.60947328145204L567.2920854741692,368.25251074811507L567.5293646521328,297.593816688169L568.0039230080598,369.28848848820826L571.563110677513,371.54518159921287L571.9190294444584,362.27847838048257L571.9783492389492,374.2043721958832L572.0969888279311,366.0163807708511L572.9867857452944,359.1854359643951L573.4020243067306,374.2282623449904L574.766379580021,325.85251603189204L575.0036587579846,315.9716635573146L575.6561764973843,368.326008111289L575.8341358808569,354.16835940017893L576.842572387202,374.9836964325405L577.1984911541474,383.4399001411547L577.9696484825289,357.08113192757384L579.1560443723466,352.34368493188975L579.6899225227645,350.23231865695516L580.520399645637,342.3752331569695L580.6390392346187,328.477029035954L580.7576788236006,352.79653216835993L581.2915569740185,345.25642095135527L581.8254351244366,362.70832325628925L582.2999934803636,365.5684470489831L583.4863893701813,344.47931931623185L583.6050289591631,366.05689347509207L583.7829883426358,366.56803923675403L583.9016279316176,332.32721099496575L584.2575466985628,355.6056250298355L584.9693842324535,359.525480225213L585.0287040269444,371.76942518968997L585.4439425883807,375.8028359148166L585.6219019718533,335.2544085193581L585.9185009443078,367.5579546557058L586.3337395057439,374.2736973290228L586.4523790947256,363.65968186034985L589.477688613761,339.9409548094912L590.1302063531607,370.1491649496858L590.3081657366333,334.79412589815075L590.6047647090878,368.5975136016508L591.5538814209419,364.12890998316743L591.7911605989055,368.0100681206274L591.8504803933964,362.4154607564839L591.9691199823782,373.4148452790579L592.1470793658509,372.51402425128356L592.562317927287,362.3040001069411L592.7995971052507,368.9843339204408L593.0368762832142,366.1837958835735L593.5707544336321,362.48663409236383L593.630074228123,340.0053113325539L593.9266732005774,376.37724380306764L594.163952378541,362.2022863477306L594.2232721730319,372.9899940567256L595.1130690903952,370.3294974468723L596.9519827196127,356.8868778056809L597.6638202535033,364.8623734980337L598.0790588149396,375.4240783178728L598.375657787394,340.5909411672539L599.2061349102664,367.2147323877369L599.7400130606843,359.0590619716022L600.6298099780477,367.48844670576403L601.2823277174474,363.63654176099976L601.6975662788836,356.20505628093355L601.7568860733745,363.58669538248625L601.9348454568471,355.61568746697714L602.2907642237925,367.2949639205161L604.5449164144462,361.84980303134205L604.7228757979188,385.78943163127275L604.8415153869007,366.0966699034447L605.0194747703733,369.84543611967695L605.0787945648642,371.29351799274184L605.3160737428277,359.05948770936084L607.2143071665361,357.51834957962376L608.0447842894085,351.5227047598926L609.6464187406625,333.7421228879557L610.0023375076079,373.7043356853811L610.2396166855714,355.3797260707793L611.3073729864074,370.1572314280415L611.6039719588617,347.9339107586264L612.4937688762251,377.61858491621365L612.6717282596977,353.01830397549736L612.8496876431705,383.06270274787914L614.095403327479,351.9856169378442L614.7479210668788,365.7699337040928L615.5190783952603,383.3514643913332L615.5783981897512,363.19960709934236L616.17159613466,355.43206426735054L616.3495555181327,348.359848864413L616.5868346960963,374.6764114400774L617.5952712024413,374.3062762849152L617.7139107914231,376.33063929236897L617.8918701748958,362.1485106601391L619.1375858592044,335.48272917495876L619.2562254481861,361.4065048423634L619.5528244206406,342.2829031588266L620.2053421600403,358.003718172172L620.6799005159675,356.34345861757686L620.917179693931,371.73673103416877L621.9256162002762,379.3331723653165L622.2815349672214,352.4537706989062L622.8747329121303,368.381063516496L622.993372501112,344.4831509560593L623.3492912680574,356.822050466744L623.6458902405118,362.55425627446897L623.9424892129663,344.02153101742203L624.1204485964389,367.22602195135926L625.0102455138021,365.0711552948541L625.069565308293,352.05074730189165L626.671199759547,377.7990251000097L627.1457581154742,343.6982257635366L627.738956060383,358.26555941541346L627.9169154438557,351.6113408568946L628.3914737997828,368.3661376515472L629.6371894840913,347.089071741769L629.9931082510367,376.4575329356613L630.6456259904364,372.63877543191415L630.7049457849274,357.14048728414275L632.6031792086358,366.6066135820235L632.6624990031266,369.80437246068954L633.018417770072,366.157420177258L636.1030470835981,361.64346797446376L636.2216866725798,359.93761441026174L636.6369252340161,371.28152220530814L636.8148846174887,357.8836701416041L637.2301231789249,366.7966253523689L638.8317576301789,367.4197176054865L640.0774733144875,365.87848681517835L640.6706712593964,338.9872170826619L641.6197879712505,378.2767028651657L641.7384275602324,369.7819010200544L641.8570671492141,352.73249870512586L642.1536661216685,363.9992703313321L644.051899545377,370.1848492868762L644.3484985178313,330.70053714084514L645.0010162572312,378.6412796382384L645.0603360517221,319.66079643526496L645.1196558462128,362.43969274796785L645.2976152296856,374.5654153455594L645.8908131745944,361.1941243093129" style="fill: none;" fill="none"></path></g></g></g></g></g></g><g transform="translate(41, 377)" clip-path="url(#clip_1)"><clipPath id="clip_1"><rect width="744" height="23"></rect></clipPath><g><g><line x1="30.210666153678716" y1="0" x2="30.210666153678716" y2="5" style="visibility: inherit;" fill="rgb(0, 0, 0)" stroke="rgb(204, 204, 204)" stroke-width="1px"></line><line x1="89.53046064456566" y1="0" x2="89.53046064456566" y2="5" style="visibility: inherit;" fill="rgb(0, 0, 0)" stroke="rgb(204, 204, 204)" stroke-width="1px"></line><line x1="148.8502551354526" y1="0" x2="148.8502551354526" y2="5" style="visibility: inherit;" fill="rgb(0, 0, 0)" stroke="rgb(204, 204, 204)" stroke-width="1px"></line><line x1="208.17004962633956" y1="0" x2="208.17004962633956" y2="5" style="visibility: inherit;" fill="rgb(0, 0, 0)" stroke="rgb(204, 204, 204)" stroke-width="1px"></line><line x1="267.48984411722654" y1="0" x2="267.48984411722654" y2="5" style="visibility: inherit;" fill="rgb(0, 0, 0)" stroke="rgb(204, 204, 204)" stroke-width="1px"></line><line x1="326.80963860811346" y1="0" x2="326.80963860811346" y2="5" style="visibility: inherit;" fill="rgb(0, 0, 0)" stroke="rgb(204, 204, 204)" stroke-width="1px"></line><line x1="386.12943309900044" y1="0" x2="386.12943309900044" y2="5" style="visibility: inherit;" fill="rgb(0, 0, 0)" stroke="rgb(204, 204, 204)" stroke-width="1px"></line><line x1="445.44922758988736" y1="0" x2="445.44922758988736" y2="5" style="visibility: inherit;" fill="rgb(0, 0, 0)" stroke="rgb(204, 204, 204)" stroke-width="1px"></line><line x1="504.76902208077433" y1="0" x2="504.76902208077433" y2="5" style="visibility: inherit;" fill="rgb(0, 0, 0)" stroke="rgb(204, 204, 204)" stroke-width="1px"></line><line x1="564.0888165716613" y1="0" x2="564.0888165716613" y2="5" style="visibility: inherit;" fill="rgb(0, 0, 0)" stroke="rgb(204, 204, 204)" stroke-width="1px"></line><line x1="623.4086110625483" y1="0" x2="623.4086110625483" y2="5" style="visibility: inherit;" fill="rgb(0, 0, 0)" stroke="rgb(204, 204, 204)" stroke-width="1px"></line><line x1="682.7284055534352" y1="0" x2="682.7284055534352" y2="5" style="visibility: inherit;" fill="rgb(0, 0, 0)" stroke="rgb(204, 204, 204)" stroke-width="1px"></line><line x1="742.0482000443221" y1="0" x2="742.0482000443221" y2="5" style="visibility: inherit;" fill="rgb(0, 0, 0)" stroke="rgb(204, 204, 204)" stroke-width="1px"></line></g><g transform="translate(0, 8)"><text x="30.210666153678716" y="0" dx="0em" dy="0.95em" style="text-anchor: middle; visibility: inherit; font-family: Roboto, sans-serif; font-size: 12px; font-weight: 200;" fill="rgb(33, 33, 33)" stroke="none" stroke-width="1px">-1k</text><text x="89.53046064456566" y="0" dx="0em" dy="0.95em" style="text-anchor: middle; visibility: inherit; font-family: Roboto, sans-serif; font-size: 12px; font-weight: 200;" fill="rgb(33, 33, 33)" stroke="none" stroke-width="1px">0</text><text x="148.8502551354526" y="0" dx="0em" dy="0.95em" style="text-anchor: middle; visibility: inherit; font-family: Roboto, sans-serif; font-size: 12px; font-weight: 200;" fill="rgb(33, 33, 33)" stroke="none" stroke-width="1px">1k</text><text x="208.17004962633956" y="0" dx="0em" dy="0.95em" style="text-anchor: middle; visibility: inherit; font-family: Roboto, sans-serif; font-size: 12px; font-weight: 200;" fill="rgb(33, 33, 33)" stroke="none" stroke-width="1px">2k</text><text x="267.48984411722654" y="0" dx="0em" dy="0.95em" style="text-anchor: middle; visibility: inherit; font-family: Roboto, sans-serif; font-size: 12px; font-weight: 200;" fill="rgb(33, 33, 33)" stroke="none" stroke-width="1px">3k</text><text x="326.80963860811346" y="0" dx="0em" dy="0.95em" style="text-anchor: middle; visibility: inherit; font-family: Roboto, sans-serif; font-size: 12px; font-weight: 200;" fill="rgb(33, 33, 33)" stroke="none" stroke-width="1px">4k</text><text x="386.12943309900044" y="0" dx="0em" dy="0.95em" style="text-anchor: middle; visibility: inherit; font-family: Roboto, sans-serif; font-size: 12px; font-weight: 200;" fill="rgb(33, 33, 33)" stroke="none" stroke-width="1px">5k</text><text x="445.44922758988736" y="0" dx="0em" dy="0.95em" style="text-anchor: middle; visibility: inherit; font-family: Roboto, sans-serif; font-size: 12px; font-weight: 200;" fill="rgb(33, 33, 33)" stroke="none" stroke-width="1px">6k</text><text x="504.76902208077433" y="0" dx="0em" dy="0.95em" style="text-anchor: middle; visibility: inherit; font-family: Roboto, sans-serif; font-size: 12px; font-weight: 200;" fill="rgb(33, 33, 33)" stroke="none" stroke-width="1px">7k</text><text x="564.0888165716613" y="0" dx="0em" dy="0.95em" style="text-anchor: middle; visibility: inherit; font-family: Roboto, sans-serif; font-size: 12px; font-weight: 200;" fill="rgb(33, 33, 33)" stroke="none" stroke-width="1px">8k</text><text x="623.4086110625483" y="0" dx="0em" dy="0.95em" style="text-anchor: middle; visibility: inherit; font-family: Roboto, sans-serif; font-size: 12px; font-weight: 200;" fill="rgb(33, 33, 33)" stroke="none" stroke-width="1px">9k</text><text x="682.7284055534352" y="0" dx="0em" dy="0.95em" style="text-anchor: middle; visibility: inherit; font-family: Roboto, sans-serif; font-size: 12px; font-weight: 200;" fill="rgb(33, 33, 33)" stroke="none" stroke-width="1px">10k</text><text x="742.0482000443221" y="0" dx="0em" dy="0.95em" style="text-anchor: middle; visibility: hidden; font-family: Roboto, sans-serif; font-size: 12px; font-weight: 200;" fill="rgb(33, 33, 33)" stroke="none" stroke-width="1px">11k</text></g><line x1="0" y1="0" x2="744.161125" y2="0" fill="rgb(0, 0, 0)" stroke="rgb(204, 204, 204)" stroke-width="1px"></line></g></g></g></g></svg>