<svg viewBox="0 0 330 200" xmlns="http://www.w3.org/2000/svg"><g><g><g><g><g><line x1="41.171875" y1="172.41376381302584" x2="36.171875" y2="172.41376381302584" style="visibility: inherit;" fill="rgb(0, 0, 0)" stroke="rgb(204, 204, 204)" stroke-width="1px"></line><line x1="41.171875" y1="154.52677061054203" x2="36.171875" y2="154.52677061054203" style="visibility: inherit;" fill="rgb(0, 0, 0)" stroke="rgb(204, 204, 204)" stroke-width="1px"></line><line x1="41.171875" y1="136.63977740805825" x2="36.171875" y2="136.63977740805825" style="visibility: inherit;" fill="rgb(0, 0, 0)" stroke="rgb(204, 204, 204)" stroke-width="1px"></line><line x1="41.171875" y1="118.75278420557446" x2="36.171875" y2="118.75278420557446" style="visibility: inherit;" fill="rgb(0, 0, 0)" stroke="rgb(204, 204, 204)" stroke-width="1px"></line><line x1="41.171875" y1="100.86579100309068" x2="36.171875" y2="100.86579100309068" style="visibility: inherit;" fill="rgb(0, 0, 0)" stroke="rgb(204, 204, 204)" stroke-width="1px"></line><line x1="41.171875" y1="82.97879780060687" x2="36.171875" y2="82.97879780060687" style="visibility: inherit;" fill="rgb(0, 0, 0)" stroke="rgb(204, 204, 204)" stroke-width="1px"></line><line x1="41.171875" y1="65.09180459812308" x2="36.171875" y2="65.09180459812308" style="visibility: inherit;" fill="rgb(0, 0, 0)" stroke="rgb(204, 204, 204)" stroke-width="1px"></line><line x1="41.171875" y1="47.20481139563929" x2="36.171875" y2="47.20481139563929" style="visibility: inherit;" fill="rgb(0, 0, 0)" stroke="rgb(204, 204, 204)" stroke-width="1px"></line><line x1="41.171875" y1="29.31781819315549" x2="36.171875" y2="29.31781819315549" style="visibility: inherit;" fill="rgb(0, 0, 0)" stroke="rgb(204, 204, 204)" stroke-width="1px"></line><line x1="41.171875" y1="11.430824990671706" x2="36.171875" y2="11.430824990671706" style="visibility: inherit;" fill="rgb(0, 0, 0)" stroke="rgb(204, 204, 204)" stroke-width="1px"></line></g><g transform="translate(31.171875, 0)"><text x="0" y="172.41376381302584" dx="0em" dy="0.3em" style="text-anchor: end; visibility: hidden; font-family: Roboto, sans-serif; font-size: 12px; font-weight: 200;" fill="rgb(33, 33, 33)" stroke="none" stroke-width="1px">10</text><text x="0" y="154.52677061054203" dx="0em" dy="0.3em" style="text-anchor: end; visibility: inherit; font-family: Roboto, sans-serif; font-size: 12px; font-weight: 200;" fill="rgb(33, 33, 33)" stroke="none" stroke-width="1px">20</text><text x="0" y="136.63977740805825" dx="0em" dy="0.3em" style="text-anchor: end; visibility: hidden; font-family: Roboto, sans-serif; font-size: 12px; font-weight: 200;" fill="rgb(33, 33, 33)" stroke="none" stroke-width="1px">30</text><text x="0" y="118.75278420557446" dx="0em" dy="0.3em" style="text-anchor: end; visibility: inherit; font-family: Roboto, sans-serif; font-size: 12px; font-weight: 200;" fill="rgb(33, 33, 33)" stroke="none" stroke-width="1px">40</text><text x="0" y="100.86579100309068" dx="0em" dy="0.3em" style="text-anchor: end; visibility: hidden; font-family: Roboto, sans-serif; font-size: 12px; font-weight: 200;" fill="rgb(33, 33, 33)" stroke="none" stroke-width="1px">50</text><text x="0" y="82.97879780060687" dx="0em" dy="0.3em" style="text-anchor: end; visibility: inherit; font-family: Roboto, sans-serif; font-size: 12px; font-weight: 200;" fill="rgb(33, 33, 33)" stroke="none" stroke-width="1px">60</text><text x="0" y="65.09180459812308" dx="0em" dy="0.3em" style="text-anchor: end; visibility: hidden; font-family: Roboto, sans-serif; font-size: 12px; font-weight: 200;" fill="rgb(33, 33, 33)" stroke="none" stroke-width="1px">70</text><text x="0" y="47.20481139563929" dx="0em" dy="0.3em" style="text-anchor: end; visibility: inherit; font-family: Roboto, sans-serif; font-size: 12px; font-weight: 200;" fill="rgb(33, 33, 33)" stroke="none" stroke-width="1px">80</text><text x="0" y="29.31781819315549" dx="0em" dy="0.3em" style="text-anchor: end; visibility: hidden; font-family: Roboto, sans-serif; font-size: 12px; font-weight: 200;" fill="rgb(33, 33, 33)" stroke="none" stroke-width="1px">90</text><text x="0" y="11.430824990671706" dx="0em" dy="0.3em" style="text-anchor: end; visibility: inherit; font-family: Roboto, sans-serif; font-size: 12px; font-weight: 200;" fill="rgb(33, 33, 33)" stroke="none" stroke-width="1px">100</text></g><line x1="41.171875" y1="0" x2="41.171875" y2="177" fill="rgb(0, 0, 0)" stroke="rgb(204, 204, 204)" stroke-width="1px"></line></g></g><g transform="translate(41, 0)" clip-path="url(#clip_0)"><clipPath id="clip_0"><rect width="288" height="177"></rect></clipPath><g><g><g><line x1="11.590923577284507" y1="0" x2="11.590923577284507" y2="177" fill="rgb(0, 0, 0)" stroke="rgb(66, 66, 66)" stroke-width="1px" opacity="0.25"></line><line x1="38.42395453948077" y1="0" x2="38.42395453948077" y2="177" fill="rgb(0, 0, 0)" stroke="rgb(66, 66, 66)" stroke-width="1px" opacity="0.25"></line><line x1="65.25698550167702" y1="0" x2="65.25698550167702" y2="177" fill="rgb(0, 0, 0)" stroke="rgb(66, 66, 66)" stroke-width="1px" opacity="0.25"></line><line x1="92.09001646387328" y1="0" x2="92.09001646387328" y2="177" fill="rgb(0, 0, 0)" stroke="rgb(66, 66, 66)" stroke-width="1px" opacity="0.25"></line><line x1="118.92304742606956" y1="0" x2="118.92304742606956" y2="177" fill="rgb(0, 0, 0)" stroke="rgb(66, 66, 66)" stroke-width="1px" opacity="0.25"></line><line x1="145.75607838826582" y1="0" x2="145.75607838826582" y2="177" fill="rgb(0, 0, 0)" stroke="rgb(66, 66, 66)" stroke-width="1px" opacity="0.25"></line><line x1="172.58910935046208" y1="0" x2="172.58910935046208" y2="177" fill="rgb(0, 0, 0)" stroke="rgb(66, 66, 66)" stroke-width="1px" opacity="0.25"></line><line x1="199.4221403126583" y1="0" x2="199.4221403126583" y2="177" fill="rgb(0, 0, 0)" stroke="rgb(66, 66, 66)" stroke-width="1px" opacity="0.25"></line><line x1="226.25517127485458" y1="0" x2="226.25517127485458" y2="177" fill="rgb(0, 0, 0)" stroke="rgb(66, 66, 66)" stroke-width="1px" opacity="0.25"></line><line x1="253.08820223705087" y1="0" x2="253.08820223705087" y2="177" fill="rgb(0, 0, 0)" stroke="rgb(66, 66, 66)" stroke-width="1px" opacity="0.25"></line><line x1="279.9212331992471" y1="0" x2="279.9212331992471" y2="177" fill="rgb(0, 0, 0)" stroke="rgb(66, 66, 66)" stroke-width="1px" opacity="0.25"></line></g><g><line x1="0" y1="172.41376381302584" x2="288.828125" y2="172.41376381302584" fill="rgb(0, 0, 0)" stroke="rgb(66, 66, 66)" stroke-width="1px" opacity="0.25"></line><line x1="0" y1="154.52677061054203" x2="288.828125" y2="154.52677061054203" fill="rgb(0, 0, 0)" stroke="rgb(66, 66, 66)" stroke-width="1px" opacity="0.25"></line><line x1="0" y1="136.63977740805825" x2="288.828125" y2="136.63977740805825" fill="rgb(0, 0, 0)" stroke="rgb(66, 66, 66)" stroke-width="1px" opacity="0.25"></line><line x1="0" y1="118.75278420557446" x2="288.828125" y2="118.75278420557446" fill="rgb(0, 0, 0)" stroke="rgb(66, 66, 66)" stroke-width="1px" opacity="0.25"></line><line x1="0" y1="100.86579100309068" x2="288.828125" y2="100.86579100309068" fill="rgb(0, 0, 0)" stroke="rgb(66, 66, 66)" stroke-width="1px" opacity="0.25"></line><line x1="0" y1="82.97879780060687" x2="288.828125" y2="82.97879780060687" fill="rgb(0, 0, 0)" stroke="rgb(66, 66, 66)" stroke-width="1px" opacity="0.25"></line><line x1="0" y1="65.09180459812308" x2="288.828125" y2="65.09180459812308" fill="rgb(0, 0, 0)" stroke="rgb(66, 66, 66)" stroke-width="1px" opacity="0.25"></line><line x1="0" y1="47.20481139563929" x2="288.828125" y2="47.20481139563929" fill="rgb(0, 0, 0)" stroke="rgb(66, 66, 66)" stroke-width="1px" opacity="0.25"></line><line x1="0" y1="29.31781819315549" x2="288.828125" y2="29.31781819315549" fill="rgb(0, 0, 0)" stroke="rgb(66, 66, 66)" stroke-width="1px" opacity="0.25"></line><line x1="0" y1="11.430824990671706" x2="288.828125" y2="11.430824990671706" fill="rgb(0, 0, 0)" stroke="rgb(66, 66, 66)" stroke-width="1px" opacity="0.25"></line></g></g></g><g><g><line x1="0" y1="190.30075701550965" x2="288.828125" y2="190.30075701550965" fill="rgb(0, 0, 0)" stroke="rgb(153, 153, 153)" stroke-width="1.5px"></line></g></g><g><g><line x1="11.590923577284507" y1="0" x2="11.590923577284507" y2="177" fill="rgb(0, 0, 0)" stroke="rgb(153, 153, 153)" stroke-width="1.5px"></line></g></g><g><g><g><g><g><path stroke="rgb(238, 51, 119)" stroke-width="2px" d="M12.07391813460404,161.17555534541475L12.234916320377216,158.76684156604938L12.664244815772358,154.96196998027978L12.71791087769675,153.10121761279947L12.79840997058334,152.1594719637979L13.093573311167498,149.33854031422848L13.496068775600442,144.24692813425065L13.57656786848703,140.80339614807764L14.113228487730956,135.86380203880606L14.327892735428525,132.13139264124715L14.43522485927731,129.42601812152785L14.971885478521235,124.84923123092405L15.750043376424928,119.44823233529202L15.830542469311515,115.86546363220849L16.072039747971285,112.8852845531245L16.367203088555442,110.03151075202055L16.501368243366425,107.82302817980613L16.555034305290814,106.3682864104604L17.735687667627452,102.39292954096011L17.869852822438432,99.75541924763499L18.272348286871377,97.20344060577173L18.433346472644555,95.3014436797265L18.567511627455534,93.88209608056542L18.75534284419091,92.53335969615034L18.916341029964084,91.36602080081055L19.426168618245814,89.7364911106187L19.855497113640954,88.08116149708486L19.909163175565347,86.98704745794494L20.12382742326292,86.00965280070253L20.445823794809275,84.87634400687041L20.68732107346904,83.82139958014393L20.90198532116661,82.85214572395155L21.33131381656175,81.71607371740515L21.438645940410538,80.8851057018318L22.887629612369132,78.63050392789695L22.91446264333133,77.23853866882675L23.370624169688664,75.90134681900885L23.451123262575255,75.02824358919739L23.531622355461845,74.44708191947889L23.934117819894787,73.70667024747851L24.014616912781378,73.17651458425301L24.041449943743576,72.83964879594866L24.309780253365535,72.42826547675375L24.819607841647265,71.71642715700355L25.383101491853385,70.82271644455754L25.839263018210723,69.9353387763674L25.973428173021702,69.31488554817122L26.697920009001002,68.45062850067791L26.966250318622965,67.76578659093987L27.127248504396142,67.24359539455916L27.315079721131518,66.8334819552792L27.341912752093712,66.5615506794952L27.744408216526658,66.1431059609302L28.22740277384619,65.60700884504378L28.281068835770583,65.25449813240303L28.603065207316938,64.89365321603887L28.79089642405231,64.601314323603L28.817729455014504,64.41049022526403L28.8713955169389,64.26703748411366L28.951894609825487,64.14045153780334L29.00556067174988,64.03253941545154L29.327557043296235,63.796968300097554L29.595887352918197,63.512384484453754L30.05204887927553,63.104421921933L30.749707684292638,62.49061597607681L30.85703980814142,62.0620686131055L30.964371931990208,61.77472095875996L31.179036179687778,61.50616322727673L31.420533458347542,61.23934314057387L31.769362860856095,60.92956870311352L31.87669498470488,60.70504568923961L32.11819226336465,60.45709708263882L32.22552438721343,60.25949459312003L32.27919044913783,60.12104713864321L32.33285651106222,60.00809240869893L32.52068772779759,59.87412219324012L32.65485288260857,59.71934921210832L32.70851894453297,59.60606997098256L32.84268409934394,59.48610852669356L32.89635016126834,59.40110725650043L33.00368228511712,59.29488105791314L33.11101440896591,59.179249695335464L33.27201259473908,59.04611898764853L33.29884562570128,58.953865741994505L33.9160053378318,58.66909105372465L34.02333746168058,58.458159550666835L34.90882748343306,58.04307135204758L35.09665870016843,57.73004819565071L35.25765688594161,57.49363024069354L35.63331931941236,57.22096227042385L35.74065144326114,57.02268251248829L35.92848265999652,56.85761612940817L35.98214872192091,56.74342847053883L36.14314690769409,56.61521978218061L36.19681296961848,56.52100693871151L36.57247540308923,56.365928275819236L36.599308434051416,56.260904740472114L36.86763874367338,46.37801978166965L36.94813783655997,41.342638466512376L37.189635115219744,39.11054333596203L37.29696723906853,37.99361817692417L37.404299362917314,37.02747723176443L37.64579664157707,36.19263771982493L37.67262967253927,35.58276244121922L37.83362785831245,35.4653544675157L37.86046088927465,35.43386280325602L37.99462604408563,35.41836310187184L38.47762060140516,35.36881099592322L38.55811969429175,35.476922247109L38.79961697295152,35.51339295941736L39.6046079018174,35.450742312848014L39.95343730432596,35.38250691152787L40.114435490099126,35.348661950998036L40.19493458298572,35.30565779519529L40.24860064491011,35.24538921434778L40.3559327687589,35.27585667882435L40.51693095453208,35.31563342802765L40.65109610934306,35.417318378640545L40.91942641896502,35.44701291834341L41.0804246047382,35.425811018077184L41.21458975954918,35.447430415709455L41.48292006917114,35.441149300069675L42.60990736958339,35.546226652553976L42.71723949343217,35.65068258871315L42.74407252439436,35.72971580575163L42.77090555535656,35.77347842230108L43.2539001126761,35.89082493741199L43.60272951518464,35.93244378332248L43.9515589176932,35.93140995304628L44.6492177227103,35.870493107360254L44.97121409425666,35.8501771057177L45.26637743484081,35.83450486872656L45.3468765277274,35.800128078686L45.427375620613994,35.76189777093427L45.96403623985792,35.70742480853336L46.12503442563109,35.694092041500156L46.31286564236647,35.70888781695334L46.47386382813965,35.698769085831L46.90319232353478,35.675464803474654L46.98369141642137,35.661520444800736L47.27885475700553,35.64096460357674L47.35935384989212,35.62875664841618L47.439852942778714,35.6103562194337L47.46668597374091,35.59752005727016L48.75467145992633,35.568060072952655L48.83517055281292,35.54824428092922L48.9156696456995,35.55640998547162L48.942502676661704,35.55729182183322L49.53282935783002,35.58377693337851L49.85482572937637,35.57480372600232L49.90849179130077,35.56881388841574L50.12315603899834,35.54714630590365L50.230488162847124,35.51754591925993L50.90131393690203,35.46366562073902L50.92814696786423,35.43858110617104L51.22331030844838,35.41868309214345L51.43797455614595,35.40964829995729L51.54530667999474,35.413747357551216L51.598972741919134,35.40376100826307L52.457629732709414,35.359023508458506L52.5649618565582,35.31673841098975L53.2357876306131,35.26210884311965L53.66511612600825,35.21345726931875L53.691949156970445,35.18695199418357L54.09444462140338,35.19473948782404L54.20177674525217,35.17876180844524L54.63110524064731,35.176184142246214L54.6579382716095,35.16544513024864L55.00676767411806,35.13056201523L55.248264952777824,35.125587859454534L55.38243010758881,35.121997452828424L55.51659526239978,35.11445549453059L55.59709435528637,35.11245768706066L55.73125951009735,35.0933217895467L55.81175860298394,35.07182357851432L56.133754974530305,35.03671329467415L56.34841922222787,35.01194614127946L56.53625043896324,34.994105411532516L56.72408165569862,34.96846603307095L56.96557893435838,34.95505298843606L57.072911058207175,34.95196164048441L57.12657712013156,34.95035793086117L57.18024318205595,34.94084741670983L57.260742274942544,34.93043026986032L57.44857349167791,34.91575724294708L57.690070770337684,34.894704155331134L57.95840107995965,34.85968626787282L58.06573320380843,34.831000635360404L58.119399265732824,34.81840183802338L58.19989835861941,34.80513278334867L58.334063513430394,34.794698569806286L58.414562606316984,34.79249929746174L58.44139563727918,34.78792636248861L58.978056256523104,34.74999051008129L59.21955353518287,34.706005661975745L59.38055172095605,34.674543642063476L59.568382937691425,34.64109176219296L59.59521596865362,34.62064398554902L59.836713247313384,34.582954260192565L60.02454446404876,34.54765991801782L60.58803811425488,34.50850243026395L60.69537023810366,34.480067834813696L60.96370054772563,34.46756507294274L61.071032671574415,34.45150421008851L61.31252995023418,34.43569938722496L61.66135935274273,34.411903842085636L61.74185844562932,34.405268662976766L61.9028566314025,34.4022482826854L61.95652269332689,31.921301416811346L62.868845746041565,31.457507129953495L63.02984393181474,31.086072774027265L63.48600545817207,31.068480255071815L63.75433576779404,30.990373614279363L63.83483486068063,30.945534799017185L63.88850092260502,30.844349831545877L64.37149547992456,30.8072858403676L64.7471579133953,30.7240631048226L64.80082397531969,30.697760076768805L65.28381853263922,30.772182899423523L65.39115065648801,30.80960384582602L65.60581490418558,30.73783418781668L66.06197643054291,30.703549945827703L66.2229746163161,30.69503215972585L66.8669673594088,30.766566773573793L67.21579676191736,30.863473858646653L67.29629585480394,30.882604944279535L67.32312888576614,30.88317715876395L67.37679494769053,30.916834793947164L67.43046100961493,30.931707164860395L67.53779313346371,30.946269400878254L67.6451252573125,31.01789070296646L67.83295647404786,31.033913995254334L68.23545193848081,30.980343782907713L69.14777499119549,30.85359732225016L69.25510711504427,30.783564908047104L69.44293833177964,30.720824321159622L69.68443561043941,30.641492051825182L70.00643198198577,30.59028996332215L70.27476229160773,30.558575230983653L70.32842835353212,30.540780052610753L70.3820944154565,30.538394676139546L70.5162595702675,30.522416075719253L70.59675866315408,30.497413611266722L70.81142291085166,30.4606265521902L70.91875503470044,30.451343997247644L71.45541565394436,30.398633328632485L71.58958080875534,30.367651051364128L71.61641383971754,30.337451078758708L71.67007990164194,30.323949136042998L71.75057899452852,30.3455213392639L71.85791111837732,30.35208346763758L71.88474414933951,30.350693075787998L72.07257536607489,30.333985007599356L72.15307445896147,30.314407481717822L72.28723961377246,30.314992117813777L72.79706720205418,30.30051713240042L73.06539751167614,30.2960298638614L73.22639569744932,30.33178842440493L73.38739388322249,30.354045986268417L73.49472600707128,30.359299846533343L73.81672237861764,30.3465728709363L73.84355540957984,30.342048131539183L74.51438118363474,30.33195861510535L74.7558784622945,30.300658523542918L75.69503454597138,30.262915024273966L75.72186757693358,30.24305285004624L75.77553363885797,30.219366637628557L76.15119607232872,30.16528473245855L76.95618700119459,30.156296983638843L77.17085124889216,30.14194664518529L77.35868246562754,30.139526581972653L77.41234852755194,30.13732670527897L77.46601458947633,30.1314105731237L77.60017974428732,30.121288646572275L78.2710055183422,30.071136672858838L78.2978385493044,30.04535784355933L78.56616885892637,30.00024992919208L78.61983492085076,29.967371689433815L78.75400007566175,29.924374404995934L79.1296625091325,29.88757679992677L79.29066069490568,29.866355249193866L79.53215797356545,29.829347581580222L79.93465343799838,29.79641668046183L80.04198556184717,29.7779573049465L80.09565162377156,29.773301083936026L80.44448102628012,29.774896127738078L80.76647739782646,29.779395835473306L81.08847376937283,29.75424548942378L81.35680407899478,29.750836850841115L81.51780226476795,29.752891134212216L81.9739637911253,29.73997481312745L82.13496197689848,29.7259038723661L82.16179500786068,29.712220977869496L82.53745744133143,29.687334982555328L82.69845562710461,29.67223962505309L82.83262078191558,29.652297808364935L83.4497804940461,29.626817033791074L83.63761171078146,29.606730391854086L83.77177686559244,29.58855377095788L84.120606268101,29.571801555219505L84.30843748483638,29.559910651585433L84.71093294926932,29.54593092829051L85.03292932081567,29.515899439513795L85.11342841370225,29.490948026299314L85.489090847173,29.473078620817336L85.5159238781352,29.46051740333712L85.5695899400596,29.44805148740531L86.42824693084988,29.460048497827437L86.45507996181207,29.463021687986142L86.48191299277428,29.46303153201581L86.66974420950966,29.465264578700513L86.9649075500938,29.437886306357854L87.36740301452674,28.02800645727795L87.50156816933773,27.39804564959486L88.65538850071216,27.43455743642388L88.89688577937193,27.510521788088045L89.1383830580317,27.48137110924827L89.29938124380487,27.432045696952652L89.40671336765367,27.392231805997735L89.862874894011,27.317561398132938L89.9165409559354,27.32245494995806L89.9433739868976,27.3390869019592L91.20452644212081,27.55273477536263L91.4191906898184,27.666676352108993L92.0363504019489,27.69262737689723L92.27784768060866,27.665025314390295L92.38517980445745,27.62489350906133L92.49251192830623,27.59477712896396L92.51934495926842,27.566974479592034L92.81450829985259,27.543267572509283L92.89500739273917,27.496804481160677L93.10967164043676,27.48488779826436L93.19017073332334,27.47178783046058L93.83416347641604,27.403685889029205L93.94149560026483,27.368441702931815L93.99516166218922,27.34137252659297L94.74648652913072,27.411154313599088L95.36364624126122,27.440828701106028L95.76614170569418,27.451165863303455L95.98080595339175,27.424026560743762L96.11497110820272,27.405952533111016L96.24913626301371,27.41952477931052L96.3564683868625,27.40856275709346L96.41013444878689,27.387782065884544L96.83946294418202,27.39321265345137L97.32245750150156,27.411520578824486L97.34929053246375,27.420381908646828L97.53712174919913,27.414000761461804L97.61762084208571,27.398375871884152L98.26161358517844,27.394590623513324L98.34211267806502,27.378661864324645L98.52994389480038,27.38250020247564L98.610442987687,27.384470226061612L98.63727601864917,27.37862692275362L98.69094208057356,27.366327011920806L98.71777511153576,27.359733114927057L99.38860088559068,27.423005844199636L99.63009816425044,27.468606171060745L100.27409090734314,27.477084803002818L100.4887551550407,27.49342777439932L100.86441758851146,27.501961685467183L100.89125061947367,27.507616982466118L101.347412145831,27.528155865514414L102.12557004373468,27.54575773612305L102.17923610565907,27.55721408153671L102.44756641528105,27.545037105619404L102.90372794163838,27.530334412564926L103.03789309644937,27.521954949579385L103.62821977761769,27.50503281433316L103.70871887050426,27.503487867011184L103.84288402531524,27.4833299791074L104.13804736589941,27.46058536729467L104.1917134278238,27.440895844629917L104.37954464455918,27.451571880785167L104.54054283033236,27.45552655644929L104.72837404706773,27.457642804022896L104.88937223284091,27.458219300572207L104.9698713257275,27.458221301842958L105.42603285208484,27.473768815056772L105.74802922363118,27.4975791933971L105.82852831651778,27.508213565404812L106.01635953325315,27.506187825837273L106.44568802864829,27.5049560060654L106.49935409057268,27.50189697642422L106.66035227634586,27.473275829988204L106.76768440019465,27.454733014168276L107.19701289558978,27.429338342672146L107.65317442194711,27.409609048500776L108.18983504119105,27.386215452524795L108.67282959851059,27.3589420029116L108.72649566043498,27.34206481749397L108.78016172235935,27.334192939895924L108.86066081524596,27.333520151763686L108.94115990813253,27.326167582904496L109.39732143448987,27.312858397875566L109.69248477507404,27.288393140618492L110.06814720854479,27.277300337135248L110.87313813741066,27.269487415494858L110.92680419933507,27.269417703358187L111.57079694242778,27.2693649587219L111.67812906627657,27.266079940373775L111.73179512820096,27.26249316093595L111.89279331397414,27.243451946249216L111.97329240686072,27.227278168338607L112.02695846878511,27.21362181935388L112.26845574744489,27.60812553881246L112.45628696418025,27.425601367304356L112.8051163666888,26.990023703704924L113.01978061438638,26.78007600935222L113.36861001689492,26.735796495912957L113.42227607881932,26.762461807170247L113.5027751717059,26.956856021039588L113.82477154325227,27.15089659099063L113.93210366710103,27.197842890517013L114.06626882191202,27.204094081576862L114.11993488383641,27.282999862866752L114.38826519345838,27.25847438861582L114.49559731730716,27.19584829494107L115.27375521521087,26.974184211380084L115.40792037002184,26.829700704572957L115.5957515867572,26.689122539912844L116.77640494909384,26.552547018386868L116.99106919679143,26.4725067837878L117.1789004135268,26.410066276741844L117.28623253737558,26.364845192319937L117.58139587795974,26.368548608744696L117.74239406373292,26.310343102828202L117.90339224950608,26.276713505756888L118.49371893067442,26.196730480935006L118.78888227125857,26.13204803139427L118.92304742606956,26.08368587670148L119.16454470472931,26.05488147229368L119.1913777356915,26.02371195504354L119.51337410723787,25.95775447682421L119.80853744782202,25.946777999349354L119.88903654070862,25.910518744014155L120.15736685033058,25.856120301606833L121.4185193055538,25.907774128323307L121.55268446036479,25.93864633345644L121.57951749132698,25.956498239249967L121.84784780094894,25.97636358426435L123.80665906118928,25.957932546459187L124.10182240177343,25.93911714358177L124.12865543273561,25.924847464145184L124.18232149466003,25.917901424912213L124.2359875565844,25.905332897277336L124.31648664947099,25.889052438619654L124.34331968043318,25.878880221317804L125.0141454544881,25.865489556975128L125.14831060929909,25.855621042855574L125.22880970218567,25.864793176633896L125.44347394988324,25.87630100173814L125.73863729046741,25.887823737648265L125.98013456912716,25.893405461975867L126.06063366201374,25.895597257021986L126.08746669297595,25.89869732146944L126.4899621574089,25.888608315911785L126.91929065280404,25.86481421192165L127.08028883857722,25.850717885872694L127.187620962426,25.833013091193948L127.42911824108577,25.807984765454393L127.48278430301016,25.796390360567884L127.72428158166991,25.800662216481676L127.8316137055187,25.798268851200625L127.99261189129189,25.789529122039042L128.12677704610286,25.784918491088586L128.82443585111997,25.781300558886805L129.06593312977972,25.778785902906915L129.46842859421267,25.798194760061126L129.65625981094806,25.789069807893856L129.81725799672122,25.77882395278645L129.92459012057003,25.765023374393067L129.95142315153223,25.756535597626268L130.46125073981395,25.72460261614366L130.54174983270053,25.709880731756538L130.7027480184737,25.70331295213106L131.5077389473396,25.680539848275284L131.66873713311278,25.686145116212295L132.0712325975457,25.690185152937968L132.1248986594701,25.6847541385908L132.58106018582745,25.676107815660334L132.60789321678965,25.66930971215026L133.11772080507137,25.68143220375056L133.14455383603357,25.68281032741597L133.22505292892015,25.676060557766014L133.46655020757993,25.660929581412745L133.76171354816407,25.647784281142805L134.432539322219,25.63314471737751L134.51303841510557,25.62271791730379L134.80820175568974,25.600779057880032L134.88870084857632,25.596660770221543L134.9423669105007,25.590046661688735L134.99603297242513,25.583277895204045L135.31802934397146,25.591280311758982L135.7741908703288,25.589444010308213L136.33768452053494,25.577927073483668L136.5255157372703,25.564357325296736L136.74017998496788,25.54715953103453L136.84751210881666,25.540296197097227L137.03534332555202,25.550316170488L137.06217635651424,25.559887212007858L137.0890093874764,25.566759783084557L137.35733969709838,25.583290898835244L138.0549985021155,24.95302137376841L138.18916365692647,24.594134247655905L138.6184921523216,24.421636211386566L138.91365549290575,24.47562568335203L139.02098761675455,24.549276048240408L139.04782064771675,24.580027004092216L139.2624848954143,24.715609871346864L139.34298398830092,24.8050602685528L139.4234830811875,24.806556470917716L139.50398217407408,24.802295742453758L139.74547945273386,24.850646928241094L139.85281157658264,24.900411530141902L140.040642793318,24.999595490767113L140.0674758242802,25.082725563061175L140.2284740100534,25.147767811490247L140.38947219582656,25.089530451538323L140.44313825775095,25.0475463420762L140.52363735063753,25.007431853139803L141.46279343431442,24.892541689775843L141.78478980586075,24.782050682806492L142.29461739414248,24.68112077226815L142.34828345606687,24.612216508621348L142.85811104434862,24.488780905153714L142.911777106273,24.42446874041796L143.44843772551692,24.384429433461328L144.09243046860965,24.402066473103677L144.17292956149623,24.41729948979942L144.52175896400476,24.445375450762707L144.73642321170234,24.44021709985069L144.97792049036212,24.437640663630365L145.0584195832487,24.432339232036306L145.1120856451731,24.431893170319356L145.13891867613532,24.425217046344713L145.51458110960607,24.402548154870328L146.31957203847193,24.382636589229403L146.4805702242451,24.398004870177278L146.5610693171317,24.397574897589397L146.74890053386707,24.3957884844417L147.09772993637563,24.35974835089176L147.1513959983,24.34670531120193L147.1782290292622,24.330849773337494L147.36606024599757,24.323596342948473L147.8490548033171,24.327967250760477L148.46621451544763,24.308362062195567L148.6003796702586,24.29396240800534L149.13704028950255,24.275355071061355L149.19070635142694,24.24847513745272L149.3517045372001,24.241315783803554L150.04936334221722,24.23684549394606L150.1835284970282,24.24614511632046L150.53235789953672,24.25704164126465L150.63969002338555,24.267253245936136L151.12268458070506,24.295755326273508L151.3373488284026,24.306508132979786L151.95450854053317,24.333397104158763L152.03500763341972,24.341544442232586L152.06184066438195,24.349249522473244L152.16917278823072,24.365041024014953L152.19600581919292,24.38540052712679L152.89366462421003,24.38250661071252L153.51082433634053,24.407692456443385L153.8596537388491,24.45283214674532L154.2889822342442,24.481804663211637L154.5841455748284,24.51571704742528L155.01347407022354,24.528908152242856L155.3891365036943,24.542308785643822L155.41596953465645,24.55085136397987L155.9526301539004,24.539835602723535L156.5966228969931,24.53255472868339L156.65028895891749,24.53072994779944L157.02595139238824,24.54858760624631L157.53577898066996,24.548335718970776L157.56261201163215,24.54715289662886L157.61627807355654,24.542900521769727L157.75044322836754,24.535267068451063L158.7432653739688,24.540059545083107L158.9310965907042,24.545931844803853L159.03842871455296,24.549755451878173L159.19942690032616,24.55731178087104L159.3604250860993,24.56293731369171L159.4945902409103,24.561541749577067L159.57508933379688,24.57140887694998L159.62875539572127,24.578120661556817L160.03125086015422,24.57867601366954L160.272748138814,24.57856161341298L160.48741238651155,24.59197044708011L160.9435739128689,24.58067019555016L161.0777390676799,24.57452870985579L161.13140512960427,24.565281426449022L161.45340150115064,24.559312738266335L161.50706756307503,24.554006583385302L161.6680657488482,24.54073525513008L161.99006212039455,24.530081330354427L162.12422727520553,24.532908681152787L162.3925575848275,24.520319733596274L162.66088789444944,23.38362262576993L163.41221276139095,23.83156144325814L163.46587882331534,24.122181276958685L163.57321094716414,24.393608456457613L163.97570641159706,24.389702177994923L165.07586068104712,24.315003645628316L165.1563597739337,24.32014779793148L165.63935433125326,24.155909459407468L166.12234888857276,24.08812064321406L166.57851041493012,24.044663428164384L166.65900950781668,24.00042808034044L166.79317466262768,23.942777870711947L166.92733981743865,23.948008794560124L167.41033437475818,23.853846429119795L167.4371674057204,23.801088203686078L167.89332893207774,23.799008381087894L167.9738280249643,23.80736775926863L168.16165924169968,23.779975220087234L168.886151077679,23.878166457521687L168.93981713960338,23.93702115453397L169.12764835633877,23.946934748079737L169.61064291365827,23.95840708545749L169.66430897558266,23.956916877174706L169.85214019231805,23.95451069864148L170.0936374709778,23.951795119751473L170.36196778059977,23.94328238056311L170.388800811562,23.95172863235093L170.65713112118394,23.994510383678733L170.76446324503274,23.98325694240342L170.7912962759949,23.974736266249778L171.30112386427663,23.951768527682454L171.43528901908763,23.943621239334803L171.48895508101202,23.922078442418503L171.5962872048608,23.906385214966466L171.83778448352058,23.929055382634715L172.3207790408401,23.962019410997282L172.85743966008403,24.01966467122942L172.991604814895,24.046538716591392L173.23310209355478,24.04927300882149L173.39410027932797,24.045094634344522L173.42093331029014,24.04394136158529L173.52826543413894,24.026671395501776L173.60876452702553,24.012248160070826L174.19909120819386,24.045249383951475L174.68208576551336,24.083489529607384L174.78941788936214,24.10350776606204L174.92358304417314,24.12590657050329L175.1114142609085,24.13245154395944L175.35291153956828,24.12714244633801L175.40657760149267,24.10973713385509L175.67490791111464,24.09867165717313L175.83590609688784,24.089406747466896L175.88957215881223,24.083738628100697L176.0505703445854,24.086697115331337L176.10423640650978,24.083903294916283L176.15790246843414,24.08431767600604L176.4798988399805,24.090325209026535L176.5335649019049,24.087341105549203L176.5872309638293,24.074726086724382L177.20439067595984,24.073521892956975L177.4458879546196,24.071374661966942L177.5263870475062,24.05891786997565L177.95571554290134,24.053032269824165L178.22404585252326,24.049249810585536L178.25087888348548,24.045997773159925L178.30454494540987,24.047813037920648L178.46554313118307,24.056282328249793L178.62654131695624,24.0536398743157L178.8143725336916,24.041699291449525L178.9485376885026,24.015238518093753L179.13636890523796,24.000410120088215L179.29736709101113,23.980863202214458L179.6461964935197,23.986291673693366L180.3438552985368,23.989756186311464L180.96101501066732,23.992822914441927L181.0683471345161,23.989815646033385L181.09518016547827,23.987214318128032L181.28301138221363,23.978535406414114L181.739172908571,23.97920705464916L182.03433624915513,23.972835825278334L182.32949958973933,23.960928786834046L182.5173308064747,23.953271448117725L182.67832899224786,23.945904036908534L183.32232173534058,23.92647768676702L184.79813843826136,23.927879032364576L184.90547056211017,23.935586855546077L185.2542999646187,23.91743248981327L185.54946330520286,23.90518611844665L185.65679542905167,23.892859982088872L185.87145967674923,23.880802590009655L185.89829270771142,23.875566030589802L186.0056248315602,23.870120533191205L186.24712211021998,23.8883604226237L186.27395514118217,23.899981232246684L186.54228545080412,23.907357660127694L186.5691184817663,23.913699512527106L186.59595151272853,23.916915086837257L186.8106157604261,23.910481738068174L187.34727637967,23.905126051274543L187.99126912276273,22.144999195847614L188.15226730853593,21.511255473058675L188.1791003394981,21.25212090875283L188.25959943238468,21.32463819631718L188.52792974200665,21.260618088174706L188.76942702066643,21.27089742324229L188.84992611355298,21.23401243779968L189.11825642317496,21.455682342958234L189.25242157798596,21.697890580611737L190.218410692625,22.05066162997691L190.4599079712848,22.219129747507605L190.51357403320918,22.33214328622082L190.62090615705796,22.401572636554775L190.78190434283115,22.485021878822515L190.8624034357177,22.525451400380774L191.0502346524531,22.55026043970533L191.26489890015068,22.58276647305887L191.34539799303727,22.57705100475449L191.56006224073482,22.55881779140946L191.6673943645836,22.571710447729238L191.7747264884324,22.579653471251838L192.3918862005629,22.553097396023418L192.4992183244117,22.56962104507031L192.68704954114708,22.579775416291934L192.79438166499585,22.627621460352355L193.08954500558002,22.643124546823753L193.41154137712635,22.682934945157026L193.84086987252152,22.703087449003615L194.5116956465764,22.7102934352849L194.91419111100933,22.69956199554352L195.28985354448008,22.715536459973062L195.50451779217767,22.712085817656792L195.71918203987525,22.678857303238786L195.88018022564842,22.67721768031024L195.90701325661064,22.68350486448332L196.36317478296795,22.68900757563573L196.6046720616277,22.687969554012973L196.98033449509845,22.715355213366564L197.06083358798506,22.73450503018686L197.6511602691534,22.77566828912938L198.1073217955107,22.796365034162424L198.42931816705706,22.78088378239745L198.50981725994365,22.76836349448062L198.6708154457168,22.779257980995276L199.15381000303637,22.787918098305628L199.20747606496076,22.790139189658834L199.6904706222803,22.798551748701577L199.79780274612907,22.805373354192774L199.87830183901568,22.801502107562445L200.36129639633518,22.793960864252963L200.46862852018398,22.7817775942612L200.65645973691937,22.77357240921768L201.0052891394279,22.803268228516938L201.16628732520107,22.824415513142593L201.54194975867182,22.85400394829634L201.86394613021818,22.881877396777902L202.05177734695354,22.886466826618477L202.26644159465113,22.875148014895128L202.48110584234868,22.85469365901777L202.5079388733109,22.8442988304223L203.09826555447924,22.881605800689393L203.20559767832802,22.895316144898356L203.58126011179877,22.879797105930948L203.9032564833451,22.868520558785576L203.9300895143073,22.859740378639316L204.11792073104266,22.857054224831582L204.4935831645134,22.878347141762543L204.6545813502866,22.900626448795343L204.842412567022,22.905549459502986L204.89607862894638,22.91162562924295L205.13757590760613,22.904916220581228L205.19124196953052,22.903980186636794L205.21807500049275,22.903238429925036L205.72790258877447,22.927848703900715L205.80840168166102,22.943646558262706L206.0498989603208,22.9463183005053L206.39872836282936,22.943767292558896L206.7743907963001,22.958558132394167L207.04272110592206,22.968480702303296L207.47204960131722,22.959013481371255L207.76721294190136,22.946864616419163L208.2502074992209,22.93218424862093L208.51853780884286,22.92038467287764L208.54537083980503,22.913152084472163L208.70636902557825,22.920799786394877L208.89420024231362,22.922822829299868L209.0015323661624,22.920575853745763L209.0283653971246,22.91907482545379L209.05519842808678,22.920832584238376L209.64552510925512,22.922618702243856L209.67235814021728,22.920802732848124L209.7796902640661,22.91774802744576L209.83335632599048,22.91290747310861L210.07485360465026,22.904691847663916L210.18218572849904,22.905908942839588L210.96034362640273,22.91040022848398L210.9871766573649,22.90779462438243L211.2286739360247,22.899910113811025L211.30917302891126,22.894797300069424L211.49700424564665,22.893383590993274L211.76533455526862,22.8912798698089L211.79216758623082,22.891136665908835L211.819000617193,22.893419809440974L211.8458336481552,22.89093041083303L211.9799988029662,22.89129818056781L212.14099698873937,22.88216266981681L212.24832911258812,22.879901982869832L212.3019951745125,22.87464807523453L212.73132366990765,22.86372803310479L212.89232185568085,22.85060376056874L212.91915488664304,22.840300085726554L213.13381913434063,22.329031945142344L213.64364672262235,22.3172798073235L214.09980824897968,22.307406388558697L214.79746705399677,22.061202287621203L215.41462676612733,22.160588681820414L215.76345616863586,22.26660289786919L215.84395526152244,22.270706388161233L216.67577922135052,22.19888680402242L216.70261225231272,22.149337438500552L217.13194074770786,22.17702764386297L217.15877377867008,22.237087378316552L217.427104088292,22.293167481390924L217.5076031811786,22.282687597358787L217.561269243103,22.245678232081236L217.85643258368717,22.184912517705268L218.01743076946033,22.207930835031313L218.09792986234694,22.20085692674754L218.20526198619572,22.20569582051287L218.68825654351525,22.21670529230238L218.71508957447745,22.23953416379094L218.82242169832622,22.28108711605183L218.90292079121284,22.302443453891662L218.95658685313722,22.30132671257309L219.33224928660795,22.27051385269892L219.43958141045673,22.26376775126982L219.7347447510409,22.274698700442777L219.81524384392748,22.265350684804936L220.35190446317142,22.290283173935357L220.56656871086898,22.2927259207665L220.83489902049095,22.294655556420807L220.86173205145312,22.303788465092648L221.1568953920373,22.295255786116456L221.77405510416781,22.282335729119445L221.90822025897882,22.27332274050539L222.36438178533612,22.26832980679847L222.98154149746665,22.25005520930203L223.5450351476728,22.224728671288894L223.57186817863496,22.209958525296752L223.67920030248374,22.180479014201136L223.78653242633254,22.1591394525473L224.26952698365207,22.159845941438817L224.43052516942524,22.19144979851049L224.45735820038743,22.21335433972376L225.58434550079969,22.232348766329476L225.79900974849724,22.227440353721192L226.01367399619483,22.236220544620217L226.04050702715702,22.23949624200911L226.49666855351435,22.25742283235534L226.8454979560229,22.292983015418056L226.9528300798717,22.312992666714365L227.24799342045586,22.327198304373432L227.5699897920022,22.32164375866406L227.6504888848888,22.347465825761915L227.7041549468132,22.359225330867268L227.81148707066197,22.379043421048223L228.02615131835955,22.38413276345929L229.6361331760913,22.4081640650965L229.7971313618645,22.421436523882605L229.8239643928267,22.4277351026312L229.87763045475108,22.424658151411624L230.28012591918403,22.40902336226271L230.46795713591942,22.392054927569937L231.08511684804992,22.40334830256311L231.1924489718987,22.420424851293493L231.48761231248287,22.42363454571789L231.56811140536945,22.429092126472256L232.02427293172678,22.43715939344045L232.18527111749995,22.442534703979597L232.53410052000854,22.442310006360206L233.07076113925243,22.42461462347814L233.3122584179122,22.4061751094291L233.68792085138296,22.38956538504089L233.74158691330734,22.38129719899376L233.79525297523176,22.379453192003755L234.0367502538915,22.372314949586855L234.2782475325513,22.36634527290519L234.49291178024882,22.370722218144085L235.02957239949276,22.405461782812505L235.08323846141715,22.433216206853544L235.16373755430376,22.45006537365465L235.21740361622815,22.467030972204064L235.37840180200132,22.476211393419877L235.70039817354768,22.4929372276408L235.72723120450988,22.503016397590326L235.91506242124527,22.50023175997215L235.99556151413182,22.51041722411629L236.1297266689428,22.52060067573784L236.31755788567818,22.52310801980841L236.37122394760257,22.529803628196436L237.7397085266746,22.51966118476755L238.03487186725874,22.50810066555409L238.11537096014533,28.138624071998283L238.2495361149563,25.927252740088598L238.67886461035144,24.498800290233632L238.78619673420025,23.528368472470298L238.81302976516244,22.954073591737334L238.86669582708683,22.662325740511204L238.9471949199734,22.25718287161174L239.1350261367088,22.083072994420807L239.24235826055758,21.9039432823935L239.3496903844064,21.758298384720618L239.59118766306614,21.659868542293466L239.6180206940283,21.647738884078926L239.7521858488393,21.654064112545132L239.8595179726881,21.613054427784654L239.88635100365028,21.57808258906842L240.28884646808325,21.71826146927074L241.1206704279113,21.857381345455668L241.44266679945767,21.961749087200293L241.63049801619303,22.068683273146018L241.76466317100403,22.187365051835798L242.14032560447478,22.23803857570623L242.38182288313453,22.219210881040077L242.7843183475675,22.164796173631732L243.07948168815165,22.192694995854808L243.267312904887,22.17434045395341L243.29414593584923,22.158518634265658L243.37464502873578,22.15191864132915L243.53564321450898,22.1369757871922L244.55529839107243,22.19174013014181L244.635797483959,22.19876281708003L244.6894635458834,22.195192355663018L244.76996263877,22.195075248026107L244.7967956697322,22.186724170245654L244.90412779358098,22.162455310681153L245.76278478437126,22.10311100781073L246.138447217842,22.086085763021245L246.86293905382132,22.11111729434227L247.0239372395945,22.122746374640396L247.13126936344327,22.145226465853657L247.61426392076282,22.151716496507646L247.7484290755738,22.164311646236914L248.15092454000674,22.175722562124587L248.23142363289332,22.172061158191994L248.3119227257799,22.1624568909741L248.87541637598602,22.169134655810762L249.17057971657022,22.188562077590248L249.51940911907874,22.16826889344659L249.54624215004097,22.156535135807502L249.81457245966288,22.16659691665601L249.8950715525495,22.166181828803616L250.00240367639827,22.15998281802616L250.4585652027556,22.143642950047173L250.51223126468,22.125028724380407L250.5927303575666,22.110383011651855L251.15622400777272,22.147322922289025L251.2098900696971,22.165583914527097L251.3440552245081,22.173701997765058L251.63921856509225,22.193338569330354L251.85388281278983,22.196637728017638L251.9612149366386,22.191237091757326L252.41737646299595,22.162029782918516L252.5783746487691,22.15290084303318L252.8467049583911,22.128492786833206L252.90037102031548,22.116626419769744L253.06136920608864,22.093670977192662L253.19553436089961,22.08781279347737L253.32969951571062,22.082234503295005L253.4101986085972,22.087845218347354L253.81269407303014,22.109825736374294L253.83952710399234,22.12143103082424L254.56401893997165,22.11847579115851L254.77868318766923,22.10487915270676L255.04701349729118,22.092971058451017L255.12751259017776,22.081557516385995L255.34217683787534,22.070467999020998L255.90567048808146,22.06243324328945L256.0666686738546,22.049609969185585L256.3618320144388,22.03909386864976L256.388665045401,22.03640876993911L257.24732203619124,22.045152821218448L257.27415506715346,22.04758257458966L257.4351532529266,22.050901835511933L258.83047086296085,22.05623956114279L258.88413692488524,22.055675709305213L259.07196814162063,22.065905397116246L259.1524672345072,22.08139392371763L259.3402984512426,22.098121757922367L260.06479028722185,22.085914349161747L260.62828393742797,22.08667966340432L260.89661424704997,22.088279715468907L261.3259427424451,22.087918746843474L261.37960880436947,22.084317785850825L261.4332748662939,22.081360242395064L261.56744002110486,22.083363120891946L262.42609701189514,22.08579305034314L262.56026216670614,22.089620073886003L262.8554255072903,22.09073721375277L262.8822585382525,22.097679517689222L262.9090915692147,22.102063247136062L262.9895906621013,22.111363988250655L263.2579209717232,22.129641315911673" style="fill: none;" fill="none"></path></g></g></g></g><g opacity="0.2"><g><g><g><path stroke="rgb(238, 51, 119)" stroke-width="2px" d="M12.07391813460404,161.17555534541475L12.234916320377216,157.32161329843015L12.664244815772358,151.30929325794096L12.71791087769675,150.9129728286426L12.79840997058334,150.92992884446147L13.093573311167498,145.4361763074801L13.496068775600442,136.96584125108745L13.57656786848703,135.7826934543303L14.113228487730956,128.57886019439024L14.327892735428525,126.58919967579304L14.43522485927731,125.39249388972719L14.971885478521235,118.0089575671661L15.750043376424928,111.3643691903331L15.830542469311515,110.49832959444731L16.072039747971285,108.41851902313435L16.367203088555442,105.75286275275062L16.501368243366425,104.51123887729422L16.555034305290814,104.18654311521942L17.735687667627452,96.43049984231685L17.869852822438432,95.79939488653525L18.272348286871377,93.37561259955056L18.433346472644555,92.4485108766777L18.567511627455534,91.75310270436617L18.75534284419091,90.51027109659594L18.916341029964084,89.61502075474615L19.426168618245814,87.29220352453072L19.855497113640954,85.59817131231887L19.909163175565347,85.34587807895787L20.12382742326292,84.5435617151575L20.445823794809275,83.17638144248475L20.68732107346904,82.23898328988525L20.90198532116661,81.39826513251204L21.33131381656175,80.01196584320972L21.438645940410538,79.63865373799234L22.887629612369132,75.24860136389015L22.91446264333133,75.15059081611469L23.370624169688664,73.89555906497057L23.451123262575255,73.71858875258516L23.531622355461845,73.57533941813809L23.934117819894787,72.59605274195229L24.014616912781378,72.38128109047777L24.041449943743576,72.33435011389746L24.309780253365535,71.8111904982584L24.819607841647265,70.64866967768651L25.383101491853385,69.48215037612074L25.839263018210723,68.60427227422056L25.973428173021702,68.384205705935L26.697920009001002,67.15424292948643L26.966250318622965,66.7385237263559L27.127248504396142,66.4603085999986L27.315079721131518,66.21831179636423L27.341912752093712,66.15365376582119L27.744408216526658,65.51543888308457L28.22740277384619,64.80286317121559L28.281068835770583,64.72573206344244L28.603065207316938,64.35238584149299L28.79089642405231,64.16280598494934L28.817729455014504,64.12425407775557L28.8713955169389,64.05185837238817L28.951894609825487,63.95057261833784L29.00556067174988,63.87067123192385L29.327557043296235,63.44361162706659L29.595887352918197,63.08550876098809L30.05204887927553,62.49247807815184L30.749707684292638,61.56990705729253L30.85703980814142,61.41924756864857L30.964371931990208,61.34369947724159L31.179036179687778,61.10332663005184L31.420533458347542,60.83911301051962L31.769362860856095,60.46490704692304L31.87669498470488,60.36826116842878L32.11819226336465,60.08517417273761L32.22552438721343,59.96309085884187L32.27919044913783,59.91337595692792L32.33285651106222,59.83866031378249L32.52068772779759,59.67316687005193L32.65485288260857,59.487189740410614L32.70851894453297,59.43615110929391L32.84268409934394,59.30616636026006L32.89635016126834,59.27360535121073L33.00368228511712,59.1355417600322L33.11101440896591,59.005802651468954L33.27201259473908,58.84642292611815L33.29884562570128,58.81548587351345L33.9160053378318,58.24192902131985L34.02333746168058,58.14176229608012L34.90882748343306,57.42043905411869L35.09665870016843,57.260513461055396L35.25765688594161,57.13900330825776L35.63331931941236,56.8119603150193L35.74065144326114,56.72526287558496L35.92848265999652,56.610016554788004L35.98214872192091,56.57214698223484L36.14314690769409,56.42290674964331L36.19681296961848,56.379687673507846L36.57247540308923,56.13331028148085L36.599308434051416,56.10336943745143L36.86763874367338,31.55369234346598L36.94813783655997,33.78956649377645L37.189635115219744,35.76240064013651L37.29696723906853,36.31823043836738L37.404299362917314,35.57826581402483L37.64579664157707,34.94037845191567L37.67262967253927,34.667949523310654L37.83362785831245,35.28924250696046L37.86046088927465,35.386625306866556L37.99462604408563,35.3951135497956L38.47762060140516,35.29448283700024L38.55811969429175,35.63908912388771L38.79961697295152,35.568099027879924L39.6046079018174,35.35676634299401L39.95343730432596,35.280153809547706L40.114435490099126,35.297894510203236L40.19493458298572,35.24115156149114L40.24860064491011,35.15498634307646L40.3559327687589,35.32155787553916L40.51693095453208,35.375298551832635L40.65109610934306,35.56984580455984L40.91942641896502,35.49155472789767L41.0804246047382,35.39400816767782L41.21458975954918,35.47985951215784L41.48292006917114,35.43172762661006L42.60990736958339,35.70384268128043L42.71723949343217,35.80736649295191L42.74407252439436,35.848265631309324L42.77090555535656,35.83912234712532L43.2539001126761,36.06684471007838L43.60272951518464,35.994872052188136L43.9515589176932,35.929859207632L44.6492177227103,35.779117838831155L44.97121409425666,35.8197031032539L45.26637743484081,35.81099651323988L45.3468765277274,35.748562893625184L45.427375620613994,35.70455230930665L45.96403623985792,35.62571536493198L46.12503442563109,35.674092890950355L46.31286564236647,35.73108148013308L46.47386382813965,35.683590989147476L46.90319232353478,35.640508379940144L46.98369141642137,35.64060390678982L47.27885475700553,35.610130841740734L47.35935384989212,35.610444715675406L47.439852942778714,35.58275557595996L47.46668597374091,35.57826581402483L48.75467145992633,35.52387009647637L48.83517055281292,35.5185205928941L48.9156696456995,35.56865854228521L48.942502676661704,35.55861457637562L49.53282935783002,35.62350460069645L49.85482572937637,35.56134391493799L49.90849179130077,35.55982913203588L50.12315603899834,35.51464493213549L50.230488162847124,35.473145339294355L50.90131393690203,35.38284517295764L50.92814696786423,35.4009543343191L51.22331030844838,35.388836071102105L51.43797455614595,35.39609611167806L51.54530667999474,35.419895943942095L51.598972741919134,35.388781484330856L52.457629732709414,35.29191725875161L52.5649618565582,35.25331076478659L53.2357876306131,35.180164491314514L53.66511612600825,35.140479908617344L53.691949156970445,35.14719408148084L54.09444462140338,35.20642072828471L54.20177674525217,35.1547952893771L54.63110524064731,35.17231764294764L54.6579382716095,35.14933661225231L55.00676767411806,35.07823734270203L55.248264952777824,35.118126625791376L55.38243010758881,35.11661184288924L55.51659526239978,35.103142557083856L55.59709435528637,35.10946097585578L55.73125951009735,35.06461794327569L55.81175860298394,35.03957626196576L56.133754974530305,34.984047868913926L56.34841922222787,34.97479541118743L56.53625043896324,34.9673443169121L56.72408165569862,34.93000696537859L56.96557893435838,34.9349334214837L57.072911058207175,34.947324618556955L57.12657712013156,34.947952366426314L57.18024318205595,34.9265816454828L57.260742274942544,34.91480454958608L57.44857349167791,34.89374770257723L57.690070770337684,34.8631245239072L57.95840107995965,34.80715943668538L58.06573320380843,34.78797218659179L58.119399265732824,34.79950364201788L58.19989835861941,34.78522920133658L58.334063513430394,34.779047249492756L58.414562606316984,34.78920038894486L58.44139563727918,34.78106696002893L58.978056256523104,34.69308673147027L59.21955353518287,34.6400283898174L59.38055172095605,34.627350612195094L59.568382937691425,34.590913942387175L59.59521596865362,34.58997232058315L59.836713247313384,34.52641967215788L60.02454446404876,34.49471840475571L60.58803811425488,34.44976619863313L60.69537023810366,34.43741594163832L60.96370054772563,34.44881093013631L61.071032671574415,34.42741291580716L61.31252995023418,34.411992152929635L61.66135935274273,34.37621052437671L61.74185844562932,34.39531589431345L61.9028566314025,34.39771771224835L61.95652269332689,28.199881118000263L62.868845746041565,30.76181569966674L63.02984393181474,30.528921240137933L63.48600545817207,31.042091476638635L63.75433576779404,30.873213653090716L63.83483486068063,30.87827657612395L63.88850092260502,30.69257238033889L64.37149547992456,30.751689853600265L64.7471579133953,30.599229001505137L64.80082397531969,30.658305534688076L65.28381853263922,30.8838171334056L65.39115065648801,30.86573526542977L65.60581490418558,30.630179700802632L66.06197643054291,30.652123582844254L66.2229746163161,30.682255480573062L66.8669673594088,30.873868694345685L67.21579676191736,31.008834486255907L67.29629585480394,30.911301572728874L67.32312888576614,30.884035480490592L67.37679494769053,30.967321246721955L67.43046100961493,30.954015721230288L67.53779313346371,30.968112754905036L67.6451252573125,31.125322656098753L67.83295647404786,31.057948933686134L68.23545193848081,30.899988464387768L69.14777499119549,30.66347763126381L69.25510711504427,30.67851628674258L69.44293833177964,30.626713440828407L69.68443561043941,30.522493647823506L70.00643198198577,30.513486830567615L70.27476229160773,30.511003132475842L70.32842835353212,30.514087285051357L70.3820944154565,30.5348166114327L70.5162595702675,30.498448175088846L70.59675866315408,30.45990991458789L70.81142291085166,30.40544596357539L70.91875503470044,30.437420164833792L71.45541565394436,30.31956732570976L71.58958080875534,30.32117763546157L71.61641383971754,30.29215111985055L71.67007990164194,30.303696221969464L71.75057899452852,30.377879644095238L71.85791111837732,30.36192666019806L71.88474414933951,30.348607488013595L72.07257536607489,30.308922905316443L72.15307445896147,30.285041192895523L72.28723961377246,30.315869071957728L72.79706720205418,30.278804654280457L73.06539751167614,30.289298961052847L73.22639569744932,30.385426265220246L73.38739388322249,30.387432329063603L73.49472600707128,30.367180636930673L73.81672237861764,30.327482407540703L73.84355540957984,30.335261022443518L74.51438118363474,30.31682434045455L74.7558784622945,30.253708386199275L75.69503454597138,30.206299775370557L75.72186757693358,30.213259588704638L75.77553363885797,30.18383731900207L76.15119607232872,30.084161874703568L76.95618700119459,30.142815360409347L77.17085124889216,30.120421137504927L77.35868246562754,30.135896487153673L77.41234852755194,30.13402689023844L77.46601458947633,30.122536374890778L77.60017974428732,30.10610575674519L78.2710055183422,29.995908712288664L78.2978385493044,30.00668959961011L78.56616885892637,29.932588057641194L78.61983492085076,29.91805432979647L78.75400007566175,29.859878478339102L79.1296625091325,29.832380392323014L79.29066069490568,29.8345229230945L79.53215797356545,29.77383608015973L79.93465343799838,29.747020328784245L80.04198556184717,29.7502682416735L80.09565162377156,29.766316752420355L80.44448102628012,29.777288693441157L80.76647739782646,29.786145397076123L81.08847376937283,29.716519970349523L81.35680407899478,29.74572389296712L81.51780226476795,29.75597255926889L81.9739637911253,29.720600331500307L82.13496197689848,29.704797461224075L82.16179500786068,29.691696636124583L82.53745744133143,29.65000598958407L82.69845562710461,29.649596588799703L82.83262078191558,29.62238508333267L83.4497804940461,29.588595871930284L83.63761171078146,29.576600428948577L83.77177686559244,29.56128883961357L84.120606268101,29.546673231611965L84.30843748483638,29.54207429613434L84.71093294926932,29.52496134334815L85.03292932081567,29.470852206348745L85.11342841370225,29.453520906477564L85.489090847173,29.446274512594407L85.5159238781352,29.441675577116783L85.5695899400596,29.42935261350759L86.42824693084988,29.478044013460636L86.45507996181207,29.4674814732242L86.48191299277428,29.4630462980603L86.66974420950966,29.468614148727582L86.9649075500938,29.396818897843897L87.36740301452674,25.913186683658076L87.50156816933773,26.453104438070202L88.65538850071216,27.489325116667462L88.89688577937193,27.624468315584245L89.1383830580317,27.437645090988603L89.29938124380487,27.35805757850929L89.40671336765367,27.332510969565313L89.862874894011,27.205555786335708L89.9165409559354,27.329795277695716L89.9433739868976,27.364034829960918L91.20452644212081,27.873206585467717L91.4191906898184,27.837588717228513L92.0363504019489,27.73155391407963L92.27784768060866,27.623622220629898L92.38517980445745,27.564695801067884L92.49251192830623,27.549602558817867L92.51934495926842,27.525270505534152L92.81450829985259,27.50770721188516L92.89500739273917,27.42710984413776L93.10967164043676,27.467012773919922L93.19017073332334,27.452137878754897L93.83416347641604,27.30153297688216L93.94149560026483,27.315575423785678L93.99516166218922,27.300768762084697L94.74648652913072,27.51582699410828L95.36364624126122,27.485340282366376L95.76614170569418,27.466671606599622L95.98080595339175,27.38331760690421L96.11497110820272,27.378841491661877L96.24913626301371,27.43988314860975L96.3564683868625,27.392119723767912L96.41013444878689,27.35661102907122L96.83946294418202,27.40135853480161L97.32245750150156,27.438982466884156L97.34929053246375,27.433673903380313L97.53712174919913,27.404429040684306L97.61762084208571,27.374938537517675L98.26161358517844,27.388912750957108L98.34211267806502,27.354768725541604L98.52994389480038,27.38825770970214L98.610442987687,27.387425261440608L98.63727601864917,27.369861967791618L98.69094208057356,27.347877145671564L98.71777511153576,27.349842269436493L99.38860088559068,27.5179149381085L99.63009816425044,27.537006661352418L100.27409090734314,27.48980275091587L100.4887551550407,27.517942231494132L100.86441758851146,27.514762552068945L100.89125061947367,27.516099927964518L101.347412145831,27.558964190086858L102.12557004373468,27.57216054203601L102.17923610565907,27.574398599657176L102.44756641528105,27.526771641743466L102.90372794163838,27.508280372983272L103.03789309644937,27.509385755101036L103.62821977761769,27.47964961146378L103.70871887050426,27.501170446028244L103.84288402531524,27.453093147251717L104.13804736589941,27.42646844957561L104.1917134278238,27.411361560632773L104.37954464455918,27.46758593501801L104.54054283033236,27.461458569945457L104.72837404706773,27.460817175383283L104.88937223284091,27.45908404539618L104.9698713257275,27.45822430374902L105.42603285208484,27.49709008487746L105.74802922363118,27.53329476090757L105.82852831651778,27.524165123416385L106.01635953325315,27.50314921648597L106.44568802864829,27.503108276407538L106.49935409057268,27.49730843196245L106.66035227634586,27.430344110334197L106.76768440019465,27.426918790438403L107.19701289558978,27.39124633542795L107.65317442194711,27.380015107243707L108.18983504119105,27.3511250585608L108.67282959851059,27.318031828491815L108.72649566043498,27.31674903936749L108.78016172235935,27.322385123498837L108.86066081524596,27.332510969565313L108.94115990813253,27.31513872961568L109.39732143448987,27.292894620332206L109.69248477507404,27.25169525473292L110.06814720854479,27.26066113191036L110.87313813741066,27.257768033034225L110.92680419933507,27.269313135153137L111.57079694242778,27.269285841767523L111.67812906627657,27.26115241285159L111.73179512820096,27.257112991779255L111.89279331397414,27.214890124219068L111.97329240686072,27.203017501472672L112.02695846878511,27.19313729587682L112.26845574744489,28.199881118000263L112.45628696418025,27.15181511004222L112.8051163666888,26.33665720830581L113.01978061438638,26.465154467823158L113.36861001689492,26.669377225754047L113.42227607881932,26.80245977405622L113.5027751717059,27.248447341843665L113.82477154325227,27.441957445917172L113.93210366710103,27.26826233980662L114.06626882191202,27.21347086816663L114.11993488383641,27.40135853480161L114.38826519345838,27.221686177239427L114.49559731730716,27.101909154428917L115.27375521521087,26.64168808603858L115.40792037002184,26.61297544436223L115.5957515867572,26.47825529292263L116.77640494909384,26.347683736097856L116.99106919679143,26.352446431889224L117.1789004135268,26.316405516172857L117.28623253737558,26.297013565687084L117.58139587795974,26.374103733381812L117.74239406373292,26.223034843953485L117.90339224950608,26.226269110149904L118.49371893067442,26.076755943702157L118.78888227125857,26.035024357083195L118.92304742606956,26.011142644662275L119.16454470472931,26.011674865681933L119.1913777356915,25.976957679168322L119.51337410723787,25.858818259495255L119.80853744782202,25.930313283137068L119.88903654070862,25.856129861011294L120.15736685033058,25.7745226379958L121.4185193055538,25.985254868398L121.55268446036479,25.984954641156126L121.57951749132698,25.98327609794027L121.84784780094894,26.00616160178592L123.80665906118928,25.930285989751454L124.10182240177343,25.910894039265663L124.12865543273561,25.903442944990335L124.18232149466003,25.907482366062666L124.2359875565844,25.886480105825086L124.31648664947099,25.86463175063314L124.34331968043318,25.863621895365053L125.0141454544881,25.845403560461094L125.14831060929909,25.840818271676287L125.22880970218567,25.878551377301328L125.44347394988324,25.893562739394483L125.73863729046741,25.90510784151339L125.98013456912716,25.901778048467275L126.06063366201374,25.89888494959114L126.08746669297595,25.903347418140655L126.4899621574089,25.873474807575292L126.91929065280404,25.82912305593643L127.08028883857722,25.829573396799226L127.187620962426,25.806455899175774L127.42911824108577,25.77044227684504L127.48278430301016,25.778998753238135L127.72428158166991,25.80707000035231L127.8316137055187,25.794678803279076L127.99261189129189,25.776419528296667L128.12677704610286,25.77800254466286L128.82443585111997,25.775873660584192L129.06593312977972,25.77501391893705L129.46842859421267,25.827308045792446L129.65625981094806,25.775382379642963L129.81725799672122,25.763455170125322L129.92459012057003,25.744322506802952L129.95142315153223,25.743803932476112L130.46125073981395,25.67670314391973L130.54174983270053,25.687797905175845L130.7027480184737,25.693461282692805L131.5077389473396,25.64638019249157L131.66873713311278,25.694553018117755L132.0712325975457,25.696245208026447L132.1248986594701,25.676607617070054L132.58106018582745,25.663138331264644L132.60789321678965,25.65911255688513L133.11772080507137,25.699615941150995L133.14455383603357,25.684877512914095L133.22505292892015,25.665935903291103L133.46655020757993,25.63823311688282L133.76171354816407,25.628066330737933L134.432539322219,25.61118537172953L134.51303841510557,25.607077717193132L134.80820175568974,25.56787076874439L134.88870084857632,25.5904833387338L134.9423669105007,25.580125498889537L134.99603297242513,25.573124745477003L135.31802934397146,25.60328393659142L135.7741908703288,25.58668955813209L136.33768452053494,25.560651668246866L136.5255157372703,25.544002703016286L136.74017998496788,25.521362839641263L136.84751210881666,25.530001196191222L137.03534332555202,25.565346130574188L137.06217635651424,25.574243774287588L137.0890093874764,25.577068639699657L137.35733969709838,25.60808757246122L138.0549985021155,24.007617086168118L138.18916365692647,24.05580355848712L138.6184921523216,24.162889156982523L138.91365549290575,24.5566098913002L139.02098761675455,24.65975159557295L139.04782064771675,24.62615343786992L139.2624848954143,24.918984172228814L139.34298398830092,24.939235864361766L139.4234830811875,24.8088007744651L139.50398217407408,24.7959046497578L139.74547945273386,24.923173706922093L139.85281157658264,24.975058432993144L140.040642793318,25.14837143170495L140.0674758242802,25.207420671502277L140.2284740100534,25.245331184133875L140.38947219582656,25.002174411610483L140.44313825775095,24.98457017788306L140.52363735063753,24.947260119735184L141.46279343431442,24.720206444729897L141.78478980586075,24.6163141723525L142.29461739414248,24.52972590646065L142.34828345606687,24.50886011315118L142.85811104434862,24.303627499952203L142.911777106273,24.32800049331435L143.44843772551692,24.32437047302638L144.09243046860965,24.428522032567198L144.17292956149623,24.44014901484299L144.52175896400476,24.487489392207664L144.73642321170234,24.43247957348267L144.97792049036212,24.433776009299812L145.0584195832487,24.424387084645186L145.1120856451731,24.431224077743977L145.13891867613532,24.415202860382735L145.51458110960607,24.368544817658663L146.31957203847193,24.352769240768044L146.4805702242451,24.421057291599073L146.5610693171317,24.39692993870753L146.74890053386707,24.393108864720187L147.09772993637563,24.30568815056681L147.1513959983,24.327140751667205L147.1782290292622,24.307066466540814L147.36606024599757,24.312716197364978L147.8490548033171,24.33452361247847L148.46621451544763,24.278954279348184L148.6003796702586,24.272362926720017L149.13704028950255,24.247444065645396L149.19070635142694,24.208155237039776L149.3517045372001,24.230576753329828L150.04936334221722,24.23014005915983L150.1835284970282,24.260094549882073L150.53235789953672,24.273386428680922L150.63969002338555,24.282570652943356L151.12268458070506,24.338508446779556L151.3373488284026,24.32263734303926L151.95450854053317,24.373730560927214L152.03500763341972,24.353765449343317L152.06184066438195,24.3608071428343L152.16917278823072,24.38872827632755L152.19600581919292,24.415939781794588L152.89366462421003,24.378165736091095L153.51082433634053,24.44547122503965L153.8596537388491,24.5205416821982L154.2889822342442,24.525263437911136L154.5841455748284,24.56658562374573L155.01347407022354,24.54869480946928L155.3891365036943,24.56240973574529L155.41596953465645,24.56366523148398L155.9526301539004,24.523311960839045L156.5966228969931,24.521633417623168L156.65028895891749,24.52799277647353L157.02595139238824,24.575374093916636L157.53577898066996,24.54795788805743L157.56261201163215,24.545378663115958L157.61627807355654,24.53652195948101L157.75044322836754,24.523816888473068L158.7432653739688,24.54724826003121L158.9310965907042,24.55474029438497L159.03842871455296,24.55549086248962L159.19942690032616,24.56864627436034L159.3604250860993,24.571375612922733L159.4945902409103,24.55944840340509L159.57508933379688,24.586209568009327L159.62875539572127,24.588188338467056L160.03125086015422,24.579509041838666L160.272748138814,24.578390013028084L160.48741238651155,24.61208369758079L160.9435739128689,24.56371981825523L161.0777390676799,24.565316481314223L161.13140512960427,24.551410501338854L161.45340150115064,24.550359705992335L161.50706756307503,24.546047351063745L161.6680657488482,24.520828262747255L161.99006212039455,24.51410044319096L162.12422727520553,24.53714970735035L162.3925575848275,24.501436312261465L162.66088789444944,21.67857696403043L163.41221276139095,24.503469669490457L163.46587882331534,24.55811102750952L163.57321094716414,24.80074922570605L163.97570641159706,24.383842760300872L165.07586068104712,24.202955847078428L165.1563597739337,24.32786402638624L165.63935433125326,23.909551951621427L166.12234888857276,23.98643741892396L166.57851041493012,23.979477605589878L166.65900950781668,23.9340750586045L166.79317466262768,23.85630255626919L166.92733981743865,23.955855180332378L167.41033437475818,23.712602880959306L167.4371674057204,23.7219508655355L167.89332893207774,23.795888647190655L167.9738280249643,23.8199068265397L168.16165924169968,23.738886411315136L168.886151077679,24.025453313673346L168.93981713960338,24.02530320005242L169.12764835633877,23.961805138398393L169.61064291365827,23.975615591524083L169.66430897558266,23.954681564750548L169.85214019231805,23.950901430841636L170.0936374709778,23.947721751416466L170.36196778059977,23.930513271780576L170.388800811562,23.96439801003266L170.65713112118394,24.05868301067046L170.76446324503274,23.966376780490403L170.7912962759949,23.96195525201932L171.30112386427663,23.917316919831425L171.43528901908763,23.93140030681335L171.48895508101202,23.889764247044088L171.5962872048608,23.882845373788435L171.83778448352058,23.963060634137086L172.3207790408401,24.011465453541096L172.85743966008403,24.10613256157761L172.991604814895,24.086849784634314L173.23310209355478,24.053374447166597L173.39410027932797,24.038827072629058L173.42093331029014,24.04221145244642L173.52826543413894,24.000766446376513L173.60876452702553,23.990613306924423L174.19909120819386,24.09475121977244L174.68208576551336,24.14084974809122L174.78941788936214,24.13353512074402L174.92358304417314,24.15950477716516L175.1114142609085,24.142269004143674L175.35291153956828,24.119178799905836L175.40657760149267,24.083629165130695L175.67490791111464,24.082073442150133L175.83590609688784,24.075509382907597L175.88957215881223,24.07523644905136L176.0505703445854,24.091134846177273L176.10423640650978,24.079712564293672L176.15790246843414,24.084939247640655L176.4798988399805,24.09933650855727L176.5335649019049,24.082864950333228L176.5872309638293,24.05580355848712L177.20439067595984,24.07171560230587L177.4458879546196,24.068153815481946L177.5263870475062,24.040232681988694L177.95571554290134,24.044203869596963L178.22404585252326,24.043576121727625L178.25087888348548,24.04111971702147L178.30454494540987,24.05053593506171L178.46554313118307,24.068986263743476L178.62654131695624,24.049676193414566L178.8143725336916,24.02378841715029L178.9485376885026,23.97554735806004L179.13636890523796,23.978167523079918L179.29736709101113,23.95154282540381L179.6461964935197,23.994434380911766L180.3438552985368,23.994952955238627L180.96101501066732,23.9974230066376L181.0683471345161,23.98530474342058L181.09518016547827,23.98331232627004L181.28301138221363,23.96551703884324L181.739172908571,23.980214527001728L182.03433624915513,23.963278981222075L182.32949958973933,23.943068229167572L182.5173308064747,23.941785440043247L182.67832899224786,23.93485292009478L183.32232173534058,23.89733816155473L184.79813843826136,23.92998105076092L184.90547056211017,23.947148590318356L185.2542999646187,23.89020094121407L185.54946330520286,23.886816561396703L185.65679542905167,23.8743707775522L185.87145967674923,23.862716501890795L185.89829270771142,23.867711191459968L186.0056248315602,23.86195228709333L186.24712211021998,23.91572025677243L186.27395514118217,23.9174124466811L186.54228545080412,23.91842230194919L186.5691184817663,23.92321229112619L186.59595151272853,23.921738448302488L186.8106157604261,23.900831714914588L187.34727637967,23.897092521084105L187.99126912276273,19.50480891270717L188.15226730853593,20.560639888875205L188.1791003394981,20.863419062294017L188.25959943238468,21.4334141276637L188.52792974200665,21.164587925961015L188.76942702066643,21.286316425843637L188.84992611355298,21.17868495963576L189.11825642317496,21.788187200696054L189.25242157798596,22.061202937091995L190.218410692625,22.57981820402467L190.4599079712848,22.471831923803673L190.51357403320918,22.50166359429061L190.62090615705796,22.505716662055757L190.78190434283115,22.61019574222408L190.8624034357177,22.58609568271817L191.0502346524531,22.58747399869217L191.26489890015068,22.631525523089163L191.34539799303727,22.568477802297934L191.56006224073482,22.53146797139191L191.6673943645836,22.591049432208912L191.7747264884324,22.591568006535752L192.3918862005629,22.513263283180766L192.4992183244117,22.594406518640643L192.68704954114708,22.595006973124363L192.79438166499585,22.699390526443008L193.08954500558002,22.666379176530885L193.41154137712635,22.7426505426569L193.84086987252152,22.73331620477352L194.5116956465764,22.721102414706824L194.91419111100933,22.683464835931463L195.28985354448008,22.73949815661734L195.50451779217767,22.70690985418238L195.71918203987525,22.62901453161176L195.88018022564842,22.67475824591742L195.90701325661064,22.69293564074295L196.36317478296795,22.697261642364335L196.6046720616277,22.686412521578845L196.98033449509845,22.756433702396976L197.06083358798506,22.763229755417317L197.6511602691534,22.83741317754311L198.1073217955107,22.827410151711945L198.42931816705706,22.757661904750055L198.50981725994365,22.749583062605367L198.6708154457168,22.795599710767288L199.15381000303637,22.800908274271126L199.20747606496076,22.793470826688615L199.6904706222803,22.811170587265714L199.79780274612907,22.815605762429595L199.87830183901568,22.795695237616965L200.36129639633518,22.78264899928874L200.46862852018398,22.763502689273555L200.65645973691937,22.761264631652406L201.0052891394279,22.847811957465805L201.16628732520107,22.856136440081094L201.54194975867182,22.898386601026917L201.86394613021818,22.92368756950027L202.05177734695354,22.89335097137929L202.26644159465113,22.858169797310087L202.48110584234868,22.824012125201765L202.5079388733109,22.82870658752907L203.09826555447924,22.937566256090022L203.20559767832802,22.91588166121184L203.58126011179877,22.856518547479844L203.9032564833451,22.851605738067533L203.9300895143073,22.84657010841993L204.11792073104266,22.853024994119988L204.4935831645134,22.910286517158927L204.6545813502866,22.934045409344552L204.842412567022,22.912933975564457L204.89607862894638,22.920739883852885L205.13757590760613,22.89485210758861L205.19124196953052,22.902576135720174L205.21807500049275,22.90212579485738L205.72790258877447,22.964764114864263L205.80840168166102,22.96734333980571L206.0498989603208,22.950325913869214L206.39872836282936,22.93994078063932L206.7743907963001,22.980744392147056L207.04272110592206,22.983364557166954L207.47204960131722,22.94481264997318L207.76721294190136,22.928641318991012L208.2502074992209,22.910163696923632L208.51853780884286,22.90268530926267L208.54537083980503,22.902303201863937L208.70636902557825,22.932271339278998L208.89420024231362,22.92585739365737L209.0015323661624,22.917205390414598L209.0283653971246,22.916823283015866L209.05519842808678,22.923469222415278L209.64552510925512,22.92529787925208L209.67235814021728,22.918078778754555L209.7796902640661,22.913165969342263L209.83335632599048,22.90564664160287L210.07485360465026,22.892368409496836L210.18218572849904,22.90773458560309L210.96034362640273,22.91713715695053L210.9871766573649,22.903886218230134L211.2286739360247,22.88808334795388L211.30917302891126,22.88712807945704L211.49700424564665,22.891263027379072L211.76533455526862,22.88812428803233L211.79216758623082,22.890921860058768L211.819000617193,22.89684452473917L211.8458336481552,22.887196312921105L211.9799988029662,22.891849835169978L212.14099698873937,22.868459403690306L212.24832911258812,22.876510952449358L212.3019951745125,22.866767213781614L212.73132366990765,22.84734796991021L212.89232185568085,22.830917351764622L212.91915488664304,22.824844573463295L213.13381913434063,21.562129734266037L213.64364672262235,22.29965160059525L214.09980824897968,22.29259626041149L214.79746705399677,21.691896136214915L215.41462676612733,22.309668273119232L215.76345616863586,22.4256242219424L215.84395526152244,22.276861623599302L216.67577922135052,22.09115742781424L216.70261225231272,22.075013390217688L217.13194074770786,22.21856295190664L217.15877377867008,22.327176979996974L217.427104088292,22.37728763600247L217.5076031811786,22.266967771310632L217.561269243103,22.19016418416496L217.85643258368717,22.093763946141323L218.01743076946033,22.242458311020357L218.09792986234694,22.19024606432182L218.20526198619572,22.212954161160926L218.68825654351525,22.233219499986678L218.71508957447745,22.273777471023788L218.82242169832622,22.343416544443187L218.90292079121284,22.33447796065136L218.95658685313722,22.29965160059525L219.33224928660795,22.224294562887646L219.43958141045673,22.25364859912617L219.7347447510409,22.291095124202172L219.81524384392748,22.25132866134814L220.35190446317142,22.327681907631018L220.56656871086898,22.2963900410132L220.83489902049095,22.297550009902213L220.86173205145312,22.317487828100475L221.1568953920373,22.282456767652196L221.77405510416781,22.26295564362391L221.90822025897882,22.259803257584355L222.36438178533612,22.260840406238056L222.98154149746665,22.222643313057404L223.5450351476728,22.186738864269163L223.57186817863496,22.18780330630848L223.67920030248374,22.13625974755773L223.78653242633254,22.127130110066545L224.26952698365207,22.160905674776135L224.43052516942524,22.238855584118003L224.45735820038743,22.246211151543655L225.58434550079969,22.260840406238056L225.79900974849724,22.220077734808754L226.01367399619483,22.249390830968824L226.04050702715702,22.24440978809247L226.49666855351435,22.28431271787463L226.8454979560229,22.34632329001214L226.9528300798717,22.34300714365884L227.24799342045586,22.34850676086206L227.5699897920022,22.313311940100036L227.6504888848888,22.386198926408667L227.7041549468132,22.37686458852529L227.81148707066197,22.408770556319645L228.02615131835955,22.39176677707595L229.6361331760913,22.44421101755229L229.7971313618645,22.44134521206177L229.8239643928267,22.437182970754126L229.87763045475108,22.42004272458232L230.28012591918403,22.385571178539312L230.46795713591942,22.366602275530706L231.08511684804992,22.420288365052922L231.1924489718987,22.446039674389095L231.48761231248287,22.42844908735447L231.56811140536945,22.437278497603803L232.02427293172678,22.449260293892713L232.18527111749995,22.450597669788287L232.53410052000854,22.441972959931128L233.07076113925243,22.398071549155063L233.3122584179122,22.37851583835553L233.68792085138296,22.36465079845859L233.74158691330734,22.368894919923118L233.79525297523176,22.37668718151873L234.0367502538915,22.36160758596153L234.2782475325513,22.357390757882637L234.49291178024882,22.37728763600247L235.02957239949276,22.457571129815186L235.08323846141715,22.47484784291512L235.16373755430376,22.475339123856347L235.21740361622815,22.492479370028153L235.37840180200132,22.489982025243567L235.70039817354768,22.518025978972133L235.72723120450988,22.518135152514628L235.91506242124527,22.496054803544894L235.99556151413182,22.52569542033245L236.1297266689428,22.535875853170175L236.31755788567818,22.52686903591428L236.37122394760257,22.539847040778465L237.7397085266746,22.504447519624247L238.03487186725874,22.490759886733848L238.11537096014533,36.58440918166453L238.2495361149563,22.61019574222408L238.67886461035144,22.35612161545113L238.78619673420025,22.072720745825293L238.81302976516244,22.092631270637924L238.86669582708683,22.22470396367201L238.9471949199734,21.649468568262552L239.1350261367088,21.821908178634395L239.24235826055758,21.635248714352496L239.3496903844064,21.539831038211315L239.59118766306614,21.512223778652732L239.6180206940283,21.629544396757083L239.7521858488393,21.66355195524448L239.8595179726881,21.551539900643967L239.88635100365028,21.525624830994055L240.28884646808325,21.928529789574185L241.1206704279113,22.066061159733042L241.44266679945767,22.118300699817212L241.63049801619303,22.229084552064645L241.76466317100403,22.365387719870444L242.14032560447478,22.314048861511868L242.38182288313453,22.190969339040855L242.7843183475675,22.083174112519234L243.07948168815165,22.234543229189434L243.267312904887,22.146808641101387L243.29414593584923,22.13478590473405L243.37464502873578,22.14201865192439L243.53564321450898,22.114561505986728L244.55529839107243,22.273886644566282L244.635797483959,22.20929684748731L244.6894635458834,22.189836663537474L244.76996263877,22.194899586570713L244.7967956697322,22.174197553574963L244.90412779358098,22.12605202133439L245.76278478437126,22.014094553505128L246.138447217842,22.060547895837026L246.86293905382132,22.148664591323804L247.0239372395945,22.14018999508759L247.13126936344327,22.178946602673534L247.61426392076282,22.161451542488606L247.7484290755738,22.183204370830857L248.15092454000674,22.192838935956104L248.23142363289332,22.166569052293095L248.3119227257799,22.148050490147263L248.87541637598602,22.179151303065705L249.17057971657022,22.21770321025948L249.51940911907874,22.13782911723111L249.54624215004097,22.138934499348878L249.81457245966288,22.181689587928723L249.8950715525495,22.165559197025004L250.00240367639827,22.15068430185998L250.4585652027556,22.119133148078742L250.51223126468,22.097107385880236L250.5927303575666,22.08841444255903L251.15622400777272,22.202732788244774L251.2098900696971,22.192975402884212L251.3440552245081,22.185879122622L251.63921856509225,22.22279342667833L251.85388281278983,22.201586466048557L251.9612149366386,22.18313613736679L252.41737646299595,22.11821881966033L252.5783746487691,22.139207433205115L252.8467049583911,22.091880702533274L252.90037102031548,22.09882686917454L253.06136920608864,22.059237813327066L253.19553436089961,22.079025517904405L253.32969951571062,22.07386706802149L253.4101986085972,22.09626129092591L253.81269407303014,22.14279651341467L253.83952710399234,22.138838972499197L254.56401893997165,22.11404293165989L254.77868318766923,22.084484195029194L255.04701349729118,22.075108917067386L255.12751259017776,22.064437203288435L255.34217683787534,22.053833722973547L255.90567048808146,22.05038110969212L256.0666686738546,22.03037505802979L256.3618320144388,22.02331971784601L256.388665045401,22.03238112187315L257.24732203619124,22.058268898137428L257.27415506715346,22.051227204646466L257.4351532529266,22.05588072689534L258.83047086296085,22.064246149589057L258.88413692488524,22.05482993154882L259.07196814162063,22.081249928832754L259.1524672345072,22.10462671361963L259.3402984512426,22.123213509229505L260.06479028722185,22.06760323602081L260.62828393742797,22.087827634768125L260.89661424704997,22.090679793565812L261.3259427424451,22.08737729390533L261.37960880436947,22.07891634436191L261.4332748662939,22.076923927211368L261.56744002110486,22.08636743863724L262.42609701189514,22.089437944519936L262.56026216670614,22.095360609200316L262.8554255072903,22.09241292355293L262.8822585382525,22.108092973593873L262.9090915692147,22.108638841306348L262.9895906621013,22.125315099922563L263.2579209717232,22.157057307403157" style="fill: none;" fill="none"></path></g></g></g></g></g></g><g transform="translate(41, 177)" clip-path="url(#clip_1)"><clipPath id="clip_1"><rect width="288" height="23"></rect></clipPath><g><g><line x1="11.590923577284507" y1="0" x2="11.590923577284507" y2="5" style="visibility: inherit;" fill="rgb(0, 0, 0)" stroke="rgb(204, 204, 204)" stroke-width="1px"></line><line x1="38.42395453948077" y1="0" x2="38.42395453948077" y2="5" style="visibility: inherit;" fill="rgb(0, 0, 0)" stroke="rgb(204, 204, 204)" stroke-width="1px"></line><line x1="65.25698550167702" y1="0" x2="65.25698550167702" y2="5" style="visibility: inherit;" fill="rgb(0, 0, 0)" stroke="rgb(204, 204, 204)" stroke-width="1px"></line><line x1="92.09001646387328" y1="0" x2="92.09001646387328" y2="5" style="visibility: inherit;" fill="rgb(0, 0, 0)" stroke="rgb(204, 204, 204)" stroke-width="1px"></line><line x1="118.92304742606956" y1="0" x2="118.92304742606956" y2="5" style="visibility: inherit;" fill="rgb(0, 0, 0)" stroke="rgb(204, 204, 204)" stroke-width="1px"></line><line x1="145.75607838826582" y1="0" x2="145.75607838826582" y2="5" style="visibility: inherit;" fill="rgb(0, 0, 0)" stroke="rgb(204, 204, 204)" stroke-width="1px"></line><line x1="172.58910935046208" y1="0" x2="172.58910935046208" y2="5" style="visibility: inherit;" fill="rgb(0, 0, 0)" stroke="rgb(204, 204, 204)" stroke-width="1px"></line><line x1="199.4221403126583" y1="0" x2="199.4221403126583" y2="5" style="visibility: inherit;" fill="rgb(0, 0, 0)" stroke="rgb(204, 204, 204)" stroke-width="1px"></line><line x1="226.25517127485458" y1="0" x2="226.25517127485458" y2="5" style="visibility: inherit;" fill="rgb(0, 0, 0)" stroke="rgb(204, 204, 204)" stroke-width="1px"></line><line x1="253.08820223705087" y1="0" x2="253.08820223705087" y2="5" style="visibility: inherit;" fill="rgb(0, 0, 0)" stroke="rgb(204, 204, 204)" stroke-width="1px"></line><line x1="279.9212331992471" y1="0" x2="279.9212331992471" y2="5" style="visibility: inherit;" fill="rgb(0, 0, 0)" stroke="rgb(204, 204, 204)" stroke-width="1px"></line></g><g transform="translate(0, 8)"><text x="11.590923577284507" y="0" dx="0em" dy="0.95em" style="text-anchor: middle; visibility: inherit; font-family: Roboto, sans-serif; font-size: 12px; font-weight: 200;" fill="rgb(33, 33, 33)" stroke="none" stroke-width="1px">0</text><text x="38.42395453948077" y="0" dx="0em" dy="0.95em" style="text-anchor: middle; visibility: inherit; font-family: Roboto, sans-serif; font-size: 12px; font-weight: 200;" fill="rgb(33, 33, 33)" stroke="none" stroke-width="1px">1k</text><text x="65.25698550167702" y="0" dx="0em" dy="0.95em" style="text-anchor: middle; visibility: inherit; font-family: Roboto, sans-serif; font-size: 12px; font-weight: 200;" fill="rgb(33, 33, 33)" stroke="none" stroke-width="1px">2k</text><text x="92.09001646387328" y="0" dx="0em" dy="0.95em" style="text-anchor: middle; visibility: inherit; font-family: Roboto, sans-serif; font-size: 12px; font-weight: 200;" fill="rgb(33, 33, 33)" stroke="none" stroke-width="1px">3k</text><text x="118.92304742606956" y="0" dx="0em" dy="0.95em" style="text-anchor: middle; visibility: inherit; font-family: Roboto, sans-serif; font-size: 12px; font-weight: 200;" fill="rgb(33, 33, 33)" stroke="none" stroke-width="1px">4k</text><text x="145.75607838826582" y="0" dx="0em" dy="0.95em" style="text-anchor: middle; visibility: inherit; font-family: Roboto, sans-serif; font-size: 12px; font-weight: 200;" fill="rgb(33, 33, 33)" stroke="none" stroke-width="1px">5k</text><text x="172.58910935046208" y="0" dx="0em" dy="0.95em" style="text-anchor: middle; visibility: inherit; font-family: Roboto, sans-serif; font-size: 12px; font-weight: 200;" fill="rgb(33, 33, 33)" stroke="none" stroke-width="1px">6k</text><text x="199.4221403126583" y="0" dx="0em" dy="0.95em" style="text-anchor: middle; visibility: inherit; font-family: Roboto, sans-serif; font-size: 12px; font-weight: 200;" fill="rgb(33, 33, 33)" stroke="none" stroke-width="1px">7k</text><text x="226.25517127485458" y="0" dx="0em" dy="0.95em" style="text-anchor: middle; visibility: inherit; font-family: Roboto, sans-serif; font-size: 12px; font-weight: 200;" fill="rgb(33, 33, 33)" stroke="none" stroke-width="1px">8k</text><text x="253.08820223705087" y="0" dx="0em" dy="0.95em" style="text-anchor: middle; visibility: inherit; font-family: Roboto, sans-serif; font-size: 12px; font-weight: 200;" fill="rgb(33, 33, 33)" stroke="none" stroke-width="1px">9k</text><text x="279.9212331992471" y="0" dx="0em" dy="0.95em" style="text-anchor: middle; visibility: hidden; font-family: Roboto, sans-serif; font-size: 12px; font-weight: 200;" fill="rgb(33, 33, 33)" stroke="none" stroke-width="1px">10k</text></g><line x1="0" y1="0" x2="288.828125" y2="0" fill="rgb(0, 0, 0)" stroke="rgb(204, 204, 204)" stroke-width="1px"></line></g></g></g></g></svg>