<svg viewBox="0 0 330 200" xmlns="http://www.w3.org/2000/svg"><g><g><g><g><g><line x1="41.171875" y1="173.89949777495124" x2="36.171875" y2="173.89949777495124" style="visibility: inherit;" fill="rgb(0, 0, 0)" stroke="rgb(204, 204, 204)" stroke-width="1px"></line><line x1="41.171875" y1="159.57072903641142" x2="36.171875" y2="159.57072903641142" style="visibility: inherit;" fill="rgb(0, 0, 0)" stroke="rgb(204, 204, 204)" stroke-width="1px"></line><line x1="41.171875" y1="145.24196029787157" x2="36.171875" y2="145.24196029787157" style="visibility: inherit;" fill="rgb(0, 0, 0)" stroke="rgb(204, 204, 204)" stroke-width="1px"></line><line x1="41.171875" y1="130.91319155933175" x2="36.171875" y2="130.91319155933175" style="visibility: inherit;" fill="rgb(0, 0, 0)" stroke="rgb(204, 204, 204)" stroke-width="1px"></line><line x1="41.171875" y1="116.58442282079191" x2="36.171875" y2="116.58442282079191" style="visibility: inherit;" fill="rgb(0, 0, 0)" stroke="rgb(204, 204, 204)" stroke-width="1px"></line><line x1="41.171875" y1="102.25565408225208" x2="36.171875" y2="102.25565408225208" style="visibility: inherit;" fill="rgb(0, 0, 0)" stroke="rgb(204, 204, 204)" stroke-width="1px"></line><line x1="41.171875" y1="87.92688534371224" x2="36.171875" y2="87.92688534371224" style="visibility: inherit;" fill="rgb(0, 0, 0)" stroke="rgb(204, 204, 204)" stroke-width="1px"></line><line x1="41.171875" y1="73.59811660517244" x2="36.171875" y2="73.59811660517244" style="visibility: inherit;" fill="rgb(0, 0, 0)" stroke="rgb(204, 204, 204)" stroke-width="1px"></line><line x1="41.171875" y1="59.2693478666326" x2="36.171875" y2="59.2693478666326" style="visibility: inherit;" fill="rgb(0, 0, 0)" stroke="rgb(204, 204, 204)" stroke-width="1px"></line><line x1="41.171875" y1="44.940579128092764" x2="36.171875" y2="44.940579128092764" style="visibility: inherit;" fill="rgb(0, 0, 0)" stroke="rgb(204, 204, 204)" stroke-width="1px"></line><line x1="41.171875" y1="30.61181038955293" x2="36.171875" y2="30.61181038955293" style="visibility: inherit;" fill="rgb(0, 0, 0)" stroke="rgb(204, 204, 204)" stroke-width="1px"></line><line x1="41.171875" y1="16.28304165101311" x2="36.171875" y2="16.28304165101311" style="visibility: inherit;" fill="rgb(0, 0, 0)" stroke="rgb(204, 204, 204)" stroke-width="1px"></line><line x1="41.171875" y1="1.9542729124732763" x2="36.171875" y2="1.9542729124732763" style="visibility: inherit;" fill="rgb(0, 0, 0)" stroke="rgb(204, 204, 204)" stroke-width="1px"></line></g><g transform="translate(31.171875, 0)"><text x="0" y="173.89949777495124" dx="0em" dy="0.3em" style="text-anchor: end; visibility: hidden; font-family: Roboto, sans-serif; font-size: 12px; font-weight: 200;" fill="rgb(33, 33, 33)" stroke="none" stroke-width="1px">40</text><text x="0" y="159.57072903641142" dx="0em" dy="0.3em" style="text-anchor: end; visibility: inherit; font-family: Roboto, sans-serif; font-size: 12px; font-weight: 200;" fill="rgb(33, 33, 33)" stroke="none" stroke-width="1px">45</text><text x="0" y="145.24196029787157" dx="0em" dy="0.3em" style="text-anchor: end; visibility: hidden; font-family: Roboto, sans-serif; font-size: 12px; font-weight: 200;" fill="rgb(33, 33, 33)" stroke="none" stroke-width="1px">50</text><text x="0" y="130.91319155933175" dx="0em" dy="0.3em" style="text-anchor: end; visibility: inherit; font-family: Roboto, sans-serif; font-size: 12px; font-weight: 200;" fill="rgb(33, 33, 33)" stroke="none" stroke-width="1px">55</text><text x="0" y="116.58442282079191" dx="0em" dy="0.3em" style="text-anchor: end; visibility: hidden; font-family: Roboto, sans-serif; font-size: 12px; font-weight: 200;" fill="rgb(33, 33, 33)" stroke="none" stroke-width="1px">60</text><text x="0" y="102.25565408225208" dx="0em" dy="0.3em" style="text-anchor: end; visibility: inherit; font-family: Roboto, sans-serif; font-size: 12px; font-weight: 200;" fill="rgb(33, 33, 33)" stroke="none" stroke-width="1px">65</text><text x="0" y="87.92688534371224" dx="0em" dy="0.3em" style="text-anchor: end; visibility: hidden; font-family: Roboto, sans-serif; font-size: 12px; font-weight: 200;" fill="rgb(33, 33, 33)" stroke="none" stroke-width="1px">70</text><text x="0" y="73.59811660517244" dx="0em" dy="0.3em" style="text-anchor: end; visibility: inherit; font-family: Roboto, sans-serif; font-size: 12px; font-weight: 200;" fill="rgb(33, 33, 33)" stroke="none" stroke-width="1px">75</text><text x="0" y="59.2693478666326" dx="0em" dy="0.3em" style="text-anchor: end; visibility: hidden; font-family: Roboto, sans-serif; font-size: 12px; font-weight: 200;" fill="rgb(33, 33, 33)" stroke="none" stroke-width="1px">80</text><text x="0" y="44.940579128092764" dx="0em" dy="0.3em" style="text-anchor: end; visibility: inherit; font-family: Roboto, sans-serif; font-size: 12px; font-weight: 200;" fill="rgb(33, 33, 33)" stroke="none" stroke-width="1px">85</text><text x="0" y="30.61181038955293" dx="0em" dy="0.3em" style="text-anchor: end; visibility: hidden; font-family: Roboto, sans-serif; font-size: 12px; font-weight: 200;" fill="rgb(33, 33, 33)" stroke="none" stroke-width="1px">90</text><text x="0" y="16.28304165101311" dx="0em" dy="0.3em" style="text-anchor: end; visibility: inherit; font-family: Roboto, sans-serif; font-size: 12px; font-weight: 200;" fill="rgb(33, 33, 33)" stroke="none" stroke-width="1px">95</text><text x="0" y="1.9542729124732763" dx="0em" dy="0.3em" style="text-anchor: end; visibility: hidden; font-family: Roboto, sans-serif; font-size: 12px; font-weight: 200;" fill="rgb(33, 33, 33)" stroke="none" stroke-width="1px">100</text></g><line x1="41.171875" y1="0" x2="41.171875" y2="177" fill="rgb(0, 0, 0)" stroke="rgb(204, 204, 204)" stroke-width="1px"></line></g></g><g transform="translate(41, 0)" clip-path="url(#clip_0)"><clipPath id="clip_0"><rect width="288" height="177"></rect></clipPath><g><g><g><line x1="5.90707729490666" y1="0" x2="5.90707729490666" y2="177" fill="rgb(0, 0, 0)" stroke="rgb(66, 66, 66)" stroke-width="1px" opacity="0.25"></line><line x1="34.80048305031352" y1="0" x2="34.80048305031352" y2="177" fill="rgb(0, 0, 0)" stroke="rgb(66, 66, 66)" stroke-width="1px" opacity="0.25"></line><line x1="63.69388880572038" y1="0" x2="63.69388880572038" y2="177" fill="rgb(0, 0, 0)" stroke="rgb(66, 66, 66)" stroke-width="1px" opacity="0.25"></line><line x1="92.58729456112722" y1="0" x2="92.58729456112722" y2="177" fill="rgb(0, 0, 0)" stroke="rgb(66, 66, 66)" stroke-width="1px" opacity="0.25"></line><line x1="121.4807003165341" y1="0" x2="121.4807003165341" y2="177" fill="rgb(0, 0, 0)" stroke="rgb(66, 66, 66)" stroke-width="1px" opacity="0.25"></line><line x1="150.37410607194096" y1="0" x2="150.37410607194096" y2="177" fill="rgb(0, 0, 0)" stroke="rgb(66, 66, 66)" stroke-width="1px" opacity="0.25"></line><line x1="179.26751182734782" y1="0" x2="179.26751182734782" y2="177" fill="rgb(0, 0, 0)" stroke="rgb(66, 66, 66)" stroke-width="1px" opacity="0.25"></line><line x1="208.16091758275465" y1="0" x2="208.16091758275465" y2="177" fill="rgb(0, 0, 0)" stroke="rgb(66, 66, 66)" stroke-width="1px" opacity="0.25"></line><line x1="237.05432333816154" y1="0" x2="237.05432333816154" y2="177" fill="rgb(0, 0, 0)" stroke="rgb(66, 66, 66)" stroke-width="1px" opacity="0.25"></line><line x1="265.9477290935684" y1="0" x2="265.9477290935684" y2="177" fill="rgb(0, 0, 0)" stroke="rgb(66, 66, 66)" stroke-width="1px" opacity="0.25"></line></g><g><line x1="0" y1="173.89949777495124" x2="288.828125" y2="173.89949777495124" fill="rgb(0, 0, 0)" stroke="rgb(66, 66, 66)" stroke-width="1px" opacity="0.25"></line><line x1="0" y1="159.57072903641142" x2="288.828125" y2="159.57072903641142" fill="rgb(0, 0, 0)" stroke="rgb(66, 66, 66)" stroke-width="1px" opacity="0.25"></line><line x1="0" y1="145.24196029787157" x2="288.828125" y2="145.24196029787157" fill="rgb(0, 0, 0)" stroke="rgb(66, 66, 66)" stroke-width="1px" opacity="0.25"></line><line x1="0" y1="130.91319155933175" x2="288.828125" y2="130.91319155933175" fill="rgb(0, 0, 0)" stroke="rgb(66, 66, 66)" stroke-width="1px" opacity="0.25"></line><line x1="0" y1="116.58442282079191" x2="288.828125" y2="116.58442282079191" fill="rgb(0, 0, 0)" stroke="rgb(66, 66, 66)" stroke-width="1px" opacity="0.25"></line><line x1="0" y1="102.25565408225208" x2="288.828125" y2="102.25565408225208" fill="rgb(0, 0, 0)" stroke="rgb(66, 66, 66)" stroke-width="1px" opacity="0.25"></line><line x1="0" y1="87.92688534371224" x2="288.828125" y2="87.92688534371224" fill="rgb(0, 0, 0)" stroke="rgb(66, 66, 66)" stroke-width="1px" opacity="0.25"></line><line x1="0" y1="73.59811660517244" x2="288.828125" y2="73.59811660517244" fill="rgb(0, 0, 0)" stroke="rgb(66, 66, 66)" stroke-width="1px" opacity="0.25"></line><line x1="0" y1="59.2693478666326" x2="288.828125" y2="59.2693478666326" fill="rgb(0, 0, 0)" stroke="rgb(66, 66, 66)" stroke-width="1px" opacity="0.25"></line><line x1="0" y1="44.940579128092764" x2="288.828125" y2="44.940579128092764" fill="rgb(0, 0, 0)" stroke="rgb(66, 66, 66)" stroke-width="1px" opacity="0.25"></line><line x1="0" y1="30.61181038955293" x2="288.828125" y2="30.61181038955293" fill="rgb(0, 0, 0)" stroke="rgb(66, 66, 66)" stroke-width="1px" opacity="0.25"></line><line x1="0" y1="16.28304165101311" x2="288.828125" y2="16.28304165101311" fill="rgb(0, 0, 0)" stroke="rgb(66, 66, 66)" stroke-width="1px" opacity="0.25"></line><line x1="0" y1="1.9542729124732763" x2="288.828125" y2="1.9542729124732763" fill="rgb(0, 0, 0)" stroke="rgb(66, 66, 66)" stroke-width="1px" opacity="0.25"></line></g></g></g><g><g><line x1="0" y1="288.52964768326984" x2="288.828125" y2="288.52964768326984" fill="rgb(0, 0, 0)" stroke="rgb(153, 153, 153)" stroke-width="1.5px"></line></g></g><g><g><line x1="5.90707729490666" y1="0" x2="5.90707729490666" y2="177" fill="rgb(0, 0, 0)" stroke="rgb(153, 153, 153)" stroke-width="1.5px"></line></g></g><g><g><g><g><g><path stroke="rgb(204, 51, 17)" stroke-width="2px" d="M6.427158598503984,170.4587107902316L6.6005190330364245,159.73569949214954L7.062813525122934,141.0295671818437L7.120600336633748,131.76723082590408L7.2072805538999685,125.74778874606898L7.525108017209445,118.2048908259272L7.958509103540547,109.29204599777091L8.045189320806768,103.58756596825556L8.623057435914905,96.59292310427239L8.85420468195816,91.15296905861582L8.969778304979787,87.3814954721381L9.547646420087924,82.60521477934054L10.385555186994722,77.56060994257871L10.472235404260942,74.42988683178716L10.732276056059606,71.83576717001668L11.050103519369081,69.55823925817026L11.194570548146114,68.02004399504146L11.25235735965693,66.97711692563519L12.52366721289483,64.22870158188863L12.668134241671865,62.46592285059355L13.101535328002967,60.85053485320132L13.27489576253541,59.74368488432625L13.419362791312444,58.97886925872164L13.621616631600292,58.30376559216324L13.794977066132732,57.73431418481972L14.343951775485463,56.805412231216714L14.806246267571971,55.83643439172934L14.864033079082786,55.19504481769284L15.09518032512604,54.66197358144984L15.441901194190923,54.14132351195446L15.701941845989582,53.60598228055324L15.933089092032839,53.162042018017836L16.395383584119347,52.59257333559042L16.510957207140976,52.21452799429336L18.071201117932944,50.950885275535214L18.100094523688355,50.160865723401365L18.59128242153027,49.46491725018753L18.67796263879649,49.03469330546489L18.76464285606271,48.695793449178105L19.198043942393813,48.30255187280053L19.284724159660033,48.00617492531904L19.313617565415438,47.812221895674526L19.602551622969507,47.59493475658418L20.151526332322238,47.24963094205476L20.75828785318578,46.80247850844278L21.249475751027703,46.339851373159455L21.393942779804735,46.01629079877669L22.17406473520072,45.57203068344469L22.46299879275479,45.202748956533895L22.63635922728723,44.915684223928324L22.83861306757508,44.647366372304475L22.867506473330483,44.469794029538775L23.30090755966159,44.23394712912894L23.820988863258908,43.935140872103716L23.878775674769724,43.72552742429424L24.22549654383461,43.492284844483144L24.427750384122454,43.284298634495805L24.456643789877862,43.150708848596814L24.51443060138868,43.039140830750746L24.6011108186549,42.94341829523935L24.658897630165708,42.88531136378062L25.005618499230593,42.773451062343106L25.294552556784662,42.59495983882595L25.785740454626577,42.3259755550824L26.536969004267156,42.01659217197401L26.652542627288785,41.80263518779737L26.76811625031041,41.65862388882918L26.999263496353663,41.50226990951488L27.259304148152324,41.33822171764211L27.634918422972614,41.178836065392204L27.750492045994243,41.05758885151106L28.010532697792904,40.92584279740704L28.126106320814532,40.815074923114366L28.18389313232535,40.72012107808586L28.241679943836157,40.64636599078961L28.44393378412401,40.569282007110345L28.588400812901043,40.50938850213706L28.64618762441186,40.46394594674908L28.79065465318889,40.39845345541313L28.848441464699704,40.35436537927077L28.964015087721332,40.3071942394316L29.079588710742957,40.24052466804272L29.2529491452754,40.14259216097352L29.281842551030806,40.08052682507719L29.946390883405165,39.91780595004052L30.06196450642679,39.78872429636634L31.01544689635522,39.56633470094904L31.217700736643064,39.39352831377864L31.391061171175508,39.267901805228256L31.795568851751206,39.134463952066326L31.91114247477283,39.038431799424174L32.113396315060676,38.943836168589286L32.17118312657149,38.87829822135453L32.34454356110393,38.79919178053341L32.40233037261475,38.745090015972096L32.80683805319045,38.64387990263708L32.83573145894585,38.58092371010711L33.12466551649992,35.39327838188547L33.21134573376614,32.76425274802547L33.471386385564806,29.922531671489377L33.58696000858643,28.4583174923551L33.702533631608055,27.17039934045327L33.96257428340672,26.618903039348954L33.99146768916213,26.476140313070793L34.16482812369457,26.5402683353758L34.193721529449974,26.51425519473172L34.33818855822701,26.56034742231451L34.85826986182433,26.33472183147351L34.94495007909055,26.14383824016259L35.204990730889214,25.935231812597415L36.07179290355142,26.118551024731726L36.447407178371705,26.408351808155118L36.620767612904146,26.563035716086944L36.707447830170366,26.71634802748004L36.76523464168118,26.778766586737135L36.88080826470281,26.693359724709026L37.05416869923525,26.655102803278737L37.198635728012285,26.63806941240543L37.48756978556635,26.500767262073495L37.66093022009879,26.389464317688322L37.80539724887583,26.310902246192224L38.0943313064299,26.171359137516145L39.30785434815699,26.282388735590814L39.42342797117862,26.36602540554723L39.45232137693402,26.43635723855964L39.48121478268943,26.450771610411525L40.00129608628676,26.543736431892015L40.37691036110704,26.628944222976823L40.75252463592734,26.613436274935466L41.5037531855679,26.597764719219985L41.85047405463279,26.635150672967956L42.16830151794227,26.596931603614085L42.25498173520848,26.571367740498868L42.34166195247471,26.547922264047845L42.91953006758285,26.561491031164152L43.09289050211529,26.50822078381552L43.295144342403134,26.45990438886025L43.468504776935575,26.44700643084152L43.93079926902208,26.380436096396412L44.01747948628831,26.32971058771262L44.33530694959778,26.3462478269937L44.42198716686401,26.340979087005948L44.50866738413022,26.322854144702955L44.537560789885625,26.314506653787355L45.92444426614515,26.13358943462437L46.01112448341138,26.024969138435477L46.09780470067759,25.95578273656992L46.12669810643301,25.909006052444838L46.76235303305196,25.879628204011563L47.10907390211684,25.829030634267816L47.16686071362765,25.80367456783565L47.398007959670906,25.797285224642113L47.51358158269254,25.803098000512275L48.2359167265777,25.84661421493348L48.26481013233312,25.874919085769655L48.58263759564259,25.928825874002612L48.81378484168584,25.951436109292246L48.92935846470747,25.95700003892078L48.98714527621828,25.961230446509514L49.9117342603913,25.92522689184965L50.02730788341293,25.905548788059143L50.749643027298106,25.83386964137075L51.21193751938461,25.748446059374608L51.24083092514002,25.69354500065303L51.67423201147112,25.65437750791161L51.78980563449275,25.644310232959164L52.25210012657926,25.599072149795457L52.28099353233467,25.57926684687698L52.656607807154955,25.57131917900061L52.91664845895362,25.53424438215653L53.06111548773065,25.508728654740864L53.20558251650768,25.50299563538661L53.29226273377391,25.50013303247568L53.43672976255095,25.49263463812651L53.52340997981716,25.481174114751916L53.87013084888204,25.454471556384966L54.1012780949253,25.428856113096874L54.303531935213144,25.404662550458255L54.50578577550099,25.37186813732357L54.76582642729966,25.34276374731626L54.88140005032128,25.332726116155516L54.93918686183209,25.32332774111317L54.996973673342914,25.309616539851376L55.08365389060913,25.304590703712407L55.28590773089698,25.28883288266134L55.54594838269564,25.26366237129098L55.83488244024971,25.26447703169543L55.95045606327134,25.263103018037373L56.00824287478215,25.26136032327177L56.094923092048376,25.252225039003246L56.239390120825405,25.235619482556288L56.326070338091625,25.248753242339518L56.35496374384704,25.253957348774637L56.93283185895517,25.233090669172668L57.19287251075383,25.20405899431047L57.36623294528627,25.192805627796865L57.56848678557412,25.179100866710023L57.59738019132953,25.164187636470885L57.85742084312819,25.12693898077496L58.05967468341604,25.104301183006612L58.666436204279584,25.075789788380817L58.7820098273012,25.04741863633729L59.070943884855275,25.031427924304946L59.18651750787691,25.016717329048422L59.44655815967557,24.99555094950066L59.822172434495855,24.981303152981308L59.908852651762075,24.97195862670832L60.082213086294516,24.96777744152581L60.13999989780533,23.82230804533343L61.12237569348917,22.687252384538688L61.29573612802161,22.112827686134818L61.78692402586352,21.365578543294916L62.07585808341759,21.232682358615815L62.16253830068381,21.18323061347094L62.22032511219462,21.236931241423395L62.740406415791945,21.213897003393797L63.14491409636764,21.282730997531548L63.20270090787846,21.345930342330387L63.72278221147578,21.393330164854646L63.83835583449741,21.402083743409158L64.06950308054067,21.38437872627269L64.56069097838258,21.400718358825856L64.73405141291502,21.37614323826543L65.42749315104479,21.313953359772825L65.80310742586508,21.313405877853548L65.8897876431313,21.331172006939315L65.9186810488867,21.347743700789277L65.97646786039752,21.360555269434542L66.03425467190833,21.362356430982445L66.14982829492996,21.360542338816654L66.26540191795158,21.406881198500738L66.46765575823943,21.446683458835924L66.90105684457053,21.368127761671207L67.88343264025437,21.330833128059204L67.999006263276,21.31983435578314L68.20126010356384,21.349896590557112L68.46130075536252,21.37982792890956L68.80802162442738,21.396719770381655L69.09695568198146,21.432820521251706L69.15474249349226,21.49028540244727L69.21252930500309,21.531760800275254L69.35699633378012,21.545880222128048L69.44367655104634,21.514874298283107L69.6748237970896,21.49700537323276L69.79039742011123,21.489301245506482L70.36826553521935,21.51888275723525L70.5127325639964,21.53218890638729L70.54162596975179,21.548201044182935L70.59941278126261,21.58358156994652L70.68609299852884,21.63318056764824L70.80166662155047,21.654990228242337L70.83056002730586,21.67093583134775L71.03281386759372,21.690613091075843L71.11949408485994,21.720033057898668L71.26396111363697,21.72324607486528L71.8129358229897,21.756474338728932L72.10186988054377,21.770665446789998L72.27523031507621,21.747005099304204L72.44859074960864,21.688976011834704L72.56416437263029,21.631140175979105L72.91088524169517,21.626689657782777L72.93977864745057,21.614399201837866L73.66211379133574,21.669276012182635L73.9221544431344,21.691768613828287L74.93342364457365,21.668532711984902L74.96231705032906,21.646265372637288L75.02010386183987,21.612877576199608L75.42461154241556,21.53445936360884L76.29141371507777,21.466996237424194L76.52256096112103,21.4338121807612L76.72481480140887,21.390970819253408L76.78260161291969,21.360149834311592L76.8403884244305,21.327305736083343L76.98485545320753,21.32419840011131L77.7071905970927,21.339597786058523L77.73608400284812,21.35665597185799L78.02501806040218,21.348463932817594L78.082804871913,21.344536960655205L78.22727190069001,21.340344204216255L78.63177958126573,21.330595950409798L78.80514001579816,21.3221320677958L79.06518066759682,21.328230597631627L79.49858175392794,21.36138857842074L79.61415537694955,21.372319140846265L79.67194218846036,21.374443466002692L80.04755646328066,21.387664532102942L80.39427733234554,21.36978020074492L80.74099820141043,21.3541345823799L81.0299322589645,21.363838826446518L81.20329269349693,21.362245115629236L81.69448059133886,21.333337995041905L81.86784102587129,21.306705909945197L81.89673443162668,21.28998328404414L82.3012421122024,21.262773376836993L82.47460254673483,21.242240805459907L82.61906957551187,21.233358278084253L83.28361790788622,21.228124963109114L83.48587174817408,21.222509973176155L83.6303387769511,21.224624461881856L84.0059530517714,21.213002160768934L84.20820689205925,21.231600874700476L84.64160797839034,21.260312494940695L84.98832884745522,21.269528509953155L85.07500906472146,21.27309036202327L85.47951674529715,21.25807737835794L85.50841015105254,21.252515349195733L85.56619696256337,21.25198546492902L86.49078594673638,21.204826173673435L86.51967935249179,21.175979626977607L86.5485727582472,21.156161715666713L86.75082659853504,21.154031043289443L87.06865406184451,21.148607231915033L87.50205514817563,20.146773145691515L87.64652217695266,19.026665869745553L88.88893862443516,19.11923686769072L89.14897927623382,19.127903123416683L89.40901992803248,19.097184753555634L89.58238036256492,19.10228810460987L89.69795398558655,19.057485520939398L90.18914188342846,19.225586819263572L90.24692869493929,19.295575678307483L90.27582210069468,19.389526522466554L91.6338121711988,19.254158792985542L91.86495941724206,19.16690370068907L92.52950774961641,19.068653807945513L92.78954840141508,18.999524009743475L92.90512202443671,18.929692939751487L93.02069564745834,18.90490066473171L93.04958905321375,18.86552016665996L93.36741651652322,18.82182074705578L93.45409673378944,18.760461329185222L93.68524397983269,18.7486230731878L93.77192419709891,18.739639818515844L94.46536593522868,18.81317878286681L94.58093955825031,18.828205595563645L94.63872636976112,18.833426098689237L95.44774173091251,18.85160955473876L96.11229006328688,18.86290443416957L96.54569114961797,18.74972689892659L96.77683839566123,18.678024793288234L96.92130542443827,18.59485254279677L97.0657724532153,18.579293110248575L97.18134607623692,18.63295190947439L97.23913288774774,18.667797101685537L97.70142737983424,18.659633887857545L98.22150868343158,18.738641115369845L98.25040208918698,18.791773810961537L98.45265592947483,18.812424095394007L98.53933614674105,18.809701892774534L99.23277788487081,18.79380451980362L99.31945810213702,18.778870069219487L99.52171194242489,18.798148897316743L99.60839215969109,18.82094552709763L99.6372855654465,18.84386758977856L99.69507237695733,18.85944865494228L99.72396578271274,18.86557891824963L100.4463009265979,18.86351997156334L100.70634157839656,18.870006956332386L101.39978331652632,18.91497716645952L101.63093056256959,18.922535345167486L102.03543824314528,18.940695875985146L102.06433164890068,18.952291841386824L102.5555195467426,18.92355868257729L103.39342831364941,18.92030297992643L103.45121512516022,18.91651298519435L103.74014918271429,18.88651547950434L104.23133708055619,18.919783603498335L104.37580410933323,18.927701805438108L105.01145903595219,18.905017822101943L105.0981392532184,18.896217504613805L105.24260628199544,18.87688315679497L105.56043374530492,18.85542627224407L105.61822055681573,18.83824931301051L105.82047439710358,18.821401438851936L105.99383483163601,18.8069811402674L106.19608867192386,18.80020051660378L106.3694491064563,18.789231874745226L106.45612932372254,18.787303341588668L106.94731722156443,18.804739338356203L107.29403809062931,18.822337334909545L107.38071830789555,18.842332620554508L107.58297214818339,18.868410186026598L108.0452666402699,18.929761159774934L108.10305345178071,18.962557519871694L108.27641388631316,18.97767888542147L108.39198750933478,18.993512043029448L108.8542820014213,18.98875663178139L109.34546989926321,18.99140435887077L109.92333801437135,19.006382487884856L110.44341931796868,19.013952580298383L110.50120612947948,19.021546845396045L110.5589929409903,19.020287589506456L110.64567315825651,19.016366133700085L110.73235337552275,19.013077482472763L111.22354127336465,18.979357813146926L111.54136873667413,18.92364516757421L111.94587641724983,18.86975290808204L112.81267858991203,18.851978953723222L112.87046540142285,18.84225035885147L113.56390713955261,18.837506400226946L113.67948076257423,18.834520095670033L113.73726757408507,18.837520894276636L113.9106280086175,18.855535690604476L113.99730822588371,18.861823100238457L114.05509503739454,18.86645261348488L114.31513568919318,21.05706119466765L114.51738952948104,20.13255622798047L114.89300380430133,19.34330536662113L115.12415105034458,18.378602718240383L115.49976532516487,18.120350598273912L115.55755213667568,17.922755847064813L115.64423235394192,17.975691199826908L115.99095322300678,18.002930943321456L116.10652684602842,18.122393998522274L116.25099387480546,18.24005612487226L116.30878068631627,18.250448783985433L116.59771474387034,18.179924367723515L116.71328836689196,18.06510880680757L117.55119713379877,17.69147951255883L117.69566416257578,17.513644798280964L117.89791800286363,17.293653643640667L119.16922785610154,17.039902897158974L119.40037510214479,16.86466030265521L119.60262894243264,16.70209997131393L119.71820256545428,16.652612024126324L120.03603002876375,16.632591874359182L120.2093904632962,16.63256123785085L120.38275089782863,16.60990053278665L121.01840582444758,16.512976162640665L121.33623328775705,16.451830550008292L121.4807003165341,16.47926582182765L121.74074096833276,16.493802955913836L121.76963437408817,16.500784864674326L122.11635524315304,16.511506962962617L122.43418270646252,16.633530637229363L122.52086292372873,16.688151725127906L122.8097969812828,16.781111503391145L124.16778705178693,16.85735204249765L124.31225408056396,16.924942840759424L124.34114748631937,16.95846586826032L124.63008154387343,16.940448928107976L126.73930016401813,17.09221921497453L127.05712762732762,17.176206207706368L127.08602103308301,17.224866777240564L127.14380784459382,17.254657818835497L127.20159465610466,17.265098695362425L127.28827487337087,17.254379292512564L127.31716827912628,17.25027397678191L128.03950342301144,17.24266838254723L128.1839704517885,17.2304438923303L128.2706506690547,17.237084645248565L128.50179791509797,17.218059459212007L128.81962537840744,17.190876055332026L129.0796660302061,17.130689406094124L129.16634624747232,17.090729358540546L129.19523965322773,17.06547647439567L129.62864073955885,17.02504999924668L130.09093523164535,17.06092876616301L130.2642956661778,17.09762961869648L130.3798692891994,17.121005696106703L130.63990994099808,17.114295557226225L130.69769675250888,17.10784694646844L130.95773740430755,17.062261332941713L131.07331102732917,17.039737528511978L131.2466714618616,17.047063978217412L131.39113849063864,17.054896863491233L132.14236704027923,17.07770870406566L132.4024076920779,17.12720023908387L132.835808778409,17.20132273894721L133.03806261869684,17.267843862150006L133.21142305322928,17.316913165020264L133.3269966762509,17.365953605838506L133.3558900820063,17.394135997062328L133.90486479135905,17.403935270062934L133.99154500862525,17.398358115694688L134.1649054431577,17.39063028429321L135.0317076158199,17.395115232055243L135.20506805035237,17.393608319246116L135.63846913668345,17.359470943285228L135.69625594819425,17.33207950446194L136.1874438460362,17.329287755933695L136.2163372517916,17.319505548234808L136.76531196114433,17.299512101598417L136.79420536689972,17.286554019113883L136.88088558416595,17.273601782481318L137.1409262359646,17.248278048620545L137.45875369927407,17.245415085111542L138.18108884315924,17.23860737572814L138.26776906042548,17.22107203823296L138.58559652373495,17.222392359705538L138.67227674100118,17.22269479975136L138.73006355251198,17.22537750148592L138.7878503640228,17.223139064515806L139.13457123308768,17.194903324189763L139.6257591309296,17.16019084845321L140.23252065179315,17.12327148405686L140.434774492081,17.09987799215192L140.66592173812424,17.08977741088364L140.7814953611459,17.092488885270143L140.98374920143374,17.08893838276019L141.01264260718912,17.088006226589407L141.04153601294453,17.086712303630325L141.33047007049862,17.095905918337504L142.08169862013918,16.11402789275346L142.2261656489162,15.329314783415812L142.68846014100274,14.954565929874697L143.0062876043122,14.679962976787234L143.12186122733382,14.873420423398242L143.15075463308924,15.02032308338347L143.38190187913247,15.245061993172955L143.4685820963987,15.4512955607341L143.55526231366494,15.569062465767603L143.64194253093115,15.565323905382703L143.90198318272982,15.617714447319274L144.01755680575144,15.820859615628498L144.2198106460393,15.958217658934878L144.2487040517947,16.091767928530906L144.42206448632714,16.253564375982172L144.59542492085959,16.310534985276316L144.65321173237038,16.369283703017473L144.7398919496366,16.43978639239326L145.75116115107585,16.42216324808636L146.09788202014076,16.4148602108114L146.6468567294935,16.4762889260182L146.7046435410043,16.498278658282196L147.25361825035702,16.521591141091807L147.31140506186784,16.5310134346829L147.88927317697596,16.51142704852099L148.58271491510573,16.51502372093528L148.66939513237196,16.511785697582294L149.04500940719225,16.521666916367423L149.2761566532355,16.52725456976936L149.53619730503414,16.496892926283753L149.62287752230037,16.499333015241472L149.6806643338112,16.460243784533688L149.7095577395666,16.43538220670052L150.11406542014228,16.41952073667069L150.98086759280451,16.351985634553024L151.15422802733693,16.353023599799492L151.24090824460316,16.329228701751298L151.443162084891,16.312809094257265L151.81877635971128,16.334642589245572L151.8765631712221,16.360380058569586L151.9054565769775,16.379635615829265L152.10771041726537,16.40762190700864L152.62779172086266,16.390944322608338L153.29234005323704,16.341696325844005L153.4368070820141,16.29933524372661L154.01467519712222,16.299376996432443L154.07246200863304,16.30590001874243L154.24582244316548,16.284679016848465L154.99705099280604,16.23002882015312L155.14151802158307,16.186516613223944L155.51713229640336,16.16359268251172L155.63270591942498,16.15106270617876L156.15278722302233,16.13655699685476L156.3839344690656,16.119921324406246L157.04848280143995,16.078097240897396L157.13516301870615,16.054909328624717L157.16405642446156,16.040533065182583L157.27963004748318,16.043092912107895L157.3085234532386,16.053907887420998L158.05975200287918,16.091548651323887L158.72430033525353,16.07560880162527L159.09991461007382,16.101315841710008L159.56220910216035,16.14609899926629L159.8800365654698,16.17848735881104L160.34233105755632,16.22795271819523L160.74683873813203,16.274047399476505L160.77573214388744,16.311814106110102L161.35360025899556,16.37754614305249L162.04704199712532,16.412393932364054L162.10482880863614,16.42710198520172L162.50933648921185,16.437597223904497L163.05831119856455,16.445031293356642L163.08720460431996,16.4441481817447L163.1449914158308,16.43536248122698L163.28945844460782,16.43209380019932L164.35851445755787,16.419786562885378L164.56076829784573,16.431196485645387L164.67634192086734,16.438156131924426L164.84970235539978,16.456840847510033L165.02306278993223,16.453883826912396L165.16752981870926,16.449529666569237L165.2542100359755,16.45622247428048L165.31199684748628,16.465686659227142L165.7453979338174,16.484842118819415L166.00543858561605,16.50628787188467L166.23658583165934,16.512788536833106L166.72777372950122,16.55077923154367L166.87224075827828,16.57486799515546L166.93002756978908,16.59631772243318L167.27674843885396,16.606537646124142L167.33453525036475,16.61156765645378L167.50789568489722,16.61330006145248L167.8546165539621,16.629408149798703L167.99908358273916,16.63049358255955L168.2880176402932,16.625801288932884L168.57695169784725,16.727513161269442L169.38596705899866,16.48038954828068L169.44375387050948,16.151781389161357L169.5593274935311,16.233329586297483L169.99272857986222,16.204991248838827L171.1773582158339,16.012805405420227L171.26403843310013,15.89327852672991L171.78411973669745,15.675257484826336L172.30420104029477,15.478739269149148L172.79538893813665,15.334058099808344L172.8820691554029,15.22581396596619L173.02653618417995,15.164995402436205L173.17100321295698,15.110260971112284L173.6910845165543,15.191305338265932L173.7199779223097,15.22030686270289L174.21116582015162,15.278138623238009L174.29784603741783,15.304057110825253L174.50009987770568,15.251322664857968L175.28022183310165,15.176225178514347L175.3380086446125,15.154928444925087L175.54026248490032,15.13050128370234L176.06034378849765,15.130756211760682L176.11813060000847,15.145251930272455L176.3203844402963,15.116570725156055L176.580425092095,15.141778096069338L176.86935914964903,15.104184123868823L176.89825255540444,15.075943109396123L177.18718661295853,15.123208595975216L177.30276023598014,15.146705341890769L177.33165364173556,15.161074502618144L177.8806283510883,15.229594520227813L178.02509537986532,15.27104760866278L178.08288219137611,15.290654618717975L178.19845581439776,15.324055405475715L178.45849646619644,15.339049674184276L178.97857776979373,15.392963567099585L179.55644588490188,15.372068772916984L179.70091291367893,15.382856375304964L179.96095356547758,15.393736712277407L180.13431400001,15.449012812989082L180.1632074057654,15.47317051943614L180.27878102878705,15.504745273520719L180.3654612460533,15.514498514677369L181.00111617267223,15.488516524918083L181.52119747626955,15.483850568461433L181.63677109929117,15.48467166735217L181.7812381280682,15.511995785725874L181.98349196835605,15.515892813801234L182.24353262015472,15.520977144772342L182.30131943166552,15.51254478842721L182.59025348921958,15.513904635029172L182.76361392375205,15.51047018800563L182.82140073526287,15.515449716834036L182.99476116979528,15.524917913644828L183.0525479813061,15.533913408972438L183.1103347928169,15.53905708416378L183.4570556618818,15.52683851309909L183.51484247339263,15.533098011707642L183.57262928490343,15.522895754997085L184.23717761727778,15.518033765410669L184.49721826907643,15.52077496605203L184.5838984863427,15.528559088081387L185.04619297842916,15.52840199761269L185.33512703598325,15.499692184669055L185.36402044173866,15.485483524206872L185.42180725324948,15.467679260771572L185.5951676877819,15.444682917075713L185.76852812231436,15.445770098891035L185.9707819626022,15.443186541016564L186.11524899137922,15.441461494564145L186.31750283166707,15.437295546765656L186.49086326619954,15.43175251402345L186.8664775410198,15.42249718680686L187.6177060906604,15.435554598311159L188.28225442303477,15.445094434559437L188.3978280460564,15.468842989854659L188.42672145181177,15.483030903927078L188.62897529209962,15.496213795501848L189.12016318994154,15.540522660994673L189.43799065325103,15.548488626869766L189.7558181165605,15.566832610883022L189.95807195684833,15.57706064410243L190.1314323913808,15.594496761647695L190.82487412951056,15.59742848229454L192.4140114460579,15.643247778906732L192.52958506907956,15.678724077246548L192.90519934389982,15.689410205547864L193.22302680720932,15.687907126847279L193.33860043023094,15.684372858124059L193.5697476762742,15.689432423314901L193.5986410820296,15.692319487460804L193.71421470505126,15.697593688435594L193.9742553568499,15.697426140606536L194.0031487626053,15.69718568252691L194.29208282015938,15.69164538087754L194.3209762259148,15.688190016092095L194.3498696316702,15.69198508568739L194.58101687771344,15.701101176000162L195.15888499282158,15.705670034789836L195.85232673095135,15.57839946281563L196.0256871654838,15.263221392126693L196.05458057123917,14.977099759908224L196.14126078850543,14.669913919490945L196.4301948460595,14.21580107516245L196.69023549785814,13.977467392238793L196.77691571512437,13.886197325971212L197.06584977267843,13.819445087272314L197.21031680145546,13.775003459686081L198.2504794086501,13.73860464548419L198.51052006044875,13.724286561256962L198.5683068719596,13.659216713825197L198.68388049498122,13.664217578417455L198.85724092951367,13.71950795818826L198.94392114677987,13.799960826065746L199.14617498706772,13.881623195622655L199.377322233111,13.978091660272277L199.4640024503772,14.007199759844648L199.69514969642046,14.067395554681188L199.8107233194421,14.080188552685632L199.92629694246372,14.041897549431487L200.59084527483807,14.083185516260027L200.7064188978597,14.10906898582846L200.90867273814754,14.104527946808437L201.0242463611692,14.074665768833631L201.34207382447866,14.14977526446078L201.68879469354354,14.169496252483832L202.15108918563004,14.17539059214003L202.87342432951522,14.18402587279811L203.3068254158463,14.242791248993896L203.711333096422,14.267240929935483L203.94248034246525,14.331095916348042L204.17362758850854,14.3797549368929L204.34698802304095,14.386797778898348L204.37588142879636,14.380546271608457L204.8670693266383,14.336950475649589L205.12710997843695,14.317535845179634L205.53161765901265,14.282125308680705L205.61829787627886,14.270044361316272L206.2539528028978,14.260758071269148L206.74514070073974,14.256716774858786L207.0918615698046,14.263501099479443L207.17854178707086,14.279841751954578L207.35190222160327,14.282833331643172L207.87198352520062,14.244258652688098L207.9297703367114,14.22337020660322L208.44985164030874,14.226150660718167L208.56542526333035,14.239922824748481L208.6521054805966,14.243253612443656L209.1721867841939,14.236025491421199L209.28776040721553,14.235615387096047L209.49001424750338,14.223457835840113L209.86562852232368,14.243108456748816L210.03898895685612,14.256674183330839L210.44349663743182,14.280389508637555L210.7902175064967,14.300994236298632L210.99247134678455,14.342427402049891L211.2236185928278,14.399584752032538L211.45476583887105,14.432611051995831L211.48365924462647,14.453091496539349L212.1193141712454,14.501201685111775L212.23488779426702,14.535437588297615L212.63939547484276,14.548396706810502L212.9861163439076,14.535934891015762L213.01500974966302,14.534973263398175L213.21726358995085,14.544191343582494L213.62177127052655,14.508364313662995L213.795131705059,14.498954496099863L213.99738554534687,14.516956671155855L214.05517235685767,14.537220700661528L214.31521300865631,14.540117542379795L214.37299982016714,14.534623047467628L214.40189322592255,14.531859831290058L214.95086793527526,14.537277080971634L215.0375481525415,14.536705609528887L215.29758880434017,14.538234282150306L215.67320307916043,14.522298740752978L216.07771075973614,14.522287596250585L216.36664481729022,14.529583474183314L216.82893930937672,14.534022220047653L217.1467667726862,14.536877870466826L217.66684807628354,14.546567235504437L217.95578213383757,14.547395870285715L217.98467553959298,14.548330330473895L218.15803597412545,14.551462208984924L218.36028981441328,14.569931713470075L218.47586343743492,14.578083644721138L218.5047568431903,14.583377100445619L218.53365024894572,14.589211832142347L219.16930517556466,14.6078162988529L219.19819858132007,14.619346293507592L219.3137722043417,14.616819057001052L219.37155901585254,14.61605483552651L219.6315996676512,14.614634288139058L219.7471732906728,14.623830638466728L220.58508205757963,14.655970013629195L220.61397546333504,14.673504521449049L220.87401611513368,14.670478312825532L220.9606963323999,14.665566650069962L221.16295017268774,14.683145543669873L221.45188423024183,14.698721592003064L221.48077763599724,14.706361831657295L221.50967104175263,14.711252070973403L221.53856444750804,14.714483564500277L221.68303147628507,14.715915216605895L221.85639191081754,14.714605302444955L221.97196553383915,14.724803810452055L222.02975234534998,14.731491378371587L222.49204683743648,14.73032653198145L222.66540727196892,14.723671879816917L222.69430067772433,14.722687570235804L222.92544792376756,13.645287914845133L223.4744226331203,13.015429753402884L223.9656105309622,12.946583879498938L224.7168390806028,13.05298930925443L225.38138741297715,13.120129653176086L225.75700168779744,13.148423660590788L225.84368190506365,13.206014568226754L226.7393774834813,13.1062981249892L226.7682708892367,13.053359781120616L227.23056538132317,13.108580377017232L227.2594587870786,13.169943487416537L227.54839284463267,13.182737227847554L227.63507306189888,13.22669891003107L227.6928598734097,13.242056480491977L228.0106873367192,13.243618634678759L228.1840477712516,13.233903802969927L228.27072798851785,13.213714651095078L228.38630161153947,13.174043817260735L228.9063829151368,13.109723015223274L228.9352763208922,13.050657116265883L229.05084994391382,13.000288860926673L229.13753016118005,12.999383113296595L229.19531697269088,12.99141466187492L229.59982465326655,12.96811918463797L229.71539827628817,13.014521426720394L230.03322573959767,13.068162251815242L230.11990595686387,13.110797722606154L230.69777407197202,13.161487583601406L230.92892131801526,13.20347191099022L231.21785537556934,13.221001373747384L231.24674878132475,13.222301203348426L231.5645762446342,13.230750980371601L232.2291245770086,13.311881211404296L232.37359160578563,13.361530110112986L232.86477950362755,13.464633700031044L233.5293278360019,13.488679938439034L234.13608935686545,13.52905583629782L234.16498276262084,13.550578988819115L234.28055638564246,13.55729225958262L234.3961300086641,13.568509094051825L234.91621131226142,13.635557504053253L235.08957174679387,13.69337392428096L235.11846515254925,13.746219613759614L236.33198819427633,13.787984451793337L236.56313544031963,13.83075316704982L236.7942826863629,13.829504226886996L236.8231760921183,13.844680575602313L237.3143639899602,13.835271978447562L237.68997826478048,13.855679922005315L237.80555188780215,13.869087851129624L238.1233793511116,13.869357782305082L238.4701002201765,13.859899595983242L238.5567804374427,13.867378046118066L238.61456724895353,13.867553542109535L238.73014087197515,13.865586135730432L238.9612881180184,13.876255961459057L240.6948924633428,13.854007315888245L240.86825289787527,13.840946732896594L240.89714630363068,13.834107379949863L240.9549331151415,13.814978850766778L241.38833420147256,13.804507475691628L241.59058804176044,13.780418636759975L242.2551363741348,13.796233807890829L242.3707099971564,13.8067723809359L242.6885374604659,13.804927147076304L242.77521767773212,13.796255074534692L243.266405575574,13.771155621976392L243.43976601010647,13.756629431211133L243.81538028492673,13.757219020669062L244.39324840003488,13.765391328574934L244.65328905183355,13.76377925145919L245.05779673240923,13.781518814474282L245.11558354392005,13.786871472518424L245.1733703554309,13.782509389532658L245.43341100722955,13.794094972035756L245.6934516590282,13.805917613155868L245.92459890507146,13.812556427335764L246.5024670201796,13.84477046870506L246.5602538316904,13.86338175544279L246.64693404895664,13.878877592747592L246.70472086046743,13.89391219980115L246.87808129499987,13.900729076263485L247.22480216406476,13.90473174627697L247.25369556982017,13.905725308876544L247.45594941010802,13.896526389681448L247.54262962737423,13.88685288462995L247.68709665615128,13.878346395405098L247.88935049643914,13.87812253907484L247.94713730794993,13.877323560711178L249.4207010014757,13.908240828826848L249.73852846478516,13.931610007796229L249.82520868205137,9.140675169667068L249.9696757108284,10.445341397392475L250.43197020291493,11.363828906841718L250.54754382593654,11.457754629650854L250.57643723169195,11.437568691266215L250.63422404320275,11.473487888679793L250.720904260469,11.695768105911538L250.92315810075684,11.794696117053578L251.03873172377845,11.982210746672434L251.1543053468001,12.086743549657701L251.41434599859878,11.935782319224273L251.44323940435416,11.871022551982373L251.5877064331312,11.86206785149876L251.70328005615283,11.86106782440271L251.73217346190822,11.82806541057654L252.16557454823933,11.810222973631776L253.06127012665695,12.004802660756775L253.40799099572183,12.182918252718268L253.61024483600966,12.365664315399778L253.75471186478674,12.423914141804834L254.1592195453624,12.506221387940336L254.4192601971611,12.561683918161489L254.85266128349215,12.648055891257336L255.17048874680165,12.62680095525453L255.3727425870895,12.626720348329409L255.4016359928449,12.623138767273499L255.48831621011112,12.592400496736682L255.6616766446436,12.572252145068866L256.75962606334906,12.709905064208161L256.84630628061524,12.797306888205249L256.90409309212606,12.850465120687346L256.9907733093923,12.894201584146307L257.0196667151477,12.924326502578086L257.1352403381693,12.95763626512552L258.05982932234235,13.021507475150297L258.464337002918,13.078327116376366L259.24445895831406,13.032501732696018L259.41781939284647,13.033228509762735L259.5333930158681,13.076727843378603L260.0534743194654,13.092874966238258L260.19794134824247,13.110198136871034L260.6313424345735,13.118405642653647L260.71802265183976,13.121012565730332L260.804702869106,13.134409497959652L261.4114643899695,13.153458350560069L261.729291853279,13.171035809351292L262.1049061280993,13.17048413549931L262.1337995338547,13.172225835162115L262.42273359140876,13.173034724127312L262.509413808675,13.167336927929956L262.62498743169664,13.15177937630461L263.1161753295385,13.133034594375596L263.17396214104934,13.14120292700019L263.2606423583156,13.144171151983123L263.8674038791791,13.155143698266944L263.92519069068993,13.169021045085044L264.06965771946693,13.1681121139499L264.38748518277646,13.147906677067967L264.6186324288197,13.146444284746146L264.73420605184134,13.152510844945343L265.2253939496832,13.1140582737781L265.3987543842157,13.084768619155701L265.68768844176975,13.077742003566524L265.7454752532806,13.060670022222224L265.918835687813,13.03807806543543L266.06330271659004,13.029805225541844L266.20776974536705,13.055258671064113L266.2944499626333,13.07534955647741L266.7278510489644,13.089380590249156L266.7567444547198,13.093242760003905L267.5368664101158,13.097895133422423L267.76801365615904,13.077869322586537L268.0569477137131,13.092003139385934L268.14362793097933,13.110418415602645L268.3747751770226,13.135451773967512L268.98153669788616,13.178483902188017L269.15489713241857,13.201294697402778L269.47272459572804,13.22888665688899L269.50161800148345,13.249307381764337L270.42620698565645,13.279269629125809L270.45510039141186,13.295900157238862L270.62846082594433,13.312761250594303L272.1309179252255,13.34326386847864L272.1887047367363,13.36362939759683L272.39095857702415,13.37840242629313L272.4776387942903,13.385744511479361L272.6798926345782,13.39492485275911L273.4600145899742,13.413402762140732L274.06677611083774,13.416233674219182L274.3557101683918,13.408224620575261L274.8180046604783,13.403664064807796L274.87579147198915,13.402755558902435L274.9335782834999,13.395808686123038L275.07804531227697,13.381880488046114L276.00263429644997,13.396200874704672L276.147101325227,13.407145669438284L276.4649287885365,13.419196028943906L276.4938221942919,13.425333046348735L276.5227156000473,13.435670648033097L276.60939581731355,13.44051764315357L276.8983298748676,13.438869389717533" style="fill: none;" fill="none"></path></g></g></g></g><g opacity="0.2"><g><g><g><path stroke="rgb(204, 51, 17)" stroke-width="2px" d="M6.427158598503984,170.4587107902316L6.6005190330364245,153.30189271330022L7.062813525122934,123.07168016395009L7.120600336633748,120.87472327131904L7.2072805538999685,117.88880516663626L7.525108017209445,107.77034755911986L7.958509103540547,96.54653528799012L8.045189320806768,95.27037932221393L8.623057435914905,86.27718351932712L8.85420468195816,83.07527129482007L8.969778304979787,81.75849208027034L9.547646420087924,75.46678604875386L10.385555186994722,70.01017419748717L10.472235404260942,69.73993557808969L10.732276056059606,67.9476369676438L11.050103519369081,66.14355367953975L11.194570548146114,65.71340201303275L11.25235735965693,65.41299112059569L12.52366721289483,60.10649725968367L12.668134241671865,59.82191587860939L13.101535328002967,58.42754144882977L13.27489576253541,58.08344635238332L13.419362791312444,57.831660920265065L13.621616631600292,57.29111808957213L13.794977066132732,56.8801411212214L14.343951775485463,55.41206326215463L14.806246267571971,54.38297011184703L14.864033079082786,54.232961441322246L15.09518032512604,53.86236721811935L15.441901194190923,53.36034869546674L15.701941845989582,52.802970610976395L15.933089092032839,52.49613171254398L16.395383584119347,51.73837037993242L16.510957207140976,51.64746000942636L18.071201117932944,49.05542125170524L18.100094523688355,48.97583641557199L18.59128242153027,48.42099455113424L18.67796263879649,48.38935739237467L18.76464285606271,48.18744366663552L19.198043942393813,47.71268950954835L19.284724159660033,47.56160950469099L19.313617565415438,47.52129235144107L19.602551622969507,47.26900404810549L20.151526332322238,46.731675220410246L20.75828785318578,46.13174985814096L21.249475751027703,45.64591067030665L21.393942779804735,45.53094993723285L22.17406473520072,44.90564051047163L22.46299879275479,44.6488263661801L22.63635922728723,44.48508712502576L22.83861306757508,44.244889594871935L22.867506473330483,44.203435515391554L23.30090755966159,43.88017677851515L23.820988863258908,43.48693148656663L23.878775674769724,43.41110725258035L24.22549654383461,43.142420974766765L24.427750384122454,42.97231931951493L24.456643789877862,42.950324169748434L24.51443060138868,42.871788803981765L24.6011108186549,42.7998344919723L24.658897630165708,42.798150966592544L25.005618499230593,42.60566061018675L25.294552556784662,42.327223003550245L25.785740454626577,41.92249912946713L26.536969004267156,41.55251709731141L26.652542627288785,41.4816997115324L26.76811625031041,41.442606940376834L26.999263496353663,41.267738940543396L27.259304148152324,41.09214942983293L27.634918422972614,40.93975758701735L27.750492045994243,40.87571803068925L28.010532697792904,40.72822371625109L28.126106320814532,40.64892311167545L28.18389313232535,40.577690310543005L28.241679943836157,40.5357333598453L28.44393378412401,40.45365603159138L28.588400812901043,40.41954824467713L28.64618762441186,40.395782113667L28.79065465318889,40.30021471840921L28.848441464699704,40.28823326505727L28.964015087721332,40.236437529672756L29.079588710742957,40.14052031095942L29.2529491452754,39.995693400369674L29.281842551030806,39.98742882123276L29.946390883405165,39.673724637485556L30.06196450642679,39.59510181585502L31.01544689635522,39.232750307823075L31.217700736643064,39.1343187330231L31.391061171175508,39.07946204240268L31.795568851751206,38.93430717232339L31.91114247477283,38.89438357046094L32.113396315060676,38.80194272233694L32.17118312657149,38.77999130050239L32.34454356110393,38.6805321193018L32.40233037261475,38.66393736913006L32.80683805319045,38.492064732634596L32.83573145894585,38.48648942131208L33.12466551649992,30.61181038955293L33.21134573376614,28.82071429723546L33.471386385564806,25.6599500566852L33.58696000858643,26.26199622365365L33.702533631608055,25.238522112600496L33.96257428340672,25.791658587692535L33.99146768916213,26.26199622365365L34.16482812369457,26.63646036883334L34.193721529449974,26.475235483765612L34.33818855822701,26.6294857636887L34.85826986182433,25.99628344521205L34.94495007909055,25.8575128531962L35.204990730889214,25.62232217124967L36.07179290355142,26.393529842933198L36.447407178371705,26.843052983290224L36.620767612904146,26.795061577984598L36.707447830170366,26.946316494569725L36.76523464168118,26.87239442562287L36.88080826470281,26.565249431666864L37.05416869923525,26.597717421133307L37.198635728012285,26.61251932609547L37.48756978556635,26.294814036575627L37.66093022009879,26.2225099011106L37.80539724887583,26.19305913894811L38.0943313064299,25.962044474501983L39.30785434815699,26.448933132702894L39.42342797117862,26.49148041048182L39.45232137693402,26.54185498807825L39.48121478268943,26.472393168189427L40.00129608628676,26.68318366411267L40.37691036110704,26.756755909603992L40.75252463592734,26.59017435287344L41.5037531855679,26.574257385646792L41.85047405463279,26.691229603589885L42.16830151794227,26.53960299958327L42.25498173520848,26.53302194582609L42.34166195247471,26.512754049371274L42.91953006758285,26.58184418183861L43.09289050211529,26.428315412792543L43.295144342403134,26.387429796427394L43.468504776935575,26.427659493813422L43.93079926902208,26.280580594728715L44.01747948628831,26.253622324686873L44.33530694959778,26.37105368591535L44.42198716686401,26.333075977024304L44.50866738413022,26.29566673124847L44.537560789885625,26.30198541741401L45.92444426614515,25.86221360587991L46.01112448341138,25.86203869415214L46.09780470067759,25.852003133771603L46.12669810643301,25.838841026257246L46.76235303305196,25.835561431361654L47.10907390211684,25.753134279652215L47.16686071362765,25.76564046818743L47.398007959670906,25.787701209851846L47.51358158269254,25.811817164317503L48.2359167265777,25.911888536565268L48.26481013233312,25.917376392023893L48.58263759564259,26.009686056352074L48.81378484168584,25.985351462226724L48.92935846470747,25.96534593336357L48.98714527621828,25.967576057892575L49.9117342603913,25.871221559859816L50.02730788341293,25.876031632373365L50.749643027298106,25.726350921338142L51.21193751938461,25.62031068638038L51.24083092514002,25.611193412570604L51.67423201147112,25.595626268799492L51.78980563449275,25.629209320530435L52.25210012657926,25.53121502504989L52.28099353233467,25.549558892499284L52.656607807154955,25.55939767718608L52.91664845895362,25.478632186890422L53.06111548773065,25.470455063617386L53.20558251650768,25.494396106355275L53.29226273377391,25.495839128109342L53.43672976255095,25.481387046602734L53.52340997981716,25.463983329690077L53.87013084888204,25.414417718834564L54.1012780949253,25.390432948164726L54.303531935213144,25.36837220650033L54.50578577550099,25.32267651762161L54.76582642729966,25.29910716230523L54.88140005032128,25.31766966941434L54.93918686183209,25.30923017854966L54.996973673342914,25.289049737958717L55.08365389060913,25.297051949503988L55.28590773089698,25.26519615108472L55.54594838269564,25.225906604235412L55.83488244024971,25.265699022302048L55.95045606327134,25.261041997550294L56.00824287478215,25.258746281123365L56.094923092048376,25.238522112600496L56.239390120825405,25.21071114788581L56.326070338091625,25.26845388201434L56.35496374384704,25.261763508427315L56.93283185895517,25.201790649769777L57.19287251075383,25.160511482017146L57.36623294528627,25.175925578026465L57.56848678557412,25.15854372507978L57.59738019132953,25.141817791112217L57.85742084312819,25.071065997231123L58.05967468341604,25.07034448635408L58.666436204279584,25.033022696442142L58.7820098273012,25.004861908271923L59.070943884855275,25.007441856256463L59.18651750787691,24.99465143616362L59.44655815967557,24.963801380179007L59.822172434495855,24.959931458202192L59.908852651762075,24.95794183729885L60.082213086294516,24.961505663752078L60.13999989780533,22.104103951044916L61.12237569348917,20.98466889334648L61.29573612802161,21.251190638528975L61.78692402586352,20.24470482903504L62.07585808341759,21.0333380815972L62.16253830068381,21.10905299575364L62.22032511219462,21.317482183352052L62.740406415791945,21.17934564634935L63.14491409636764,21.38598198873818L63.20270090787846,21.440729359528735L63.72278221147578,21.464429898640958L63.83835583449741,21.415214111240957L64.06950308054067,21.357821200567944L64.56069097838258,21.425227807655542L64.73405141291502,21.339280557424825L65.42749315104479,21.220668542033927L65.80310742586508,21.312584654974625L65.8897876431313,21.357821200567944L65.9186810488867,21.37260124156413L65.97646786039752,21.379772622402513L66.03425467190833,21.36505817330424L66.14982829492996,21.357821200567944L66.26540191795158,21.476389488026914L66.46765575823943,21.50638684933866L66.90105684457053,21.250294215924185L67.88343264025437,21.274891177641198L67.999006263276,21.30333619736903L68.20126010356384,21.394989942718087L68.46130075536252,21.424724936438214L68.80802162442738,21.42205753258978L69.09695568198146,21.486971647556707L69.15474249349226,21.576482724240652L69.21252930500309,21.593973897017182L69.35699633378012,21.56705935490729L69.44367655104634,21.46836541251567L69.6748237970896,21.470201985657198L69.79039742011123,21.477745053917086L70.36826553521935,21.563255024828393L70.5127325639964,21.55214813011528L70.54162596975179,21.572219250876355L70.59941278126261,21.63665235859193L70.68609299852884,21.707579064200793L70.80166662155047,21.687704719133457L70.83056002730586,21.694854236005863L71.03281386759372,21.720128980667972L71.11949408485994,21.76416300813289L71.26396111363697,21.728065600315322L71.8129358229897,21.806316734524355L72.10186988054377,21.79195210888162L72.27523031507621,21.711514578075526L72.44859074960864,21.601932380630508L72.56416437263029,21.544386422195696L72.91088524169517,21.620013880488262L72.93977864745057,21.595963517920506L73.66211379133574,21.751591227699755L73.9221544431344,21.72550751629675L74.93342364457365,21.633678859219927L74.96231705032906,21.612864363615834L75.02010386183987,21.562795881543014L75.42461154241556,21.416832044722792L76.29141371507777,21.36580154814724L76.52256096112103,21.38403609576679L76.72481480140887,21.32670877699169L76.78260161291969,21.313918356898842L76.8403884244305,21.27803958874097L76.98485545320753,21.31953739615331L77.7071905970927,21.362696864979412L77.73608400284812,21.382243250557188L78.02501806040218,21.33617587425698L78.082804871913,21.338646502411677L78.22727190069001,21.334055069557838L78.63177958126573,21.315973569700084L78.80514001579816,21.309436243874853L79.06518066759682,21.33737839238538L79.49858175392794,21.41112554960445L79.61415537694955,21.38871498448452L79.67194218846036,21.377629953737376L80.04755646328066,21.40749613125332L80.39427733234554,21.3429537037079L80.74099820141043,21.33066615483238L81.0299322589645,21.378395192546346L81.20329269349693,21.35985454940323L81.69448059133886,21.289977314160954L81.86784102587129,21.266757782300107L81.89673443162668,21.264899345192585L82.3012421122024,21.2219585160262L82.47460254673483,21.211441948394306L82.61906957551187,21.220034487020776L83.28361790788622,21.220274990646445L83.48587174817408,21.21408748827675L83.6303387769511,21.22779619494036L84.0059530517714,21.195568709099586L84.20820689205925,21.259498945597834L84.64160797839034,21.303379925300977L84.98832884745522,21.28335253247185L85.07500906472146,21.27843314012843L85.47951674529715,21.23555790285994L85.50841015105254,21.244172305452388L85.56619696256337,21.251190638528975L86.49078594673638,21.134087236790062L86.51967935249179,21.132709806933914L86.5485727582472,21.126434848700324L86.75082659853504,21.150835034723595L87.06865406184451,21.1404715148535L87.50205514817563,18.644022016356153L87.64652217695266,17.346504955826607L88.88893862443516,19.258093364608463L89.14897927623382,19.140902507005656L89.40901992803248,19.051107198764097L89.58238036256492,19.10994313119118L89.69795398558655,18.990281645433697L90.18914188342846,19.477738766749837L90.24692869493929,19.40055896687336L90.27582210069468,19.530452788705123L91.6338121711988,19.051107198764097L91.86495941724206,19.03602106224434L92.52950774961641,18.921278968830258L92.78954840141508,18.8958293124404L92.90512202443671,18.824946334763467L93.02069564745834,18.867712252202107L93.04958905321375,18.806449419552276L93.36741651652322,18.75627161764959L93.45409673378944,18.668422202379425L93.68524397983269,18.73086568919166L93.77192419709891,18.726164936507974L94.46536593522868,18.92348722939329L94.58093955825031,18.850745814608857L94.63872636976112,18.841256853377594L95.44774173091251,18.878884738813124L96.11229006328688,18.879846753315835L96.54569114961797,18.579960596062087L96.77683839566123,18.570471634830824L96.92130542443827,18.470094167059454L97.0657724532153,18.555953961426294L97.18134607623692,18.713440108313048L97.23913288774774,18.720064890002153L97.70142737983424,18.64738906711564L98.22150868343158,18.85715195663827L98.25040208918698,18.871472854349054L98.45265592947483,18.84339952204271L98.53933614674105,18.805618588845388L99.23277788487081,18.769958460347226L99.31945810213702,18.75646839334333L99.52171194242489,18.827067139462628L99.60839215969109,18.855140471768973L99.6372855654465,18.878250683799976L99.69507237695733,18.88282025268784L99.72396578271274,18.87477431321064L100.4463009265979,18.860431551533882L100.70634157839656,18.879737433485968L101.39978331652632,18.98243248165022L101.63093056256959,18.933872613229365L102.03543824314528,18.967936672211664L102.06433164890068,18.96968578948932L102.5555195467426,18.88045894436301L103.39342831364941,18.91541942595012L103.45121512516022,18.910827993096262L103.74014918271429,18.841519220969236L104.23133708055619,18.96968578948932L104.37580410933323,18.939579108347704L105.01145903595219,18.870991847097702L105.0981392532184,18.88301702838158L105.24260628199544,18.8478816350667L105.56043374530492,18.823240945417762L105.61822055681573,18.81248387416018L105.82047439710358,18.796129627614125L105.99383483163601,18.78535069239059L106.19608867192386,18.790029581108303L106.3694491064563,18.772778911957438L106.45612932372254,18.784410541853834L106.94731722156443,18.830893333507497L107.29403809062931,18.848734329739564L107.38071830789555,18.87232554902192L107.58297214818339,18.907526534234698L108.0452666402699,19.02178762039743L108.10305345178071,19.01175206001689L108.27641388631316,19.00036093374618L108.39198750933478,19.01726177944151L108.8542820014213,18.9816235149093L109.34546989926321,18.99537594950486L109.92333801437135,19.028849681405962L110.44341931796868,19.025307718918707L110.50120612947948,19.03293824304247L110.5589929409903,19.018398705671988L110.64567315825651,19.010483949990594L110.73235337552275,19.008144505631737L111.22354127336465,18.928778309158197L111.54136873667413,18.840076199215172L111.94587641724983,18.7889145188438L112.81267858991203,18.825318022184977L112.87046540142285,18.82765746654383L113.56390713955261,18.83039046229017L113.67948076257423,18.83004063883463L113.73726757408507,18.842022092186564L113.9106280086175,18.882557885096197L113.99730822588371,18.871254214689362L114.05509503739454,18.873396883354477L114.31513568919318,24.34297406644175L114.51738952948104,18.74579877794964L114.89300380430133,18.15942907458217L115.12415105034458,16.93154874566921L115.49976532516487,17.73297241832422L115.55755213667568,17.626363720251206L115.64423235394192,18.05509422897013L115.99095322300678,18.043790558563295L116.10652684602842,18.30158858132348L116.25099387480546,18.41654931439728L116.30878068631627,18.266037772655164L116.59771474387034,18.074137743330578L116.71328836689196,17.8928854654337L117.55119713379877,17.131035571185635L117.69566416257578,17.246892726864225L117.89791800286363,16.96366691168014L119.16922785610154,16.65927677743643L119.40037510214479,16.60179641089954L119.60262894243264,16.458259474302064L119.71820256545428,16.578380103344948L120.03603002876375,16.60256164970851L120.2093904632962,16.632515283088328L120.38275089782863,16.575909475190254L121.01840582444758,16.36758960742169L121.33623328775705,16.360112131059722L121.4807003165341,16.520418729556685L121.74074096833276,16.515608657043153L121.76963437408817,16.511257727814982L122.11635524315304,16.527590110395064L122.43418270646252,16.81656614862946L122.52086292372873,16.770083356975796L122.8097969812828,16.920551170785963L124.16778705178693,16.971712851157335L124.31225408056396,17.026329038152088L124.34114748631937,17.008750409511663L124.63008154387343,16.91342351787953L126.73930016401813,17.319874645274325L127.05712762732762,17.302186696804053L127.08602103308301,17.297857631541856L127.14380784459382,17.29934438122787L127.20159465610466,17.280760010152804L127.28827487337087,17.23830018823775L127.31716827912628,17.24411600318594L128.03950342301144,17.23125999119519L128.1839704517885,17.21210715700488L128.2706506690547,17.247045774626017L128.50179791509797,17.18952168015718L128.81962537840744,17.150100949512055L129.0796660302061,17.040409432237187L129.16634624747232,17.030789287210105L129.19523965322773,17.027597148178387L129.62864073955885,16.964410286523137L130.09093523164535,17.11474691653748L130.2642956661778,17.152680897496598L130.3798692891994,17.156069812222057L130.63990994099808,17.10423034890559L130.69769675250888,17.098174030331712L130.95773740430755,16.9938829126516L131.07331102732917,17.005951821867406L131.2466714618616,17.058053652775534L131.39113849063864,17.066646191402008L132.14236704027923,17.11192646492727L132.4024076920779,17.20143754161119L132.835808778409,17.312506488742205L133.03806261869684,17.367625546954287L133.21142305322928,17.390517119325573L133.3269966762509,17.439514267065857L133.3558900820063,17.436409583898012L133.90486479135905,17.418634179563863L133.99154500862525,17.389992384142268L134.1649054431577,17.37903853719097L135.0317076158199,17.40184265369838L135.20506805035237,17.39134795003246L135.63846913668345,17.308264879343902L135.69625594819425,17.290992346227064L136.1874438460362,17.325100133141312L136.2163372517916,17.304832236686497L136.76531196114433,17.26952193164387L136.79420536689972,17.267116895387094L136.88088558416595,17.25417342753245L137.1409262359646,17.210292447829328L137.45875369927407,17.241120639847964L138.18108884315924,17.228395811653034L138.26776906042548,17.19476903199014L138.58559652373495,17.224372841914427L138.67227674100118,17.223148459820074L138.73006355251198,17.22940155408769L138.7878503640228,17.219781409060587L139.13457123308768,17.152549713700775L139.6257591309296,17.108122134848376L140.23252065179315,17.06789243746233L140.434774492081,17.064787754294485L140.66592173812424,17.074626538981303L140.7814953611459,17.09655609684988L140.98374920143374,17.083612628995237L141.01264260718912,17.086607992333235L141.04153601294453,17.08477141919169L141.33047007049862,17.109696340398262L142.08169862013918,14.641210854377396L142.2261656489162,14.15224511940929L142.68846014100274,14.392442649563094L143.0062876043122,14.268058547155931L143.12186122733382,15.163606593314674L143.15075463308924,15.240677073361304L143.38190187913247,15.582170357857223L143.4685820963987,15.760645912075834L143.55526231366494,15.74571282331785L143.64194253093115,15.559716064805345L143.90198318272982,15.696300260224131L144.01755680575144,16.125577368092312L144.2198106460393,16.164254723894445L144.2487040517947,16.292093332924967L144.42206448632714,16.4962590471591L144.59542492085959,16.395990899217598L144.65321173237038,16.45740677962922L144.7398919496366,16.545540426457L145.75116115107585,16.395728531625956L146.09788202014076,16.403905654898974L146.6468567294935,16.568431998828284L146.7046435410043,16.531263256678137L147.25361825035702,16.55655986530622L147.31140506186784,16.545146875069516L147.88927317697596,16.48204746927816L148.58271491510573,16.520418729556685L148.66939513237196,16.506928662552788L149.04500940719225,16.536488744545146L149.2761566532355,16.53563604987228L149.53619730503414,16.451350461055345L149.62287752230037,16.502993148678073L149.6806643338112,16.401609938472063L149.7095577395666,16.398089839950785L150.11406542014228,16.395728531625956L150.98086759280451,16.250682981376517L151.15422802733693,16.354580547669148L151.24090824460316,16.29353635467903L151.443162084891,16.288179683016203L151.81877635971128,16.367392831727948L151.8765631712221,16.398986262555574L151.9054565769775,16.408518951718783L152.10771041726537,16.44960134377769L152.62779172086266,16.36592794600793L153.29234005323704,16.267824330697515L153.4368070820141,16.23579362055048L154.01467519712222,16.299439625491114L154.07246200863304,16.315684552207323L154.24582244316548,16.252847514007605L154.99705099280604,16.148053525110164L155.14151802158307,16.121248302830136L155.51713229640336,16.12920678644346L155.63270591942498,16.13226774167934L156.15278722302233,16.114798432868778L156.3839344690656,16.094967815733373L157.04848280143995,16.015361115634164L157.13516301870615,16.020127460215768L157.16405642446156,16.01896867001932L157.27963004748318,16.046932682495818L157.3085234532386,16.07013035039069L158.05975200287918,16.148009797178236L158.72430033525353,16.051699027077422L159.09991461007382,16.139876401837146L159.56220910216035,16.213273735600684L159.8800365654698,16.22706989812819L160.34233105755632,16.302150757271477L160.74683873813203,16.343189421398417L160.77573214388744,16.368464166060527L161.35360025899556,16.476144198466077L162.04704199712532,16.464665616331477L162.10482880863614,16.449164064458262L162.50933648921185,16.453340081958665L163.05831119856455,16.45618239753485L163.08720460431996,16.442823514326772L163.1449914158308,16.42218393045047L163.28945844460782,16.427190778657742L164.35851445755787,16.40132570691445L164.56076829784573,16.44831136978542L164.67634192086734,16.448595601343033L164.84970235539978,16.48486792088837L165.02306278993223,16.4494482960159L165.16752981870926,16.44299842605454L165.2542100359755,16.466261685847336L165.31199684748628,16.479882936647073L165.7453979338174,16.513575308207866L166.00543858561605,16.538456501482493L166.23658583165934,16.522539534255845L166.72777372950122,16.60776527360952L166.87224075827828,16.611001140573187L166.93002756978908,16.628492313349717L167.27674843885396,16.621867531660612L167.33453525036475,16.619112671948304L167.50789568489722,16.61589866895061L167.8546165539621,16.653570282318086L167.99908358273916,16.632121731700863L168.2880176402932,16.618762848492768L168.57695169784725,16.88008096977425L169.38596705899866,16.109704128797613L169.44375387050948,15.658869150482344L169.5593274935311,16.355651882001705L169.99272857986222,16.162483742650817L171.1773582158339,15.724526640292272L171.26403843310013,15.713988208694424L171.78411973669745,15.348225921971036L172.30420104029477,15.183961945633383L172.79538893813665,15.117036345797139L172.8820691554029,15.063447765203037L173.02653618417995,15.07376755714119L173.17100321295698,15.028159324126365L173.6910845165543,15.312871888996462L173.7199779223097,15.263809149358277L174.21116582015162,15.364886264040697L174.29784603741783,15.342934842206128L174.50009987770568,15.17222099590712L175.28022183310165,15.063578948998858L175.3380086446125,15.122983344541169L175.54026248490032,15.093860541868239L176.06034378849765,15.131138603848232L176.11813060000847,15.166995508040134L176.3203844402963,15.073548917481475L176.580425092095,15.179589152439242L176.86935914964903,15.04779316556803L176.89825255540444,15.033581587687092L177.18718661295853,15.194106825843768L177.30276023598014,15.18195046076407L177.33165364173556,15.182628243709166L177.8806283510883,15.332374546642308L178.02509537986532,15.333227241315152L178.08288219137611,15.320065133800815L178.19845581439776,15.374156585612246L178.45849646619644,15.361541077247185L178.97857776979373,15.473834406472548L179.55644588490188,15.340726581643093L179.70091291367893,15.399037778886873L179.96095356547758,15.410057217736094L180.13431400001,15.531926964056632L180.1632074057654,15.509407079106834L180.27878102878705,15.552107404647556L180.3654612460533,15.529128376412375L181.00111617267223,15.449543540279123L181.52119747626955,15.4768516337765L181.63677109929117,15.485903315688354L181.7812381280682,15.552981963286392L181.98349196835605,15.521738355914302L182.24353262015472,15.528603641229093L182.30131943166552,15.499896253909599L182.59025348921958,15.515944404932066L182.76361392375205,15.505318517470325L182.82140073526287,15.522919010076706L182.99476116979528,15.539120208860986L183.0525479813061,15.547406651963872L183.1103347928169,15.546772596950722L183.4570556618818,15.508510656502045L183.51484247339263,15.542487259620453L183.57262928490343,15.507592369931261L184.23717761727778,15.510740781031053L184.49721826907643,15.524886767014074L184.5838984863427,15.540235271125491L185.04619297842916,15.528166361909665L185.33512703598325,15.45662746525363L185.36402044173866,15.464170533513517L185.42180725324948,15.440972865618624L185.5951676877819,15.410188401531915L185.76852812231436,15.447400871614008L185.9707819626022,15.439311204204865L186.11524899137922,15.438873924885437L186.31750283166707,15.431046625067953L186.49086326619954,15.423437964910145L186.8664775410198,15.408614195982029L187.6177060906604,15.455140715567618L188.28225442303477,15.459404188931913L188.3978280460564,15.504465822797464L188.42672145181177,15.504312775035668L188.62897529209962,15.515988132864013L189.12016318994154,15.606985959233949L189.43799065325103,15.560437575682387L189.7558181165605,15.594348586902894L189.95807195684833,15.5924026939315L190.1314323913808,15.620650937965614L190.82487412951056,15.601826063264863L192.4140114460579,15.71197672382511L192.52958506907956,15.73193852475634L192.90519934389982,15.705439397999879L193.22302680720932,15.685652508796418L193.33860043023094,15.67907145503926L193.5697476762742,15.697021771101173L193.5986410820296,15.696650083679666L193.71421470505126,15.705504989897799L193.9742553568499,15.697174818862967L194.0031487626053,15.696824995407434L194.29208282015938,15.683334928403536L194.3209762259148,15.683006968913975L194.3498696316702,15.697677690080296L194.58101687771344,15.714775311469367L195.15888499282158,15.712523322974386L195.85232673095135,15.38749360485437L196.0256871654838,14.79045428609321L196.05458057123917,14.547917311580552L196.14126078850543,14.209135158864976L196.4301948460595,13.534631808669745L196.69023549785814,13.619966867853268L196.77691571512437,13.7492922265698L197.06584977267843,13.719316729224008L197.21031680145546,13.708341018306733L198.2504794086501,13.684006424181362L198.51052006044875,13.702809434916139L198.5683068719596,13.56161194267754L198.68388049498122,13.671718875305862L198.85724092951367,13.802443527844494L198.94392114677987,13.920640127881958L199.14617498706772,14.00411674995798L199.377322233111,14.122794357246798L199.4640024503772,14.050861909203281L199.69514969642046,14.15768924693599L199.8107233194421,14.099378049692211L199.92629694246372,13.984461044550358L200.59084527483807,14.145117466502857L200.7064188978597,14.14789419018112L200.90867273814754,14.097716388278432L201.0242463611692,14.029872501871443L201.34207382447866,14.262439507901483L201.68879469354354,14.199077734518466L202.15108918563004,14.184232101624376L202.87342432951522,14.196978793785277L203.3068254158463,14.330939313287596L203.711333096422,14.303915451347834L203.94248034246525,14.426878395966902L204.17362758850854,14.452743467710214L204.34698802304095,14.397362041906492L204.37588142879636,14.37116901067364L204.8670693266383,14.271556781711238L205.12710997843695,14.28841389947464L205.53161765901265,14.229009503932312L205.61829787627886,14.25192294026959L206.2539528028978,14.246828636198424L206.74514070073974,14.250654830243294L207.0918615698046,14.2736775864104L207.17854178707086,14.304352730667262L207.35190222160327,14.28732070117611L207.87198352520062,14.186396634255484L207.9297703367114,14.192037537475906L208.44985164030874,14.230321341890557L208.56542526333035,14.260581070793965L208.6521054805966,14.248249793986517L209.1721867841939,14.225183309887445L209.28776040721553,14.235000230608287L209.49001424750338,14.205221508956235L209.86562852232368,14.272584388111868L210.03898895685612,14.277022773203912L210.44349663743182,14.315962496597685L210.7902175064967,14.331901327790305L210.99247134678455,14.404577150676818L211.2236185928278,14.485320777006503L211.45476583887105,14.482150501940758L211.48365924462647,14.483812163354537L212.1193141712454,14.573366967970408L212.23488779426702,14.586791443076404L212.63939547484276,14.567835384579833L212.9861163439076,14.517242167323689L213.01500974966302,14.533530821971844L213.21726358995085,14.55801846385899L213.62177127052655,14.454623768783687L213.795131705059,14.484839769755148L213.99738554534687,14.543959933739863L214.05517235685767,14.56761674492012L214.31521300865631,14.544462804957172L214.37299982016714,14.526381305099436L214.40189322592255,14.527715007023636L214.95086793527526,14.545402955493929L215.0375481525415,14.535848402364726L215.29758880434017,14.540527291082457L215.67320307916043,14.498395428656965L216.07771075973614,14.522270879496954L216.36664481729022,14.540527291082457L216.82893930937672,14.54068033884425L217.1467667726862,14.541161346095606L217.66684807628354,14.56110128306086L217.95578213383757,14.548638822457574L217.98467553959298,14.549732020756105L218.15803597412545,14.556160026751488L218.36028981441328,14.597635970197858L218.47586343743492,14.590311541597684L218.5047568431903,14.591317284032321L218.53365024894572,14.59796392968742L219.16930517556466,14.635722998918768L219.19819858132007,14.636641285489532L219.3137722043417,14.613028202241203L219.37155901585254,14.614908503314677L219.6315996676512,14.612503467057921L219.7471732906728,14.637625163958216L220.58508205757963,14.704179076372933L220.61397546333504,14.699806283178809L220.87401611513368,14.665938999890228L220.9606963323999,14.65819915593662L221.16295017268774,14.709513884069786L221.45188423024183,14.72208566450292L221.48077763599724,14.717822191138644L221.50967104175263,14.718587429947613L221.53856444750804,14.71933080479061L221.68303147628507,14.718062694764312L221.85639191081754,14.712640431203585L221.97196553383915,14.740101572462754L222.02975234534998,14.741522730250846L222.49204683743648,14.728579262396204L222.66540727196892,14.713689901570188L222.69430067772433,14.721211105864104L222.92544792376756,12.029188431759096L223.4744226331203,12.070642511239493L223.9656105309622,12.843315068643038L224.7168390806028,13.212597453887708L225.38138741297715,13.220840169058645L225.75700168779744,13.190864671712854L225.84368190506365,13.292400929680655L226.7393774834813,12.956723460132926L226.7682708892367,12.973952265317816L227.23056538132317,13.191411270862128L227.2594587870786,13.261988153015453L227.54839284463267,13.20192783849402L227.63507306189888,13.292641433306342L227.6928598734097,13.265092836183278L228.0106873367192,13.24596186595894L228.1840477712516,13.21933155540668L228.27072798851785,13.183430923282831L228.38630161153947,13.11453756650924L228.9063829151368,13.013241812167106L228.9352763208922,12.96205826782976L229.05084994391382,12.924736477917838L229.13753016118005,12.998024491851528L229.19531697269088,12.979461984742418L229.59982465326655,12.933175968782518L229.71539827628817,13.084124789844038L230.03322573959767,13.148623489457513L230.11990595686387,13.174750928792466L230.69777407197202,13.237522375094262L230.92892131801526,13.26644840207347L231.21785537556934,13.247295567883159L231.24674878132475,13.224250947750079L231.5645762446342,13.243425645906344L232.2291245770086,13.43357655795328L232.37359160578563,13.436003458176028L232.86477950362755,13.619289084908171L233.5293278360019,13.524749296051002L234.13608935686545,13.589619683085987L234.16498276262084,13.582863717601041L234.28055638564246,13.567362165727829L234.3961300086641,13.585334345755717L234.91621131226142,13.736130119055444L235.08957174679387,13.780098554622484L235.11846515254925,13.825488147977593L236.33198819427633,13.850631708843862L236.56313544031963,13.894906239934468L236.7942826863629,13.827630816642708L236.8231760921183,13.867445098675319L237.3143639899602,13.821159082715397L237.68997826478048,13.886291837342023L237.80555188780215,13.889199744816127L238.1233793511116,13.8697626790682L238.4701002201765,13.845712316500464L238.5567804374427,13.87859572132036L238.61456724895353,13.867816786096807L238.73014087197515,13.862635026161767L238.9612881180184,13.892260700052026L240.6948924633428,13.820634347532096L240.86825289787527,13.821355858409138L240.89714630363068,13.823848350529788L240.9549331151415,13.786286056992179L241.38833420147256,13.788800413078802L241.59058804176044,13.744285378362509L242.2551363741348,13.81995656458702L242.3707099971564,13.82258024050349L242.6885374604659,13.802159296286879L242.77521767773212,13.783246965722254L243.266405575574,13.733506443138975L243.43976601010647,13.734840145063192L243.81538028492673,13.758103404855987L244.39324840003488,13.77764979043376L244.65328905183355,13.761361135785606L245.05779673240923,13.808128158996881L245.11558354392005,13.794900459584625L245.1733703554309,13.775966265054027L245.43341100722955,13.811473345790395L245.6934516590282,13.823651574836047L245.92459890507146,13.82251464860557L246.5024670201796,13.893091530758914L246.5602538316904,13.891298685549314L246.64693404895664,13.902121348704796L246.70472086046743,13.916464110381556L246.87808129499987,13.910954390956956L247.22480216406476,13.91073575129724L247.25369556982017,13.90721565277596L247.45594941010802,13.882728010888815L247.54262962737423,13.872342627052744L247.68709665615128,13.865586661567798L247.88935049643914,13.877786754579443L247.94713730794993,13.876125093165664L249.4207010014757,13.954616731000385L249.73852846478516,13.966663776250218L249.82520868205137,1.9542729124732763L249.9696757108284,12.402340738980559L250.43197020291493,12.741560171015543L250.54754382593654,11.598643213864616L250.57643723169195,11.407289783689283L250.63422404320275,11.527366684800223L250.720904260469,12.029188431759096L250.92315810075684,11.943088133766587L251.03873172377845,12.263482691100817L251.1543053468001,12.243542754135563L251.41434599859878,11.70934047357412L251.44323940435416,11.773882901119542L251.5877064331312,11.84863580077327L251.70328005615283,11.859567783758617L251.73217346190822,11.778561789837273L252.16557454823933,11.7834593182147L253.06127012665695,12.296672191444303L253.40799099572183,12.4500916406605L253.61024483600966,12.639783409422053L253.75471186478674,12.51128888141241L254.1592195453624,12.629682257143616L254.4192601971611,12.64487771349322L254.85266128349215,12.777613850901185L255.17048874680165,12.594918551250245L255.3727425870895,12.626599437941744L255.4016359928449,12.617766395689584L255.48831621011112,12.546293090931469L255.6616766446436,12.542029617567191L256.75962606334906,12.916384442917034L256.84630628061524,12.928409624200912L256.90409309212606,12.930202469410492L256.9907733093923,12.959806279334797L257.0196667151477,12.969513880225774L257.1352403381693,13.007600908946683L258.05982932234235,13.117314290187522L258.464337002918,13.163556578215477L259.24445895831406,12.963763657175486L259.41781939284647,13.034318675362837L259.5333930158681,13.141976843802436L260.0534743194654,13.117095650527808L260.19794134824247,13.136182892820202L260.6313424345735,13.130716901327528L260.71802265183976,13.124922950345312L260.804702869106,13.154504896303623L261.4114643899695,13.182031629460713L261.729291853279,13.197401997538083L262.1049061280993,13.1696566247213L262.1337995338547,13.17483838465636L262.42273359140876,13.174248057575138L262.509413808675,13.158790233633873L262.62498743169664,13.128443048866592L263.1161753295385,13.104917421482137L263.17396214104934,13.15345542593704L263.2606423583156,13.148623489457513L263.8674038791791,13.171602517692694L263.92519069068993,13.189837065312242L264.06965771946693,13.166748717247195L264.38748518277646,13.117598521745137L264.6186324288197,13.144250696263391L264.73420605184134,13.161610685244103L265.2253939496832,13.056379417027253L265.3987543842157,13.040834137222095L265.68768844176975,13.067202080182735L265.7454752532806,13.035062050205854L265.918835687813,13.004190130255251L266.06330271659004,13.017395965701533L266.20776974536705,13.093438839347533L266.2944499626333,13.105485884597385L266.7278510489644,13.110427140906758L266.7567444547198,13.099036014636027L267.5368664101158,13.104873693550209L267.76801365615904,13.047830606332708L268.0569477137131,13.11320386458502L268.14362793097933,13.1380413299277L268.3747751770226,13.173001811514812L268.98153669788616,13.243032094518883L269.15489713241857,13.235510890224967L269.47272459572804,13.270274596118337L269.50161800148345,13.279938469077369L270.42620698565645,13.324213000167994L270.45510039141186,13.320845949408508L270.62846082594433,13.338052890627427L272.1309179252255,13.389017795305058L272.1887047367363,13.394177691274145L272.39095857702415,13.400561969337582L272.4776387942903,13.396757639258668L272.6798926345782,13.408695364678673L273.4600145899742,13.441119626213167L274.06677611083774,13.420480042336862L274.3557101683918,13.396211040109412L274.8180046604783,13.396823231156588L274.87579147198915,13.401392800044452L274.9335782834999,13.385388376953932L275.07804531227697,13.360988190930659L276.00263429644997,13.417681454692607L276.147101325227,13.423562861538715L276.4649287885365,13.437271568202327L276.4938221942919,13.43453857245599L276.5227156000473,13.451177050559679L276.60939581731355,13.44778813583422L276.8983298748676,13.43639700956351" style="fill: none;" fill="none"></path></g></g></g></g></g></g><g transform="translate(41, 177)" clip-path="url(#clip_1)"><clipPath id="clip_1"><rect width="288" height="23"></rect></clipPath><g><g><line x1="5.90707729490666" y1="0" x2="5.90707729490666" y2="5" style="visibility: inherit;" fill="rgb(0, 0, 0)" stroke="rgb(204, 204, 204)" stroke-width="1px"></line><line x1="34.80048305031352" y1="0" x2="34.80048305031352" y2="5" style="visibility: inherit;" fill="rgb(0, 0, 0)" stroke="rgb(204, 204, 204)" stroke-width="1px"></line><line x1="63.69388880572038" y1="0" x2="63.69388880572038" y2="5" style="visibility: inherit;" fill="rgb(0, 0, 0)" stroke="rgb(204, 204, 204)" stroke-width="1px"></line><line x1="92.58729456112722" y1="0" x2="92.58729456112722" y2="5" style="visibility: inherit;" fill="rgb(0, 0, 0)" stroke="rgb(204, 204, 204)" stroke-width="1px"></line><line x1="121.4807003165341" y1="0" x2="121.4807003165341" y2="5" style="visibility: inherit;" fill="rgb(0, 0, 0)" stroke="rgb(204, 204, 204)" stroke-width="1px"></line><line x1="150.37410607194096" y1="0" x2="150.37410607194096" y2="5" style="visibility: inherit;" fill="rgb(0, 0, 0)" stroke="rgb(204, 204, 204)" stroke-width="1px"></line><line x1="179.26751182734782" y1="0" x2="179.26751182734782" y2="5" style="visibility: inherit;" fill="rgb(0, 0, 0)" stroke="rgb(204, 204, 204)" stroke-width="1px"></line><line x1="208.16091758275465" y1="0" x2="208.16091758275465" y2="5" style="visibility: inherit;" fill="rgb(0, 0, 0)" stroke="rgb(204, 204, 204)" stroke-width="1px"></line><line x1="237.05432333816154" y1="0" x2="237.05432333816154" y2="5" style="visibility: inherit;" fill="rgb(0, 0, 0)" stroke="rgb(204, 204, 204)" stroke-width="1px"></line><line x1="265.9477290935684" y1="0" x2="265.9477290935684" y2="5" style="visibility: inherit;" fill="rgb(0, 0, 0)" stroke="rgb(204, 204, 204)" stroke-width="1px"></line></g><g transform="translate(0, 8)"><text x="5.90707729490666" y="0" dx="0em" dy="0.95em" style="text-anchor: middle; visibility: inherit; font-family: Roboto, sans-serif; font-size: 12px; font-weight: 200;" fill="rgb(33, 33, 33)" stroke="none" stroke-width="1px">0</text><text x="34.80048305031352" y="0" dx="0em" dy="0.95em" style="text-anchor: middle; visibility: inherit; font-family: Roboto, sans-serif; font-size: 12px; font-weight: 200;" fill="rgb(33, 33, 33)" stroke="none" stroke-width="1px">1k</text><text x="63.69388880572038" y="0" dx="0em" dy="0.95em" style="text-anchor: middle; visibility: inherit; font-family: Roboto, sans-serif; font-size: 12px; font-weight: 200;" fill="rgb(33, 33, 33)" stroke="none" stroke-width="1px">2k</text><text x="92.58729456112722" y="0" dx="0em" dy="0.95em" style="text-anchor: middle; visibility: inherit; font-family: Roboto, sans-serif; font-size: 12px; font-weight: 200;" fill="rgb(33, 33, 33)" stroke="none" stroke-width="1px">3k</text><text x="121.4807003165341" y="0" dx="0em" dy="0.95em" style="text-anchor: middle; visibility: inherit; font-family: Roboto, sans-serif; font-size: 12px; font-weight: 200;" fill="rgb(33, 33, 33)" stroke="none" stroke-width="1px">4k</text><text x="150.37410607194096" y="0" dx="0em" dy="0.95em" style="text-anchor: middle; visibility: inherit; font-family: Roboto, sans-serif; font-size: 12px; font-weight: 200;" fill="rgb(33, 33, 33)" stroke="none" stroke-width="1px">5k</text><text x="179.26751182734782" y="0" dx="0em" dy="0.95em" style="text-anchor: middle; visibility: inherit; font-family: Roboto, sans-serif; font-size: 12px; font-weight: 200;" fill="rgb(33, 33, 33)" stroke="none" stroke-width="1px">6k</text><text x="208.16091758275465" y="0" dx="0em" dy="0.95em" style="text-anchor: middle; visibility: inherit; font-family: Roboto, sans-serif; font-size: 12px; font-weight: 200;" fill="rgb(33, 33, 33)" stroke="none" stroke-width="1px">7k</text><text x="237.05432333816154" y="0" dx="0em" dy="0.95em" style="text-anchor: middle; visibility: inherit; font-family: Roboto, sans-serif; font-size: 12px; font-weight: 200;" fill="rgb(33, 33, 33)" stroke="none" stroke-width="1px">8k</text><text x="265.9477290935684" y="0" dx="0em" dy="0.95em" style="text-anchor: middle; visibility: inherit; font-family: Roboto, sans-serif; font-size: 12px; font-weight: 200;" fill="rgb(33, 33, 33)" stroke="none" stroke-width="1px">9k</text></g><line x1="0" y1="0" x2="288.828125" y2="0" fill="rgb(0, 0, 0)" stroke="rgb(204, 204, 204)" stroke-width="1px"></line></g></g></g></g></svg>