<svg viewBox="0 0 330 200" xmlns="http://www.w3.org/2000/svg"><g><g><g><g><g><line x1="41.171875" y1="172.41376381302584" x2="36.171875" y2="172.41376381302584" style="visibility: inherit;" fill="rgb(0, 0, 0)" stroke="rgb(204, 204, 204)" stroke-width="1px"></line><line x1="41.171875" y1="154.52677061054203" x2="36.171875" y2="154.52677061054203" style="visibility: inherit;" fill="rgb(0, 0, 0)" stroke="rgb(204, 204, 204)" stroke-width="1px"></line><line x1="41.171875" y1="136.63977740805825" x2="36.171875" y2="136.63977740805825" style="visibility: inherit;" fill="rgb(0, 0, 0)" stroke="rgb(204, 204, 204)" stroke-width="1px"></line><line x1="41.171875" y1="118.75278420557446" x2="36.171875" y2="118.75278420557446" style="visibility: inherit;" fill="rgb(0, 0, 0)" stroke="rgb(204, 204, 204)" stroke-width="1px"></line><line x1="41.171875" y1="100.86579100309068" x2="36.171875" y2="100.86579100309068" style="visibility: inherit;" fill="rgb(0, 0, 0)" stroke="rgb(204, 204, 204)" stroke-width="1px"></line><line x1="41.171875" y1="82.97879780060687" x2="36.171875" y2="82.97879780060687" style="visibility: inherit;" fill="rgb(0, 0, 0)" stroke="rgb(204, 204, 204)" stroke-width="1px"></line><line x1="41.171875" y1="65.09180459812308" x2="36.171875" y2="65.09180459812308" style="visibility: inherit;" fill="rgb(0, 0, 0)" stroke="rgb(204, 204, 204)" stroke-width="1px"></line><line x1="41.171875" y1="47.20481139563929" x2="36.171875" y2="47.20481139563929" style="visibility: inherit;" fill="rgb(0, 0, 0)" stroke="rgb(204, 204, 204)" stroke-width="1px"></line><line x1="41.171875" y1="29.31781819315549" x2="36.171875" y2="29.31781819315549" style="visibility: inherit;" fill="rgb(0, 0, 0)" stroke="rgb(204, 204, 204)" stroke-width="1px"></line><line x1="41.171875" y1="11.430824990671706" x2="36.171875" y2="11.430824990671706" style="visibility: inherit;" fill="rgb(0, 0, 0)" stroke="rgb(204, 204, 204)" stroke-width="1px"></line></g><g transform="translate(31.171875, 0)"><text x="0" y="172.41376381302584" dx="0em" dy="0.3em" style="text-anchor: end; visibility: hidden; font-family: Roboto, sans-serif; font-size: 12px; font-weight: 200;" fill="rgb(33, 33, 33)" stroke="none" stroke-width="1px">10</text><text x="0" y="154.52677061054203" dx="0em" dy="0.3em" style="text-anchor: end; visibility: inherit; font-family: Roboto, sans-serif; font-size: 12px; font-weight: 200;" fill="rgb(33, 33, 33)" stroke="none" stroke-width="1px">20</text><text x="0" y="136.63977740805825" dx="0em" dy="0.3em" style="text-anchor: end; visibility: hidden; font-family: Roboto, sans-serif; font-size: 12px; font-weight: 200;" fill="rgb(33, 33, 33)" stroke="none" stroke-width="1px">30</text><text x="0" y="118.75278420557446" dx="0em" dy="0.3em" style="text-anchor: end; visibility: inherit; font-family: Roboto, sans-serif; font-size: 12px; font-weight: 200;" fill="rgb(33, 33, 33)" stroke="none" stroke-width="1px">40</text><text x="0" y="100.86579100309068" dx="0em" dy="0.3em" style="text-anchor: end; visibility: hidden; font-family: Roboto, sans-serif; font-size: 12px; font-weight: 200;" fill="rgb(33, 33, 33)" stroke="none" stroke-width="1px">50</text><text x="0" y="82.97879780060687" dx="0em" dy="0.3em" style="text-anchor: end; visibility: inherit; font-family: Roboto, sans-serif; font-size: 12px; font-weight: 200;" fill="rgb(33, 33, 33)" stroke="none" stroke-width="1px">60</text><text x="0" y="65.09180459812308" dx="0em" dy="0.3em" style="text-anchor: end; visibility: hidden; font-family: Roboto, sans-serif; font-size: 12px; font-weight: 200;" fill="rgb(33, 33, 33)" stroke="none" stroke-width="1px">70</text><text x="0" y="47.20481139563929" dx="0em" dy="0.3em" style="text-anchor: end; visibility: inherit; font-family: Roboto, sans-serif; font-size: 12px; font-weight: 200;" fill="rgb(33, 33, 33)" stroke="none" stroke-width="1px">80</text><text x="0" y="29.31781819315549" dx="0em" dy="0.3em" style="text-anchor: end; visibility: hidden; font-family: Roboto, sans-serif; font-size: 12px; font-weight: 200;" fill="rgb(33, 33, 33)" stroke="none" stroke-width="1px">90</text><text x="0" y="11.430824990671706" dx="0em" dy="0.3em" style="text-anchor: end; visibility: inherit; font-family: Roboto, sans-serif; font-size: 12px; font-weight: 200;" fill="rgb(33, 33, 33)" stroke="none" stroke-width="1px">100</text></g><line x1="41.171875" y1="0" x2="41.171875" y2="177" fill="rgb(0, 0, 0)" stroke="rgb(204, 204, 204)" stroke-width="1px"></line></g></g><g transform="translate(41, 0)" clip-path="url(#clip_0)"><clipPath id="clip_0"><rect width="288" height="177"></rect></clipPath><g><g><g><line x1="11.590923577284507" y1="0" x2="11.590923577284507" y2="177" fill="rgb(0, 0, 0)" stroke="rgb(66, 66, 66)" stroke-width="1px" opacity="0.25"></line><line x1="38.42395453948077" y1="0" x2="38.42395453948077" y2="177" fill="rgb(0, 0, 0)" stroke="rgb(66, 66, 66)" stroke-width="1px" opacity="0.25"></line><line x1="65.25698550167702" y1="0" x2="65.25698550167702" y2="177" fill="rgb(0, 0, 0)" stroke="rgb(66, 66, 66)" stroke-width="1px" opacity="0.25"></line><line x1="92.09001646387328" y1="0" x2="92.09001646387328" y2="177" fill="rgb(0, 0, 0)" stroke="rgb(66, 66, 66)" stroke-width="1px" opacity="0.25"></line><line x1="118.92304742606956" y1="0" x2="118.92304742606956" y2="177" fill="rgb(0, 0, 0)" stroke="rgb(66, 66, 66)" stroke-width="1px" opacity="0.25"></line><line x1="145.75607838826582" y1="0" x2="145.75607838826582" y2="177" fill="rgb(0, 0, 0)" stroke="rgb(66, 66, 66)" stroke-width="1px" opacity="0.25"></line><line x1="172.58910935046208" y1="0" x2="172.58910935046208" y2="177" fill="rgb(0, 0, 0)" stroke="rgb(66, 66, 66)" stroke-width="1px" opacity="0.25"></line><line x1="199.4221403126583" y1="0" x2="199.4221403126583" y2="177" fill="rgb(0, 0, 0)" stroke="rgb(66, 66, 66)" stroke-width="1px" opacity="0.25"></line><line x1="226.25517127485458" y1="0" x2="226.25517127485458" y2="177" fill="rgb(0, 0, 0)" stroke="rgb(66, 66, 66)" stroke-width="1px" opacity="0.25"></line><line x1="253.08820223705087" y1="0" x2="253.08820223705087" y2="177" fill="rgb(0, 0, 0)" stroke="rgb(66, 66, 66)" stroke-width="1px" opacity="0.25"></line><line x1="279.9212331992471" y1="0" x2="279.9212331992471" y2="177" fill="rgb(0, 0, 0)" stroke="rgb(66, 66, 66)" stroke-width="1px" opacity="0.25"></line></g><g><line x1="0" y1="172.41376381302584" x2="288.828125" y2="172.41376381302584" fill="rgb(0, 0, 0)" stroke="rgb(66, 66, 66)" stroke-width="1px" opacity="0.25"></line><line x1="0" y1="154.52677061054203" x2="288.828125" y2="154.52677061054203" fill="rgb(0, 0, 0)" stroke="rgb(66, 66, 66)" stroke-width="1px" opacity="0.25"></line><line x1="0" y1="136.63977740805825" x2="288.828125" y2="136.63977740805825" fill="rgb(0, 0, 0)" stroke="rgb(66, 66, 66)" stroke-width="1px" opacity="0.25"></line><line x1="0" y1="118.75278420557446" x2="288.828125" y2="118.75278420557446" fill="rgb(0, 0, 0)" stroke="rgb(66, 66, 66)" stroke-width="1px" opacity="0.25"></line><line x1="0" y1="100.86579100309068" x2="288.828125" y2="100.86579100309068" fill="rgb(0, 0, 0)" stroke="rgb(66, 66, 66)" stroke-width="1px" opacity="0.25"></line><line x1="0" y1="82.97879780060687" x2="288.828125" y2="82.97879780060687" fill="rgb(0, 0, 0)" stroke="rgb(66, 66, 66)" stroke-width="1px" opacity="0.25"></line><line x1="0" y1="65.09180459812308" x2="288.828125" y2="65.09180459812308" fill="rgb(0, 0, 0)" stroke="rgb(66, 66, 66)" stroke-width="1px" opacity="0.25"></line><line x1="0" y1="47.20481139563929" x2="288.828125" y2="47.20481139563929" fill="rgb(0, 0, 0)" stroke="rgb(66, 66, 66)" stroke-width="1px" opacity="0.25"></line><line x1="0" y1="29.31781819315549" x2="288.828125" y2="29.31781819315549" fill="rgb(0, 0, 0)" stroke="rgb(66, 66, 66)" stroke-width="1px" opacity="0.25"></line><line x1="0" y1="11.430824990671706" x2="288.828125" y2="11.430824990671706" fill="rgb(0, 0, 0)" stroke="rgb(66, 66, 66)" stroke-width="1px" opacity="0.25"></line></g></g></g><g><g><line x1="0" y1="190.30075701550965" x2="288.828125" y2="190.30075701550965" fill="rgb(0, 0, 0)" stroke="rgb(153, 153, 153)" stroke-width="1.5px"></line></g></g><g><g><line x1="11.590923577284507" y1="0" x2="11.590923577284507" y2="177" fill="rgb(0, 0, 0)" stroke="rgb(153, 153, 153)" stroke-width="1.5px"></line></g></g><g><g><g><g><g><path stroke="rgb(255, 112, 67)" stroke-width="2px" d="M12.07391813460404,148.5252143990083L12.234916320377216,144.66024070672182L12.664244815772358,134.34967603507997L12.71791087769675,129.1175406152063L12.79840997058334,125.45479613743163L13.093573311167498,120.63077832959966L13.496068775600442,114.71749001548798L13.57656786848703,110.977217564368L14.113228487730956,105.59572851978014L14.327892735428525,101.34449072638256L14.43522485927731,98.34205143380764L14.971885478521235,94.7046299482969L15.750043376424928,90.21195065618662L15.830542469311515,87.23620237879125L16.072039747971285,84.82807540020252L16.367203088555442,82.68628026603068L16.501368243366425,81.12368806114674L16.555034305290814,80.04085991427789L17.735687667627452,77.28364348417898L17.869852822438432,75.40386037314349L18.272348286871377,73.5998369481202L18.433346472644555,72.30059941831138L18.567511627455534,71.40366169022369L18.75534284419091,70.62005846550984L18.916341029964084,69.93143656870966L19.426168618245814,68.92427226035295L19.855497113640954,67.82616050205415L19.909163175565347,67.10913738457451L20.12382742326292,66.48514068656108L20.445823794809275,65.7143499704967L20.68732107346904,65.05761222263054L20.90198532116661,64.4332953168272L21.33131381656175,63.674583536208736L21.438645940410538,63.136903170692655L22.887629612369132,61.80114263475757L22.91446264333133,60.98566298621446L23.370624169688664,60.14324791840707L23.451123262575255,59.590024538685824L23.531622355461845,59.190905113966274L23.934117819894787,58.67712401646238L24.014616912781378,58.325759102464914L24.041449943743576,58.099093614545914L24.309780253365535,57.78713386469618L24.819607841647265,57.35790389505787L25.383101491853385,56.785067263885246L25.839263018210723,56.252980878954695L25.973428173021702,55.859283609387035L26.697920009001002,55.273207713366496L26.966250318622965,54.80329993585262L27.127248504396142,54.42960582423428L27.315079721131518,54.13056181123833L27.341912752093712,53.9414025821282L27.744408216526658,53.67285877960989L28.22740277384619,53.316475617345574L28.281068835770583,53.08184270146468L28.603065207316938,52.84894777545551L28.79089642405231,52.65372882555376L28.817729455014504,52.52156971748823L28.8713955169389,52.43315280317341L28.951894609825487,52.349272046183756L29.00556067174988,52.27969629644799L29.327557043296235,52.102952302633554L29.595887352918197,51.909436064097385L30.05204887927553,51.643321873586686L30.749707684292638,51.25478740346957L30.85703980814142,50.97321004456259L30.964371931990208,50.784181156076386L31.179036179687778,50.62819705876558L31.420533458347542,50.482530820608694L31.769362860856095,50.2947241706813L31.87669498470488,50.150701915351526L32.11819226336465,50.02781914028298L32.22552438721343,49.92944354802344L32.27919044913783,49.85094709136369L32.33285651106222,49.785928380367174L32.52068772779759,49.69277799404566L32.65485288260857,49.59819665879232L32.70851894453297,49.5255467311758L32.84268409934394,49.42562322667818L32.89635016126834,49.36133493434251L33.00368228511712,49.30856393973953L33.11101440896591,49.235000537367945L33.27201259473908,49.13154851030711L33.29884562570128,49.06612020763886L33.9160053378318,48.847147199058746L34.02333746168058,48.68760753730103L34.90882748343306,48.40417075127944L35.09665870016843,48.19772659662979L35.25765688594161,48.04313866898174L35.63331931941236,47.86783433823486L35.74065144326114,47.76045189290546L35.92848265999652,47.65959121457699L35.98214872192091,47.59929861334206L36.14314690769409,47.522297606384825L36.19681296961848,47.46666440813887L36.57247540308923,47.36000174879113L36.599308434051416,47.28666435662197L36.86763874367338,40.993475551359566L36.94813783655997,36.43500631559346L37.189635115219744,34.91650560361097L37.29696723906853,34.19955394571856L37.404299362917314,33.67781910089206L37.64579664157707,33.558113620401656L37.67262967253927,33.554873151503166L37.83362785831245,33.56695221169763L37.86046088927465,33.70923094385004L37.99462604408563,33.86029336233821L38.47762060140516,34.038389738324376L38.55811969429175,34.28410539261625L38.79961697295152,34.5218485982209L39.6046079018174,34.876711512163794L39.95343730432596,35.10329778805L40.114435490099126,35.2254991459044L40.19493458298572,35.30975369089797L40.24860064491011,35.32465033891505L40.3559327687589,35.39794067234933L40.51693095453208,35.53952693675524L40.65109610934306,35.55931300788315L40.91942641896502,35.48204445311224L41.0804246047382,35.357122039069814L41.21458975954918,35.2924145276076L41.48292006917114,35.24076758816412L42.60990736958339,35.186072389745114L42.71723949343217,35.1488392008998L42.74407252439436,35.11917920156823L42.77090555535656,35.089161223886904L43.2539001126761,35.03398230473552L43.60272951518464,35.012212625632834L43.9515589176932,35.00939675513442L44.6492177227103,35.0406448906063L44.97121409425666,34.97719155306735L45.26637743484081,34.88181981676515L45.3468765277274,34.82801390686395L45.427375620613994,34.792182220792114L45.96403623985792,34.72586746995455L46.12503442563109,34.70908694353298L46.31286564236647,34.69826533023682L46.47386382813965,34.68279283838886L46.90319232353478,34.691266419967015L46.98369141642137,34.69054799513027L47.27885475700553,34.72271616001739L47.35935384989212,34.736219943843146L47.439852942778714,34.73580667782395L47.46668597374091,34.745793737821394L48.75467145992633,34.640292493546205L48.83517055281292,34.5652337564543L48.9156696456995,34.50613150324858L48.942502676661704,34.4627496108171L49.53282935783002,34.388001782019565L49.85482572937637,34.310946889704795L49.90849179130077,34.25721919062364L50.12315603899834,34.220260815462005L50.230488162847124,34.1746680654997L50.90131393690203,34.09473443745642L50.92814696786423,34.038182302836056L51.22331030844838,34.00291364616826L51.43797455614595,33.958372938042146L51.54530667999474,33.92932857538846L51.598972741919134,33.90167239686442L52.457629732709414,33.887354958111004L52.5649618565582,33.874768743203624L53.2357876306131,33.840687843432754L53.66511612600825,33.84858621387922L53.691949156970445,33.853281566730104L54.09444462140338,33.83989196605716L54.20177674525217,33.816328269233395L54.63110524064731,33.800596117418664L54.6579382716095,33.7878161159295L55.00676767411806,33.786873205253706L55.248264952777824,33.765269717209314L55.38243010758881,33.742814984862726L55.51659526239978,33.729576868571094L55.59709435528637,33.71699958191719L55.73125951009735,33.714447899494026L55.81175860298394,33.719336294338866L56.133754974530305,33.708770022716216L56.34841922222787,33.69826528909641L56.53625043896324,33.66207619166635L56.72408165569862,33.636541659220946L56.96557893435838,33.62213253883353L57.072911058207175,33.61093786438386L57.12657712013156,33.604428489444764L57.18024318205595,33.602193219681475L57.260742274942544,33.595306041864745L57.44857349167791,33.58033280240489L57.690070770337684,33.566692607141526L57.95840107995965,33.54277658250989L58.06573320380843,33.512121899159204L58.119399265732824,33.4954540311202L58.19989835861941,33.48453625253987L58.334063513430394,33.467674144302954L58.414562606316984,33.45806999501051L58.44139563727918,33.449714633800795L58.978056256523104,33.43057436067603L59.21955353518287,33.43142680710317L59.38055172095605,33.43030613049913L59.568382937691425,33.426877092588704L59.59521596865362,33.42630443002038L59.836713247313384,33.408007243415994L60.02454446404876,33.393196940111736L60.58803811425488,33.366886660746914L60.69537023810366,33.34817464218912L60.96370054772563,33.331597927472146L61.071032671574415,33.31757426682977L61.31252995023418,33.313537929498416L61.66135935274273,33.29215268276812L61.74185844562932,33.28120477833799L61.9028566314025,33.27586969671009L61.95652269332689,32.3634113403814L62.868845746041565,31.940153983235682L63.02984393181474,31.641836899955184L63.48600545817207,31.40193873062855L63.75433576779404,31.368669049060408L63.83483486068063,31.28119978011734L63.88850092260502,31.242146564478478L64.37149547992456,31.131026445762654L64.7471579133953,31.055413061402785L64.80082397531969,30.989733293205557L65.28381853263922,30.920750319625135L65.39115065648801,30.91593913089005L65.60581490418558,30.84213874312096L66.06197643054291,30.823836354896358L66.2229746163161,30.829700399568637L66.8669673594088,30.913838028827904L67.21579676191736,30.98571316203551L67.29629585480394,31.028248704830585L67.32312888576614,31.070184272621837L67.37679494769053,31.0783582100843L67.43046100961493,31.034052598281846L67.53779313346371,31.028965501717774L67.6451252573125,30.989149053343937L67.83295647404786,30.971143638260134L68.23545193848081,30.928467173478257L69.14777499119549,31.004654705632046L69.25510711504427,31.025164512639197L69.44293833177964,30.98115868362425L69.68443561043941,30.967310143602276L70.00643198198577,30.95976523438654L70.27476229160773,30.94149879853406L70.32842835353212,30.923622793105476L70.3820944154565,30.906073843442346L70.5162595702675,30.93805119241513L70.59675866315408,30.940015475470116L70.81142291085166,30.92485622466864L70.91875503470044,30.932840874911193L71.45541565394436,30.897930706328204L71.58958080875534,30.86851819695785L71.61641383971754,30.857235508863138L71.67007990164194,30.85080433398804L71.75057899452852,30.847447827358483L71.85791111837732,30.83102301577132L71.88474414933951,30.818367827454015L72.07257536607489,30.779769428394875L72.15307445896147,30.754541550329087L72.28723961377246,30.752396475046602L72.79706720205418,30.71991309010898L73.06539751167614,30.687409572880938L73.22639569744932,30.661984797863724L73.38739388322249,30.656642890512018L73.49472600707128,30.63142835993384L73.81672237861764,30.625672190210192L73.84355540957984,30.617534943402923L74.51438118363474,30.6090444097391L74.7558784622945,30.592939937780137L75.69503454597138,30.573129573829764L75.72186757693358,30.57027746610106L75.77553363885797,30.5627417929717L76.15119607232872,30.558684376649687L76.95618700119459,30.545780184131154L77.17085124889216,30.53674396214146L77.35868246562754,30.523909345412207L77.41234852755194,30.5284905989054L77.46601458947633,30.549220233450367L77.60017974428732,30.5611667332361L78.2710055183422,30.565981943266745L78.2978385493044,30.570978118655304L78.56616885892637,30.567654675777945L78.61983492085076,30.56083513947322L78.75400007566175,30.538571481541997L79.1296625091325,30.520780840957926L79.29066069490568,30.49125764449561L79.53215797356545,30.47143667724808L79.93465343799838,30.46115440665135L80.04198556184717,30.449673751450902L80.09565162377156,30.44179733777105L80.44448102628012,30.429997044009408L80.76647739782646,30.39508853177032L81.08847376937283,30.38633810912361L81.35680407899478,30.382976557820765L81.51780226476795,30.378394048790412L81.9739637911253,30.364869114727874L82.13496197689848,30.349930807884384L82.16179500786068,30.345760542293846L82.53745744133143,30.32331783540269L82.69845562710461,30.31059459135697L82.83262078191558,30.30046057080639L83.4497804940461,30.308081438059236L83.63761171078146,30.30808504565751L83.77177686559244,30.305658098895933L84.120606268101,30.31260283493401L84.30843748483638,30.296261426599074L84.71093294926932,30.266570620832542L85.03292932081567,30.241386923254147L85.11342841370225,30.22478648585204L85.489090847173,30.19699818392128L85.5159238781352,30.17435340998831L85.5695899400596,30.164079962643246L86.42824693084988,30.113498638471867L86.45507996181207,30.083570162107666L86.48191299277428,30.0684679644254L86.66974420950966,30.057441522051125L86.9649075500938,30.054122697609905L87.36740301452674,29.31242606576605L87.50156816933773,29.496247691434565L88.65538850071216,28.428208787971833L88.89688577937193,27.794350717905427L89.1383830580317,27.60811368236007L89.29938124380487,27.50809124081975L89.40671336765367,27.463558584221445L89.862874894011,27.672091598309166L89.9165409559354,27.746101812842472L89.9433739868976,27.74999909861945L91.20452644212081,28.053361678808844L91.4191906898184,28.277591177128414L92.0363504019489,28.45800905735392L92.27784768060866,28.516110918743884L92.38517980445745,28.54206347451019L92.49251192830623,28.53801652238353L92.51934495926842,28.52391769941477L92.81450829985259,28.519677963050952L92.89500739273917,28.51025072937831L93.10967164043676,28.460630203611714L93.19017073332334,28.4102677580371L93.83416347641604,28.370475771015453L93.94149560026483,28.32843956000833L93.99516166218922,28.329015541495774L94.74648652913072,28.332085010273516L95.36364624126122,28.286441659231652L95.76614170569418,28.303571160559166L95.98080595339175,28.302500271613233L96.11497110820272,28.254820317461427L96.24913626301371,28.239384132872466L96.3564683868625,28.2203513900657L96.41013444878689,28.212163281239555L96.83946294418202,28.21339142770923L97.32245750150156,28.143602207138866L97.34929053246375,28.107733219633896L97.53712174919913,28.064327990537645L97.61762084208571,28.021832400225826L98.26161358517844,28.015303949047347L98.34211267806502,28.03057412843385L98.52994389480038,28.045931834602396L98.610442987687,28.07111308889351L98.63727601864917,28.078525106722214L98.69094208057356,28.080592334193053L98.71777511153576,28.074212357409344L99.38860088559068,28.031927990995023L99.63009816425044,27.991616971855937L100.27409090734314,27.974946958773295L100.4887551550407,27.97995631301684L100.86441758851146,27.98962697033233L100.89125061947367,27.98907000587127L101.347412145831,27.983036968276352L102.12557004373468,28.013976030596407L102.17923610565907,28.034722938838367L102.44756641528105,28.016891801772346L102.90372794163838,28.002928830612152L103.03789309644937,27.98401034238806L103.62821977761769,27.97795416626465L103.70871887050426,27.97656943556601L103.84288402531524,27.990766335271356L104.13804736589941,27.995310558147708L104.1917134278238,27.99303148495009L104.37954464455918,28.009906939982553L104.54054283033236,28.008618119134116L104.72837404706773,28.01036673545669L104.88937223284091,28.00535677364173L104.9698713257275,28.0010407140428L105.42603285208484,28.018468047300026L105.74802922363118,28.023569484994926L105.82852831651778,28.025320265101943L106.01635953325315,28.012805920511067L106.44568802864829,27.985444105053723L106.49935409057268,27.96930540831268L106.66035227634586,27.975774415880267L106.76768440019465,27.983171208489196L107.19701289558978,27.974459330860938L107.65317442194711,27.983004446669803L108.18983504119105,27.976002335583857L108.67282959851059,27.993341008866672L108.72649566043498,27.99976483721241L108.78016172235935,28.002423683929525L108.86066081524596,27.991917104774164L108.94115990813253,27.980454707398003L109.39732143448987,27.952670535584392L109.69248477507404,27.933527251758708L110.06814720854479,27.917450534001357L110.87313813741066,27.874140841518415L110.92680419933507,27.85856472330563L111.57079694242778,27.846931866662693L111.67812906627657,27.836938962904025L111.73179512820096,27.831270741276303L111.89279331397414,27.82764054386045L111.97329240686072,27.831974627220777L112.02695846878511,27.831283494930744L112.26845574744489,24.624911318692845L112.45628696418025,26.334383507204645L112.8051163666888,27.027349532202003L113.01978061438638,27.110864929292106L113.36861001689492,26.881031369878915L113.42227607881932,26.722562938824797L113.5027751717059,26.57612664580238L113.82477154325227,26.448754964959754L113.93210366710103,26.403915862298167L114.06626882191202,26.333168306034967L114.11993488383641,26.265358758355312L114.38826519345838,26.186740682407432L114.49559731730716,26.140235795447904L115.27375521521087,26.459537480471052L115.40792037002184,26.634600534505346L115.5957515867572,26.71516165869841L116.77640494909384,26.760004779854377L116.99106919679143,26.82435717762397L117.1789004135268,26.912811797112095L117.28623253737558,27.023277100094926L117.58139587795974,26.99955361345124L117.74239406373292,26.98888403762751L117.90339224950608,26.97524408626581L118.49371893067442,27.01888479607144L118.78888227125857,27.005624821051153L118.92304742606956,26.958033381435953L119.16454470472931,26.882806828249937L119.1913777356915,26.831246033362465L119.51337410723787,26.821794909593134L119.80853744782202,26.77045148382847L119.88903654070862,26.742069081013113L120.15736685033058,26.696119567916803L121.4185193055538,26.64713001102135L121.55268446036479,26.62066212782296L121.57951749132698,26.60021794382761L121.84784780094894,26.63739613082668L123.80665906118928,26.543902666501012L124.10182240177343,26.45763102075982L124.12865543273561,26.399989038051704L124.18232149466003,26.366282695443935L124.2359875565844,26.339426597172654L124.31648664947099,26.303536150986822L124.34331968043318,26.2762975656799L125.0141454544881,26.23311409907322L125.14831060929909,26.20635246547774L125.22880970218567,26.188406783035266L125.44347394988324,26.17045029579643L125.73863729046741,26.14432660337827L125.98013456912716,26.121545190310908L126.06063366201374,26.110627515741378L126.08746669297595,26.10570905545997L126.4899621574089,26.103347516420595L126.91929065280404,26.1081043568251L127.08028883857722,26.132138128311947L127.187620962426,26.150384923868533L127.42911824108577,26.164318897589755L127.48278430301016,26.18142408257638L127.72428158166991,26.204122060058598L127.8316137055187,26.20582455438452L127.99261189129189,26.199749770717872L128.12677704610286,26.204784197146292L128.82443585111997,26.208689158697553L129.06593312977972,26.193902806810723L129.46842859421267,26.165679985271286L129.65625981094806,26.128418178734936L129.81725799672122,26.11214751980728L129.92459012057003,26.10412098377635L129.95142315153223,26.10058239260501L130.46125073981395,26.09567531256855L130.54174983270053,26.081693619400372L130.7027480184737,26.06776950489493L131.5077389473396,26.064256882801367L131.66873713311278,26.066155978554796L132.0712325975457,26.05585404875332L132.1248986594701,26.045971907781826L132.58106018582745,26.03589948726121L132.60789321678965,26.031002357145063L133.11772080507137,26.023456955582066L133.14455383603357,26.02005420213198L133.22505292892015,26.01421876946021L133.46655020757993,26.015051699494194L133.76171354816407,26.030317179137132L134.432539322219,26.045158949809803L134.51303841510557,26.054451578289232L134.80820175568974,26.06054572970377L134.88870084857632,26.060604952327257L134.9423669105007,26.06530765484302L134.99603297242513,26.062228446380608L135.31802934397146,26.056739983660933L135.7741908703288,26.03953273803807L136.33768452053494,26.022270412038743L136.5255157372703,26.01873090416799L136.74017998496788,26.010799166984768L136.84751210881666,26.003785691022312L137.03534332555202,26.003846290956407L137.06217635651424,25.999996072803995L137.0890093874764,25.999847578053988L137.35733969709838,25.993633845469983L138.0549985021155,26.037679948115663L138.18916365692647,25.938820052335082L138.6184921523216,25.476877548819978L138.91365549290575,25.348324531433082L139.02098761675455,25.184689064604544L139.04782064771675,25.0162546099115L139.2624848954143,24.896334207629554L139.34298398830092,24.835856105576664L139.4234830811875,24.78031649012582L139.50398217407408,24.772217267848934L139.74547945273386,24.794050665623004L139.85281157658264,24.768175749616496L140.040642793318,24.64647407125846L140.0674758242802,24.62242285673006L140.2284740100534,24.61606005280343L140.38947219582656,24.58921767033515L140.44313825775095,24.589067954089906L140.52363735063753,24.60705726298003L141.46279343431442,24.63751300331758L141.78478980586075,24.70447784747315L142.29461739414248,24.7574300584385L142.34828345606687,24.77344218415844L142.85811104434862,24.822319182826085L142.911777106273,24.88635165118604L143.44843772551692,24.929864077959426L144.09243046860965,24.976261436896287L144.17292956149623,25.019122131705778L144.52175896400476,25.034276008355036L144.73642321170234,25.02697046826177L144.97792049036212,24.99187662670176L145.0584195832487,24.96493586782523L145.1120856451731,24.930632228413685L145.13891867613532,24.9146626269372L145.51458110960607,24.970142838701584L146.31957203847193,24.962267081562207L146.4805702242451,24.94092541411075L146.5610693171317,24.916749989188983L146.74890053386707,24.883980000576365L147.09772993637563,24.88182398494801L147.1513959983,24.87553022732466L147.1782290292622,24.878489980322648L147.36606024599757,24.87516196900979L147.8490548033171,24.85720399030919L148.46621451544763,24.908106795921753L148.6003796702586,24.951389031698522L149.13704028950255,24.992145929495624L149.19070635142694,25.00705830055975L149.3517045372001,24.997932043238073L150.04936334221722,24.963770940554365L150.1835284970282,24.940648655247077L150.53235789953672,24.966372527925916L150.63969002338555,24.974033695307497L151.12268458070506,24.949541105338508L151.3373488284026,24.952957442057134L151.95450854053317,24.90277862135838L152.03500763341972,24.873943200709228L152.06184066438195,24.861156274301923L152.16917278823072,24.857152349485396L152.19600581919292,24.85109813959901L152.89366462421003,24.83823499064915L153.51082433634053,24.81342052452442L153.8596537388491,24.769213290012406L154.2889822342442,24.755167485212436L154.5841455748284,24.74785903114302L155.01347407022354,24.741470624196612L155.3891365036943,24.72157269325052L155.41596953465645,24.708394814975534L155.9526301539004,24.70392705459915L156.5966228969931,24.70762213325505L156.65028895891749,24.70905313094265L157.02595139238824,24.681581195277552L157.53577898066996,24.641543842085078L157.56261201163215,24.614983145306592L157.61627807355654,24.598446272755762L157.75044322836754,24.57891687748564L158.7432653739688,24.576091425359824L158.9310965907042,24.57033489830353L159.03842871455296,24.567170291957346L159.19942690032616,24.570517316866557L159.3604250860993,24.573589973851405L159.4945902409103,24.565220383141856L159.57508933379688,24.551961484934836L159.62875539572127,24.544852240964975L160.03125086015422,24.54015000041306L160.272748138814,24.542328804328204L160.48741238651155,24.545530247639608L160.9435739128689,24.53240699947055L161.0777390676799,24.52529180668947L161.13140512960427,24.52688531025281L161.45340150115064,24.538775142671756L161.50706756307503,24.54541776118189L161.6680657488482,24.54300030402062L161.99006212039455,24.538765904390214L162.12422727520553,24.539331251895973L162.3925575848275,24.53017782087942L162.66088789444944,23.76218498941727L163.41221276139095,24.02263884036023L163.46587882331534,24.13519806451076L163.57321094716414,24.159702847226434L163.97570641159706,24.20636081274429L165.07586068104712,24.192978819449163L165.1563597739337,24.177061835026777L165.63935433125326,24.0994801513672L166.12234888857276,23.986509957917097L166.57851041493012,23.788620272577873L166.65900950781668,23.721765728768283L166.79317466262768,23.6616524094973L166.92733981743865,23.64131632540836L167.41033437475818,23.589091654276114L167.4371674057204,23.561943656951453L167.89332893207774,23.457906623775795L167.9738280249643,23.385789793296784L168.16165924169968,23.3604132386244L168.886151077679,23.455174191208204L168.93981713960338,23.513411808071073L169.12764835633877,23.53240958230729L169.61064291365827,23.57741732190631L169.66430897558266,23.609755093216634L169.85214019231805,23.601826159639067L170.0936374709778,23.60044226195563L170.36196778059977,23.60526165416969L170.388800811562,23.60677224418558L170.65713112118394,23.627832034139825L170.76446324503274,23.667952347435616L170.7912962759949,23.686909754947177L171.30112386427663,23.734355137894664L171.43528901908763,23.74541464631222L171.48895508101202,23.73917333202539L171.5962872048608,23.730100874579534L171.83778448352058,23.768195808859264L172.3207790408401,23.816228188326594L172.85743966008403,23.859218341822935L172.991604814895,23.901290209106847L173.23310209355478,23.933962589043983L173.39410027932797,23.97313537449863L173.42093331029014,23.99523070707321L173.52826543413894,24.00566577054444L173.60876452702553,24.026845373209216L174.19909120819386,24.010119947751267L174.68208576551336,24.00292320458138L174.78941788936214,23.993746936038402L174.92358304417314,23.98471486948999L175.1114142609085,23.96395128816319L175.35291153956828,23.93914015303372L175.40657760149267,23.922091835814612L175.67490791111464,23.92881203795562L175.83590609688784,23.910545463185503L175.88957215881223,23.899787489377037L176.0505703445854,23.88279199956401L176.10423640650978,23.868396982967237L176.15790246843414,23.85780576659852L176.4798988399805,23.844354756515067L176.5335649019049,23.83656254299833L176.5872309638293,23.83431086753172L177.20439067595984,23.84927584817771L177.4458879546196,23.85408986591909L177.5263870475062,23.856290483246198L177.95571554290134,23.83975552076729L178.22404585252326,23.838824984504466L178.25087888348548,23.831683498134318L178.30454494540987,23.83147077944729L178.46554313118307,23.811287968478624L178.62654131695624,23.81504119762203L178.8143725336916,23.81538805679155L178.9485376885026,23.807975859027042L179.13636890523796,23.801765387657028L179.29736709101113,23.797078377661098L179.6461964935197,23.802192170848706L180.3438552985368,23.808371892722374L180.96101501066732,23.821970848796678L181.0683471345161,23.82077950852655L181.09518016547827,23.816123539480365L181.28301138221363,23.806910553753887L181.739172908571,23.790116052732472L182.03433624915513,23.783827674044222L182.32949958973933,23.777652828896386L182.5173308064747,23.78011076828153L182.67832899224786,23.794244204164976L183.32232173534058,23.79643586964731L184.79813843826136,23.775594098487243L184.90547056211017,23.76359669276381L185.2542999646187,23.75734805914945L185.54946330520286,23.74252868177176L185.65679542905167,23.72767072124777L185.87145967674923,23.716004771662487L185.89829270771142,23.709791251417286L186.0056248315602,23.706625383013996L186.24712211021998,23.70153799453117L186.27395514118217,23.694200499898525L186.54228545080412,23.69375008535725L186.5691184817663,23.694249510107117L186.59595151272853,23.691563268569773L186.8106157604261,23.69851618805613L187.34727637967,23.70648717902684L187.99126912276273,24.13747782483504L188.15226730853593,24.197327236883787L188.1791003394981,24.05157210940033L188.25959943238468,23.7692169661699L188.52792974200665,23.074313409460334L188.76942702066643,22.800410450812365L188.84992611355298,22.50619037079363L189.11825642317496,22.328588422065966L189.25242157798596,22.24160206899881L190.218410692625,22.46195108864464L190.4599079712848,22.631934546135607L190.51357403320918,22.764340369569442L190.62090615705796,22.807161598799645L190.78190434283115,22.797629492851524L190.8624034357177,22.80939437211334L191.0502346524531,22.784247104634193L191.26489890015068,22.740227755385387L191.34539799303727,22.68821495012086L191.56006224073482,22.59402505029644L191.6673943645836,22.592834803061415L191.7747264884324,22.607230273001814L192.3918862005629,22.5825696245049L192.4992183244117,22.580988692725818L192.68704954114708,22.59874702016501L192.79438166499585,22.61522096644351L193.08954500558002,22.663769144285464L193.41154137712635,22.758904374783476L193.84086987252152,22.822541384309158L194.5116956465764,22.875129038956853L194.91419111100933,22.88220492351797L195.28985354448008,22.89673460195773L195.50451779217767,22.936850719843306L195.71918203987525,22.97557147997759L195.88018022564842,22.995452308303534L195.90701325661064,23.014187775673708L196.36317478296795,23.009309582546337L196.6046720616277,23.025826474588385L196.98033449509845,23.041566476982855L197.06083358798506,23.04299168172324L197.6511602691534,23.009238791596363L198.1073217955107,22.95967942003729L198.42931816705706,22.96033225265549L198.50981725994365,22.970822504907265L198.6708154457168,22.96665783088726L199.15381000303637,22.966118691563032L199.20747606496076,22.957274212976717L199.6904706222803,22.956612860058158L199.79780274612907,22.957477002722825L199.87830183901568,22.971909656312686L200.36129639633518,22.979455678333164L200.46862852018398,22.982695043743995L200.65645973691937,22.984769671241455L201.0052891394279,22.977509828779556L201.16628732520107,22.97815407154871L201.54194975867182,22.989741822670243L201.86394613021818,23.016454884534877L202.05177734695354,23.034333213198956L202.26644159465113,23.04652313586685L202.48110584234868,23.05729789076469L202.5079388733109,23.06545493361209L203.09826555447924,23.04361255876334L203.20559767832802,23.050747908632804L203.58126011179877,23.041267793522863L203.9032564833451,23.022975638975797L203.9300895143073,23.009887838200267L204.11792073104266,23.005790727596814L204.4935831645134,23.024916070586134L204.6545813502866,23.034704545148163L204.842412567022,23.02636323465243L204.89607862894638,23.019104014702442L205.13757590760613,23.0108073178484L205.19124196953052,23.005354394826092L205.21807500049275,23.00356194251353L205.72790258877447,22.989713166653992L205.80840168166102,22.989067883821477L206.0498989603208,22.963740018338846L206.39872836282936,22.979957985902363L206.7743907963001,22.989732435857483L207.04272110592206,22.998069886568086L207.47204960131722,22.97524947968943L207.76721294190136,22.958107351619383L208.2502074992209,22.957953379520937L208.51853780884286,22.967621110960966L208.54537083980503,22.971784146687543L208.70636902557825,22.96742586965479L208.89420024231362,22.957889300840932L209.0015323661624,22.95008214489093L209.0283653971246,22.94382575230898L209.05519842808678,22.938499817747903L209.64552510925512,22.94418006601613L209.67235814021728,22.947418995986194L209.7796902640661,22.956868035014818L209.83335632599048,22.958110471283785L210.07485360465026,22.957343879481613L210.18218572849904,22.956223424468217L210.96034362640273,22.965147505845515L210.9871766573649,22.967750781401023L211.2286739360247,22.969099858326476L211.30917302891126,22.97196722575777L211.49700424564665,22.97631872859071L211.76533455526862,22.972264585521113L211.79216758623082,22.965929145535128L211.819000617193,22.959485881815148L211.8458336481552,22.952977923854768L211.9799988029662,22.95204812811155L212.14099698873937,22.956741498059635L212.24832911258812,22.95403879745535L212.3019951745125,22.95456243720281L212.73132366990765,22.951306646211687L212.89232185568085,22.959227918535728L212.91915488664304,22.962708810160077L213.13381913434063,21.843508642224858L213.64364672262235,21.984561759581545L214.09980824897968,22.10777555991351L214.79746705399677,22.1170949376638L215.41462676612733,22.04987872882363L215.76345616863586,22.031432840112753L215.84395526152244,22.016784414692395L216.67577922135052,22.166313372090215L216.70261225231272,22.27251049276862L217.13194074770786,22.29365654227948L217.15877377867008,22.314139162920192L217.427104088292,22.292819660247346L217.5076031811786,22.308631426777474L217.561269243103,22.300017513349797L217.85643258368717,22.302573193424763L218.01743076946033,22.290290689666914L218.09792986234694,22.285028236782335L218.20526198619572,22.27322422048597L218.68825654351525,22.278019892131677L218.71508957447745,22.302202511937107L218.82242169832622,22.298360011326846L218.90292079121284,22.27269683154376L218.95658685313722,22.268576550613712L219.33224928660795,22.330385763877107L219.43958141045673,22.36869949418824L219.7347447510409,22.39487559981576L219.81524384392748,22.415756089106583L220.35190446317142,22.44913652929775L220.56656871086898,22.478258949502322L220.83489902049095,22.489345749389056L220.86173205145312,22.496139754926357L221.1568953920373,22.523552002957196L221.77405510416781,22.493840778008533L221.90822025897882,22.470304266766824L222.36438178533612,22.465915181335266L222.98154149746665,22.46996860955419L223.5450351476728,22.47806677334106L223.57186817863496,22.480229085113532L223.67920030248374,22.493186206515578L223.78653242633254,22.517909671829244L224.26952698365207,22.533682643482898L224.43052516942524,22.53822815838568L224.45735820038743,22.541015512775694L225.58434550079969,22.54026427276632L225.79900974849724,22.54727554039025L226.01367399619483,22.560991316515995L226.04050702715702,22.562381059754063L226.49666855351435,22.55941566641808L226.8454979560229,22.54526160937462L226.9528300798717,22.54131079451636L227.24799342045586,22.535370330761765L227.5699897920022,22.520255491713005L227.6504888848888,22.51550440188945L227.7041549468132,22.512801132277676L227.81148707066197,22.511473939075334L228.02615131835955,22.513232284048353L229.6361331760913,22.489210128320913L229.7971313618645,22.468290091751687L229.8239643928267,22.454073173287107L229.87763045475108,22.44399821658203L230.28012591918403,22.42581314463348L230.46795713591942,22.41580824186708L231.08511684804992,22.404390292499453L231.1924489718987,22.393139829116286L231.48761231248287,22.379800927796783L231.56811140536945,22.370618512746134L232.02427293172678,22.370671455705914L232.18527111749995,22.36527729641974L232.53410052000854,22.357722987242326L233.07076113925243,22.336645151370675L233.3122584179122,22.310733864434447L233.68792085138296,22.294750398102742L233.74158691330734,22.28406858287876L233.79525297523176,22.28088557192509L234.0367502538915,22.281923451000306L234.2782475325513,22.272786063746313L234.49291178024882,22.27287694073832L235.02957239949276,22.269421537542268L235.08323846141715,22.264973771075393L235.16373755430376,22.258767888418397L235.21740361622815,22.25404542091035L235.37840180200132,22.24958525462236L235.70039817354768,22.247667910969884L235.72723120450988,22.24537664125933L235.91506242124527,22.239984293069174L235.99556151413182,22.237278375836187L236.1297266689428,22.235234507357763L236.31755788567818,22.24162849953694L236.37122394760257,22.240677635005973L237.7397085266746,22.254332428874587L238.03487186725874,22.25335472762612L238.11537096014533,20.16021698315483L238.2495361149563,19.835950385327127L238.67886461035144,20.183420689089925L238.78619673420025,20.509166173342166L238.81302976516244,20.72850063499154L238.86669582708683,20.941484729234542L238.9471949199734,21.119871664049956L239.1350261367088,21.20003075745389L239.24235826055758,21.218125324018438L239.3496903844064,21.180307040035494L239.59118766306614,21.193293983333326L239.6180206940283,21.17166933828657L239.7521858488393,21.09795585089104L239.8595179726881,20.95756224354645L239.88635100365028,20.851076511179116L240.28884646808325,20.859419746150937L241.1206704279113,20.916670685895337L241.44266679945767,20.932259776464093L241.63049801619303,21.00211720805641L241.76466317100403,21.074141730032093L242.14032560447478,21.148105171461392L242.38182288313453,21.229869715946613L242.7843183475675,21.3156598810104L243.07948168815165,21.40072667907456L243.267312904887,21.502215851900306L243.29414593584923,21.553551211950236L243.37464502873578,21.57329860680253L243.53564321450898,21.59705241852305L244.55529839107243,21.62657262547339L244.635797483959,21.630578011383243L244.6894635458834,21.631600197616606L244.76996263877,21.62794482384505L244.7967956697322,21.618387844140756L244.90412779358098,21.632195720424903L245.76278478437126,21.54651477816942L246.138447217842,21.52481233372918L246.86293905382132,21.52478251862203L247.0239372395945,21.525872741014037L247.13126936344327,21.538301241007414L247.61426392076282,21.529333181534984L247.7484290755738,21.520715350316546L248.15092454000674,21.494425029789678L248.23142363289332,21.4764073211753L248.3119227257799,21.469248551003112L248.87541637598602,21.51404863096011L249.17057971657022,21.5681347257242L249.51940911907874,21.6123116210467L249.54624215004097,21.63183611019761L249.81457245966288,21.644566117633353L249.8950715525495,21.652242332834675L250.00240367639827,21.6476720257087L250.4585652027556,21.634978673034656L250.51223126468,21.631494880013673L250.5927303575666,21.624737435259398L251.15622400777272,21.653926312096747L251.2098900696971,21.66836094430078L251.3440552245081,21.67169405474941L251.63921856509225,21.697324534291777L251.85388281278983,21.7007210257283L251.9612149366386,21.701235949672427L252.41737646299595,21.683798744706216L252.5783746487691,21.67757235517532L252.8467049583911,21.680687161248393L252.90037102031548,21.68996892842767L253.06136920608864,21.69142214618316L253.19553436089961,21.697539865553374L253.32969951571062,21.690615204876313L253.4101986085972,21.684495284705147L253.81269407303014,21.682766621658878L253.83952710399234,21.686172787010666L254.56401893997165,21.698915493386327L254.77868318766923,21.68778872657959L255.04701349729118,21.69059438866129L255.12751259017776,21.704570726795303L255.34217683787534,21.703447514124356L255.90567048808146,21.689012261490213L256.0666686738546,21.68205967584978L256.3618320144388,21.68230965293658L256.388665045401,21.683005506901146L257.24732203619124,21.70158949675117L257.27415506715346,21.714797811937217L257.4351532529266,21.719436677419754L258.83047086296085,21.731537958561237L258.88413692488524,21.73680085141849L259.07196814162063,21.750204524096038L259.1524672345072,21.758110260774465L259.3402984512426,21.754529220166244L260.06479028722185,21.766463982783236L260.62828393742797,21.78720602903987L260.89661424704997,21.79548628614766L261.3259427424451,21.78702063600824L261.37960880436947,21.786575662803532L261.4332748662939,21.78835022412538L261.56744002110486,21.79128728717228L262.42609701189514,21.78852428166397L262.56026216670614,21.789901502840358L262.8554255072903,21.788571658081903L262.8822585382525,21.786922197595374L262.9090915692147,21.783874600027413L262.9895906621013,21.787935954104295L263.2579209717232,21.78175897404749" style="fill: none;" fill="none"></path></g></g></g></g><g opacity="0.2"><g><g><g><path stroke="rgb(255, 112, 67)" stroke-width="2px" d="M12.07391813460404,148.5252143990083L12.234916320377216,142.34125649134998L12.664244815772358,124.45153395030377L12.71791087769675,122.96454936143489L12.79840997058334,120.672716947249L13.093573311167498,113.95742505495726L13.496068775600442,106.26139311369525L13.57656786848703,105.52386442401962L14.113228487730956,97.659077479445L14.327892735428525,95.03189805944456L14.43522485927731,93.86562439834938L14.971885478521235,89.26829240712642L15.750043376424928,83.48760109540774L15.830542469311515,82.77840976335615L16.072039747971285,81.21871559518517L16.367203088555442,79.47509812464106L16.501368243366425,78.78046099047343L16.555034305290814,78.41689262392374L17.735687667627452,73.14823887320236L17.869852822438432,72.58435752621246L18.272348286871377,70.89390074751734L18.433346472644555,70.35178587556247L18.567511627455534,70.05827280656297L18.75534284419091,69.44466291096629L18.916341029964084,68.89850861793909L19.426168618245814,67.41353009291356L19.855497113640954,66.178995674373L19.909163175565347,66.03360380915444L20.12382742326292,65.5491462143301L20.445823794809275,64.55816432240445L20.68732107346904,64.07250581861265L20.90198532116661,63.49682008234037L21.33131381656175,62.53651595585603L21.438645940410538,62.33038266093146L22.887629612369132,59.797501888261635L22.91446264333133,59.76244353442772L23.370624169688664,58.879625329729635L23.451123262575255,58.760189474239425L23.531622355461845,58.5922259791099L23.934117819894787,57.906452371923606L24.014616912781378,57.79871173217323L24.041449943743576,57.759095382940124L24.309780253365535,57.31919424014681L24.819607841647265,56.714058940786344L25.383101491853385,55.925812317275096L25.839263018210723,55.45485130164177L25.973428173021702,55.26873770507234L26.697920009001002,54.39409386936862L26.966250318622965,54.09843826959763L27.127248504396142,53.86906465681432L27.315079721131518,53.68199579174807L27.341912752093712,53.65766373846435L27.744408216526658,53.27004307583361L28.22740277384619,52.78190087395005L28.281068835770583,52.72989332764369L28.603065207316938,52.49960538644198L28.79089642405231,52.36090040070127L28.817729455014504,52.32333105538997L28.8713955169389,52.300527431701184L28.951894609825487,52.22345091069928L29.00556067174988,52.175332671844316L29.327557043296235,51.8378363119119L29.595887352918197,51.61916170629316L30.05204887927553,51.24415058782067L30.749707684292638,50.67198569829389L30.85703980814142,50.55084400620219L30.964371931990208,50.50063782334701L31.179036179687778,50.3942209127994L31.420533458347542,50.26403146337336L31.769362860856095,50.01301419579029L31.87669498470488,49.934668532356866L32.11819226336465,49.843494977680194L32.22552438721343,49.781880159634234L32.27919044913783,49.733202406373984L32.33285651106222,49.68840031387235L32.52068772779759,49.55305241456339L32.65485288260857,49.45632465591227L32.70851894453297,49.416571839751036L32.84268409934394,49.275737969931676L32.89635016126834,49.26490249583898L33.00368228511712,49.229407447835094L33.11101440896591,49.12465543381053L33.27201259473908,48.976370469715846L33.29884562570128,48.96797775363651L33.9160053378318,48.51868768618855L34.02333746168058,48.448298044664504L34.90882748343306,47.97901557224704L35.09665870016843,47.88806036465536L35.25765688594161,47.81125677750969L35.63331931941236,47.60487784211451L35.74065144326114,47.5993782249113L35.92848265999652,47.50830019708432L35.98214872192091,47.508859711489606L36.14314690769409,47.40679609594901L36.19681296961848,47.38321461076997L36.57247540308923,47.20000775976948L36.599308434051416,47.17665826836823L36.86763874367338,31.55369234346598L36.94813783655997,29.597302461944306L37.189635115219744,32.63875453563721L37.29696723906853,33.12412645887997L37.404299362917314,32.89521683365225L37.64579664157707,33.37855539966602L37.67262967253927,33.55001244815541L37.83362785831245,33.585070801989325L37.86046088927465,33.922649042078625L37.99462604408563,34.086886990070475L38.47762060140516,34.30553430230359L38.55811969429175,34.652678874054075L38.79961697295152,34.87846340662784L39.6046079018174,35.40900588307816L39.95343730432596,35.443177201879294L40.114435490099126,35.408801182685984L40.19493458298572,35.43613550838833L40.24860064491011,35.34699531094065L40.3559327687589,35.507876172500765L40.51693095453208,35.75190633336412L40.65109610934306,35.58899211457503L40.91942641896502,35.366141620955815L41.0804246047382,35.16973841800619L41.21458975954918,35.19535326041421L41.48292006917114,35.163297178998945L42.60990736958339,35.10402959211663L42.71723949343217,35.09298941763176L42.74407252439436,35.07468920257092L42.77090555535656,35.04413425736496L43.2539001126761,34.951213926008364L43.60272951518464,34.9795581069788L43.9515589176932,35.00517294938684L44.6492177227103,35.08751709381416L44.97121409425666,34.882011546758946L45.26637743484081,34.73876221231188L45.3468765277274,34.74730504201216L45.427375620613994,34.7384346916844L45.96403623985792,34.62639534369825L46.12503442563109,34.68391615390063L46.31286564236647,34.682032910292584L46.47386382813965,34.65958410061691L46.90319232353478,34.7039767923342L46.98369141642137,34.689470357875095L47.27885475700553,34.77096840734809L47.35935384989212,34.7564756195818L47.439852942778714,34.73518677879514L47.46668597374091,34.76077432781755L48.75467145992633,34.4820406271334L48.83517055281292,34.45264565081645L48.9156696456995,34.417478123440056L48.942502676661704,34.3976767721699L49.53282935783002,34.27588003882322L49.85482572937637,34.19536455123269L49.90849179130077,34.176627642001876L50.12315603899834,34.16482325271954L50.230488162847124,34.10627894055626L50.90131393690203,33.97483399539153L50.92814696786423,33.95335410090552L51.22331030844838,33.95001066116659L51.43797455614595,33.89156187585298L51.54530667999474,33.885762031407914L51.598972741919134,33.8601881290783L52.457629732709414,33.8658787999809L52.5649618565582,33.855889420842544L53.2357876306131,33.78956649377645L53.66511612600825,33.860433769548926L53.691949156970445,33.86032459600643L54.09444462140338,33.81980756504773L54.20177674525217,33.78098272399772L54.63110524064731,33.77699788969663L54.6579382716095,33.76864611369571L55.00676767411806,33.78545883924005L55.248264952777824,33.732864485142784L55.38243010758881,33.709132886342786L55.51659526239978,33.70971969413372L55.59709435528637,33.69813365193635L55.73125951009735,33.710620375859286L55.81175860298394,33.72666888660614L56.133754974530305,33.69292061528219L56.34841922222787,33.68250818866666L56.53625043896324,33.60779254552123L56.72408165569862,33.59823986055286L56.96557893435838,33.60051885825246L57.072911058207175,33.59414585270928L57.12657712013156,33.59466442703612L57.18024318205595,33.59884031503658L57.260742274942544,33.58497527513964L57.44857349167791,33.5578729432151L57.690070770337684,33.546232314246495L57.95840107995965,33.50690254556244L58.06573320380843,33.46613987413314L58.119399265732824,33.47045222906173L58.19989835861941,33.468159584669316L58.334063513430394,33.44238098194753L58.414562606316984,33.443663771071854L58.44139563727918,33.43718159198618L58.978056256523104,33.40186395098885L59.21955353518287,33.43270547674385L59.38055172095605,33.428625115593086L59.568382937691425,33.42173353572305L59.59521596865362,33.4254454361679L59.836713247313384,33.38056146350938L60.02454446404876,33.3709814851554L60.58803811425488,33.32742124169963L60.69537023810366,33.32010661435243L60.96370054772563,33.306732855396724L61.071032671574415,33.29653877586618L61.31252995023418,33.307483423501374L61.66135935274273,33.26007481267265L61.74185844562932,33.26478292169277L61.9028566314025,33.26786707426827L61.95652269332689,30.994723805888345L62.868845746041565,31.305267947517173L63.02984393181474,31.194361275034428L63.48600545817207,31.042091476638635L63.75433576779404,31.318764526708197L63.83483486068063,31.14999587670277L63.88850092260502,31.183566741020165L64.37149547992456,30.96434626768894L64.7471579133953,30.941992984862967L64.80082397531969,30.891213640909683L65.28381853263922,30.81727585925451L65.39115065648801,30.908722347787425L65.60581490418558,30.73143816146733L66.06197643054291,30.796382772559426L66.2229746163161,30.8384964665771L66.8669673594088,31.040044472716843L67.21579676191736,31.093525861846892L67.29629585480394,31.09205201902321L67.32312888576614,31.13308762430875L67.37679494769053,31.090619116277956L67.43046100961493,30.967594180578192L67.53779313346371,31.021334856871658L67.6451252573125,30.929424380783153L67.83295647404786,30.944135515634436L68.23545193848081,30.864452476305445L69.14777499119549,31.11893600386276L69.25510711504427,31.05592922314996L69.44293833177964,30.91514994010185L69.68443561043941,30.946537333569346L70.00643198198577,30.948447870563026L70.27476229160773,30.91409914475533L70.32842835353212,30.89680878496258L70.3820944154565,30.879750418947655L70.5162595702675,30.986017215874323L70.59675866315408,30.942961900052605L70.81142291085166,30.90211734846644L70.91875503470044,30.94481785027504L71.45541565394436,30.8455654534537L71.58958080875534,30.824399432902357L71.61641383971754,30.840311476721105L71.67007990164194,30.84115757167543L71.75057899452852,30.842413067414142L71.85791111837732,30.806385798390572L71.88474414933951,30.79938504497806L72.07257536607489,30.721871829806148L72.15307445896147,30.716699733230413L72.28723961377246,30.749178862122882L72.79706720205418,30.67118801270256L73.06539751167614,30.638654297038865L73.22639569744932,30.623847635337885L73.38739388322249,30.648630029484398L73.49472600707128,30.593606564066604L73.81672237861764,30.61703793562473L73.84355540957984,30.605329073192074L74.51438118363474,30.596308609243366L74.7558784622945,30.568783229841664L75.69503454597138,30.543414027904245L75.72186757693358,30.565999304508022L75.77553363885797,30.551438283277665L76.15119607232872,30.55259825216668L76.95618700119459,30.526423895353346L77.17085124889216,30.523189629156928L77.35868246562754,30.50465742031828L77.41234852755194,30.535362479145192L77.46601458947633,30.580314685267755L77.60017974428732,30.57908648291468L78.2710055183422,30.573204758312727L78.2978385493044,30.578472381738138L78.56616885892637,30.562669511461905L78.61983492085076,30.550605835016135L78.75400007566175,30.505175994645143L79.1296625091325,30.494094880081846L79.29066069490568,30.446972849802158L79.53215797356545,30.441705226376747L79.93465343799838,30.445731000756265L80.04198556184717,30.432452768650233L80.09565162377156,30.429982717251278L80.44448102628012,30.41229660336698L80.76647739782646,30.342725763411647L81.08847376937283,30.373212475153547L81.35680407899478,30.377934230866483L81.51780226476795,30.371520285244877L81.9739637911253,30.344581713634078L82.13496197689848,30.327523347619135L82.16179500786068,30.339505143908024L82.53745744133143,30.289653775065965L82.69845562710461,30.29150972528838L82.83262078191558,30.285259539980515L83.4497804940461,30.319512738938514L83.63761171078146,30.308090457054913L83.77177686559244,30.302017678753586L84.120606268101,30.323019938991187L84.30843748483638,30.271749314096674L84.71093294926932,30.222034412182726L85.03292932081567,30.20361137688659L85.11342841370225,30.19988582974893L85.489090847173,30.155315731025098L85.5159238781352,30.140386249088802L85.5695899400596,30.14866979162566L86.42824693084988,30.037626652214808L86.45507996181207,30.038677447561327L86.48191299277428,30.04581466790197L86.66974420950966,30.040901858489676L86.9649075500938,30.049144460948085L87.36740301452674,28.199881118000263L87.50156816933773,29.771980129937315L88.65538850071216,26.826150432777766L88.89688577937193,26.84356361280581L89.1383830580317,27.32875812904201L89.29938124380487,27.35805757850929L89.40671336765367,27.396759599323985L89.862874894011,27.984891119440746L89.9165409559354,27.85711713464243L89.9433739868976,27.755845027284913L91.20452644212081,28.508405549092913L91.4191906898184,28.613935424607735L92.0363504019489,28.72863587769221L92.27784768060866,28.603263710828806L92.38517980445745,28.580992308159697L92.49251192830623,28.531946094193533L92.51934495926842,28.502769464961567L92.81450829985259,28.513318358505206L92.89500739273917,28.496109878869337L93.10967164043676,28.38619941496186L93.19017073332334,28.334724089675177L93.83416347641604,28.31078779048301L93.94149560026483,28.26538524349763L93.99516166218922,28.32987951372693L94.74648652913072,28.336689213440085L95.36364624126122,28.21797663266891L95.76614170569418,28.329265412550388L95.98080595339175,28.300893938194342L96.11497110820272,28.18330038623373L96.24913626301371,28.21622985598897L96.3564683868625,28.19180227585558L96.41013444878689,28.199881118000263L96.83946294418202,28.2152336474137L97.32245750150156,28.038918376283267L97.34929053246375,28.05392973837642L97.53712174919913,27.999220146893297L97.61762084208571,27.958089014758077L98.26161358517844,28.005511272279612L98.34211267806502,28.053479397513623L98.52994389480038,28.06896839385519L98.610442987687,28.10888497033015L98.63727601864917,28.089643133465305L98.69094208057356,28.08369317539929L98.71777511153576,28.0646423922338L99.38860088559068,27.968501441373586L99.63009816425044,27.931150443147278L100.27409090734314,27.949941939149326L100.4887551550407,27.987470344382192L100.86441758851146,28.00413295630559L100.89125061947367,27.988234559179677L101.347412145831,27.97398741188399L102.12557004373468,28.06038462407648L102.17923610565907,28.065843301201248L102.44756641528105,27.99014509617334L102.90372794163838,27.981984373871793L103.03789309644937,27.95563261005192L103.62821977761769,27.968869902079504L103.70871887050426,27.974492339518033L103.84288402531524,28.012061684829348L104.13804736589941,28.00212689246225L104.1917134278238,27.989612875153682L104.37954464455918,28.035220122531236L104.54054283033236,28.006684887861425L104.72837404706773,28.01298965994056L104.88937223284091,27.997841830919292L104.9698713257275,27.994566624644424L105.42603285208484,28.04460904718586L105.74802922363118,28.031221641537332L105.82852831651778,28.027946435262464L106.01635953325315,27.99403440362475L106.44568802864829,27.944401381867678L106.49935409057268,27.94509736320108L106.66035227634586,27.98547792723165L106.76768440019465,27.994266397402555L107.19701289558978,27.96139151441856L107.65317442194711,27.995822120383117L108.18983504119105,27.965499168954956L108.67282959851059,28.01934901879092L108.72649566043498,28.00940057973102L108.78016172235935,28.006411954005188L108.86066081524596,27.97615723604109L108.94115990813253,27.96326111133379L109.39732143448987,27.910994277864006L109.69248477507404,27.904812326020203L110.06814720854479,27.89333545736534L110.87313813741066,27.809176302794032L110.92680419933507,27.83520054598642L111.57079694242778,27.829482581698212L111.67812906627657,27.82194960726602L111.73179512820096,27.822768408834733L111.89279331397414,27.822195247736627L111.97329240686072,27.83847575226129L112.02695846878511,27.83024679649568L112.26845574744489,19.815353054335976L112.45628696418025,28.898591789972283L112.8051163666888,28.066798569698086L113.01978061438638,27.23613802492729L113.36861001689492,26.536281030759053L113.42227607881932,26.484860292243614L113.5027751717059,26.35647220626876L113.82477154325227,26.25769744369583L113.93210366710103,26.33665720830581L114.06626882191202,26.227046971640185L114.11993488383641,26.163644436835856L114.38826519345838,26.0688135684856L114.49559731730716,26.07047846500866L115.27375521521087,26.93849000800576L115.40792037002184,26.8971951155568L115.5957515867572,26.836003344988004L116.77640494909384,26.827269461588347L116.99106919679143,26.920885774278343L117.1789004135268,27.045493726344304L117.28623253737558,27.188975054569173L117.58139587795974,26.963968383485675L117.74239406373292,26.97287967389189L117.90339224950608,26.954784159223244L118.49371893067442,27.084345860779926L118.78888227125857,26.985734858520757L118.92304742606956,26.886646222013162L119.16454470472931,26.76996699847096L119.1913777356915,26.753904841031286L119.51337410723787,26.807618223939137L119.80853744782202,26.693436345181524L119.88903654070862,26.699495476790034L120.15736685033058,26.627195298272287L121.4185193055538,26.573645675678197L121.55268446036479,26.5809603030254L121.57951749132698,26.569551667834595L121.84784780094894,26.693163411325287L123.80665906118928,26.40366247001249L124.10182240177343,26.328223552148025L124.12865543273561,26.313526063989535L124.18232149466003,26.31572318153227L124.2359875565844,26.29914244976574L124.31648664947099,26.249700481708025L124.34331968043318,26.235439687719538L125.0141454544881,26.168338899163157L125.14831060929909,26.166210015084506L125.22880970218567,26.16148825937157L125.44347394988324,26.143515564938216L125.73863729046741,26.105141064751002L125.98013456912716,26.08737307070984L126.06063366201374,26.094251003887063L126.08746669297595,26.098331365037843L126.4899621574089,26.099805207861525L126.91929065280404,26.115239617431865L127.08028883857722,26.16818878554223L127.187620962426,26.177755117203418L127.42911824108577,26.185219858171564L127.48278430301016,26.207081860056306L127.72428158166991,26.23816902628193L127.8316137055187,26.208378295873448L127.99261189129189,26.1906375952179L128.12677704610286,26.2123358367889L128.82443585111997,26.214546601024434L129.06593312977972,26.17172327898054L129.46842859421267,26.123345752962162L129.65625981094806,26.072525468930447L129.81725799672122,26.087741531415777L129.92459012057003,26.09208117972998L129.95142315153223,26.095274505847968L130.46125073981395,26.088314692513865L130.54174983270053,26.060721079648097L130.7027480184737,26.046883333136773L131.5077389473396,26.058987949660974L131.66873713311278,26.069004622184956L132.0712325975457,26.0404011540511L132.1248986594701,26.031148696324603L132.58106018582745,26.02079085648032L132.60789321678965,26.023656661970843L133.11772080507137,26.01213885323755L133.14455383603357,26.0149500719568L133.22505292892015,26.005465620452497L133.46655020757993,26.01630109454519L133.76171354816407,26.05321539860152L134.432539322219,26.06742160581878L134.51303841510557,26.068390521008418L134.80820175568974,26.06968695682556L134.88870084857632,26.060693786262483L134.9423669105007,26.072361708616704L134.99603297242513,26.057609633686972L135.31802934397146,26.0485072895814L135.7741908703288,26.013721869603724L136.33768452053494,25.996376923039744L136.5255157372703,26.013421642361873L136.74017998496788,25.998901561209944L136.84751210881666,25.99326547707862L137.03534332555202,26.00393719085757L137.06217635651424,25.994220745575458L137.0890093874764,25.99962483592898L137.35733969709838,25.984313246593974L138.0549985021155,26.103749102084183L138.18916365692647,25.79053020866423L138.6184921523216,24.783963793547343L138.91365549290575,25.155495005352794L139.02098761675455,24.939235864361766L139.04782064771675,24.763602927871915L139.2624848954143,24.716453604206617L139.34298398830092,24.74513895249733L139.4234830811875,24.69700706694958L139.50398217407408,24.760068434433627L139.74547945273386,24.82680076228407L139.85281157658264,24.729363375606713L140.040642793318,24.463921553721413L140.0674758242802,24.586346034937456L140.2284740100534,24.606515846913506L140.38947219582656,24.5489540966327L140.44313825775095,24.588843379722043L140.52363735063753,24.63404122631523L141.46279343431442,24.68319661382389L141.78478980586075,24.80492511370651L142.29461739414248,24.836858374886482L142.34828345606687,24.797460372738364L142.85811104434862,24.895634680827573L142.911777106273,24.98240035372596L143.44843772551692,24.995132718119518L144.09243046860965,25.045857475301556L144.17292956149623,25.083413173920036L144.52175896400476,25.057006823328916L144.73642321170234,25.016012158121804L144.97792049036212,24.939235864361766L145.0584195832487,24.924524729510463L145.1120856451731,24.87917676929635L145.13891867613532,24.890708224722445L145.51458110960607,25.053363156348134L146.31957203847193,24.950453445853192L146.4805702242451,24.908912912933605L146.5610693171317,24.88048685180629L146.74890053386707,24.834825017657508L147.09772993637563,24.878589961505426L147.1513959983,24.866089590889693L147.1782290292622,24.88292960981963L147.36606024599757,24.870169952040456L147.8490548033171,24.830267022258315L148.46621451544763,24.984461004340567L148.6003796702586,25.016312385363676L149.13704028950255,25.053281276191253L149.19070635142694,25.029426857155965L149.3517045372001,24.984242657255578L150.04936334221722,24.912529286528756L150.1835284970282,24.90596522728622L150.53235789953672,25.00495833694412L150.63969002338555,24.985525446379903L151.12268458070506,24.912802220384993L151.3373488284026,24.95808194713506L151.95450854053317,24.827510390310287L152.03500763341972,24.83069006973548L152.06184066438195,24.841975884690967L152.16917278823072,24.8511464622606L152.19600581919292,24.8420168247694L152.89366462421003,24.818940267224395L153.51082433634053,24.776198825337346L153.8596537388491,24.702902438244347L154.2889822342442,24.734098778012466L154.5841455748284,24.736896350038926L155.01347407022354,24.731888013776935L155.3891365036943,24.691725796831353L155.41596953465645,24.688627997563042L155.9526301539004,24.69722541403457L156.5966228969931,24.71316475123893L156.65028895891749,24.711199627474024L157.02595139238824,24.640373291779976L157.53577898066996,24.58148781229639L157.56261201163215,24.575142100138827L157.61627807355654,24.573640963929513L157.75044322836754,24.549622784580485L158.7432653739688,24.571853247171163L158.9310965907042,24.561700107719055L159.03842871455296,24.562423382438087L159.19942690032616,24.575537854230376L159.3604250860993,24.578198959328706L159.4945902409103,24.552665997077547L159.57508933379688,24.532073137624312L159.62875539572127,24.534188375010167L160.03125086015422,24.5330966395852L160.272748138814,24.54559701020095L160.48741238651155,24.550332412606704L160.9435739128689,24.512722127216954L161.0777390676799,24.51461901751782L161.13140512960427,24.529275565597857L161.45340150115064,24.5566098913002L161.50706756307503,24.555381688947122L161.6680657488482,24.539374118278698L161.99006212039455,24.532414304944613L162.12422727520553,24.540179273154614L162.3925575848275,24.51644767435462L162.66088789444944,22.61019574222408L163.41221276139095,24.413319616774686L163.46587882331534,24.30403690073657L163.57321094716414,24.196460021299938L163.97570641159706,24.276347761021103L165.07586068104712,24.172905829506504L165.1563597739337,24.15318635839323L165.63935433125326,23.983107625877846L166.12234888857276,23.817054667741996L166.57851041493012,23.491785744569086L166.65900950781668,23.6214839130539L166.79317466262768,23.571482430590894L166.92733981743865,23.61081219927495L167.41033437475818,23.510754647577713L167.4371674057204,23.52122166096447L167.89332893207774,23.30185107401232L167.9738280249643,23.27761454757828L168.16165924169968,23.322348406615873L168.886151077679,23.597315620083926L168.93981713960338,23.600768233365354L169.12764835633877,23.56090624366164L169.61064291365827,23.64492893130484L169.66430897558266,23.65826175018212L169.85214019231805,23.58993275927266L170.0936374709778,23.598366415430444L170.36196778059977,23.612490742490824L170.388800811562,23.609038129209395L170.65713112118394,23.659421719071133L170.76446324503274,23.728132817379304L170.7912962759949,23.715345866214516L171.30112386427663,23.8055232123159L171.43528901908763,23.76200390893859L171.48895508101202,23.72981136059518L171.5962872048608,23.716492188410715L171.83778448352058,23.825338210278854L172.3207790408401,23.88827675752759L172.85743966008403,23.923703572067417L172.991604814895,23.96439801003266L173.23310209355478,23.982971158949734L173.39410027932797,24.031894552680587L173.42093331029014,24.028373705935095L173.52826543413894,24.021318365751316L173.60876452702553,24.058614777206394L174.19909120819386,23.985031809564344L174.68208576551336,23.992128089826554L174.78941788936214,23.97998253322392L174.92358304417314,23.971166769667384L175.1114142609085,23.93280591617299L175.35291153956828,23.901923450339538L175.40657760149267,23.896519359986016L175.67490791111464,23.938892341167133L175.83590609688784,23.883145601030286L175.88957215881223,23.88365052866433L176.0505703445854,23.857298764844458L176.10423640650978,23.846804458072068L176.15790246843414,23.84191894204539L176.4798988399805,23.82417824138984L176.5335649019049,23.82487422272326L176.5872309638293,23.83093335433175L177.20439067595984,23.87172331914669L177.4458879546196,23.861310892531158L177.5263870475062,23.859591409236852L177.95571554290134,23.81495307704896L178.22404585252326,23.837429180110238L178.25087888348548,23.820971268579036L178.30454494540987,23.831151701416758L178.46554313118307,23.781013752025626L178.62654131695624,23.820671041337164L178.8143725336916,23.815908345545797L178.9485376885026,23.79685756238031L179.13636890523796,23.792449680602044L179.29736709101113,23.79004786266715L179.6461964935197,23.809862860630105L180.3438552985368,23.81764147553292L180.96101501066732,23.842369282908184L181.0683471345161,23.81899249812129L181.09518016547827,23.809139585911073L181.28301138221363,23.793091075164213L181.739172908571,23.764924301200338L182.03433624915513,23.774395106011827L182.32949958973933,23.768390561174584L182.5173308064747,23.783797677359267L182.67832899224786,23.815444357990184L183.32232173534058,23.79972336787081L184.79813843826136,23.744331441747107L184.90547056211017,23.745600584178614L185.2542999646187,23.74797510872789L185.54946330520286,23.72029961570524L185.65679542905167,23.705383780461784L185.87145967674923,23.69850584728456L185.89829270771142,23.70047097104949L186.0056248315602,23.70187658040911L186.24712211021998,23.693906911806938L186.27395514118217,23.683194257949555L186.54228545080412,23.693074463545408L186.5691184817663,23.694998647231888L186.59595151272853,23.68753390626374L186.8106157604261,23.708945567285706L187.34727637967,23.718443665482827L187.99126912276273,24.783963793547343L188.15226730853593,24.287101354956935L188.1791003394981,23.83293941817511L188.25959943238468,23.345684251324318L188.52792974200665,22.031958074395988L188.76942702066643,22.389556012840416L188.84992611355298,22.064860250765598L189.11825642317496,22.06218549897445L189.25242157798596,22.11112253939812L190.218410692625,22.792474618113342L190.4599079712848,22.88690973237205L190.51357403320918,22.96294910472026L190.62090615705796,22.87139344264487L190.78190434283115,22.783331333929322L190.8624034357177,22.82704169100601L191.0502346524531,22.74652620341549L191.26489890015068,22.674198731512128L191.34539799303727,22.61019574222408L191.56006224073482,22.452740200559756L191.6673943645836,22.591049432208912L191.7747264884324,22.628823477912384L192.3918862005629,22.545578651759467L192.4992183244117,22.578617295057207L192.68704954114708,22.625384511323773L192.79438166499585,22.639931885861312L193.08954500558002,22.73659141104839L193.41154137712635,22.901607220530536L193.84086987252152,22.917996898597696L194.5116956465764,22.95401052092843L194.91419111100933,22.892818750359634L195.28985354448008,22.918529119617354L195.50451779217767,22.997024896671718L195.71918203987525,23.03365262017899L195.88018022564842,23.025273550792456L195.90701325661064,23.042290976728967L196.36317478296795,23.00199229285526L196.6046720616277,23.050601812651443L196.98033449509845,23.065176480574618L197.06083358798506,23.045129488833858L197.6511602691534,22.958609456406055L198.1073217955107,22.88534036269869L198.42931816705706,22.961311501582834L198.50981725994365,22.98655788328494L198.6708154457168,22.96041081985724L199.15381000303637,22.965309982576738L199.20747606496076,22.944007495097267L199.6904706222803,22.95562083068024L199.79780274612907,22.9587732167198L199.87830183901568,22.993558636697472L200.36129639633518,22.990774711363834L200.46862852018398,22.98755409186021L200.65645973691937,22.987881612487698L201.0052891394279,22.966620065086676L201.16628732520107,22.979120435702427L201.54194975867182,23.00712344935256L201.86394613021818,23.056524477331823L202.05177734695354,23.06115070619508L202.26644159465113,23.064808019868682L202.48110584234868,23.073460023111455L202.5079388733109,23.077690497883165L203.09826555447924,23.010848996490225L203.20559767832802,23.06145093343695L203.58126011179877,23.027047620858006L203.9032564833451,22.9955374071552L203.9300895143073,22.99025613703699L204.11792073104266,22.999645061691595L204.4935831645134,23.053604085070074L204.6545813502866,23.04938725699118L204.842412567022,23.013851268908855L204.89607862894638,23.00821518477751L205.13757590760613,22.99836227256729L205.19124196953052,22.997175010292644L205.21807500049275,23.000873264044674L205.72790258877447,22.968940002864702L205.80840168166102,22.988099959572686L206.0498989603208,22.925748220114876L206.39872836282936,23.00428493724767L206.7743907963001,23.004394110790166L207.04272110592206,23.010576062633987L207.47204960131722,22.94101886937145L207.76721294190136,22.932394159514292L208.2502074992209,22.95772242137328L208.51853780884286,22.982122708121057L208.54537083980503,22.978028700277477L208.70636902557825,22.960888454105653L208.89420024231362,22.943584447620104L209.0015323661624,22.93837141096594L209.0283653971246,22.9344411634361L209.05519842808678,22.930510915906243L209.64552510925512,22.95270043841849L209.67235814021728,22.95227739094131L209.7796902640661,22.97104159355776L209.83335632599048,22.95997412568726L210.07485360465026,22.95619399177835L210.18218572849904,22.954542741948107L210.96034362640273,22.97853362791152L210.9871766573649,22.97165569473428L211.2286739360247,22.971123473714623L211.30917302891126,22.976268276904722L211.49700424564665,22.982845982840093L211.76533455526862,22.966183370916696L211.79216758623082,22.956425985556155L211.819000617193,22.94982098623517L211.8458336481552,22.943215986914186L211.9799988029662,22.9506534344967L212.14099698873937,22.96378155298179L212.24832911258812,22.949984746548914L212.3019951745125,22.955347896824L212.73132366990765,22.94642295972499L212.89232185568085,22.971109827021806L212.91915488664304,22.967930147596636L213.13381913434063,20.164708390321994L213.64364672262235,22.196141435616585L214.09980824897968,22.29259626041149L214.79746705399677,22.1310740042892L215.41462676612733,21.949054415563356L215.76345616863586,22.003764007046478L215.84395526152244,21.994811776561832L216.67577922135052,22.390606808186934L216.70261225231272,22.43180617378622L217.13194074770786,22.325375616545788L217.15877377867008,22.344863093881255L217.427104088292,22.260840406238056L217.5076031811786,22.332349076572704L217.561269243103,22.287096643208272L217.85643258368717,22.30640671353718L218.01743076946033,22.271866934030125L218.09792986234694,22.27713455745554L218.20526198619572,22.2555181960414L218.68825654351525,22.285213399600202L218.71508957447745,22.33847644164526L218.82242169832622,22.29259626041149L218.90292079121284,22.23420206186913L218.95658685313722,22.262396129218622L219.33224928660795,22.4230995837722L219.43958141045673,22.426170089654875L219.7347447510409,22.434139758257064L219.81524384392748,22.447076823042796L220.35190446317142,22.49920718958445L220.56656871086898,22.521942579809174L220.83489902049095,22.505975949219177L220.86173205145312,22.506330763232295L221.1568953920373,22.564670375003406L221.77405510416781,22.44927394058551L221.90822025897882,22.434999499904208L222.36438178533612,22.459331553187923L222.98154149746665,22.476048751882566L223.5450351476728,22.490214019021376L223.57186817863496,22.48347255277228L223.67920030248374,22.51262188861861L223.78653242633254,22.554994869799728L224.26952698365207,22.55734210096339L224.43052516942524,22.54504643073981L224.45735820038743,22.545196544360735L225.58434550079969,22.539137412752225L225.79900974849724,22.557792441826166L226.01367399619483,22.581564980704588L226.04050702715702,22.564465674611213L226.49666855351435,22.554967576414093L226.8454979560229,22.524030523809394L226.9528300798717,22.53538457222895L227.24799342045586,22.526459635129935L227.5699897920022,22.497583233139842L227.6504888848888,22.508377767154087L227.7041549468132,22.508746227860023L227.81148707066197,22.50948314927185L228.02615131835955,22.515869801507847L229.6361331760913,22.453176894729737L229.7971313618645,22.43691003689789L229.8239643928267,22.432747795590245L229.87763045475108,22.42888578152447L230.28012591918403,22.398535536710675L230.46795713591942,22.400800887717455L231.08511684804992,22.387263368448004L231.1924489718987,22.376264134041566L231.48761231248287,22.359792575817547L231.56811140536945,22.356844890170162L232.02427293172678,22.37075087014553L232.18527111749995,22.357186057490466L232.53410052000854,22.346391523476203L233.07076113925243,22.305028397563177L233.3122584179122,22.271866934030125L233.68792085138296,22.270775198605158L233.74158691330734,22.268045860042783L233.79525297523176,22.27611105549463L234.0367502538915,22.2834802696131L234.2782475325513,22.259079982865323L234.49291178024882,22.273013256226324L235.02957239949276,22.264238432748236L235.08323846141715,22.25830212137504L235.16373755430376,22.24945906443289L235.21740361622815,22.246961719648304L235.37840180200132,22.242895005190338L235.70039817354768,22.2447918954912L235.72723120450988,22.241939736693517L235.91506242124527,22.2318957707839L235.99556151413182,22.233219499986678L236.1297266689428,22.23216870464016L236.31755788567818,22.251219487805646L236.37122394760257,22.239251338209552L237.7397085266746,22.27481461967751L238.03487186725874,22.25188817575341L238.11537096014533,17.020510366447894L238.2495361149563,19.34955048858558L238.67886461035144,20.70462614473412L238.78619673420025,20.99778439972052L238.81302976516244,21.057502327465613L238.86669582708683,21.26096087059904L238.9471949199734,21.387452066273028L239.1350261367088,21.320269397559787L239.24235826055758,21.2452671738653L239.3496903844064,21.123579614061107L239.59118766306614,21.212774398280036L239.6180206940283,21.139232370716414L239.7521858488393,20.987385619797806L239.8595179726881,20.74697183252962L239.88635100365028,20.69134791262809L240.28884646808325,20.871934598608682L241.1206704279113,21.002547095511886L241.44266679945767,20.95564341231719L241.63049801619303,21.106903355444896L241.76466317100403,21.182178512995637L242.14032560447478,21.259050333605355L242.38182288313453,21.352516532674425L242.7843183475675,21.44434512860607L243.07948168815165,21.528326876170834L243.267312904887,21.654449611138908L243.29414593584923,21.630554252025174L243.37464502873578,21.602919699080974L243.53564321450898,21.632683136103843L244.55529839107243,21.670852935898886L244.635797483959,21.63658609024807L244.6894635458834,21.63313347696664L244.76996263877,21.62246176318769L244.7967956697322,21.604052374584356L244.90412779358098,21.652907534851163L245.76278478437126,21.417993364786177L246.138447217842,21.492258667068832L246.86293905382132,21.52473779596128L247.0239372395945,21.527508074602125L247.13126936344327,21.556943990997507L247.61426392076282,21.51588109232633L247.7484290755738,21.507788603488848L248.15092454000674,21.454989548999386L248.23142363289332,21.449380758253675L248.3119227257799,21.458510395744877L248.87541637598602,21.58124875089559L249.17057971657022,21.64926386787036L249.51940911907874,21.67857696403043L249.54624215004097,21.66112284392396L249.81457245966288,21.663661128786973L249.8950715525495,21.663756655636654L250.00240367639827,21.640816565019758L250.4585652027556,21.61593864402357L250.51223126468,21.626269190482216L250.5927303575666,21.614601268127995L251.15622400777272,21.6977096273528L251.2098900696971,21.690012892606866L251.3440552245081,21.676693720422385L251.63921856509225,21.735770253605345L251.85388281278983,21.7058157628831L251.9612149366386,21.702008335588573L252.41737646299595,21.657642937256895L252.5783746487691,21.668232770878987L252.8467049583911,21.685359370357975L252.90037102031548,21.703891579196622L253.06136920608864,21.693601972816403L253.19553436089961,21.706716444608695L253.32969951571062,21.680228213860694L253.4101986085972,21.67531540444838L253.81269407303014,21.680173627089445L253.83952710399234,21.691282035038377L254.56401893997165,21.718029552949798L254.77868318766923,21.671098576369488L255.04701349729118,21.694802881783847L255.12751259017776,21.725535233996375L255.34217683787534,21.70176269511795L255.90567048808146,21.667359382539008L256.0666686738546,21.671630797389167L256.3618320144388,21.682684618566828L256.388665045401,21.684049287848037L257.24732203619124,21.729465481526212L257.27415506715346,21.734610284716332L257.4351532529266,21.726394975643515L258.83047086296085,21.74968988027353L258.88413692488524,21.744695190704356L259.07196814162063,21.7703100331124L259.1524672345072,21.769968865792098L259.3402984512426,21.74915765925387L260.06479028722185,21.78436612670871L260.62828393742797,21.81831909842484L260.89661424704997,21.80790667180933L261.3259427424451,21.774322160799098L261.37960880436947,21.78590820299646L261.4332748662939,21.791012066108127L261.56744002110486,21.79569288174263L262.42609701189514,21.784379773401508L262.56026216670614,21.79196733460497L262.8554255072903,21.786576890944243L262.8822585382525,21.784448006865574L262.9090915692147,21.779303203675475L262.9895906621013,21.794027985219575L263.2579209717232,21.7724935039623" style="fill: none;" fill="none"></path></g></g></g></g></g></g><g transform="translate(41, 177)" clip-path="url(#clip_1)"><clipPath id="clip_1"><rect width="288" height="23"></rect></clipPath><g><g><line x1="11.590923577284507" y1="0" x2="11.590923577284507" y2="5" style="visibility: inherit;" fill="rgb(0, 0, 0)" stroke="rgb(204, 204, 204)" stroke-width="1px"></line><line x1="38.42395453948077" y1="0" x2="38.42395453948077" y2="5" style="visibility: inherit;" fill="rgb(0, 0, 0)" stroke="rgb(204, 204, 204)" stroke-width="1px"></line><line x1="65.25698550167702" y1="0" x2="65.25698550167702" y2="5" style="visibility: inherit;" fill="rgb(0, 0, 0)" stroke="rgb(204, 204, 204)" stroke-width="1px"></line><line x1="92.09001646387328" y1="0" x2="92.09001646387328" y2="5" style="visibility: inherit;" fill="rgb(0, 0, 0)" stroke="rgb(204, 204, 204)" stroke-width="1px"></line><line x1="118.92304742606956" y1="0" x2="118.92304742606956" y2="5" style="visibility: inherit;" fill="rgb(0, 0, 0)" stroke="rgb(204, 204, 204)" stroke-width="1px"></line><line x1="145.75607838826582" y1="0" x2="145.75607838826582" y2="5" style="visibility: inherit;" fill="rgb(0, 0, 0)" stroke="rgb(204, 204, 204)" stroke-width="1px"></line><line x1="172.58910935046208" y1="0" x2="172.58910935046208" y2="5" style="visibility: inherit;" fill="rgb(0, 0, 0)" stroke="rgb(204, 204, 204)" stroke-width="1px"></line><line x1="199.4221403126583" y1="0" x2="199.4221403126583" y2="5" style="visibility: inherit;" fill="rgb(0, 0, 0)" stroke="rgb(204, 204, 204)" stroke-width="1px"></line><line x1="226.25517127485458" y1="0" x2="226.25517127485458" y2="5" style="visibility: inherit;" fill="rgb(0, 0, 0)" stroke="rgb(204, 204, 204)" stroke-width="1px"></line><line x1="253.08820223705087" y1="0" x2="253.08820223705087" y2="5" style="visibility: inherit;" fill="rgb(0, 0, 0)" stroke="rgb(204, 204, 204)" stroke-width="1px"></line><line x1="279.9212331992471" y1="0" x2="279.9212331992471" y2="5" style="visibility: inherit;" fill="rgb(0, 0, 0)" stroke="rgb(204, 204, 204)" stroke-width="1px"></line></g><g transform="translate(0, 8)"><text x="11.590923577284507" y="0" dx="0em" dy="0.95em" style="text-anchor: middle; visibility: inherit; font-family: Roboto, sans-serif; font-size: 12px; font-weight: 200;" fill="rgb(33, 33, 33)" stroke="none" stroke-width="1px">0</text><text x="38.42395453948077" y="0" dx="0em" dy="0.95em" style="text-anchor: middle; visibility: inherit; font-family: Roboto, sans-serif; font-size: 12px; font-weight: 200;" fill="rgb(33, 33, 33)" stroke="none" stroke-width="1px">1k</text><text x="65.25698550167702" y="0" dx="0em" dy="0.95em" style="text-anchor: middle; visibility: inherit; font-family: Roboto, sans-serif; font-size: 12px; font-weight: 200;" fill="rgb(33, 33, 33)" stroke="none" stroke-width="1px">2k</text><text x="92.09001646387328" y="0" dx="0em" dy="0.95em" style="text-anchor: middle; visibility: inherit; font-family: Roboto, sans-serif; font-size: 12px; font-weight: 200;" fill="rgb(33, 33, 33)" stroke="none" stroke-width="1px">3k</text><text x="118.92304742606956" y="0" dx="0em" dy="0.95em" style="text-anchor: middle; visibility: inherit; font-family: Roboto, sans-serif; font-size: 12px; font-weight: 200;" fill="rgb(33, 33, 33)" stroke="none" stroke-width="1px">4k</text><text x="145.75607838826582" y="0" dx="0em" dy="0.95em" style="text-anchor: middle; visibility: inherit; font-family: Roboto, sans-serif; font-size: 12px; font-weight: 200;" fill="rgb(33, 33, 33)" stroke="none" stroke-width="1px">5k</text><text x="172.58910935046208" y="0" dx="0em" dy="0.95em" style="text-anchor: middle; visibility: inherit; font-family: Roboto, sans-serif; font-size: 12px; font-weight: 200;" fill="rgb(33, 33, 33)" stroke="none" stroke-width="1px">6k</text><text x="199.4221403126583" y="0" dx="0em" dy="0.95em" style="text-anchor: middle; visibility: inherit; font-family: Roboto, sans-serif; font-size: 12px; font-weight: 200;" fill="rgb(33, 33, 33)" stroke="none" stroke-width="1px">7k</text><text x="226.25517127485458" y="0" dx="0em" dy="0.95em" style="text-anchor: middle; visibility: inherit; font-family: Roboto, sans-serif; font-size: 12px; font-weight: 200;" fill="rgb(33, 33, 33)" stroke="none" stroke-width="1px">8k</text><text x="253.08820223705087" y="0" dx="0em" dy="0.95em" style="text-anchor: middle; visibility: inherit; font-family: Roboto, sans-serif; font-size: 12px; font-weight: 200;" fill="rgb(33, 33, 33)" stroke="none" stroke-width="1px">9k</text><text x="279.9212331992471" y="0" dx="0em" dy="0.95em" style="text-anchor: middle; visibility: hidden; font-family: Roboto, sans-serif; font-size: 12px; font-weight: 200;" fill="rgb(33, 33, 33)" stroke="none" stroke-width="1px">10k</text></g><line x1="0" y1="0" x2="288.828125" y2="0" fill="rgb(0, 0, 0)" stroke="rgb(204, 204, 204)" stroke-width="1px"></line></g></g></g></g></svg>