<svg viewBox="0 0 330 200" xmlns="http://www.w3.org/2000/svg"><g><g><g><g><g><line x1="41.171875" y1="168.91330169442875" x2="36.171875" y2="168.91330169442875" style="visibility: inherit;" fill="rgb(0, 0, 0)" stroke="rgb(204, 204, 204)" stroke-width="1px"></line><line x1="41.171875" y1="153.13228253535001" x2="36.171875" y2="153.13228253535001" style="visibility: inherit;" fill="rgb(0, 0, 0)" stroke="rgb(204, 204, 204)" stroke-width="1px"></line><line x1="41.171875" y1="137.35126337627125" x2="36.171875" y2="137.35126337627125" style="visibility: inherit;" fill="rgb(0, 0, 0)" stroke="rgb(204, 204, 204)" stroke-width="1px"></line><line x1="41.171875" y1="121.57024421719251" x2="36.171875" y2="121.57024421719251" style="visibility: inherit;" fill="rgb(0, 0, 0)" stroke="rgb(204, 204, 204)" stroke-width="1px"></line><line x1="41.171875" y1="105.78922505811376" x2="36.171875" y2="105.78922505811376" style="visibility: inherit;" fill="rgb(0, 0, 0)" stroke="rgb(204, 204, 204)" stroke-width="1px"></line><line x1="41.171875" y1="90.008205899035" x2="36.171875" y2="90.008205899035" style="visibility: inherit;" fill="rgb(0, 0, 0)" stroke="rgb(204, 204, 204)" stroke-width="1px"></line><line x1="41.171875" y1="74.22718673995625" x2="36.171875" y2="74.22718673995625" style="visibility: inherit;" fill="rgb(0, 0, 0)" stroke="rgb(204, 204, 204)" stroke-width="1px"></line><line x1="41.171875" y1="58.44616758087751" x2="36.171875" y2="58.44616758087751" style="visibility: inherit;" fill="rgb(0, 0, 0)" stroke="rgb(204, 204, 204)" stroke-width="1px"></line><line x1="41.171875" y1="42.665148421798754" x2="36.171875" y2="42.665148421798754" style="visibility: inherit;" fill="rgb(0, 0, 0)" stroke="rgb(204, 204, 204)" stroke-width="1px"></line><line x1="41.171875" y1="26.884129262720005" x2="36.171875" y2="26.884129262720005" style="visibility: inherit;" fill="rgb(0, 0, 0)" stroke="rgb(204, 204, 204)" stroke-width="1px"></line><line x1="41.171875" y1="11.103110103641237" x2="36.171875" y2="11.103110103641237" style="visibility: inherit;" fill="rgb(0, 0, 0)" stroke="rgb(204, 204, 204)" stroke-width="1px"></line></g><g transform="translate(31.171875, 0)"><text x="0" y="168.91330169442875" dx="0em" dy="0.3em" style="text-anchor: end; visibility: inherit; font-family: Roboto, sans-serif; font-size: 12px; font-weight: 200;" fill="rgb(33, 33, 33)" stroke="none" stroke-width="1px">0.2</text><text x="0" y="153.13228253535001" dx="0em" dy="0.3em" style="text-anchor: end; visibility: hidden; font-family: Roboto, sans-serif; font-size: 12px; font-weight: 200;" fill="rgb(33, 33, 33)" stroke="none" stroke-width="1px">0.4</text><text x="0" y="137.35126337627125" dx="0em" dy="0.3em" style="text-anchor: end; visibility: inherit; font-family: Roboto, sans-serif; font-size: 12px; font-weight: 200;" fill="rgb(33, 33, 33)" stroke="none" stroke-width="1px">0.6</text><text x="0" y="121.57024421719251" dx="0em" dy="0.3em" style="text-anchor: end; visibility: hidden; font-family: Roboto, sans-serif; font-size: 12px; font-weight: 200;" fill="rgb(33, 33, 33)" stroke="none" stroke-width="1px">0.8</text><text x="0" y="105.78922505811376" dx="0em" dy="0.3em" style="text-anchor: end; visibility: inherit; font-family: Roboto, sans-serif; font-size: 12px; font-weight: 200;" fill="rgb(33, 33, 33)" stroke="none" stroke-width="1px">1</text><text x="0" y="90.008205899035" dx="0em" dy="0.3em" style="text-anchor: end; visibility: hidden; font-family: Roboto, sans-serif; font-size: 12px; font-weight: 200;" fill="rgb(33, 33, 33)" stroke="none" stroke-width="1px">1.2</text><text x="0" y="74.22718673995625" dx="0em" dy="0.3em" style="text-anchor: end; visibility: inherit; font-family: Roboto, sans-serif; font-size: 12px; font-weight: 200;" fill="rgb(33, 33, 33)" stroke="none" stroke-width="1px">1.4</text><text x="0" y="58.44616758087751" dx="0em" dy="0.3em" style="text-anchor: end; visibility: hidden; font-family: Roboto, sans-serif; font-size: 12px; font-weight: 200;" fill="rgb(33, 33, 33)" stroke="none" stroke-width="1px">1.6</text><text x="0" y="42.665148421798754" dx="0em" dy="0.3em" style="text-anchor: end; visibility: inherit; font-family: Roboto, sans-serif; font-size: 12px; font-weight: 200;" fill="rgb(33, 33, 33)" stroke="none" stroke-width="1px">1.8</text><text x="0" y="26.884129262720005" dx="0em" dy="0.3em" style="text-anchor: end; visibility: hidden; font-family: Roboto, sans-serif; font-size: 12px; font-weight: 200;" fill="rgb(33, 33, 33)" stroke="none" stroke-width="1px">2</text><text x="0" y="11.103110103641237" dx="0em" dy="0.3em" style="text-anchor: end; visibility: inherit; font-family: Roboto, sans-serif; font-size: 12px; font-weight: 200;" fill="rgb(33, 33, 33)" stroke="none" stroke-width="1px">2.2</text></g><line x1="41.171875" y1="0" x2="41.171875" y2="177" fill="rgb(0, 0, 0)" stroke="rgb(204, 204, 204)" stroke-width="1px"></line></g></g><g transform="translate(41, 0)" clip-path="url(#clip_0)"><clipPath id="clip_0"><rect width="288" height="177"></rect></clipPath><g><g><g><line x1="11.725538686488072" y1="0" x2="11.725538686488072" y2="177" fill="rgb(0, 0, 0)" stroke="rgb(66, 66, 66)" stroke-width="1px" opacity="0.25"></line><line x1="34.749080823532935" y1="0" x2="34.749080823532935" y2="177" fill="rgb(0, 0, 0)" stroke="rgb(66, 66, 66)" stroke-width="1px" opacity="0.25"></line><line x1="57.77262296057779" y1="0" x2="57.77262296057779" y2="177" fill="rgb(0, 0, 0)" stroke="rgb(66, 66, 66)" stroke-width="1px" opacity="0.25"></line><line x1="80.79616509762265" y1="0" x2="80.79616509762265" y2="177" fill="rgb(0, 0, 0)" stroke="rgb(66, 66, 66)" stroke-width="1px" opacity="0.25"></line><line x1="103.81970723466752" y1="0" x2="103.81970723466752" y2="177" fill="rgb(0, 0, 0)" stroke="rgb(66, 66, 66)" stroke-width="1px" opacity="0.25"></line><line x1="126.84324937171237" y1="0" x2="126.84324937171237" y2="177" fill="rgb(0, 0, 0)" stroke="rgb(66, 66, 66)" stroke-width="1px" opacity="0.25"></line><line x1="149.86679150875725" y1="0" x2="149.86679150875725" y2="177" fill="rgb(0, 0, 0)" stroke="rgb(66, 66, 66)" stroke-width="1px" opacity="0.25"></line><line x1="172.8903336458021" y1="0" x2="172.8903336458021" y2="177" fill="rgb(0, 0, 0)" stroke="rgb(66, 66, 66)" stroke-width="1px" opacity="0.25"></line><line x1="195.913875782847" y1="0" x2="195.913875782847" y2="177" fill="rgb(0, 0, 0)" stroke="rgb(66, 66, 66)" stroke-width="1px" opacity="0.25"></line><line x1="218.93741791989183" y1="0" x2="218.93741791989183" y2="177" fill="rgb(0, 0, 0)" stroke="rgb(66, 66, 66)" stroke-width="1px" opacity="0.25"></line><line x1="241.96096005693673" y1="0" x2="241.96096005693673" y2="177" fill="rgb(0, 0, 0)" stroke="rgb(66, 66, 66)" stroke-width="1px" opacity="0.25"></line><line x1="264.98450219398154" y1="0" x2="264.98450219398154" y2="177" fill="rgb(0, 0, 0)" stroke="rgb(66, 66, 66)" stroke-width="1px" opacity="0.25"></line><line x1="288.00804433102644" y1="0" x2="288.00804433102644" y2="177" fill="rgb(0, 0, 0)" stroke="rgb(66, 66, 66)" stroke-width="1px" opacity="0.25"></line></g><g><line x1="0" y1="168.91330169442875" x2="288.828125" y2="168.91330169442875" fill="rgb(0, 0, 0)" stroke="rgb(66, 66, 66)" stroke-width="1px" opacity="0.25"></line><line x1="0" y1="153.13228253535001" x2="288.828125" y2="153.13228253535001" fill="rgb(0, 0, 0)" stroke="rgb(66, 66, 66)" stroke-width="1px" opacity="0.25"></line><line x1="0" y1="137.35126337627125" x2="288.828125" y2="137.35126337627125" fill="rgb(0, 0, 0)" stroke="rgb(66, 66, 66)" stroke-width="1px" opacity="0.25"></line><line x1="0" y1="121.57024421719251" x2="288.828125" y2="121.57024421719251" fill="rgb(0, 0, 0)" stroke="rgb(66, 66, 66)" stroke-width="1px" opacity="0.25"></line><line x1="0" y1="105.78922505811376" x2="288.828125" y2="105.78922505811376" fill="rgb(0, 0, 0)" stroke="rgb(66, 66, 66)" stroke-width="1px" opacity="0.25"></line><line x1="0" y1="90.008205899035" x2="288.828125" y2="90.008205899035" fill="rgb(0, 0, 0)" stroke="rgb(66, 66, 66)" stroke-width="1px" opacity="0.25"></line><line x1="0" y1="74.22718673995625" x2="288.828125" y2="74.22718673995625" fill="rgb(0, 0, 0)" stroke="rgb(66, 66, 66)" stroke-width="1px" opacity="0.25"></line><line x1="0" y1="58.44616758087751" x2="288.828125" y2="58.44616758087751" fill="rgb(0, 0, 0)" stroke="rgb(66, 66, 66)" stroke-width="1px" opacity="0.25"></line><line x1="0" y1="42.665148421798754" x2="288.828125" y2="42.665148421798754" fill="rgb(0, 0, 0)" stroke="rgb(66, 66, 66)" stroke-width="1px" opacity="0.25"></line><line x1="0" y1="26.884129262720005" x2="288.828125" y2="26.884129262720005" fill="rgb(0, 0, 0)" stroke="rgb(66, 66, 66)" stroke-width="1px" opacity="0.25"></line><line x1="0" y1="11.103110103641237" x2="288.828125" y2="11.103110103641237" fill="rgb(0, 0, 0)" stroke="rgb(66, 66, 66)" stroke-width="1px" opacity="0.25"></line></g></g></g><g><g><line x1="0" y1="184.69432085350752" x2="288.828125" y2="184.69432085350752" fill="rgb(0, 0, 0)" stroke="rgb(153, 153, 153)" stroke-width="1.5px"></line></g></g><g><g><line x1="34.749080823532935" y1="0" x2="34.749080823532935" y2="177" fill="rgb(0, 0, 0)" stroke="rgb(153, 153, 153)" stroke-width="1.5px"></line></g></g><g><g><g><g><g><path stroke="rgb(255, 112, 67)" stroke-width="2px" d="M35.16350458199974,13.424034790418878L35.30164583482201,15.711486501239389L35.67002250901473,23.185880400430438L35.716069593288815,24.979613568609928L35.785140219699954,30.091043601134988L36.038399183207446,36.0182360860156L36.38375231526312,51.11029779515603L36.452822941674256,57.04755664932606L36.913293784415146,68.05239007700675L37.09748212151151,81.95433075510876L37.189576290059684,88.91959355428841L37.65004713280059,88.85219174942668L38.31772985477489,99.72897369648562L38.38680048118602,106.67789067941874L38.59401236041943,111.46016644964979L38.84727132392691,116.63400252085316L38.962389034612144,121.46296218449162L39.00843611888623,123.95068355957915L40.0214719729162,131.93388742999468L40.136589683601436,130.7008515253958L40.481942815657106,131.84425933608037L40.62008406847937,131.42219992620872L40.73520177916459,131.1174702534513L40.89636657412391,135.11249242567945L41.034507826946175,133.06497598985598L41.47195512755003,134.9019585527533L41.84033180174275,140.57741938624812L41.886378886016836,141.26306434724754L42.0705672231132,141.07829399124324L42.34684972875774,144.98735689917632L42.55406160799114,140.68659020000516L42.7382499450875,138.8668605631895L43.10662661928021,133.77836477986494L43.19872078782839,139.54269259433667L44.44199206322882,146.73905033403918L44.46501560536586,145.6385677178954L44.85641582169563,145.79403921008154L44.92548644810676,139.2748328461569L44.99455707451789,144.97707396731465L45.33991020657357,148.1881199993649L45.4089808329847,141.23575525731778L45.43200437512174,140.0362054187495L45.662239796492194,147.46027015738295L46.09968709709605,149.85149970138409L46.58318148197399,147.22909188304283L46.97458169830375,145.08649748874967L47.08969940898898,149.63134612792518L47.71133504668919,149.4925590224933L47.941570468059645,152.77371308236067L48.07971172088191,155.63632943757457L48.240876515841215,153.1508660498932L48.26390005797826,151.20543782399486L48.60925319003394,146.45109615952043L49.02367694850075,146.60169228269677L49.069724032774836,146.6102346514614L49.346006538419374,144.05012950443245L49.507171333378686,144.9355784022105L49.53019487551574,150.92485510649402L49.576241959789826,149.9337700412095L49.64531258620096,153.4883984750268L49.691359670475045,150.51837244924192L49.96764217611958,150.50695084229906L50.197877597490034,154.75792513467223L50.5892778138198,153.86762680564445L51.18788990938297,154.96507055390506L51.27998407793114,156.1960887362117L51.37207824647932,149.19189876704743L51.55626658357568,134.76505459104743L51.76347846280909,134.91956285819532L52.06278451059067,138.67931106464854L52.15487867913885,145.24146408319513L52.36209055837225,147.98217742704148L52.45418472692043,142.89670775610327L52.50023181119452,149.24173691204186L52.54627889546861,149.82371510031876L52.70744369042792,154.32902921473234L52.82256140111315,148.26112690818056L52.868608485387234,141.27554107082346L52.98372619607247,146.50694047186593L53.029773280346554,145.38703480884044L53.12186744889473,146.40873407098695L53.213961617442905,150.67721969835665L53.352102870265185,153.26365895754395L53.375126412402224,149.7717773224583L53.90466788155426,153.5976138851124L53.99676205010244,145.16201421605828L54.756538940624914,146.17389820119845L54.91770373558423,149.73637274592437L55.0558449884065,153.1665430564761L55.37817457832513,156.09896471753962L55.47026874687331,148.0193183360156L55.63143354183262,146.0300639590217L55.67748062610671,147.15014431753983L55.81562187892898,142.8687094331234L55.86166896320307,146.12184555749522L56.1839985531217,149.73451396418207L56.20702209525874,151.59633383256232L56.437257516629195,155.0962527768975L56.50632814304033,155.3167999178701L56.71354002227373,156.75959342399204L56.80563419082191,154.8424552094369L56.897728359370085,154.89739036143354L57.1049402386035,153.46155132290298L57.12796378074054,150.17152545771748L57.2661050335628,151.21039476437255L57.28912857569985,150.33959091080052L57.404246286385074,147.89270031146899L57.818670044851885,147.8779793862492L57.88774067126302,150.05812858293586L58.09495255049642,149.65728657032886L58.785658814607764,146.7780505881808L59.08496486238935,146.99937157790666L59.22310611521162,145.72083510810705L59.292176741622754,146.6546776881576L59.33822382589685,149.6675056496355L59.43031799444502,152.6444181986262L59.56845924726729,154.0809995369943L59.68357695795252,159.60035701306444L59.91381237932297,154.41980761017405L60.051953632145235,153.6636331882284L60.16707134283046,157.02327237102102L60.397306764200906,154.02584986590927L61.36429553395679,154.49415344813494L61.45638970250497,148.5359491516385L61.47941324464202,152.2551977697526L61.502436786779064,153.7626654995484L61.91686054524587,147.97013448798327L62.21616659302745,151.12262537879064L62.51547264080904,155.36404209633787L63.1140847363722,155.52433812149158L63.390367242016744,159.86699203664077L63.643626205524235,158.9114688204212L63.71269683193537,155.03880926601684L63.7817674583465,155.10396553491861L64.2422383010874,150.91572700629564L64.38037955390968,150.46670711870064L64.54154434886898,152.89597368465536L64.67968560169126,153.47033185556091L65.04806227588398,150.41391330642685L65.11713290229511,149.63944057268083L65.3703918658026,146.7862739487926L65.43946249221374,153.7160295130623L65.50853311862487,158.1877768923611L65.53155666076191,152.5158760825967L66.63668668334007,152.82695668199955L66.7057573097512,155.0484019097152L66.77482793616234,152.69991047333554L66.79785147829938,157.24366447992074L67.30436940531436,154.46816118712096L67.5806519109589,156.3758186191816L67.626698995233,161.24309552925078L67.81088733232934,158.52895269769388L67.90298150087753,156.8057858653396L68.47857005430366,161.3943505485993L68.5015935964407,164.22754428954607L68.75485255994819,162.41521404633198L68.93904089704455,166.37402316919432L69.03113506559272,157.21700916745817L69.07718214986683,159.7690707716194L69.81393549825226,158.6224658950604L69.90602966680044,159.65240709339477L70.48161822022655,160.42150719948253L70.84999489441927,153.42712853504108L70.87301843655632,155.7134029530754L71.21837156861199,157.7852114487065L71.31046573716017,162.93492610266722L71.67884241135289,162.7634089899013L71.70186595348993,161.75301385495965L72.00117200127151,155.84681930809032L72.20838388050493,156.4243656254602L72.32350159119015,161.65626089998707L72.43861930187536,156.14060532836254L72.50768992828651,152.6749492675543L72.62280763897174,147.79239659871257L72.69187826538285,149.8136993052669L72.9681607710274,152.20989350977084L73.15234910812376,152.6543028101547L73.31351390308308,160.93603771554515L73.4746786980424,154.49700948785835L73.68189057727578,152.1907744685853L73.77398474582398,150.5087010673336L73.82003183009807,149.18316722150675L73.86607891437215,154.28405904808068L73.93514954078329,152.76749342929583L74.0963143357426,152.30300725992814L74.303526214976,154.0444518912478L74.53376163634645,158.85199495912994L74.62585580489463,161.58477777093353L74.67190288916873,158.77579056425233L74.74097351557985,160.1223062061706L74.85609122626508,162.26197320369488L74.92516185267621,156.80670042726283L74.94818539481327,154.7557772792124L75.40865623755417,160.00382824559722L75.61586811678755,161.79950817566146L75.75400936960983,155.58696644940878L75.91517416456914,157.43065452317217L75.93819770670619,150.67011225691857L76.14540958593959,150.84409061215854L76.30657438089891,150.89925863637623L76.79006876577685,152.05378127647688L76.88216293432502,158.59749834775354L77.11239835569548,160.48435418528223L77.20449252424365,162.0661894325255L77.41170440347706,159.43084523738625L77.71101045125864,163.84860534677222L77.78008107766978,154.51145019324974L77.91822233049204,158.11505417735543L77.96426941476614,156.44185371049707L78.74706984742565,152.07401316196106L78.88521110024793,154.35251804059124L79.2766113165777,158.68534582625753L79.50684673794814,156.66918815483183L79.57591736435928,161.14695766924865L79.62196444863336,155.6446142107474L80.03638820710016,159.8421823796157L80.3587177970188,154.66582310952407L80.40476488129289,153.67819244073686L80.8191886397597,160.32858858870867L80.91128280830787,154.02494601895515L81.09547114540423,158.80557636839188L81.48687136173399,161.53752017284828L81.62501261455627,162.45736409166673L82.17757762584536,161.1602708841881L82.47688367362693,161.46487598469318L82.54595430003806,149.61245809984877L82.56897784217512,150.6183658255286L82.61502492644921,159.36348099917365L82.66107201072329,160.13565314682586L82.75316617927147,158.1012136173403L82.84526034781965,160.2115079498812L83.00642514277897,164.9603762223433L83.35177827483464,156.70928667212556L84.13457870749416,158.8645574489074L84.22667287604233,158.45870254067142L84.38783767100165,159.9206812715443L84.59504955023506,159.22280630834842L84.87133205587959,157.7837105307438L85.10156747725004,154.4444831769859L85.14761456152414,155.94340090675368L85.19366164579823,157.78229375168164L85.30877935648344,155.96040872586505L85.37784998289457,159.22129767995423L85.56203831999093,152.09045329399808L85.65413248853913,155.26268721905532L86.11460333128001,156.66037926466169L86.22972104196525,162.1033892365234L86.25274458410227,161.46717988448134L86.29879166837638,159.72622156137118L86.36786229478751,158.56580896313494L86.45995646333569,160.49816262001568L86.48298000547274,159.4984371184478L86.64414480043206,164.29866263258785L86.71321542684318,158.02966787534837L86.8283331375284,151.9779099662108L87.26578043813225,153.437909937509L87.4960158595027,156.25934487258456L87.63415711232498,154.19044100729747L87.77229836514725,150.4097483946792L87.86439253369542,155.64672258370913L88.14067503933995,157.25530187125003L88.16369858147701,162.22234661161943L88.73928713490312,159.28797122024412L88.94649901413653,156.8634511862726L89.7523229889331,155.7777658863258L89.77534653107016,144.65101575768176L89.82139361534425,153.33241426883663L90.14372320526286,159.0829726589923L90.83442946937421,159.72347965045705L91.01861780647057,164.3185851732374L91.17978260142988,165.52328114348433L91.22582968570397,163.80031210662173L91.27187676997808,161.16922935586513L91.38699448066329,162.49476530747782L91.96258303408942,156.10747533776038L91.98560657622646,153.53316358293262L92.2158419975969,154.3167186097355L92.261889081871,159.25896528173226L92.37700679255622,162.46613874611685L92.69933638247485,156.38674678406113L92.83747763529712,159.8992737915672L93.04468951453052,160.03927347104667L93.3900426465862,157.15088129121833L93.48213681513437,154.10169658278818L93.52818389940846,149.63007815001848L93.82748994719005,154.5507561066223L94.10377245283459,157.7841558435655L94.38005495847912,161.04483514557808L94.61029037984957,163.08976184521407L94.74843163267185,159.28209341601985L95.13983184900161,160.19577755107255L95.27797310182387,160.71486825495361L95.30099664396091,155.92865350630802L95.62332623387955,153.96912956580536L95.76146748670182,148.3329158762421L95.87658519738704,155.45137502364173L96.40612666653907,154.7373408776639L96.56729146149839,152.72658341749118L96.68240917218361,159.3274132233462L96.9817152199652,157.71900910569937L97.1428800149245,157.41863556619745L97.48823314698018,158.26866065485976L97.76451565262472,157.24374420510205L97.83358627903584,162.30800919721858L98.15591586895448,163.7713098710733L98.17893941109153,166.50287771816164L98.22498649536561,155.8579901587271L98.96173984375105,161.68476910193894L98.98476338588809,157.95307930200403L99.00778692802514,152.93372211791691L99.16895172298446,156.07262087285332L99.42221068649194,157.80915442198355L99.76756381854763,163.3660739880998L99.88268152923284,155.4803501008026L100.87269384112577,157.19876298597464L101.07990572035918,157.7049389149945L101.28711759959258,154.76605598169806L101.42525885241484,160.09117303048572L101.51735302096303,164.49179902380084L101.9087532372928,158.1963602314961L101.95480032156689,158.74726016640267L101.97782386370392,164.22475319016797L103.05993034414503,165.7681606656271L103.2441186812414,164.21305208376583L103.77366015039343,165.30373290467236L103.98087202962684,164.47710894815327L104.07296619817501,168.03612421257856L104.16506036672318,164.4030135011187L104.18808390886024,161.69653982449344L104.44134287236771,165.12148393062682L104.51041349877886,165.9014964766888L104.69460183587522,165.75236282373604L104.76367246228635,162.7144755658762L105.31623747357543,159.5141119321501L105.40833164212361,161.8330581265344L105.45437872639769,159.97167487192382L106.09903790623495,161.1984705782767L106.62857937538699,162.95048753133955L106.97393250744267,161.18574244857243L107.15812084453903,164.4192133844566L107.27323855522425,168.69131291818525L107.38835626590947,159.5104780010687L107.48045043445764,162.27566924218283L107.52649751873173,161.60691703909885L107.89487419292446,162.05052679089556L108.30929795139127,165.3098573266468L108.3323214935283,163.89408471248842L108.49348628848762,163.57487330415228L108.56255691489876,165.049723308005L109.11512192618784,155.73821701550898L109.18419255259897,155.34681180637753L109.34535734755828,159.30318955008016L109.41442797396941,159.9259626700571L109.43745151610646,163.31404317080361L109.48349860038056,163.5202105219637L109.5065221425176,162.61996953170438L110.08211069594371,161.64668259692036L110.28932257517712,164.81287692230376L110.8418875864662,166.02323655004398L111.02607592356256,160.23254252009048L111.3484055134812,150.52015305871964L111.37142905561822,157.21453208066617L111.762829271948,154.7978850960271L112.4305119939223,156.15732612412688L112.47655907819639,154.87864685397443L112.70679449956683,158.80077502856471L113.09819471589658,160.95857092010075L113.21331242658182,163.45625372240028L113.7198303535968,164.47769195633745L113.78890098000795,166.32383737664986L113.90401869069316,164.6700097561093L114.15727765420066,166.35812103976895L114.20332473847475,170.1989444611929L114.36448953343407,166.3205417130252L114.50263078625633,166.29778843917103L114.66379558121565,166.1868051388374L114.80193683403792,167.5186760424381L114.87100746044905,167.32849982310847L115.2624076767788,157.00318839634966L115.53869018242335,159.11991449738835L115.60776080883448,154.07189443527167L115.7689256037938,158.7134106998328L116.1373022779865,160.34795428185956L116.1833493622606,159.97409721394027L116.32149061508288,158.5954403167997L116.41358478363107,150.86895093725292L116.78196145782377,156.36531283428226L117.17336167415353,154.88700962443363L117.63383251689443,158.07229656375748L118.04825627536124,156.7457949868085L118.09430335963533,159.44123191137913L118.14035044390943,162.7107912139527L118.20942107032056,158.16290445816313L118.27849169673169,157.3879478526251L118.66989191306145,160.8227162112989L118.92315087656894,161.24206713224018L119.24548046648758,165.48666763223096L119.93618673059892,160.21065960053608L119.98223381487301,161.8609117077146L120.53479882616209,158.54723177269335L120.62689299471026,160.04431160145177L120.67294007898435,165.09503520539045L120.81108133180662,163.09381305162876L120.88015195821777,157.36262731353028L120.92619904249185,162.92953805343944L121.13341092172526,166.14581304016116L121.29457571668458,168.26485470242872L121.59388176446616,168.7130218925617L121.7780701015625,164.78704937238516L122.07737614934409,166.6284800206123L122.12342323361818,163.8491290496288L122.1924938600293,164.1327231949359L122.46877636567386,165.0842957990903L122.56087053422203,166.37371422497924L122.67598824490726,166.835719326454L122.72203532918135,167.0702378997326L122.95227075055179,167.054635532276L123.04436491909998,166.18721469998422L123.71204764107428,163.44075850587217L123.8271653517595,162.00431028684292L123.98833014671881,163.9744412704975L125.00136600074879,165.25001392909442L125.18555433784515,166.05827622674713L125.34671913280447,162.2954357313139L125.43881330135264,163.2431277292544L125.69207226486013,166.50600520604718L125.8302135176824,169.57748603712426L125.96835477050466,169.60483008113908L126.47487269751966,155.56446737933973L126.72813166102715,159.67968030786028L126.84324937171237,164.69025171277124L127.05046125094579,169.31093266592202L127.07348479308283,167.55343176604427L127.34976729872737,171.30681614535868L127.60302626223486,168.4479225913244L127.672096888646,165.18667037175194L127.90233231001645,165.8319443909907L128.98443879045755,160.17252177429708L129.09955650114279,153.67386144012798L129.1225800432798,157.6145439565558L129.35281546465026,157.37044017490126L131.03353404065453,160.83829881635444L131.28679300416204,165.80308393063154L131.30981654629906,168.32032780129663L131.35586363057317,164.98332611218385L131.40191071484728,167.81430028762267L131.47098134125838,167.9542783034656L131.49400488339543,167.957653333732L132.06959343682155,169.92242827472236L132.1847111475068,166.00586698159952L132.25378177391792,164.26096087753567L132.4379701110143,166.79477626080325L132.69122907452177,169.27871442981322L132.89844095375517,163.80090833316916L132.9675115801663,167.35507389560604L132.99053512230336,167.6120561280248L133.33588825435902,163.23756985667032L133.70426492855174,162.79842281273778L133.84240618137403,159.72040437416575L133.9345003499222,163.17473125758852L134.14171222915562,164.0610557863767L134.1877593134297,162.71821288021474L134.3949711926631,159.86127572014024L134.48706536121128,163.5471690657551L134.62520661403354,160.55224261624593L134.74032432471878,162.17317896706174L135.33893642028193,163.51149319266202L135.54614829951532,163.55488710178514L135.89150143157102,167.97241779895836L136.0526662265303,170.32215397746822L136.1908074793526,164.46664749945873L136.28290164790076,168.65782166799994L136.3059251900378,165.84859318801296L136.74337249064166,163.58860316952527L136.8124431170528,164.19446972312323L136.95058436987506,162.41226475958177L137.64129063398642,163.11539257789414L137.77943188680868,163.78493223045564L138.12478501886434,163.88231023559547L138.17083210313845,167.29150458909868L138.56223231946822,163.56705841687443L138.58525586160525,165.26005304927355L139.0227031622091,167.03471265100205L139.04572670434615,163.97267594344189L139.11479733075728,167.06416291511275L139.32200920999068,169.38333579079458L139.5752681734982,165.40158125587504L140.1508567269243,166.24403931985282L140.21992735333544,166.8024740010235L140.47318631684294,164.2013737019917L140.54225694325407,160.2244661981428L140.58830402752815,159.80021000887425L140.63435111180226,161.01319505088452L140.9106336174468,166.47014163595225L141.30203383377653,167.79809062622496L141.7855282186545,164.8115812867305L141.9466930136138,165.33008327476912L142.13088135071015,166.16723298784916L142.22297551925834,166.96898301121237L142.38414031421766,168.84688356409671L142.40716385635469,170.20285536850466L142.43018739849174,166.03886837270286L142.6604228198622,168.0110885983591L143.25903491542536,167.2635014607955L143.3741526261106,166.80235613037019L143.7425293003033,167.99215419100025L143.9957882638108,169.39688276204743L144.08788243235898,169.4661589223714L144.11090597449603,169.84579781918202L144.29509431159238,167.02148415016075L144.3641649380035,169.59427851429206L144.43323556441467,167.64835318000783L144.50230619082578,166.23445565120903L144.7095180700592,164.74570026093105L144.80161223860736,165.27413139845058L144.96277703356668,166.27515022949092L144.98580057570373,164.3908036448218L145.12394182852597,160.4466945223209L145.26208308134827,160.26796353581236L145.30813016562237,163.755326183571L145.37720079203348,165.09364096777648L146.18302476683007,163.31968241155718L146.4593072724746,158.6155025647293L146.89675457307845,162.86379210372857L146.94280165735253,166.02766409446093L147.3802489579564,166.62435968174978L147.42629604223046,163.85569904599308L147.8867668849714,166.86154189635684L148.43933189626046,165.25105708628058L148.50840252267162,163.68381124372934L148.8077085704532,167.75770914034146L148.99189690754955,168.4938838952753L149.19910878678294,168.3361322026417L149.26817941319408,166.00672876671962L149.31422649746816,168.8828203507324L149.3372500396052,164.39952656175473L149.65957962952385,166.50574868421415L150.35028589363517,159.3048820574518L150.48842714645747,162.15447792857353L150.5574977728686,166.78570639425277L150.7186625678279,169.78445873157827L151.01796861560948,168.9101801063546L151.06401569988358,170.96320985748244L151.08703924202064,169.39508983598233L151.24820403697993,171.08632802942932L151.66262779544675,170.74319178872992L152.19216926459876,160.49916187352787L152.30728697528397,160.64923024312048L152.7677578180249,162.82185502481863L152.81380490229898,166.20399437579815L152.95194615512125,164.7032513904705L153.55055825068442,171.27798116497937L153.66567596136966,162.68691910491603L153.96498200915124,162.86603024098935L154.0570761776994,163.46281791467067L154.47149993616623,165.81108826318234L154.65568827326257,161.24562326394087L155.18522974241458,162.4831794985759L155.25430036882574,161.8236521246935L155.27732391096276,159.85425245055677L155.36941807951095,162.93769397979506L155.392441621648,166.85179923436098L155.99105371721117,166.35691574834576L156.5205951863632,166.90797712053677L156.8199012341448,169.723762773419L157.1882779083375,170.66394405337232L157.44153687184502,171.03807585800013L157.8099135460377,170.78946626330395L158.13224313595634,169.76415763592695L158.15526667809337,169.29844388619705L158.6157375208343,170.3772964387383L159.16830253212336,172.32698995629065L159.21434961639747,170.8361442190373L159.53667920631608,170.42862878854865L159.97412650691993,163.82082364982344L159.99715004905698,167.22030485961682L160.0431971333311,169.85663578993956L160.15831484401627,171.4108966972559L161.01018590308695,169.737465050004L161.17135069804627,169.80595269565265L161.26344486659443,164.09467824492882L161.40158611941672,166.48713955698292L161.53972737223896,165.13508386582856L161.6548450829242,167.57818872207162L161.72391570933536,171.05771202115977L161.76996279360944,169.87248669365738L162.1153159256651,166.91768292048576L162.32252780489853,158.77068197894502L162.50671614199487,165.18404865433013L162.89811635832464,159.63570690746948L163.01323406900985,161.6311013889972L163.05928115328393,165.51032006488373L163.33556365892846,160.0115189218123L163.38161074320257,163.39382415424785L163.51975199602487,165.81977260564466L163.7960345016694,165.93685908682608L163.9111522123546,165.54261723196328L164.14138763372503,168.87619225915483L164.3716230550955,172.6157287344925L165.01628223493273,171.8856074875251L165.06232931920684,171.8825672599648L165.15442348775503,168.279452179808L165.49977661981072,170.19843658400572L166.44374184742952,165.74399028998488L166.51281247384065,166.2042401180125L166.92723623230748,167.22871269683577L167.34165999077428,169.62433944666563L167.73306020710405,173.53529773204644L167.80213083351518,168.75179372781167L167.9172485442004,168.3712911783373L168.03236625488563,166.41390152831337L168.44679001335246,169.31752378064036L168.46981355548948,170.1890639550834L168.86121377181925,170.38961054882293L168.93028439823038,170.54981147339188L169.09144919318967,164.8917665206775L169.7130848308899,164.73408466000498L169.759131915164,166.8066696670804L169.9202967101233,165.82331868253934L170.33472046859012,166.9169618160103L170.3807675528642,162.34330184558235L170.54193234782352,166.4421420299946L170.74914422705695,166.31781653491888L170.97937964842737,168.95128103031277L171.00240319056442,171.04440320746474L171.23263861193487,166.56383890991012L171.32473278048306,164.04655244956422L171.3477563226201,167.7746716810476L171.78520362322394,168.77423487765134L171.90032133390918,169.58900369733536L171.94636841818325,171.89985717271387L172.03846258673144,167.30863035454107L172.24567446596484,169.2027286964704L172.66009822443166,169.0659635879436L173.12056906717254,170.873610911362L173.23568677785778,168.7560942467346L173.44289865709118,170.29313269307008L173.58103990991344,170.08765716442056L173.6040634520505,169.71286080088638L173.69615762059865,171.3666384732496L173.7652282470098,166.46068753640571L174.27174617402477,168.95982418179375L174.6861699324916,166.72744842049318L174.77826410103978,164.2159928504617L174.893381811725,163.04698624252106L175.05454660668434,167.14642217306485L175.2617584859177,162.03314884663584L175.30780557019182,162.73743667224787L175.53804099156227,157.5287234314407L175.67618224438453,164.0410063929871L175.7222293286586,163.24590652767236L175.86037058148088,165.63744753811068L175.906417665755,170.14711956538818L175.95246475002907,168.76354846954746L176.22874725567362,162.62781543104518L176.27479433994768,159.0122059821172L176.32084142422178,160.48889922180842L176.8503828933738,164.99056940781242L177.05759477260722,163.3730355757168L177.12666539901838,165.7605721773868L177.49504207321107,168.59387177427706L177.72527749458152,170.4176787803991L177.74830103671854,173.3743407749781L177.79434812099265,170.30618007748132L177.93248937381495,167.90317121935692L178.07063062663718,166.86206007686744L178.23179542159653,164.84093603252055L178.3469131322817,160.54969408363317L178.50807792724106,163.03212524702462L178.6462191800633,166.99389234314313L178.94552522784488,161.7346762278065L179.54413732340805,165.97123933096847L180.0736787925601,164.50806309763996L180.16577296110827,168.52575551737854L180.18879650324533,171.7609298918877L180.34996129820462,171.47974980625148L180.7413615145344,172.64569507219682L180.9946204780419,171.8671856874654L181.24787944154937,174.67103324014192L181.40904423650872,175.36962395598354L181.54718548933096,173.1128737575266L182.09975050062005,166.2350456281626L183.36604531815752,168.447146600225L183.4581394867057,167.93137351998885L183.7574455344873,162.73172855444656L184.01070449799477,163.18837564068178L184.10279866654292,165.97368364904204L184.28698700363933,166.57792322431357L184.31001054577635,167.97142211868183L184.4021047143245,171.71124944474641L184.60931659355793,172.88756569076276L184.632340135695,174.69777552054845L184.86257555706544,176.1234410487983L184.8855990992025,172.9853570620616L184.90862264133952,173.7668940865539L185.09281097843586,172.98763084083438L185.55328182117677,169.84999447836375L186.10584683246583,165.95618919209218L186.24398808528812,163.65273937329835L186.26701162742518,168.02629389426366L186.3360822538363,169.10380975627027L186.56631767520676,168.80592016449737L186.77352955444016,168.36666091175758L186.8426001808513,167.7490890862106L187.07283560222174,166.35845408563054L187.18795331290696,164.38984280937783L188.01680082984058,161.40368348705266L188.22401270907397,163.6025016535602L188.27005979334808,159.525022504595L188.36215396189627,165.0347371677996L188.5002952147185,168.78731816666445L188.56936584112967,166.66222248475898L188.730530636089,165.7380810592711L188.91471897318533,170.56714345850435L188.98378959959646,167.15585191315364L189.16797793669284,171.4969141657404L189.26007210524102,171.49304575075755L189.3521662737892,170.5998968399018L189.88170774294122,171.56225567735984L189.97380191148943,171.9397257744092L190.13496670644872,163.5341306482814L190.2270608749969,167.00166853815406L190.48031983850439,160.19296213099486L190.75660234414894,163.98151137826014L191.12497901834166,163.17895452965217L191.70056757176778,164.2987217443565L192.04592070382344,165.57571151030328L192.36825029374205,169.83020644235143L192.55243863083845,168.30484265612878L192.7366269679348,167.09744319254557L192.87476822075706,169.29323424724058L192.89779176289412,168.38880347555397L193.28919197922386,170.49509987840236L193.49640385845726,170.84345494342384L193.8187334483759,169.5286202993037L193.88780407478703,168.13940229807005L194.394322001802,165.9549802217061L194.78572221813178,171.35256353845864L195.0620047237763,172.4380494293337L195.13107535018747,172.83036608161754L195.2692166030097,173.0641461983644L195.68364036147653,159.82511452633773L195.72968744575064,166.43318904668277L196.1441112042174,167.55724796364214L196.2362053727656,171.42113253808776L196.30527599917676,168.42611676756127L196.71969975764355,167.11432953673832L196.81179392619174,167.0389558204562L196.97295872115103,171.45181775010198L197.27226476893262,171.6603312322338L197.4104060217549,172.25340772290463L197.73273561167352,170.8821469172976L198.00901811731808,167.37301433109815L198.17018291227737,171.783014135007L198.35437124937374,169.1661351668444L198.5385595864701,170.42601217135865L198.56158312860714,168.310707935524L199.06810105562212,169.262635972902L199.1601952241703,165.9360206061974L199.48252481408895,167.6385142303804L199.75880731973348,172.91061286110852L199.78183086187053,173.55182907407917L199.94299565682982,172.79991630073232L200.26532524674846,173.01301710975804L200.40346649957075,167.41478777440255L200.56463129453005,170.05202973655085L200.61067837880412,171.23449202796516L200.81789025803752,167.1055036852367L200.86393734231163,168.81918104925452L200.88696088444868,170.09467606166692L201.3244081850525,170.59644839806L201.39347881146367,167.92582057580054L201.60069069069704,166.9587823370433L201.89999673847862,167.28221686998552L202.22232632839726,164.64388590559858L202.4525617497677,168.85210816942308L202.82093842396043,166.53293113727165L203.07419738746793,170.1425803886432L203.48862114593476,174.2068572699104L203.71885656730518,174.01198080120233L203.74188010944223,169.76063492368516L203.88002136226453,168.36350926657988L204.04118615722382,171.53802650042002L204.133280325772,173.30880472530345L204.15630386790906,173.8431956291669L204.17932741004608,174.6032053089137L204.6858453370611,166.70340802976023L204.70886887919812,167.11240206436455L204.80096304774628,169.7035838124529L204.8470101320204,172.6131067659969L205.05422201125378,170.58789805075352L205.14631617980197,170.95550250389576L205.81399890177627,163.7309913966372L205.83702244391333,168.8124327041653L206.04423432314672,168.05007122809235L206.11330494955786,169.25084448736766L206.27446974451715,172.36326326252743L206.5047051658876,172.21878135950408L206.52772870802465,174.0081595866275L206.5507522501617,173.22010267590667L206.57377579229873,173.86170482545543L206.68889350298397,172.7743066716523L206.82703475580624,168.86014609572263L206.91912892435442,167.34263852994874L206.96517600862853,166.5889737799402L207.33355268282125,167.99531427744637L207.4716939356435,166.21496697269336L207.49471747778054,170.4055198673642L207.67890581487688,174.23132387917792L208.11635311548076,173.2016712743575L208.5077533318105,170.18981977974252L209.10636542737367,172.54486382561635L209.63590689652574,169.66029702403378L209.93521294430732,166.21746257085178L210.00428357071843,168.82620429653545L210.71801337696684,171.46584993198857L210.7410369191039,164.7642828194989L211.10941359329658,159.99485573145225L211.13243713543363,162.2676794228687L211.36267255680409,167.32960767561278L211.43174318321522,164.72766564925539L211.4777902674893,169.38049631554372L211.7310492309968,170.72091625781553L211.86919048381907,170.11186197201297L211.93826111023023,165.34809014223848L212.0303552787784,167.44446334652358L212.44477903724518,169.43806111245004L212.46780257938224,166.91803137574536L212.5598967479304,171.00489997884432L212.62896737434156,173.4826676709672L212.67501445861564,169.44106609552537L212.99734404853427,170.7766815006437L213.08943821708246,171.39998581789985L213.34269718058994,169.12634593351456L213.41176780700107,169.01947361349724L213.87223864974197,173.383435123321L214.05642698683832,171.001225987621L214.28666240820877,173.9222889692347L214.30968595034582,172.67314009674485L214.56294491385333,172.6733030245128L215.09248638300537,171.9358261169203L215.20760409369058,169.61302804646658L215.59900431002035,171.7657616712224L216.12854577917236,166.40350525397892L216.61204016405028,170.60654984477068L216.63506370618734,172.31918179700023L216.72715787473552,169.71712649590629L216.8192520432837,171.0132251225128L217.2336758017505,172.47372228491017L217.3718170545728,171.98074955204032L217.39484059670986,168.7293452157965L218.3618293664657,167.758519317238L218.5460177035621,169.6121464462627L218.73020604065843,170.30384115572323L218.75322958279548,173.46432819366035L219.14462979912525,167.73636613372307L219.44393584690684,171.93768702050667L219.536030015455,174.78144659836744L219.78928897896247,172.36229962198922L220.06557148460703,172.70266256219867L220.13464211101817,171.78990199927676L220.18068919529227,172.20555691726028L220.27278336384046,170.0401351109892L220.4569717009368,166.3120642298385L221.8383842291595,164.76371282604902L221.97652548198178,168.1948994886098L221.9995490241188,169.03463586744235L222.0455961083929,171.4199355334418L222.39094924044855,171.28440232771476L222.5521140354079,172.18144032049676L223.0816555045599,173.26883353712785L223.17374967310812,169.1777092213064L223.4270086366156,172.7070658263579L223.49607926302673,170.99213338961377L223.88747947935647,170.85801871586017L224.02562073217877,171.006932824434L224.32492677996035,171.19358816942636L224.78539762270123,169.05318147565444L224.99260950193462,172.35738184078153L225.31493909185326,172.64218627130217L225.36098617612734,169.81294975587997L225.40703326040145,167.42012825245462L225.61424513963485,169.1216934552485L225.82145701886827,171.54727005535906L226.00564535596462,168.14955231408044L226.4661161987055,169.343923810489L226.5121632829796,170.66292576660996L226.58123390939073,171.30808560967563L226.62728099366484,172.82264048850078L226.76542224648708,167.56841427471397L227.04170475213164,166.46893665082317L227.06472829426866,168.5404204821685L227.225893089228,168.33809392706337L227.2949637156391,167.75305880555302L227.41008142632435,166.39388185078639L227.57124622128364,169.3801192925637L227.61729330555775,173.83665669866372L228.79149395454704,168.63373680104257L229.0447529180545,169.02712282240657L229.11382354446567,172.6182749492953L229.22894125515091,173.93569926383083L229.5973179293436,169.8809695068905L229.6894120978918,166.6212646787268L229.71243564002884,169.4265065335038L229.75848272430292,170.5033788831548L229.82755335071408,172.60073465996655L229.98871814567337,175.64842911994023L230.08081231422156,174.46338742610698L230.17290648276972,173.91607391358457L230.38011836200315,174.5126175661284L230.4031419041402,175.69133384295725L230.5182596148254,176.7660260750362L230.6103537833736,175.33174571602515L230.63337732551062,175.3590080703504L230.97873045756631,172.5042441565591L231.6924602638147,170.2894280294349L231.96874276945923,173.97786264639947L232.12990756441855,171.37737830420446L232.24502527510376,170.95154184283786L232.5673548650224,170.62427849956396L232.7745667442558,167.72704564262176L233.11991987631146,169.71809924724198L233.37317883981896,170.12801888310068L233.53434363477828,172.21227605624404L233.55736717691533,173.39430416318672L233.62643780332644,175.05975010458545L233.76457905614873,170.95444292173516L234.63947365735643,168.21466305708657L234.7085442837676,168.73088897629856L234.75459136804167,167.03530346234493L234.82366199445278,170.16237684145048L234.84668553658983,171.5322809671301L234.93877970513802,172.46374006679136L235.67553305352345,173.65279349351317L235.99786264344206,172.5530375882835L236.61949828114228,175.7797456656349L236.75763953396458,174.7471633524679L236.84973370251274,169.41954197744792L237.26415746097956,167.98873918082572L237.37927517166477,172.71545754454186L237.72462830372044,173.59008996108093L237.79369893013157,175.1647289468377L237.86276955654273,174.8898093835945L238.34626394142066,169.8099249998566L238.59952290492814,166.4034301881417L238.89882895270972,169.56485854594305L238.92185249484677,170.73065094151758L239.15208791621723,173.0445131662571L239.22115854262836,171.5156337446497L239.31325271117655,171.46753068713176L239.7046529275063,167.68426345313867L239.7507000117804,169.12238381731953L239.81977063819153,167.91542569983068L240.30326502306946,167.3041315883211L240.34931210734356,168.56450285773175L240.4644298180288,168.9770750003687L240.71768878153628,167.3759733416907L240.90187711863263,170.32122844124777L240.9939712871808,172.76813095494325L241.38537150351058,170.72279799330363L241.52351275633285,173.0499027374289L241.7537481777033,170.30211879133134L241.79979526197738,168.68715279265203L241.93793651479967,172.19282652887063L242.05305422548489,170.58826247035898L242.1681719361701,164.65088164290856L242.23724256258126,169.75730347918426L242.5825956946369,168.9302184812584L242.60561923677395,167.7515494838108L243.22725487447417,167.32617302851858L243.41144321157054,170.4665092437627L243.641678632941,169.42158595319842L243.71074925935213,162.6877181560125L243.89493759644847,162.40559734649733L244.3784319813264,168.57543076418753L244.5165732341487,172.3897537260068L244.76983219765617,171.55814122976713L244.79285573979323,171.36981322049786L245.52960908817866,171.00670689543313L245.55263263031568,172.23690862815835L245.69077388313798,173.9394715512236L246.88799807426432,174.60001149921453L246.93404515853837,173.49145378224776L247.09520995349772,169.07029588267454L247.16428057990885,166.1137774017664L247.32544537486817,170.67334094761583L247.94708101256836,173.91878993114926L248.4305753974463,169.904076777681L248.66081081881674,169.74074320965218L249.02918749300946,173.13198053055694L249.07523457728357,171.9499399277799L249.12128166155767,175.27931815756017L249.23639937224286,173.71425257726716L249.97315272062832,171.1069113972297L250.08827043131353,168.96180379555918L250.34152939482104,170.29196785959053L250.3645529369581,169.9984339724832L250.38757647909512,173.06568120113275L250.45664710550625,171.9676638476793L250.6868825268767,171.20860852281356" style="fill: none;" fill="none"></path></g></g></g></g><g opacity="0.2"><g><g><g><path stroke="rgb(255, 112, 67)" stroke-width="2px" d="M35.16350458199974,13.424034790418878L35.30164583482201,17.08395752773174L35.67002250901473,30.361298543653838L35.716069593288815,27.089043774388998L35.785140219699954,36.76452665159971L36.038399183207446,44.21767708190011L36.38375231526312,72.69218751221416L36.452822941674256,65.70413705639095L36.913293784415146,84.28238180399076L37.09748212151151,102.59709247431584L37.189576290059684,99.30431333211264L37.65004713280059,88.75145583977972L38.31772985477489,116.00863203685174L38.38680048118602,117.08765250204988L38.59401236041943,118.62795871934824L38.84727132392691,124.39110763760819L38.962389034612144,128.70435822605685L39.00843611888623,127.68163399002276L40.0214719729162,143.90747707485923L40.136589683601436,128.85141037286326L40.481942815657106,133.55930834490542L40.62008406847937,130.78912469944598L40.73520177916459,130.66038176067096L40.89636657412391,141.10497835917533L41.034507826946175,129.99371588899135L41.47195512755003,137.65742456320777L41.84033180174275,149.09059611454157L41.886378886016836,142.2915307361201L42.0705672231132,140.80113862743644L42.34684972875774,150.85094910059627L42.55406160799114,134.2354415774294L42.7382499450875,136.13726647003128L43.10662661928021,126.14562171234233L43.19872078782839,148.18918390315724L44.44199206322882,157.53358663431672L44.46501560536586,143.98784382205685L44.85641582169563,146.02724644595537L44.92548644810676,129.4960233607876L44.99455707451789,153.53043561729095L45.33991020657357,153.0046890367093L45.4089808329847,130.80720815818745L45.43200437512174,138.23688066234027L45.662239796492194,158.59636725997407L46.09968709709605,153.43834401635016L46.58318148197399,143.29548015621245L46.97458169830375,141.872605897644L47.08969940898898,156.44861908626328L47.71133504668919,149.2843783643533L47.941570468059645,157.69544417205117L48.07971172088191,159.9302539703376L48.240876515841215,149.42267096840132L48.26390005797826,148.2872954851615L48.60925319003394,139.3195836628296L49.02367694850075,146.82758646746083L49.069724032774836,146.6230482046083L49.346006538419374,140.20997178389138L49.507171333378686,146.2637517488771L49.53019487551574,159.90877016291725L49.576241959789826,148.44714244328293L49.64531258620096,158.8203411257523L49.691359670475045,146.0633334105649L49.96764217611958,150.48981843188477L50.197877597490034,161.1343865732318L50.5892778138198,152.5321793121028L51.18788990938297,156.61123617629593L51.27998407793114,158.0426160096717L51.37207824647932,138.68561381330107L51.55626658357568,113.12478832704743L51.76347846280909,135.15132525891715L52.06278451059067,144.31893337432845L52.15487867913885,155.084693611015L52.36209055837225,152.093247442811L52.45418472692043,135.26850324969595L52.50023181119452,158.7592806459497L52.54627889546861,150.6966823827341L52.70744369042792,161.08700038635274L52.82256140111315,139.15927344835288L52.868608485387234,130.79716231478776L52.98372619607247,154.35403957342967L53.029773280346554,143.70717631430216L53.12186744889473,147.94128296420672L53.213961617442905,157.07994813941121L53.352102870265185,157.14331784632486L53.375126412402224,144.5339548698298L53.90466788155426,159.33636872909352L53.99676205010244,132.50861471247714L54.756538940624914,147.6917241789087L54.91770373558423,155.08008456301326L55.0558449884065,158.31179852230363L55.37817457832513,160.49759720913488L55.47026874687331,135.8998487637296L55.63143354183262,143.0461823935308L55.67748062610671,148.830264855317L55.81562187892898,136.44655710649874L55.86166896320307,151.00154974405297L56.1839985531217,155.15351657421235L56.20702209525874,154.38906363513266L56.437257516629195,160.34613119340028L56.50632814304033,155.64762062932903L56.71354002227373,158.92378368317492L56.80563419082191,151.96674788760419L56.897728359370085,154.97979308942854L57.1049402386035,151.30779276510705L57.12796378074054,145.23648665993926L57.2661050335628,152.76869872435515L57.28912857569985,149.03338513044247L57.404246286385074,144.22236441247168L57.818670044851885,147.8558979984195L57.88774067126302,153.32835237796587L58.09495255049642,149.05602355141835L58.785658814607764,142.45919661495876L59.08496486238935,147.33135306249545L59.22310611521162,143.80303040340766L59.292176741622754,148.05544155823338L59.33822382589685,154.18674759185237L59.43031799444502,157.10978702211224L59.56845924726729,156.23587154454646L59.68357695795252,167.87939322716963L59.91381237932297,146.6489835058385L60.051953632145235,152.52937155530992L60.16707134283046,162.06273114520997L60.397306764200906,149.52971610824162L61.36429553395679,155.19660882147346L61.45638970250497,139.59864270689386L61.47941324464202,157.83407069692376L61.502436786779064,156.02386709424212L61.91686054524587,139.28133797063558L62.21616659302745,155.85136171500164L62.51547264080904,161.72616717265873L63.1140847363722,155.7647821592221L63.390367242016744,166.38097290936457L63.643626205524235,157.4781839960918L63.71269683193537,149.2298199344103L63.7817674583465,155.2016999382713L64.2422383010874,144.63336921336114L64.38037955390968,149.79317728730817L64.54154434886898,156.53987353358744L64.67968560169126,154.33186911191927L65.04806227588398,145.82928548272574L65.11713290229511,148.4777314720618L65.3703918658026,142.50652401296026L65.43946249221374,164.11066285946683L65.50853311862487,164.89539796130927L65.53155666076191,144.00802486795013L66.63668668334007,153.29357758110382L66.7057573097512,158.38056975128873L66.77482793616234,149.177173318766L66.79785147829938,164.0592954897985L67.30436940531436,150.30490624792125L67.5806519109589,159.23730476727258L67.626698995233,168.54401089435459L67.81088733232934,154.4577384503585L67.90298150087753,154.22103561680814L68.47857005430366,168.27719757348882L68.5015935964407,168.47733490096624L68.75485255994819,159.69671868151087L68.93904089704455,172.31223685348783L69.03113506559272,143.48148816485391L69.07718214986683,163.59716317786123L69.81393549825226,156.90255858022198L69.90602966680044,161.19731889089633L70.48161822022655,161.57515735861412L70.84999489441927,142.93556053837895L70.87301843655632,159.14281458012678L71.21837156861199,160.89292419215315L71.31046573716017,170.65949808360833L71.67884241135289,162.50613332075244L71.70186595348993,160.2374211525471L72.00117200127151,146.98752748778637L72.20838388050493,157.29068510151507L72.32350159119015,169.50410381177736L72.43861930187536,147.86712197092575L72.50768992828651,147.47646517634192L72.62280763897174,140.46856759545L72.69187826538285,152.8456533650984L72.9681607710274,155.80418481652674L73.15234910812376,153.32091676073043L73.31351390308308,173.35864007363085L73.4746786980424,144.83846714632816L73.68189057727578,148.7314219396757L73.77398474582398,147.98559096545608L73.82003183009807,147.1948664527665L73.86607891437215,161.9353967879416L73.93514954078329,150.4926450011185L74.0963143357426,151.60627800587662L74.303526214976,156.6566188382273L74.53376163634645,166.06330956095314L74.62585580489463,165.68395198863885L74.67190288916873,154.56230975423054L74.74097351557985,162.142079669048L74.85609122626508,165.4714736999813L74.92516185267621,148.62379126261476L74.94818539481327,151.6793925571368L75.40865623755417,167.87590469517446L75.61586811678755,164.49302807075776L75.75400936960983,146.26815386002977L75.91517416456914,160.1961866338173L75.93819770670619,140.52929885753815L76.14540958593959,151.1050581450185L76.30657438089891,150.98201067270276L76.79006876577685,153.78556523662783L76.88216293432502,168.41307395466856L77.11239835569548,163.31463794157523L77.20449252424365,164.43894230339046L77.41170440347706,155.4778289446773L77.71101045125864,170.4752455108512L77.78008107766978,140.50571746296603L77.91822233049204,163.52046015351397L77.96426941476614,153.93205301020953L78.74706984742565,145.5222523391571L78.88521110024793,157.77027535853645L79.2766113165777,165.18458750475696L79.50684673794814,153.64495164769326L79.57591736435928,167.8636119408739L79.62196444863336,147.3910990229955L80.03638820710016,166.1385346329182L80.3587177970188,146.90128420438654L80.40476488129289,152.1967464375561L80.8191886397597,170.3041828106664L80.91128280830787,144.56948216432482L81.09547114540423,165.97652189254697L81.48687136173399,165.63543587953285L81.62501261455627,163.83712996989445L82.17757762584536,159.21463107297015L82.47688367362693,161.92178363545077L82.54595430003806,131.8338312725822L82.56897784217512,152.1272274140483L82.61502492644921,172.48115375964122L82.66107201072329,161.29391136830412L82.75316617927147,155.04955432311198L82.84526034781965,163.37694944869259L83.00642514277897,172.08367863103646L83.35177827483464,144.3326523467989L84.13457870749416,162.0974636140802L84.22667287604233,157.8499201783175L84.38783767100165,162.1136493678536L84.59504955023506,158.17599386355454L84.87133205587959,155.62506686433684L85.10156747725004,149.43564214634904L85.14761456152414,158.1917775014054L85.19366164579823,160.54063301907354L85.30877935648344,153.22758118714017L85.37784998289457,164.11263111108798L85.56203831999093,141.39418671506385L85.65413248853913,160.02103810664116L86.11460333128001,158.75691733307127L86.22972104196525,170.267904194316L86.25274458410227,160.5128658564182L86.29879166837638,157.11478407670597L86.36786229478751,156.8251900657806L86.45995646333569,163.39669310533677L86.48298000547274,157.998848866096L86.64414480043206,171.49900090379793L86.71321542684318,148.62617573948913L86.8283331375284,142.90027310250443L87.26578043813225,155.62790989445628L87.4960158595027,160.4914972751979L87.63415711232498,151.08708520936682L87.77229836514725,144.73870947575182L87.86439253369542,163.50218386725405L88.14067503933995,159.66817080256135L88.16369858147701,169.67291372217358L88.73928713490312,154.88640813318116L88.94649901413653,153.22667113531534L89.7523229889331,154.1492379364056L89.77534653107016,127.96089056471568L89.82139361534425,166.35451203556892L90.14372320526286,167.70881024422582L90.83442946937421,160.68424013765414L91.01861780647057,171.21124345740793L91.17978260142988,167.33032509885473L91.22582968570397,161.2158585513278L91.27187676997808,157.22260522973025L91.38699448066329,164.48306923489685L91.96258303408942,146.5265403831842L91.98560657622646,149.67169595069097L92.2158419975969,155.4920511499398L92.261889081871,166.67233528972736L92.37700679255622,167.27689894269378L92.69933638247485,147.2676588409776L92.83747763529712,165.16806430282622L93.04468951453052,160.24927299026587L93.3900426465862,152.81829302147585L93.48213681513437,149.52791952014297L93.52818389940846,142.92265050086388L93.82748994719005,161.93177304152798L94.10377245283459,162.63425544898027L94.38005495847912,165.935854098597L94.61029037984957,166.15715189466806L94.74843163267185,153.5705907722285L95.13983184900161,161.5663037536516L95.27797310182387,161.49350431077522L95.30099664396091,148.74933138333958L95.62332623387955,151.0298436550514L95.76146748670182,139.87859534189724L95.87658519738704,166.12906374474116L96.40612666653907,153.66628965869722L96.56729146149839,149.71044722723212L96.68240917218361,169.22865793212873L96.9817152199652,155.30640292922908L97.1428800149245,156.9680752569446L97.48823314698018,159.54369828785323L97.76451565262472,155.70636953046542L97.83358627903584,169.90440668539338L98.15591586895448,165.96626088185536L98.17893941109153,170.60022948879418L98.22498649536561,139.89065881957524L98.96173984375105,170.42493751675676L98.98476338588809,152.35554460210162L99.00778692802514,145.40468634178626L99.16895172298446,160.7809690052579L99.42221068649194,160.4139547456789L99.76756381854763,171.7014533372742L99.88268152923284,143.6517642698568L100.87269384112577,159.77638231373268L101.07990572035918,158.4642028085243L101.28711759959258,150.3577315817534L101.42525885241484,168.0788486036672L101.51735302096303,171.09273801377353L101.9087532372928,148.753202043039L101.95480032156689,159.57361006876246L101.97782386370392,172.4409927258159L103.05993034414503,168.0832718788158L103.2441186812414,161.88038921097396L103.77366015039343,166.93975413603215L103.98087202962684,163.23717301337464L104.07296619817501,173.37464710921645L104.16506036672318,158.9533474339289L104.18808390886024,157.63682930955562L104.44134287236771,170.25890008982688L104.51041349877886,167.07151529578175L104.69460183587522,165.52866234430692L104.76367246228635,158.15764467908642L105.31623747357543,154.71356648156097L105.40833164212361,165.31147741811085L105.45437872639769,157.17959999000794L106.09903790623495,163.03866413780602L106.62857937538699,165.57851296093384L106.97393250744267,158.53862482442173L107.15812084453903,169.26941978828285L107.27323855522425,175.0994622187782L107.38835626590947,145.73922562539389L107.48045043445764,166.42345610385405L107.52649751873173,160.60378873447283L107.89487419292446,162.71594141859063L108.30929795139127,170.19885313027365L108.3323214935283,161.77042579125091L108.49348628848762,163.09605619164805L108.56255691489876,167.2619983137841L109.11512192618784,141.7709575767649L109.18419255259897,154.7597039926804L109.34535734755828,165.2377561656341L109.41442797396941,160.86012235002244L109.43745151610646,168.3961639219234L109.48349860038056,163.82946154870382L109.5065221425176,161.2696080463154L110.08211069594371,160.18675219474437L110.28932257517712,169.56216841037883L110.8418875864662,167.83877599165436L111.02607592356256,151.54650147516023L111.3484055134812,135.9515688666634L111.37142905561822,167.25610061358594L111.762829271948,151.17291461906854L112.4305119939223,158.19648766627657L112.47655907819639,152.96062794874578L112.70679449956683,164.68396729045006L113.09819471589658,164.19526475740483L113.21331242658182,167.20277792584955L113.7198303535968,166.0098493072432L113.78890098000795,169.0930555071185L113.90401869069316,162.18926832529843L114.15727765420066,168.89028796525847L114.20332473847475,175.96017959332883L114.36448953343407,160.50293759077363L114.50263078625633,166.2636585283898L114.66379558121565,166.02033018833694L114.80193683403792,169.51648239783916L114.87100746044905,167.043235494114L115.2624076767788,141.51522125621148L115.53869018242335,162.29500364894642L115.60776080883448,146.49986434209663L115.7689256037938,165.6756850966745L116.1373022779865,162.79976965489976L116.1833493622606,159.41331161206128L116.32149061508288,156.5274549710889L116.41358478363107,139.27921686793275L116.78196145782377,164.60985567982624L117.17336167415353,152.66955480966067L117.63383251689443,162.85022697274323L118.04825627536124,154.75604262138512L118.09430335963533,163.48438729823508L118.14035044390943,167.615130167813L118.20942107032056,151.3410743244788L118.27849169673169,156.22551294431804L118.66989191306145,165.97486874930962L118.92315087656894,161.87109351365208L119.24548046648758,171.85356838221716L119.93618673059892,152.2966475529937L119.98223381487301,164.3362898684824L120.53479882616209,153.57671187016143L120.62689299471026,162.2899313445894L120.67294007898435,172.67112061129848L120.81108133180662,160.09197982098624L120.88015195821777,148.76584870638254L120.92619904249185,171.27990416330317L121.13341092172526,170.9702255202437L121.29457571668458,171.44341719583008L121.59388176446616,169.38527267776118L121.7780701015625,158.89809059212033L122.07737614934409,169.39062599295298L122.12342323361818,159.68010259315358L122.1924938600293,164.55811441289654L122.46877636567386,166.51165470532194L122.56087053422203,168.30784186381263L122.67598824490726,167.52872697866619L122.72203532918135,167.42201575965046L122.95227075055179,167.03123198109108L123.04436491909998,164.88608345154657L123.71204764107428,159.3210742147041L123.8271653517595,159.84963795829907L123.98833014671881,166.92963774597936L125.00136600074879,167.16337291698983L125.18555433784515,167.27066967322614L125.34671913280447,156.65117498816406L125.43881330135264,164.66466572616525L125.69207226486013,171.40032142123627L125.8302135176824,174.18470728373984L125.96835477050466,169.64584614716134L126.47487269751966,134.50392332664072L126.72813166102715,165.8524997006411L126.84324937171237,172.20610882013767L127.05046125094579,176.2419540956482L127.07348479308283,164.91718041622767L127.34976729872737,176.9368927143303L127.60302626223486,164.15958226027303L127.672096888646,160.2947920423932L127.90233231001645,166.79985541984885L128.98443879045755,151.68338784925666L129.09955650114279,143.9258709388743L129.1225800432798,163.52556773119753L129.35281546465026,157.00428450241947L131.03353404065453,166.04008677853417L131.28679300416204,173.25026160204717L131.30981654629906,172.09619360729423L131.35586363057317,159.97782357851466L131.40191071484728,172.06076155078088L131.47098134125838,168.16424532722996L131.49400488339543,167.96271587913162L132.06959343682155,172.8695906862079L132.1847111475068,160.13102504191522L132.25378177391792,161.6436017214399L132.4379701110143,170.59549933570466L132.69122907452177,173.00462168332814L132.89844095375517,155.5841991882031L132.9675115801663,172.68632223926136L132.99053512230336,167.99752947665291L133.33588825435902,156.67584044963863L133.70426492855174,162.13970224683894L133.84240618137403,155.10337671630774L133.9345003499222,168.35622158272267L134.14171222915562,165.39054257955897L134.1877593134297,160.70394852097178L134.3949711926631,155.57586998002853L134.48706536121128,169.07600908417737L134.62520661403354,156.0598529419822L134.74032432471878,164.60458349328547L135.33893642028193,165.51896453106244L135.54614829951532,163.61997796546984L135.89150143157102,174.59871384471822L136.0526662265303,173.84675824523302L136.1908074793526,155.68338778244453L136.28290164790076,174.9445829208117L136.3059251900378,161.63475046803248L136.74337249064166,160.19861814179373L136.8124431170528,165.1032695535202L136.95058436987506,159.7389573142696L137.64129063398642,164.17008430536268L137.77943188680868,164.78924170929787L138.12478501886434,164.02837724330524L138.17083210313845,172.40529611935347L138.56223231946822,157.98038915853803L138.58525586160525,167.79954499787223L139.0227031622091,169.69670205359478L139.04572670434615,159.37962088210165L139.11479733075728,171.70139337261904L139.32200920999068,172.86209510431735L139.5752681734982,159.42894945349576L140.1508567269243,167.5077264158195L140.21992735333544,167.64012602277955L140.47318631684294,160.29972325344403L140.54225694325407,154.25910494236942L140.58830402752815,159.16382572497142L140.63435111180226,162.8326726138999L140.9106336174468,174.6555615135539L141.30203383377653,169.790014111634L141.7855282186545,160.3318172774888L141.9466930136138,166.10783625682706L142.13088135071015,167.4229575574692L142.22297551925834,168.17160804625723L142.38414031421766,171.66373439342323L142.40716385635469,172.23681307511657L142.43018739849174,159.79288787900015L142.6604228198622,170.96941893684343L143.25903491542536,166.14212075445016L143.3741526261106,166.11063813473217L143.7425293003033,169.77685128194537L143.9957882638108,171.50397561861817L144.08788243235898,169.5700731628573L144.11090597449603,170.41525616439802L144.29509431159238,162.78501364662887L144.3641649380035,173.453470060489L144.43323556441467,164.72946517858148L144.50230619082578,164.11360935801082L144.7095180700592,162.51256717551405L144.80161223860736,166.06677810472993L144.96277703356668,167.77667847605136L144.98580057570373,161.56428376781818L145.12394182852597,154.5305308385696L145.26208308134827,159.9998670560495L145.30813016562237,168.98637015520893L145.37720079203348,167.10111314408474L146.18302476683007,160.65874457722822L146.4593072724746,151.55923279448746L146.89675457307845,169.2362264122275L146.94280165735253,170.7734720805594L147.3802489579564,167.51940306268307L147.42629604223046,159.70270809235802L147.8867668849714,171.3703061719025L148.43933189626046,162.8353298711662L148.50840252267162,161.3329424799025L148.8077085704532,173.8685559852596L148.99189690754955,169.59814602767605L149.19910878678294,168.0995046636913L149.26817941319408,162.5126236128365L149.31422649746816,173.19695772675158L149.3372500396052,157.67458587828818L149.65957962952385,169.66508186790327L150.35028589363517,148.50358211730827L150.48842714645747,166.42887173525608L150.5574977728686,173.73254909277165L150.7186625678279,174.2825872375665L151.01796861560948,167.59876216851907L151.06401569988358,174.04275448417417L151.08703924202064,167.04290980373221L151.24820403697993,173.62318531959986L151.66262779544675,170.22848742768073L152.19216926459876,145.1331170007248L152.30728697528397,160.8743327975094L152.7677578180249,166.08079219736584L152.81380490229898,171.27720340226747L152.95194615512125,162.45213691247903L153.55055825068442,181.1400758267426L153.66567596136966,149.80032601482105L153.96498200915124,163.13469694509934L154.0570761776994,164.35799942519262L154.47149993616623,169.33349378594986L154.65568827326257,154.39742576507865L155.18522974241458,164.3395138505285L155.25430036882574,160.83436106386986L155.27732391096276,156.9001529393517L155.36941807951095,167.5628562736525L155.392441621648,172.72295711620984L155.99105371721117,165.61459051932295L156.5205951863632,167.73456917882328L156.8199012341448,173.94744125274235L157.1882779083375,172.0742159733023L157.44153687184502,171.59927356494183L157.8099135460377,170.4165518712597L158.13224313595634,168.22619469486145L158.15526667809337,168.59987326160217L158.6157375208343,171.9955752675502L159.16830253212336,175.25153023261913L159.21434961639747,168.59987561315728L159.53667920631608,169.81735564281573L159.97412650691993,153.9091159417356L159.99715004905698,172.3195266743069L160.0431971333311,173.81113218542367L160.15831484401627,173.7422880582304L161.01018590308695,167.22731757912615L161.17135069804627,169.90868416412562L161.26344486659443,155.52776656884308L161.40158611941672,170.07583152506407L161.53972737223896,163.10700032909708L161.6548450829242,171.24284600643617L161.72391570933536,176.276996969792L161.76996279360944,168.09464870240376L162.1153159256651,162.48547726072832L162.32252780489853,146.55018056663394L162.50671614199487,174.80409866740777L162.89811635832464,151.3131942871785L163.01323406900985,164.62419311128878L163.05928115328393,171.32914807871356L163.33556365892846,151.76331720720515L163.38161074320257,168.46728200290121L163.51975199602487,169.45869528273985L163.7960345016694,166.1124888085982L163.9111522123546,164.95125444966908L164.14138763372503,173.8765547999422L164.3716230550955,178.22503344749904L165.01628223493273,170.79042561707396L165.06232931920684,171.87800691862432L165.15442348775503,162.8747795595729L165.49977661981072,173.07691319030232L166.44374184742952,159.0623208489536L166.51281247384065,166.8946148600539L166.92723623230748,168.76542156507062L167.34165999077428,173.21777957141046L167.73306020710405,179.40173516011762L167.80213083351518,161.57653772145954L167.9172485442004,167.80053735412565L168.03236625488563,163.4778170532775L168.44679001335246,173.67295715913082L168.46981355548948,171.49637421674797L168.86121377181925,170.69043043943225L168.93028439823038,170.79011286024527L169.09144919318967,156.40469909160592L169.7130848308899,164.4975618689962L169.759131915164,169.91554717769353L169.9202967101233,164.34829220572774L170.33472046859012,168.5574265162168L170.3807675528642,155.48281188994042L170.54193234782352,172.590402306613L170.74914422705695,166.13132829230528L170.97937964842737,172.9014777734036L171.00240319056442,174.18408647319268L171.23263861193487,159.84299246357818L171.32473278048306,160.27062275904535L171.3477563226201,173.36685052827272L171.78520362322394,170.2735796725569L171.90032133390918,170.81115692686137L171.94636841818325,175.36613738578166L172.03846258673144,160.42179012728184L172.24567446596484,172.04387620936433L172.66009822443166,168.8608159251535L173.12056906717254,173.58508189648958L173.23568677785778,165.57981924979353L173.44289865709118,172.59869036257325L173.58103990991344,169.77944387144635L173.6040634520505,169.1506662555851L173.69615762059865,173.84730498179445L173.7652282470098,159.10176113113988L174.27174617402477,172.70852914987583L174.6861699324916,163.3788847785423L174.77826410103978,160.44880949541448L174.893381811725,161.29347633061008L175.05454660668434,173.29557606888056L175.2617584859177,154.3632388569923L175.30780557019182,163.7938684106659L175.53804099156227,149.71565357023L175.67618224438453,173.80943083530673L175.7222293286586,162.05325672970028L175.86037058148088,169.22475905376808L175.906417665755,176.91162760630445L175.95246475002907,166.6881918257864L176.22874725567362,153.42421587329179L176.27479433994768,153.58879180872518L176.32084142422178,162.70393908134528L176.8503828933738,171.7430746868184L177.05759477260722,160.94673482757338L177.12666539901838,169.3418770798918L177.49504207321107,172.8438211696125L177.72527749458152,173.15338928958212L177.74830103671854,177.80933376684658L177.79434812099265,165.7039390312362L177.93248937381495,164.29865793217027L178.07063062663718,165.3003933631332L178.23179542159653,161.80924996600024L178.3469131322817,154.1128311603021L178.50807792724106,166.75577199211185L178.6462191800633,172.93654298732088L178.94552522784488,153.84585205480155L179.54413732340805,172.32608398571142L180.0736787925601,162.31329874764717L180.16577296110827,174.55229414698644L180.18879650324533,176.61369145365146L180.34996129820462,171.05797967779716L180.7413615145344,174.3946129711148L180.9946204780419,170.69942161036826L181.24787944154937,178.8768045691567L181.40904423650872,176.41751002974593L181.54718548933096,169.72774845984117L182.09975050062005,155.91830343411664L183.36604531815752,171.7652980583186L183.4581394867057,167.15771389963462L183.7574455344873,154.9322611061331L184.01070449799477,163.8733462700346L184.10279866654292,170.15164566158242L184.28698700363933,167.48428258722086L184.31001054577635,170.06167046023424L184.4021047143245,177.32099043384326L184.60931659355793,174.65204005978725L184.632340135695,177.41309026522694L184.86257555706544,178.26193934117313L184.8855990992025,168.27823108195656L184.90862264133952,174.93919962329235L185.09281097843586,171.81873597225507L185.55328182117677,165.1435399346578L186.10584683246583,160.11548126268488L186.24398808528812,160.19756464510763L186.26701162742518,174.58662567571162L186.3360822538363,170.72008354928013L186.56631767520676,168.35908577683804L186.77352955444016,167.70777203264788L186.8426001808513,166.8227313478901L187.07283560222174,164.27250158476042L187.18795331290696,161.4369258949988L188.01680082984058,156.9244445035649L188.22401270907397,166.90072890332152L188.27005979334808,153.40880378114718L188.36215396189627,173.29930916260648L188.5002952147185,174.41618966496173L188.56936584112967,163.4745789619008L188.730530636089,164.3518689210393L188.91471897318533,177.81073705735423L188.98378959959646,162.03891459512752L189.16797793669284,178.00850754462056L189.26007210524102,171.4872431282833L189.3521662737892,169.26017347361815L189.88170774294122,173.00579393354695L189.97380191148943,172.50593091998323L190.13496670644872,150.92573795908976L190.2270608749969,172.202975372963L190.48031983850439,149.97990252025605L190.75660234414894,169.6643352491581L191.12497901834166,161.97511925674021L191.70056757176778,165.978372566413L192.04592070382344,167.49119615922345L192.36825029374205,176.21194884042364L192.55243863083845,166.0167969767948L192.7366269679348,165.28634399717077L192.87476822075706,172.58692082928312L192.89779176289412,167.03215731802408L193.28919197922386,173.6545444826749L193.49640385845726,171.365987540956L193.8187334483759,167.55636833312352L193.88780407478703,166.05557529621962L194.394322001802,162.67834710716016L194.78572221813178,179.44893851358742L195.0620047237763,174.06627826564628L195.13107535018747,173.4188410600433L195.2692166030097,173.41481637348465L195.68364036147653,139.9665670182977L195.72968744575064,176.3453008272004L196.1441112042174,169.2433363390812L196.2362053727656,177.21695939975615L196.30527599917676,163.9335931117716L196.71969975764355,165.14664869050387L196.81179392619174,166.92589524603304L196.97295872115103,178.07111064457064L197.27226476893262,171.97310145543156L197.4104060217549,173.14302245891088L197.73273561167352,168.82525570888703L198.00901811731808,162.10931545179892L198.17018291227737,178.39801384087028L198.35437124937374,165.24081671460056L198.5385595864701,172.31582767813L198.56158312860714,165.13775158177197L199.06810105562212,170.690528028969L199.1601952241703,160.9460975561405L199.48252481408895,170.19225466665483L199.75880731973348,180.8187608072007L199.78183086187053,174.51365339353515L199.94299565682982,171.67204714071207L200.26532524674846,173.33266832329656L200.40346649957075,159.01744377136936L200.56463129453005,174.00789267977328L200.61067837880412,173.00818546508663L200.81789025803752,160.912021171144L200.86393734231163,171.38969709528126L200.88696088444868,172.0079185802855L201.3244081850525,171.34910690264965L201.39347881146367,163.91987884241132L201.60069069069704,165.50822497890738L201.89999673847862,167.76736866939888L202.22232632839726,160.68638945901822L202.4525617497677,175.16444156515982L202.82093842396043,163.05416558904452L203.07419738746793,175.5570542657005L203.48862114593476,180.3032725918112L203.71885656730518,173.71966609814027L203.74188010944223,163.38361610740938L203.88002136226453,166.267820780922L204.04118615722382,176.29980235118018L204.133280325772,175.9649720626286L204.15630386790906,174.64478198496207L204.17932741004608,175.74321982853385L204.6858453370611,154.85371211103006L204.70886887919812,167.725893116271L204.80096304774628,173.59035643458546L204.8470101320204,176.97739119631288L205.05422201125378,167.5500849778885L205.14631617980197,171.50690918360908L205.81399890177627,152.89422473574936L205.83702244391333,176.43459466545747L206.04423432314672,166.9065290139829L206.11330494955786,171.05200437628062L206.27446974451715,177.0318914252671L206.5047051658876,172.002058504969L206.52772870802465,176.69222692731267L206.5507522501617,172.0380173098254L206.57377579229873,174.82410804977857L206.68889350298397,171.14320944094763L206.82703475580624,162.9889052318281L206.91912892435442,165.06637718128792L206.96517600862853,165.45847665492744L207.33355268282125,170.10482502370562L207.4716939356435,163.5444460155638L207.49471747778054,176.6913492093705L207.67890581487688,179.97002989689847L208.11635311548076,171.65719236712687L208.5077533318105,165.6720425378201L209.10636542737367,176.07742989442707L209.63590689652574,165.33344682165995L209.93521294430732,161.0532108910788L210.00428357071843,172.7393168850609L210.71801337696684,175.42531838516825L210.7410369191039,154.71193215076443L211.10941359329658,152.84071509938227L211.13243713543363,165.67691495999335L211.36267255680409,174.9225000547289L211.43174318321522,160.8247526097193L211.4777902674893,176.35974231497624L211.7310492309968,172.73154617122327L211.86919048381907,169.19828054330912L211.93826111023023,158.20243239757676L212.0303552787784,170.58902315295117L212.44477903724518,172.42845776133976L212.46780257938224,163.13798677068831L212.5598967479304,177.13520288349272L212.62896737434156,177.19931920915155L212.67501445861564,163.37866373236264L212.99734404853427,172.78010460832115L213.08943821708246,172.33494229378414L213.34269718058994,165.7158861069366L213.41176780700107,168.85916513347124L213.87223864974197,179.9293773880566L214.05642698683832,167.42791228407106L214.28666240820877,178.30388344165524L214.30968595034582,170.79941678801L214.56294491385333,172.6735474161647L215.09248638300537,170.82961075553158L215.20760409369058,166.12883094078597L215.59900431002035,174.99486210835616L216.12854577917236,158.3601206281137L216.61204016405028,176.91111673095835L216.63506370618734,174.88812972534453L216.72715787473552,165.8140435442654L216.8192520432837,172.9573730624226L217.2336758017505,174.66446802850623L217.3718170545728,171.2412904527356L217.39484059670986,163.85223871143074L218.3618293664657,166.30228046940027L218.5460177035621,172.39258713979973L218.73020604065843,171.3413832199141L218.75322958279548,178.205058750566L219.14462979912525,159.14442304381717L219.44393584690684,178.23966835068208L219.536030015455,179.04708596515857L219.78928897896247,168.7335791574219L220.06557148460703,173.2132069725128L220.13464211101817,170.42076115489394L220.18068919529227,172.82903929423549L220.27278336384046,166.7920024015826L220.4569717009368,160.7199579081125L221.8383842291595,162.4411857203647L221.97652548198178,173.34167948245099L221.9995490241188,170.29424043569122L222.0455961083929,174.99788503244096L222.39094924044855,171.08110251912424L222.5521140354079,173.52699730966975L223.0816555045599,174.89992336207447L223.17374967310812,163.04102274757426L223.4270086366156,178.0011007339351L223.49607926302673,168.4197347344976L223.88747947935647,170.65684670522978L224.02562073217877,171.23030398729472L224.32492677996035,171.47357118691488L224.78539762270123,165.84257143499653L224.99260950193462,177.31368238847216L225.31493909185326,173.06939291708315L225.36098617612734,165.56909498274663L225.40703326040145,163.8308959973166L225.61424513963485,171.67404125943935L225.82145701886827,175.1856349555249L226.00564535596462,163.05297570216243L226.4661161987055,171.13548105510188L226.5121632829796,172.64142870079138L226.58123390939073,172.27582537427412L226.62728099366484,175.09447280673857L226.76542224648708,159.68707495403376L227.04170475213164,164.8197202149869L227.06472829426866,171.64764622918656L227.225893089228,168.03460409440564L227.2949637156391,166.87550612328755L227.41008142632435,164.35511641863644L227.57124622128364,173.85947545522964L227.61729330555775,180.52146280781378L228.79149395454704,160.82935695461083L229.0447529180545,169.6172018544526L229.11382354446567,178.0050031396284L229.22894125515091,175.9118357356341L229.5973179293436,163.79887487148002L229.6894120978918,161.73170743648123L229.71243564002884,173.63436931566935L229.75848272430292,172.11868740763128L229.82755335071408,175.74676832518418L229.98871814567337,180.21997080990073L230.08081231422156,172.68582488535708L230.17290648276972,173.095103644801L230.38011836200315,175.40743304494416L230.4031419041402,177.45940825820054L230.5182596148254,178.3780644231546L230.6103537833736,173.1803251775086L230.63337732551062,175.39990160183828L230.97873045756631,168.22209828587216L231.6924602638147,166.9672038387486L231.96874276945923,179.51051457184636L232.12990756441855,167.47665179091186L232.24502527510376,170.31278715078798L232.5673548650224,170.13338348465308L232.7745667442558,163.3811963572085L233.11991987631146,172.70467965417234L233.37317883981896,170.74289833688874L233.53434363477828,175.33866181595909L233.55736717691533,175.1673463236007L233.62643780332644,177.55791901668354L233.76457905614873,164.79648214745978L234.63947365735643,164.10499326011367L234.7085442837676,169.50522785511654L234.75459136804167,164.49192519141448L234.82366199445278,174.85298691010885L234.84668553658983,173.58713715564954L234.93877970513802,173.86092871628324L235.67553305352345,175.43637363359588L235.99786264344206,170.90340373043898L236.61949828114228,180.61980778166202L236.75763953396458,173.1982898827174L236.84973370251274,161.42810991491794L237.26415746097956,165.84253498589246L237.37927517166477,179.8055350901161L237.72462830372044,174.90203858588958L237.79369893013157,177.52668742547277L237.86276955654273,174.47743003872966L238.34626394142066,162.19009842424975L238.59952290492814,161.29368797056935L238.89882895270972,174.30700108264512L238.92185249484677,172.47933953487933L239.15208791621723,176.51530650336645L239.22115854262836,169.2223146122386L239.31325271117655,171.39537610085483L239.7046529275063,162.00936260214905L239.7507000117804,171.2795643635908L239.81977063819153,166.1049885235974L240.30326502306946,166.38719042105672L240.34931210734356,170.45505976184768L240.4644298180288,169.59593321432416L240.71768878153628,164.97432085367367L240.90187711863263,174.73911109058332L240.9939712871808,176.4384847254865L241.38537150351058,167.65479855084425L241.52351275633285,176.54055985361677L241.7537481777033,166.180442872185L241.79979526197738,166.26470379463305L241.93793651479967,177.4513371331985L242.05305422548489,168.18141638259152L242.1681719361701,155.74481040173296L242.23724256258126,177.4169362335978L242.5825956946369,167.6895909843696L242.60561923677395,165.98354598763942L243.22725487447417,166.68810834558025L243.41144321157054,175.17701356662883L243.641678632941,167.85420101735198L243.71074925935213,152.58691646023362L243.89493759644847,161.9824161322246L244.3784319813264,177.83018089072277L244.5165732341487,178.11123816873575L244.76983219765617,170.3107224854076L244.79285573979323,171.08732120659394L245.52960908817866,170.46204740783602L245.55263263031568,174.08221122724618L245.69077388313798,176.4933159358214L246.88799807426432,175.59082142120099L246.93404515853837,171.82861720679756L247.09520995349772,162.43855903331473L247.16428057990885,161.67899968040425L247.32544537486817,177.51268626638998L247.94708101256836,178.78696340644942L248.4305753974463,163.8820070474787L248.66081081881674,169.49574285760892L249.02918749300946,178.21883651191402L249.07523457728357,170.17687902361436L249.12128166155767,180.27338550223052L249.23639937224286,171.3666542068277L249.97315272062832,167.19589962717347L250.08827043131353,165.74414239305335L250.34152939482104,172.28721395563758L250.3645529369581,169.5581331418222L250.38757647909512,177.66655204410708L250.45664710550625,170.32063781749912L250.6868825268767,170.07002553551493" style="fill: none;" fill="none"></path></g></g></g></g></g></g><g transform="translate(41, 177)" clip-path="url(#clip_1)"><clipPath id="clip_1"><rect width="288" height="23"></rect></clipPath><g><g><line x1="11.725538686488072" y1="0" x2="11.725538686488072" y2="5" style="visibility: inherit;" fill="rgb(0, 0, 0)" stroke="rgb(204, 204, 204)" stroke-width="1px"></line><line x1="34.749080823532935" y1="0" x2="34.749080823532935" y2="5" style="visibility: inherit;" fill="rgb(0, 0, 0)" stroke="rgb(204, 204, 204)" stroke-width="1px"></line><line x1="57.77262296057779" y1="0" x2="57.77262296057779" y2="5" style="visibility: inherit;" fill="rgb(0, 0, 0)" stroke="rgb(204, 204, 204)" stroke-width="1px"></line><line x1="80.79616509762265" y1="0" x2="80.79616509762265" y2="5" style="visibility: inherit;" fill="rgb(0, 0, 0)" stroke="rgb(204, 204, 204)" stroke-width="1px"></line><line x1="103.81970723466752" y1="0" x2="103.81970723466752" y2="5" style="visibility: inherit;" fill="rgb(0, 0, 0)" stroke="rgb(204, 204, 204)" stroke-width="1px"></line><line x1="126.84324937171237" y1="0" x2="126.84324937171237" y2="5" style="visibility: inherit;" fill="rgb(0, 0, 0)" stroke="rgb(204, 204, 204)" stroke-width="1px"></line><line x1="149.86679150875725" y1="0" x2="149.86679150875725" y2="5" style="visibility: inherit;" fill="rgb(0, 0, 0)" stroke="rgb(204, 204, 204)" stroke-width="1px"></line><line x1="172.8903336458021" y1="0" x2="172.8903336458021" y2="5" style="visibility: inherit;" fill="rgb(0, 0, 0)" stroke="rgb(204, 204, 204)" stroke-width="1px"></line><line x1="195.913875782847" y1="0" x2="195.913875782847" y2="5" style="visibility: inherit;" fill="rgb(0, 0, 0)" stroke="rgb(204, 204, 204)" stroke-width="1px"></line><line x1="218.93741791989183" y1="0" x2="218.93741791989183" y2="5" style="visibility: inherit;" fill="rgb(0, 0, 0)" stroke="rgb(204, 204, 204)" stroke-width="1px"></line><line x1="241.96096005693673" y1="0" x2="241.96096005693673" y2="5" style="visibility: inherit;" fill="rgb(0, 0, 0)" stroke="rgb(204, 204, 204)" stroke-width="1px"></line><line x1="264.98450219398154" y1="0" x2="264.98450219398154" y2="5" style="visibility: inherit;" fill="rgb(0, 0, 0)" stroke="rgb(204, 204, 204)" stroke-width="1px"></line><line x1="288.00804433102644" y1="0" x2="288.00804433102644" y2="5" style="visibility: inherit;" fill="rgb(0, 0, 0)" stroke="rgb(204, 204, 204)" stroke-width="1px"></line></g><g transform="translate(0, 8)"><text x="11.725538686488072" y="0" dx="0em" dy="0.95em" style="text-anchor: middle; visibility: inherit; font-family: Roboto, sans-serif; font-size: 12px; font-weight: 200;" fill="rgb(33, 33, 33)" stroke="none" stroke-width="1px">-1k</text><text x="34.749080823532935" y="0" dx="0em" dy="0.95em" style="text-anchor: middle; visibility: inherit; font-family: Roboto, sans-serif; font-size: 12px; font-weight: 200;" fill="rgb(33, 33, 33)" stroke="none" stroke-width="1px">0</text><text x="57.77262296057779" y="0" dx="0em" dy="0.95em" style="text-anchor: middle; visibility: inherit; font-family: Roboto, sans-serif; font-size: 12px; font-weight: 200;" fill="rgb(33, 33, 33)" stroke="none" stroke-width="1px">1k</text><text x="80.79616509762265" y="0" dx="0em" dy="0.95em" style="text-anchor: middle; visibility: inherit; font-family: Roboto, sans-serif; font-size: 12px; font-weight: 200;" fill="rgb(33, 33, 33)" stroke="none" stroke-width="1px">2k</text><text x="103.81970723466752" y="0" dx="0em" dy="0.95em" style="text-anchor: middle; visibility: inherit; font-family: Roboto, sans-serif; font-size: 12px; font-weight: 200;" fill="rgb(33, 33, 33)" stroke="none" stroke-width="1px">3k</text><text x="126.84324937171237" y="0" dx="0em" dy="0.95em" style="text-anchor: middle; visibility: inherit; font-family: Roboto, sans-serif; font-size: 12px; font-weight: 200;" fill="rgb(33, 33, 33)" stroke="none" stroke-width="1px">4k</text><text x="149.86679150875725" y="0" dx="0em" dy="0.95em" style="text-anchor: middle; visibility: inherit; font-family: Roboto, sans-serif; font-size: 12px; font-weight: 200;" fill="rgb(33, 33, 33)" stroke="none" stroke-width="1px">5k</text><text x="172.8903336458021" y="0" dx="0em" dy="0.95em" style="text-anchor: middle; visibility: inherit; font-family: Roboto, sans-serif; font-size: 12px; font-weight: 200;" fill="rgb(33, 33, 33)" stroke="none" stroke-width="1px">6k</text><text x="195.913875782847" y="0" dx="0em" dy="0.95em" style="text-anchor: middle; visibility: inherit; font-family: Roboto, sans-serif; font-size: 12px; font-weight: 200;" fill="rgb(33, 33, 33)" stroke="none" stroke-width="1px">7k</text><text x="218.93741791989183" y="0" dx="0em" dy="0.95em" style="text-anchor: middle; visibility: inherit; font-family: Roboto, sans-serif; font-size: 12px; font-weight: 200;" fill="rgb(33, 33, 33)" stroke="none" stroke-width="1px">8k</text><text x="241.96096005693673" y="0" dx="0em" dy="0.95em" style="text-anchor: middle; visibility: inherit; font-family: Roboto, sans-serif; font-size: 12px; font-weight: 200;" fill="rgb(33, 33, 33)" stroke="none" stroke-width="1px">9k</text><text x="264.98450219398154" y="0" dx="0em" dy="0.95em" style="text-anchor: middle; visibility: inherit; font-family: Roboto, sans-serif; font-size: 12px; font-weight: 200;" fill="rgb(33, 33, 33)" stroke="none" stroke-width="1px">10k</text><text x="288.00804433102644" y="0" dx="0em" dy="0.95em" style="text-anchor: middle; visibility: hidden; font-family: Roboto, sans-serif; font-size: 12px; font-weight: 200;" fill="rgb(33, 33, 33)" stroke="none" stroke-width="1px">11k</text></g><line x1="0" y1="0" x2="288.828125" y2="0" fill="rgb(0, 0, 0)" stroke="rgb(204, 204, 204)" stroke-width="1px"></line></g></g></g></g></svg>